<svg xmlns="http://www.w3.org/2000/svg" width="24" height="24" version="1.1" viewBox="0 0 24 24"><title>GV</title><desc>Created with Sketch.</desc><g fill="none" fill-rule="evenodd" stroke="none" stroke-width="1"><g id="1600_3_2_wallet"><g transform="translate(-155.000000, -581.000000) translate(155.000000, 581.000000)"><g id="logo/Ethereum"><path fill="#505050" fill-rule="nonzero" d="M23.9348882,12.0002175 C23.9348882,18.5927492 18.590719,23.9370634 11.9982598,23.9370634 C5.4057281,23.9370634 0.0614864048,18.5927492 0.0614864048,12.0002175 C0.0614864048,5.40775831 5.4057281,0.0635166163 11.9982598,0.0635166163 C18.5906465,0.0635166163 23.9348882,5.40775831 23.9348882,12.0002175" opacity=".2"/><g id="Group" fill="#FFF" fill-rule="evenodd" stroke-width="1" opacity=".8" transform="translate(8.584615, 6.461538)"><polygon fill-rule="nonzero" points="3.375 0 3.302 .251 3.302 7.522 3.375 7.596 6.751 5.601"/><polygon fill-rule="nonzero" points="3.375 0 0 5.601 3.375 7.596 3.375 4.067"/><polygon fill-rule="nonzero" points="3.375 8.694 3.334 8.745 3.334 11.335 3.375 11.457 6.753 6.7"/><polygon fill-rule="nonzero" points="3.375 11.457 3.375 8.694 0 6.7"/><polygon fill-rule="nonzero" points="3.375 7.596 6.751 5.601 3.375 4.067"/><polygon fill-rule="nonzero" points="0 5.601 3.375 7.596 3.375 4.067"/></g></g></g></g></g></svg>