<svg width="260" height="200" viewBox="0 0 260 200" fill="none" xmlns="http://www.w3.org/2000/svg">
<mask id="mask0" mask-type="alpha" maskUnits="userSpaceOnUse" x="0" y="0" width="260" height="200">
<rect width="260" height="200" rx="20" fill="#F7F7F7"/>
</mask>
<g mask="url(#mask0)">
<path d="M247.758 60.7496L246.026 59.7496C245.474 60.7062 245.802 61.9294 246.758 62.4817L247.758 60.7496ZM251.509 54.2539L253.241 55.2539C253.793 54.2974 253.465 53.0742 252.509 52.5219L251.509 54.2539ZM265.078 70.7491L266.81 71.7491C267.362 70.7925 267.035 69.5693 266.078 69.017L265.078 70.7491ZM253.828 90.2343L252.828 91.9664C253.288 92.2316 253.833 92.3035 254.346 92.1662C254.858 92.0289 255.295 91.6937 255.56 91.2343L253.828 90.2343ZM214.858 67.7347L215.858 66.0026C214.901 65.4503 213.678 65.7781 213.126 66.7347L214.858 67.7347ZM211.108 74.2298L209.376 73.2298C209.11 73.6891 209.039 74.235 209.176 74.7474C209.313 75.2598 209.648 75.6966 210.108 75.9618L211.108 74.2298ZM209.588 136.86L208.588 138.592L209.588 136.86ZM205.26 134.361L206.26 132.629C205.801 132.364 205.255 132.292 204.742 132.429C204.23 132.567 203.793 132.902 203.528 133.361L205.26 134.361ZM201.511 140.855L200.511 142.587C200.97 142.853 201.516 142.924 202.028 142.787C202.541 142.65 202.977 142.315 203.243 141.855L201.511 140.855ZM179.86 128.355L178.128 127.355C177.576 128.312 177.904 129.535 178.86 130.087L179.86 128.355ZM183.61 121.861L185.342 122.861C185.894 121.905 185.566 120.682 184.61 120.129L183.61 121.861ZM168.453 113.111L166.721 112.111C166.456 112.57 166.384 113.116 166.521 113.628C166.658 114.141 166.993 114.577 167.453 114.843L168.453 113.111ZM179.703 93.6253L180.703 91.8933C179.746 91.341 178.523 91.6687 177.971 92.6253L179.703 93.6253ZM216.508 114.875L215.508 116.607C216.465 117.159 217.688 116.832 218.24 115.875L216.508 114.875ZM220.258 108.38L221.99 109.38C222.255 108.921 222.327 108.375 222.19 107.862C222.053 107.35 221.718 106.913 221.258 106.648L220.258 108.38ZM196.443 94.6301L195.443 96.3621L196.443 94.6301ZM188.207 63.895L186.475 62.895L188.207 63.895ZM193.207 55.2349L194.939 56.2349L193.207 55.2349ZM226.108 48.2498L225.108 49.9819C226.065 50.5341 227.288 50.2064 227.84 49.2498L226.108 48.2498ZM229.858 41.7541L230.858 40.0221C229.902 39.4698 228.679 39.7975 228.126 40.7541L229.858 41.7541ZM249.491 61.7496L253.241 55.2539L249.777 53.2539L246.026 59.7496L249.491 61.7496ZM266.078 69.017L248.758 59.0176L246.758 62.4817L264.078 72.4811L266.078 69.017ZM255.56 91.2343L266.81 71.7491L263.346 69.7491L252.096 89.2343L255.56 91.2343ZM213.858 69.4667L252.828 91.9664L254.828 88.5023L215.858 66.0026L213.858 69.4667ZM212.84 75.2298L216.59 68.7347L213.126 66.7347L209.376 73.2298L212.84 75.2298ZM238.088 87.4975L212.108 72.4977L210.108 75.9618L236.088 90.9616L238.088 87.4975ZM244.891 119.715C248.194 113.993 249.503 107.699 248.457 101.911C247.403 96.0815 243.977 90.8977 238.088 87.4975L236.088 90.9616C240.96 93.7745 243.676 97.9525 244.521 102.622C245.372 107.333 244.336 112.674 241.426 117.715L244.891 119.715ZM239.891 128.375L244.891 119.715L241.426 117.715L236.426 126.375L239.891 128.375ZM208.588 138.592C214.478 141.992 220.68 142.367 226.255 140.365C231.791 138.377 236.587 134.096 239.891 128.375L236.426 126.375C233.516 131.415 229.409 134.983 224.903 136.601C220.437 138.204 215.461 137.941 210.588 135.128L208.588 138.592ZM204.26 136.093L208.588 138.592L210.588 135.128L206.26 132.629L204.26 136.093ZM203.528 133.361L199.779 139.855L203.243 141.855L206.992 135.361L203.528 133.361ZM202.511 139.123L180.86 126.623L178.86 130.087L200.511 142.587L202.511 139.123ZM181.592 129.355L185.342 122.861L181.878 120.861L178.128 127.355L181.592 129.355ZM167.453 114.843L182.61 123.593L184.61 120.129L169.453 111.379L167.453 114.843ZM177.971 92.6253L166.721 112.111L170.185 114.111L181.435 94.6253L177.971 92.6253ZM217.508 113.143L180.703 91.8933L178.703 95.3574L215.508 116.607L217.508 113.143ZM218.526 107.38L214.776 113.875L218.24 115.875L221.99 109.38L218.526 107.38ZM195.443 96.3621L219.258 110.112L221.258 106.648L197.443 92.898L195.443 96.3621ZM186.475 62.895C179.71 74.613 183.725 89.5968 195.443 96.3621L197.443 92.898C187.638 87.2372 184.279 74.6998 189.939 64.895L186.475 62.895ZM191.475 54.2349L186.475 62.895L189.939 64.895L194.939 56.2349L191.475 54.2349ZM224.942 45.2674C213.224 38.502 198.241 42.5168 191.475 54.2349L194.939 56.2349C200.6 46.43 213.138 43.0706 222.942 48.7315L224.942 45.2674ZM227.108 46.5178L224.942 45.2674L222.942 48.7315L225.108 49.9819L227.108 46.5178ZM228.126 40.7541L224.376 47.2498L227.84 49.2498L231.59 42.7541L228.126 40.7541ZM252.509 52.5219L230.858 40.0221L228.858 43.4862L250.509 55.986L252.509 52.5219Z" fill="#DB2A7C"/>
<g opacity="0.3">
<path d="M54.56 41.5769L45.6665 26.7772C44.3991 25.3547 42.2393 24.1216 39.0356 26.0452C39.0681 25.8794 33.2953 29.4995 33.2953 29.4995L28.2185 21.0549L39.1276 14.5052L39.1528 14.5448C40.7916 13.5587 42.4538 12.5166 44.1449 11.4529L36.3439 -1.53668L44.2477 -6.28541L51.8972 6.44821C53.9831 5.13753 56.0835 3.81959 58.1622 2.5702L50.5613 -10.0786L58.4686 -14.8309L66.275 -1.83956C77.0201 -7.07866 86.9917 -8.79677 93.5198 0.0282239C98.3082 6.47885 97.9134 12.3147 94.7313 17.4042C103.367 14.6819 110.791 16.326 115.899 26.9394C122.245 40.1183 114.952 49.0587 102.116 57.8098L109.994 70.9274L102.087 75.6797L94.3149 62.737C92.2669 63.9702 90.1575 65.2141 87.9616 66.4725L95.7734 79.4729L87.8733 84.2181L79.9749 71.0806C78.1179 72.1804 76.2142 73.2801 74.2977 74.4285L64.007 80.6124L59.9037 70.2243C59.9037 70.2243 65.8081 66.8006 65.653 66.7718C67.8886 65.4232 67.5154 63.46 67.0502 62.3675L54.5943 41.6327M99.3376 34.7711C105.242 44.5877 87.7578 53.5731 82.4016 56.7984L71.9432 39.3882C77.3049 36.1683 93.1845 24.5291 99.3376 34.7711ZM80.9016 12.4192C86.2669 21.3542 71.6187 28.7369 67.1548 31.4196L57.6682 15.6301C62.1321 12.9475 75.3019 3.10207 80.9016 12.4192Z" stroke="#DB2A7C" stroke-width="4" stroke-linecap="round" stroke-linejoin="round"/>
</g>
</g>
</svg>
