<?xml version="1.0" encoding="UTF-8"?>
<svg width="95px" height="96px" viewBox="0 0 95 96" version="1.1" xmlns="http://www.w3.org/2000/svg" xmlns:xlink="http://www.w3.org/1999/xlink">
    <!-- Generator: sketchtool 49.1 (51147) - http://www.bohemiancoding.com/sketch -->
    <title>49B7FDE3-5330-4CAB-8C79-CDF128157629</title>
    <desc>Created with sketchtool.</desc>
    <defs></defs>
    <g id="Genesis-WebApp" stroke="none" stroke-width="1" fill="none" fill-rule="evenodd">
        <g id="Dashboard-Programs" transform="translate(-733.000000, -391.000000)">
            <g id="Dashboard" transform="translate(166.000000, 164.000000)">
                <g id="Investors" transform="translate(426.000000, 128.000000)">
                    <g transform="translate(141.000000, 102.000000)">
                        <path d="M48.9832131,67.5 L0,67.5 L0,28.5 L84.4590164,28.5 L84.4590164,67.5 L82.9508197,60 L82.9508197,43.5 L82.9508197,34.5 L78.4262295,33 C76.4153005,35 75.4098361,36 75.4098361,36 C75.4098361,36 72.3934426,40.5 72.3934426,40.5 C72.3934426,40.5 72.3934426,42 72.3934426,45 C71.3879781,48 70.8852459,49.5 70.8852459,49.5 C70.8852459,49.5 70.3825137,50.5 69.3770492,52.5 C66.3606557,53.5 64.852459,54 64.852459,54 C64.852459,54 63.3442623,57 61.8360656,57 C60.3278689,57 60.3278689,58.5 58.8196721,58.5 C57.3114754,58.5 54.295082,61.5 54.295082,63 C54.295082,64 54.295082,65 54.295082,66 L54.295082,67.5" id="Shape" fill="#B2EAE7" opacity="0.5"></path>
                        <polyline id="Shape" stroke="#16B7AD" stroke-width="4.5" points="56.5241967 60 7.54098361 60 7.54098361 21 92 21 92 60 82.9508197 60"></polyline>
                        <path d="M25.6393443,21 L25.6393443,12 C25.6393443,8.6865 28.3405246,6 31.6721311,6 C35.0037377,6 37.704918,8.6865 37.704918,12 L37.704918,21" id="Shape" stroke="#16B7AD" stroke-width="4.5" stroke-linecap="square"></path>
                        <path d="M37.704918,21 L37.704918,9 C37.704918,5.6865 40.4060984,3 43.7377049,3 C47.0693115,3 49.7704918,5.6865 49.7704918,9 L49.7704918,21" id="Shape" stroke="#16B7AD" stroke-width="4.5" stroke-linecap="square"></path>
                        <path d="M49.7704918,21 L49.7704918,6 C49.7704918,2.6865 52.4716721,0 55.8032787,0 C59.1348852,0 61.8360656,2.6865 61.8360656,6 L61.8360656,21" id="Shape" stroke="#16B7AD" stroke-width="4.5" stroke-linecap="square"></path>
                        <path d="M61.8360656,21 L61.8360656,9 C61.8360656,5.6865 64.5372459,3 67.8688525,3 C71.200459,3 73.9016393,5.6865 73.9016393,9 L73.9016393,21" id="Shape" stroke="#16B7AD" stroke-width="4.5" stroke-linecap="square"></path>
                        <ellipse id="Oval" stroke="#16B7AD" stroke-width="4.5" stroke-linecap="square" cx="49.7704918" cy="40.5" rx="7.54098361" ry="7.5"></ellipse>
                        <path d="M31.6721311,33 L19.6065574,33" id="Shape" stroke="#16B7AD" stroke-width="4.5" stroke-linecap="square"></path>
                        <path d="M25.6393443,60 L25.6393443,61.5 C25.6393443,77.2395 38.4695738,90 54.295082,90 C70.1205902,90 82.9508197,77.2395 82.9508197,61.5 L82.9508197,60 L82.9508197,33 C76.1352787,33 70.8852459,38.2215 70.8852459,45 L70.8852459,54 C61.5841967,54 52.7868852,60.4995 52.7868852,69" id="Shape" stroke="#16B7AD" stroke-width="4.5" stroke-linecap="square"></path>
                    </g>
                </g>
            </g>
        </g>
    </g>
</svg>