<svg xmlns="http://www.w3.org/2000/svg" width="1363" height="352" fill="none" viewBox="0 0 1363 352"><rect width="1360" height="350" x="1.028" y="1" stroke="#FF3190" stroke-width="2" opacity=".01" rx="8"/><mask id="mask0" width="1363" height="352" x="0" y="0" maskUnits="userSpaceOnUse"><rect width="1360" height="350" x="1.028" y="1" fill="#fff" stroke="#fff" stroke-width="2" rx="8"/></mask><g mask="url(#mask0)"><path stroke="url(#paint0_linear)" stroke-width="2" d="M122.673 148.017C216.959 148.017 216.959 226.168 311.244 226.168C405.53 226.168 405.53 253.751 499.816 253.751C594.101 253.751 594.101 220.039 688.387 220.039C782.673 220.039 782.673 259.88 876.959 259.88C971.244 259.88 971.244 215.442 1065.53 215.442C1159.82 215.442 1159.82 236.895 1254.1 236.895C1348.39 236.895 1348.39 256.815 1442.67 256.815" opacity=".781"/><path stroke="url(#paint1_linear)" stroke-width="2" d="M-2.32715 290.969C96.1729 290.969 96.1729 178.9 194.673 178.9C293.173 178.9 293.173 240.307 391.673 240.307C490.173 240.307 490.173 246.448 588.673 246.448C687.173 246.448 687.173 342.233 785.673 342.233C884.173 342.233 884.173 221.885 982.673 221.885C1081.17 221.885 1081.17 240.307 1179.67 240.307C1278.17 240.307 1278.17 283.293 1376.67 283.293" opacity=".781"/><path stroke="url(#paint2_linear)" stroke-width="2" d="M174.673 155.254C268.959 155.254 268.959 251.918 363.244 251.918C457.53 251.918 457.53 85.5665 551.816 85.5665C646.101 85.5665 646.101 146.048 740.387 146.048C834.673 146.048 834.673 294.88 928.959 294.88C1023.24 294.88 1023.24 267.262 1117.53 267.262C1211.82 267.262 1211.82 149.117 1306.1 149.117C1400.39 149.117 1400.39 233.506 1494.67 233.506" opacity=".3"/><path stroke="url(#paint3_linear)" stroke-width="2" d="M-1.8595 214.365C95.7119 214.365 95.7119 177.365 193.283 177.365C290.855 177.365 290.855 260.615 388.426 260.615C485.998 260.615 485.998 188.157 583.569 188.157C681.141 188.157 681.14 291.449 778.712 291.449C876.283 291.449 876.283 194.323 973.855 194.323C1071.43 194.323 1071.43 129.488 1169 129.488C1266.57 129.488 1266.57 280.657 1364.14 280.657" opacity=".781"/><path fill="url(#paint4_linear)" fill-rule="evenodd" d="M-1.20266 214.354C96.3933 214.354 96.3933 177.348 193.989 177.348C291.585 177.348 291.585 260.611 389.181 260.611C486.777 260.611 486.777 188.142 584.373 188.142C681.969 188.142 681.969 291.449 779.565 291.449C877.161 291.449 877.161 194.309 974.757 194.309C1072.35 194.309 1072.35 129.464 1169.95 129.464C1267.54 129.464 1365.14 27.9194 1365.14 27.9194H-13.8595L-1.20266 214.354Z" clip-rule="evenodd" opacity=".1"/></g><path fill="#DB2A7C" d="M873.205 304.184C944.176 304.184 1001.71 246.727 1001.71 175.851C1001.71 104.974 944.176 47.5175 873.205 47.5175C802.234 47.5175 744.701 104.974 744.701 175.851C744.701 246.727 802.234 304.184 873.205 304.184Z" opacity=".01"/><mask id="mask1" width="258" height="258" x="744" y="47" maskUnits="userSpaceOnUse"><path fill="#fff" d="M873.205 304.184C944.176 304.184 1001.71 246.727 1001.71 175.851C1001.71 104.974 944.176 47.5175 873.205 47.5175C802.234 47.5175 744.701 104.974 744.701 175.851C744.701 246.727 802.234 304.184 873.205 304.184Z"/></mask><g mask="url(#mask1)"><rect width="24.732" height="24.693" x="744.516" y="48.017" fill="#D8D8D8" stroke="#979797" opacity=".01"/><path fill="#DB2A7C" fill-rule="evenodd" d="M747.692 54.8582C749.722 54.8582 751.367 53.2149 751.367 51.1878C751.367 49.1608 749.722 47.5175 747.692 47.5175C745.661 47.5175 744.016 49.1608 744.016 51.1878C744.016 53.2149 745.661 54.8582 747.692 54.8582Z" clip-rule="evenodd"/><rect width="24.732" height="24.693" x="770.247" y="48.017" fill="#D8D8D8" stroke="#979797" opacity=".01"/><path fill="#DB2A7C" fill-rule="evenodd" d="M773.423 54.8582C775.453 54.8582 777.099 53.2149 777.099 51.1878C777.099 49.1608 775.453 47.5175 773.423 47.5175C771.393 47.5175 769.747 49.1608 769.747 51.1878C769.747 53.2149 771.393 54.8582 773.423 54.8582Z" clip-rule="evenodd"/><rect width="24.732" height="24.693" x="795.979" y="48.017" fill="#D8D8D8" stroke="#979797" opacity=".01"/><path fill="#DB2A7C" fill-rule="evenodd" d="M799.154 54.8582C801.185 54.8582 802.83 53.2149 802.83 51.1878C802.83 49.1608 801.185 47.5175 799.154 47.5175C797.124 47.5175 795.479 49.1608 795.479 51.1878C795.479 53.2149 797.124 54.8582 799.154 54.8582Z" clip-rule="evenodd"/><rect width="24.732" height="24.693" x="821.71" y="48.017" fill="#D8D8D8" stroke="#979797" opacity=".01"/><path fill="#DB2A7C" fill-rule="evenodd" d="M824.886 54.8582C826.916 54.8582 828.562 53.2149 828.562 51.1878C828.562 49.1608 826.916 47.5175 824.886 47.5175C822.856 47.5175 821.21 49.1608 821.21 51.1878C821.21 53.2149 822.856 54.8582 824.886 54.8582Z" clip-rule="evenodd"/><rect width="24.732" height="24.693" x="847.441" y="48.017" fill="#D8D8D8" stroke="#979797" opacity=".01"/><path fill="#DB2A7C" fill-rule="evenodd" d="M850.617 54.8582C852.647 54.8582 854.293 53.2149 854.293 51.1878C854.293 49.1608 852.647 47.5175 850.617 47.5175C848.587 47.5175 846.941 49.1608 846.941 51.1878C846.941 53.2149 848.587 54.8582 850.617 54.8582Z" clip-rule="evenodd" opacity=".4"/><rect width="24.732" height="24.693" x="873.173" y="48.017" fill="#D8D8D8" stroke="#979797" opacity=".01"/><path fill="#DB2A7C" fill-rule="evenodd" d="M876.349 54.8582C878.379 54.8582 880.025 53.2149 880.025 51.1878C880.025 49.1608 878.379 47.5175 876.349 47.5175C874.319 47.5175 872.673 49.1608 872.673 51.1878C872.673 53.2149 874.319 54.8582 876.349 54.8582Z" clip-rule="evenodd" opacity=".4"/><rect width="24.732" height="24.693" x="898.905" y="48.017" fill="#D8D8D8" stroke="#979797" opacity=".01"/><path fill="#DB2A7C" fill-rule="evenodd" d="M902.08 54.8582C904.111 54.8582 905.756 53.2149 905.756 51.1878C905.756 49.1608 904.111 47.5175 902.08 47.5175C900.05 47.5175 898.405 49.1608 898.405 51.1878C898.405 53.2149 900.05 54.8582 902.08 54.8582Z" clip-rule="evenodd" opacity=".4"/><rect width="24.732" height="24.693" x="924.636" y="48.017" fill="#D8D8D8" stroke="#979797" opacity=".01"/><path fill="#DB2A7C" fill-rule="evenodd" d="M927.812 54.8582C929.842 54.8582 931.488 53.2149 931.488 51.1878C931.488 49.1608 929.842 47.5175 927.812 47.5175C925.782 47.5175 924.136 49.1608 924.136 51.1878C924.136 53.2149 925.782 54.8582 927.812 54.8582Z" clip-rule="evenodd"/><rect width="24.732" height="24.693" x="950.367" y="48.017" fill="#D8D8D8" stroke="#979797" opacity=".01"/><path fill="#DB2A7C" fill-rule="evenodd" d="M953.543 54.8582C955.574 54.8582 957.219 53.2149 957.219 51.1878C957.219 49.1608 955.574 47.5175 953.543 47.5175C951.513 47.5175 949.867 49.1608 949.867 51.1878C949.867 53.2149 951.513 54.8582 953.543 54.8582Z" clip-rule="evenodd"/><rect width="24.732" height="24.693" x="976.099" y="48.017" fill="#D8D8D8" stroke="#979797" opacity=".01"/><path fill="#DB2A7C" fill-rule="evenodd" d="M979.275 54.8582C981.305 54.8582 982.951 53.2149 982.951 51.1878C982.951 49.1608 981.305 47.5175 979.275 47.5175C977.245 47.5175 975.599 49.1608 975.599 51.1878C975.599 53.2149 977.245 54.8582 979.275 54.8582Z" clip-rule="evenodd"/><rect width="24.732" height="24.693" x="744.516" y="73.71" fill="#D8D8D8" stroke="#979797" opacity=".01"/><path fill="#DB2A7C" fill-rule="evenodd" d="M747.692 80.5509C749.722 80.5509 751.367 78.9076 751.367 76.8805C751.367 74.8534 749.722 73.2102 747.692 73.2102C745.661 73.2102 744.016 74.8534 744.016 76.8805C744.016 78.9076 745.661 80.5509 747.692 80.5509Z" clip-rule="evenodd"/><rect width="24.732" height="24.693" x="770.247" y="73.71" fill="#D8D8D8" stroke="#979797" opacity=".01"/><path fill="#DB2A7C" fill-rule="evenodd" d="M773.423 80.5509C775.453 80.5509 777.099 78.9076 777.099 76.8805C777.099 74.8534 775.453 73.2102 773.423 73.2102C771.393 73.2102 769.747 74.8534 769.747 76.8805C769.747 78.9076 771.393 80.5509 773.423 80.5509Z" clip-rule="evenodd"/><rect width="24.732" height="24.693" x="795.979" y="73.71" fill="#D8D8D8" stroke="#979797" opacity=".01"/><path fill="#DB2A7C" fill-rule="evenodd" d="M799.154 80.5509C801.185 80.5509 802.83 78.9076 802.83 76.8805C802.83 74.8534 801.185 73.2102 799.154 73.2102C797.124 73.2102 795.479 74.8534 795.479 76.8805C795.479 78.9076 797.124 80.5509 799.154 80.5509Z" clip-rule="evenodd" opacity=".8"/><rect width="24.732" height="24.693" x="821.71" y="73.71" fill="#D8D8D8" stroke="#979797" opacity=".01"/><path fill="#DB2A7C" fill-rule="evenodd" d="M824.886 80.5509C826.916 80.5509 828.562 78.9076 828.562 76.8805C828.562 74.8534 826.916 73.2102 824.886 73.2102C822.856 73.2102 821.21 74.8534 821.21 76.8805C821.21 78.9076 822.856 80.5509 824.886 80.5509Z" clip-rule="evenodd"/><rect width="24.732" height="24.693" x="847.441" y="73.71" fill="#D8D8D8" stroke="#979797" opacity=".01"/><path fill="#DB2A7C" fill-rule="evenodd" d="M850.617 80.5509C852.647 80.5509 854.293 78.9076 854.293 76.8805C854.293 74.8534 852.647 73.2102 850.617 73.2102C848.587 73.2102 846.941 74.8534 846.941 76.8805C846.941 78.9076 848.587 80.5509 850.617 80.5509Z" clip-rule="evenodd"/><rect width="24.732" height="24.693" x="873.173" y="73.71" fill="#D8D8D8" stroke="#979797" opacity=".01"/><path fill="#DB2A7C" fill-rule="evenodd" d="M876.349 80.5509C878.379 80.5509 880.025 78.9076 880.025 76.8805C880.025 74.8534 878.379 73.2102 876.349 73.2102C874.319 73.2102 872.673 74.8534 872.673 76.8805C872.673 78.9076 874.319 80.5509 876.349 80.5509Z" clip-rule="evenodd"/><rect width="24.732" height="24.693" x="898.905" y="73.71" fill="#D8D8D8" stroke="#979797" opacity=".01"/><path fill="#DB2A7C" fill-rule="evenodd" d="M902.08 80.5509C904.111 80.5509 905.756 78.9076 905.756 76.8805C905.756 74.8534 904.111 73.2102 902.08 73.2102C900.05 73.2102 898.405 74.8534 898.405 76.8805C898.405 78.9076 900.05 80.5509 902.08 80.5509Z" clip-rule="evenodd"/><rect width="24.732" height="24.693" x="924.636" y="73.71" fill="#D8D8D8" stroke="#979797" opacity=".01"/><path fill="#DB2A7C" fill-rule="evenodd" d="M927.812 80.5509C929.842 80.5509 931.488 78.9076 931.488 76.8805C931.488 74.8534 929.842 73.2102 927.812 73.2102C925.782 73.2102 924.136 74.8534 924.136 76.8805C924.136 78.9076 925.782 80.5509 927.812 80.5509Z" clip-rule="evenodd" opacity=".7"/><rect width="24.732" height="24.693" x="950.367" y="73.71" fill="#D8D8D8" stroke="#979797" opacity=".01"/><path fill="#DB2A7C" fill-rule="evenodd" d="M953.543 80.5509C955.574 80.5509 957.219 78.9076 957.219 76.8805C957.219 74.8534 955.574 73.2102 953.543 73.2102C951.513 73.2102 949.867 74.8534 949.867 76.8805C949.867 78.9076 951.513 80.5509 953.543 80.5509Z" clip-rule="evenodd" opacity=".4"/><rect width="24.732" height="24.693" x="976.099" y="73.71" fill="#D8D8D8" stroke="#979797" opacity=".01"/><path fill="#DB2A7C" fill-rule="evenodd" d="M979.275 80.5509C981.305 80.5509 982.951 78.9076 982.951 76.8805C982.951 74.8534 981.305 73.2102 979.275 73.2102C977.245 73.2102 975.599 74.8534 975.599 76.8805C975.599 78.9076 977.245 80.5509 979.275 80.5509Z" clip-rule="evenodd"/><rect width="24.732" height="24.693" x="744.516" y="99.403" fill="#D8D8D8" stroke="#979797" opacity=".01"/><path fill="#DB2A7C" fill-rule="evenodd" d="M747.692 106.244C749.722 106.244 751.367 104.6 751.367 102.573C751.367 100.546 749.722 98.9028 747.692 98.9028C745.661 98.9028 744.016 100.546 744.016 102.573C744.016 104.6 745.661 106.244 747.692 106.244Z" clip-rule="evenodd"/><rect width="24.732" height="24.693" x="770.247" y="99.403" fill="#D8D8D8" stroke="#979797" opacity=".01"/><path fill="#DB2A7C" fill-rule="evenodd" d="M773.423 106.244C775.453 106.244 777.099 104.6 777.099 102.573C777.099 100.546 775.453 98.9028 773.423 98.9028C771.393 98.9028 769.747 100.546 769.747 102.573C769.747 104.6 771.393 106.244 773.423 106.244Z" clip-rule="evenodd" opacity=".8"/><rect width="24.732" height="24.693" x="795.979" y="99.403" fill="#D8D8D8" stroke="#979797" opacity=".01"/><path fill="#DB2A7C" fill-rule="evenodd" d="M799.154 106.244C801.185 106.244 802.83 104.6 802.83 102.573C802.83 100.546 801.185 98.9028 799.154 98.9028C797.124 98.9028 795.479 100.546 795.479 102.573C795.479 104.6 797.124 106.244 799.154 106.244Z" clip-rule="evenodd"/><rect width="24.732" height="24.693" x="821.71" y="99.403" fill="#D8D8D8" stroke="#979797" opacity=".01"/><path fill="#DB2A7C" fill-rule="evenodd" d="M824.886 106.244C826.916 106.244 828.562 104.6 828.562 102.573C828.562 100.546 826.916 98.9028 824.886 98.9028C822.856 98.9028 821.21 100.546 821.21 102.573C821.21 104.6 822.856 106.244 824.886 106.244Z" clip-rule="evenodd"/><rect width="24.732" height="24.693" x="847.441" y="99.403" fill="#D8D8D8" stroke="#979797" opacity=".01"/><path fill="#DB2A7C" fill-rule="evenodd" d="M850.617 106.244C852.647 106.244 854.293 104.6 854.293 102.573C854.293 100.546 852.647 98.9028 850.617 98.9028C848.587 98.9028 846.941 100.546 846.941 102.573C846.941 104.6 848.587 106.244 850.617 106.244Z" clip-rule="evenodd"/><rect width="24.732" height="24.693" x="873.173" y="99.403" fill="#D8D8D8" stroke="#979797" opacity=".01"/><path fill="#DB2A7C" fill-rule="evenodd" d="M876.349 106.244C878.379 106.244 880.025 104.6 880.025 102.573C880.025 100.546 878.379 98.9028 876.349 98.9028C874.319 98.9028 872.673 100.546 872.673 102.573C872.673 104.6 874.319 106.244 876.349 106.244Z" clip-rule="evenodd"/><rect width="24.732" height="24.693" x="898.905" y="99.403" fill="#D8D8D8" stroke="#979797" opacity=".01"/><path fill="#DB2A7C" fill-rule="evenodd" d="M902.08 106.244C904.111 106.244 905.756 104.6 905.756 102.573C905.756 100.546 904.111 98.9028 902.08 98.9028C900.05 98.9028 898.405 100.546 898.405 102.573C898.405 104.6 900.05 106.244 902.08 106.244Z" clip-rule="evenodd"/><rect width="24.732" height="24.693" x="924.636" y="99.403" fill="#D8D8D8" stroke="#979797" opacity=".01"/><path fill="#DB2A7C" fill-rule="evenodd" d="M927.812 106.244C929.842 106.244 931.488 104.6 931.488 102.573C931.488 100.546 929.842 98.9028 927.812 98.9028C925.782 98.9028 924.136 100.546 924.136 102.573C924.136 104.6 925.782 106.244 927.812 106.244Z" clip-rule="evenodd"/><rect width="24.732" height="24.693" x="950.367" y="99.403" fill="#D8D8D8" stroke="#979797" opacity=".01"/><path fill="#DB2A7C" fill-rule="evenodd" d="M953.543 106.244C955.574 106.244 957.219 104.6 957.219 102.573C957.219 100.546 955.574 98.9028 953.543 98.9028C951.513 98.9028 949.867 100.546 949.867 102.573C949.867 104.6 951.513 106.244 953.543 106.244Z" clip-rule="evenodd" opacity=".7"/><rect width="24.732" height="24.693" x="976.099" y="99.403" fill="#D8D8D8" stroke="#979797" opacity=".01"/><path fill="#DB2A7C" fill-rule="evenodd" d="M979.275 106.244C981.305 106.244 982.951 104.6 982.951 102.573C982.951 100.546 981.305 98.9028 979.275 98.9028C977.245 98.9028 975.599 100.546 975.599 102.573C975.599 104.6 977.245 106.244 979.275 106.244Z" clip-rule="evenodd" opacity=".4"/><rect width="24.732" height="24.693" x="744.516" y="125.096" fill="#D8D8D8" stroke="#979797" opacity=".01"/><path fill="#DB2A7C" fill-rule="evenodd" d="M747.692 131.936C749.722 131.936 751.367 130.293 751.367 128.266C751.367 126.239 749.722 124.596 747.692 124.596C745.661 124.596 744.016 126.239 744.016 128.266C744.016 130.293 745.661 131.936 747.692 131.936Z" clip-rule="evenodd"/><rect width="24.732" height="24.693" x="770.247" y="125.096" fill="#D8D8D8" stroke="#979797" opacity=".01"/><path fill="#DB2A7C" fill-rule="evenodd" d="M773.423 131.936C775.453 131.936 777.099 130.293 777.099 128.266C777.099 126.239 775.453 124.596 773.423 124.596C771.393 124.596 769.747 126.239 769.747 128.266C769.747 130.293 771.393 131.936 773.423 131.936Z" clip-rule="evenodd"/><rect width="24.732" height="24.693" x="795.979" y="125.096" fill="#D8D8D8" stroke="#979797" opacity=".01"/><path fill="#DB2A7C" fill-rule="evenodd" d="M799.154 131.936C801.185 131.936 802.83 130.293 802.83 128.266C802.83 126.239 801.185 124.596 799.154 124.596C797.124 124.596 795.479 126.239 795.479 128.266C795.479 130.293 797.124 131.936 799.154 131.936Z" clip-rule="evenodd"/><rect width="24.732" height="24.693" x="821.71" y="125.096" fill="#D8D8D8" stroke="#979797" opacity=".01"/><path fill="#DB2A7C" fill-rule="evenodd" d="M824.886 131.936C826.916 131.936 828.562 130.293 828.562 128.266C828.562 126.239 826.916 124.596 824.886 124.596C822.856 124.596 821.21 126.239 821.21 128.266C821.21 130.293 822.856 131.936 824.886 131.936Z" clip-rule="evenodd"/><rect width="24.732" height="24.693" x="847.441" y="125.096" fill="#D8D8D8" stroke="#979797" opacity=".01"/><path fill="#DB2A7C" fill-rule="evenodd" d="M850.617 131.936C852.647 131.936 854.293 130.293 854.293 128.266C854.293 126.239 852.647 124.596 850.617 124.596C848.587 124.596 846.941 126.239 846.941 128.266C846.941 130.293 848.587 131.936 850.617 131.936Z" clip-rule="evenodd"/><rect width="24.732" height="24.693" x="873.173" y="125.096" fill="#D8D8D8" stroke="#979797" opacity=".01"/><path fill="#DB2A7C" fill-rule="evenodd" d="M876.349 131.936C878.379 131.936 880.025 130.293 880.025 128.266C880.025 126.239 878.379 124.596 876.349 124.596C874.319 124.596 872.673 126.239 872.673 128.266C872.673 130.293 874.319 131.936 876.349 131.936Z" clip-rule="evenodd"/><rect width="24.732" height="24.693" x="898.905" y="125.096" fill="#D8D8D8" stroke="#979797" opacity=".01"/><path fill="#DB2A7C" fill-rule="evenodd" d="M902.08 131.936C904.111 131.936 905.756 130.293 905.756 128.266C905.756 126.239 904.111 124.596 902.08 124.596C900.05 124.596 898.405 126.239 898.405 128.266C898.405 130.293 900.05 131.936 902.08 131.936Z" clip-rule="evenodd"/><rect width="24.732" height="24.693" x="924.636" y="125.096" fill="#D8D8D8" stroke="#979797" opacity=".01"/><path fill="#DB2A7C" fill-rule="evenodd" d="M927.812 131.936C929.842 131.936 931.488 130.293 931.488 128.266C931.488 126.239 929.842 124.596 927.812 124.596C925.782 124.596 924.136 126.239 924.136 128.266C924.136 130.293 925.782 131.936 927.812 131.936Z" clip-rule="evenodd"/><rect width="24.732" height="24.693" x="950.367" y="125.096" fill="#D8D8D8" stroke="#979797" opacity=".01"/><path fill="#DB2A7C" fill-rule="evenodd" d="M953.543 131.936C955.574 131.936 957.219 130.293 957.219 128.266C957.219 126.239 955.574 124.596 953.543 124.596C951.513 124.596 949.867 126.239 949.867 128.266C949.867 130.293 951.513 131.936 953.543 131.936Z" clip-rule="evenodd"/><rect width="24.732" height="24.693" x="976.099" y="125.096" fill="#D8D8D8" stroke="#979797" opacity=".01"/><path fill="#DB2A7C" fill-rule="evenodd" d="M979.275 131.936C981.305 131.936 982.951 130.293 982.951 128.266C982.951 126.239 981.305 124.596 979.275 124.596C977.245 124.596 975.599 126.239 975.599 128.266C975.599 130.293 977.245 131.936 979.275 131.936Z" clip-rule="evenodd" opacity=".7"/><rect width="24.732" height="24.693" x="744.516" y="150.788" fill="#D8D8D8" stroke="#979797" opacity=".01"/><path fill="#DB2A7C" fill-rule="evenodd" d="M747.692 157.629C749.722 157.629 751.367 155.986 751.367 153.959C751.367 151.931 749.722 150.288 747.692 150.288C745.661 150.288 744.016 151.931 744.016 153.959C744.016 155.986 745.661 157.629 747.692 157.629Z" clip-rule="evenodd" opacity=".4"/><rect width="24.732" height="24.693" x="770.247" y="150.788" fill="#D8D8D8" stroke="#979797" opacity=".01"/><path fill="#DB2A7C" fill-rule="evenodd" d="M773.423 157.629C775.453 157.629 777.099 155.986 777.099 153.959C777.099 151.931 775.453 150.288 773.423 150.288C771.393 150.288 769.747 151.931 769.747 153.959C769.747 155.986 771.393 157.629 773.423 157.629Z" clip-rule="evenodd"/><rect width="24.732" height="24.693" x="795.979" y="150.788" fill="#D8D8D8" stroke="#979797" opacity=".01"/><path fill="#DB2A7C" fill-rule="evenodd" d="M799.154 157.629C801.185 157.629 802.83 155.986 802.83 153.959C802.83 151.931 801.185 150.288 799.154 150.288C797.124 150.288 795.479 151.931 795.479 153.959C795.479 155.986 797.124 157.629 799.154 157.629Z" clip-rule="evenodd"/><rect width="24.732" height="24.693" x="821.71" y="150.788" fill="#D8D8D8" stroke="#979797" opacity=".01"/><path fill="#DB2A7C" fill-rule="evenodd" d="M824.886 157.629C826.916 157.629 828.562 155.986 828.562 153.959C828.562 151.931 826.916 150.288 824.886 150.288C822.856 150.288 821.21 151.931 821.21 153.959C821.21 155.986 822.856 157.629 824.886 157.629Z" clip-rule="evenodd"/><rect width="24.732" height="24.693" x="847.441" y="150.788" fill="#D8D8D8" stroke="#979797" opacity=".01"/><path fill="#DB2A7C" fill-rule="evenodd" d="M850.617 157.629C852.647 157.629 854.293 155.986 854.293 153.959C854.293 151.931 852.647 150.288 850.617 150.288C848.587 150.288 846.941 151.931 846.941 153.959C846.941 155.986 848.587 157.629 850.617 157.629Z" clip-rule="evenodd"/><rect width="24.732" height="24.693" x="873.173" y="150.788" fill="#D8D8D8" stroke="#979797" opacity=".01"/><path fill="#DB2A7C" fill-rule="evenodd" d="M876.349 157.629C878.379 157.629 880.025 155.986 880.025 153.959C880.025 151.931 878.379 150.288 876.349 150.288C874.319 150.288 872.673 151.931 872.673 153.959C872.673 155.986 874.319 157.629 876.349 157.629Z" clip-rule="evenodd"/><rect width="24.732" height="24.693" x="898.905" y="150.788" fill="#D8D8D8" stroke="#979797" opacity=".01"/><path fill="#DB2A7C" fill-rule="evenodd" d="M902.08 157.629C904.111 157.629 905.756 155.986 905.756 153.959C905.756 151.931 904.111 150.288 902.08 150.288C900.05 150.288 898.405 151.931 898.405 153.959C898.405 155.986 900.05 157.629 902.08 157.629Z" clip-rule="evenodd"/><rect width="24.732" height="24.693" x="924.636" y="150.788" fill="#D8D8D8" stroke="#979797" opacity=".01"/><path fill="#DB2A7C" fill-rule="evenodd" d="M927.812 157.629C929.842 157.629 931.488 155.986 931.488 153.959C931.488 151.931 929.842 150.288 927.812 150.288C925.782 150.288 924.136 151.931 924.136 153.959C924.136 155.986 925.782 157.629 927.812 157.629Z" clip-rule="evenodd"/><rect width="24.732" height="24.693" x="950.367" y="150.788" fill="#D8D8D8" stroke="#979797" opacity=".01"/><path fill="#DB2A7C" fill-rule="evenodd" d="M953.543 157.629C955.574 157.629 957.219 155.986 957.219 153.959C957.219 151.931 955.574 150.288 953.543 150.288C951.513 150.288 949.867 151.931 949.867 153.959C949.867 155.986 951.513 157.629 953.543 157.629Z" clip-rule="evenodd"/><rect width="24.732" height="24.693" x="976.099" y="150.788" fill="#D8D8D8" stroke="#979797" opacity=".01"/><path fill="#DB2A7C" fill-rule="evenodd" d="M979.275 157.629C981.305 157.629 982.951 155.986 982.951 153.959C982.951 151.931 981.305 150.288 979.275 150.288C977.245 150.288 975.599 151.931 975.599 153.959C975.599 155.986 977.245 157.629 979.275 157.629Z" clip-rule="evenodd"/><rect width="24.732" height="24.693" x="744.516" y="176.481" fill="#D8D8D8" stroke="#979797" opacity=".01"/><path fill="#DB2A7C" fill-rule="evenodd" d="M747.692 183.322C749.722 183.322 751.367 181.678 751.367 179.651C751.367 177.624 749.722 175.981 747.692 175.981C745.661 175.981 744.016 177.624 744.016 179.651C744.016 181.678 745.661 183.322 747.692 183.322Z" clip-rule="evenodd" opacity=".4"/><rect width="24.732" height="24.693" x="770.247" y="176.481" fill="#D8D8D8" stroke="#979797" opacity=".01"/><path fill="#DB2A7C" fill-rule="evenodd" d="M773.423 183.322C775.453 183.322 777.099 181.678 777.099 179.651C777.099 177.624 775.453 175.981 773.423 175.981C771.393 175.981 769.747 177.624 769.747 179.651C769.747 181.678 771.393 183.322 773.423 183.322Z" clip-rule="evenodd"/><rect width="24.732" height="24.693" x="795.979" y="176.481" fill="#D8D8D8" stroke="#979797" opacity=".01"/><path fill="#DB2A7C" fill-rule="evenodd" d="M799.154 183.322C801.185 183.322 802.83 181.678 802.83 179.651C802.83 177.624 801.185 175.981 799.154 175.981C797.124 175.981 795.479 177.624 795.479 179.651C795.479 181.678 797.124 183.322 799.154 183.322Z" clip-rule="evenodd"/><rect width="24.732" height="24.693" x="821.71" y="176.481" fill="#D8D8D8" stroke="#979797" opacity=".01"/><path fill="#DB2A7C" fill-rule="evenodd" d="M824.886 183.322C826.916 183.322 828.562 181.678 828.562 179.651C828.562 177.624 826.916 175.981 824.886 175.981C822.856 175.981 821.21 177.624 821.21 179.651C821.21 181.678 822.856 183.322 824.886 183.322Z" clip-rule="evenodd"/><rect width="24.732" height="24.693" x="847.441" y="176.481" fill="#D8D8D8" stroke="#979797" opacity=".01"/><path fill="#DB2A7C" fill-rule="evenodd" d="M850.617 183.322C852.647 183.322 854.293 181.678 854.293 179.651C854.293 177.624 852.647 175.981 850.617 175.981C848.587 175.981 846.941 177.624 846.941 179.651C846.941 181.678 848.587 183.322 850.617 183.322Z" clip-rule="evenodd"/><rect width="24.732" height="24.693" x="873.173" y="176.481" fill="#D8D8D8" stroke="#979797" opacity=".01"/><path fill="#DB2A7C" fill-rule="evenodd" d="M876.349 183.322C878.379 183.322 880.025 181.678 880.025 179.651C880.025 177.624 878.379 175.981 876.349 175.981C874.319 175.981 872.673 177.624 872.673 179.651C872.673 181.678 874.319 183.322 876.349 183.322Z" clip-rule="evenodd"/><rect width="24.732" height="24.693" x="898.905" y="176.481" fill="#D8D8D8" stroke="#979797" opacity=".01"/><path fill="#DB2A7C" fill-rule="evenodd" d="M902.08 183.322C904.111 183.322 905.756 181.678 905.756 179.651C905.756 177.624 904.111 175.981 902.08 175.981C900.05 175.981 898.405 177.624 898.405 179.651C898.405 181.678 900.05 183.322 902.08 183.322Z" clip-rule="evenodd"/><rect width="24.732" height="24.693" x="924.636" y="176.481" fill="#D8D8D8" stroke="#979797" opacity=".01"/><path fill="#DB2A7C" fill-rule="evenodd" d="M927.812 183.322C929.842 183.322 931.488 181.678 931.488 179.651C931.488 177.624 929.842 175.981 927.812 175.981C925.782 175.981 924.136 177.624 924.136 179.651C924.136 181.678 925.782 183.322 927.812 183.322Z" clip-rule="evenodd"/><rect width="24.732" height="24.693" x="950.367" y="176.481" fill="#D8D8D8" stroke="#979797" opacity=".01"/><path fill="#DB2A7C" fill-rule="evenodd" d="M953.543 183.322C955.574 183.322 957.219 181.678 957.219 179.651C957.219 177.624 955.574 175.981 953.543 175.981C951.513 175.981 949.867 177.624 949.867 179.651C949.867 181.678 951.513 183.322 953.543 183.322Z" clip-rule="evenodd"/><rect width="24.732" height="24.693" x="976.099" y="176.481" fill="#D8D8D8" stroke="#979797" opacity=".01"/><path fill="#DB2A7C" fill-rule="evenodd" d="M979.275 183.322C981.305 183.322 982.951 181.678 982.951 179.651C982.951 177.624 981.305 175.981 979.275 175.981C977.245 175.981 975.599 177.624 975.599 179.651C975.599 181.678 977.245 183.322 979.275 183.322Z" clip-rule="evenodd" opacity=".8"/><rect width="24.732" height="24.693" x="744.516" y="202.174" fill="#D8D8D8" stroke="#979797" opacity=".01"/><path fill="#DB2A7C" fill-rule="evenodd" d="M747.692 209.014C749.722 209.014 751.367 207.371 751.367 205.344C751.367 203.317 749.722 201.674 747.692 201.674C745.661 201.674 744.016 203.317 744.016 205.344C744.016 207.371 745.661 209.014 747.692 209.014Z" clip-rule="evenodd" opacity=".4"/><rect width="24.732" height="24.693" x="770.247" y="202.174" fill="#D8D8D8" stroke="#979797" opacity=".01"/><path fill="#DB2A7C" fill-rule="evenodd" d="M773.423 209.014C775.453 209.014 777.099 207.371 777.099 205.344C777.099 203.317 775.453 201.674 773.423 201.674C771.393 201.674 769.747 203.317 769.747 205.344C769.747 207.371 771.393 209.014 773.423 209.014Z" clip-rule="evenodd"/><rect width="24.732" height="24.693" x="795.979" y="202.174" fill="#D8D8D8" stroke="#979797" opacity=".01"/><path fill="#DB2A7C" fill-rule="evenodd" d="M799.154 209.014C801.185 209.014 802.83 207.371 802.83 205.344C802.83 203.317 801.185 201.674 799.154 201.674C797.124 201.674 795.479 203.317 795.479 205.344C795.479 207.371 797.124 209.014 799.154 209.014Z" clip-rule="evenodd"/><rect width="24.732" height="24.693" x="821.71" y="202.174" fill="#D8D8D8" stroke="#979797" opacity=".01"/><path fill="#DB2A7C" fill-rule="evenodd" d="M824.886 209.014C826.916 209.014 828.562 207.371 828.562 205.344C828.562 203.317 826.916 201.674 824.886 201.674C822.856 201.674 821.21 203.317 821.21 205.344C821.21 207.371 822.856 209.014 824.886 209.014Z" clip-rule="evenodd"/><rect width="24.732" height="24.693" x="847.441" y="202.174" fill="#D8D8D8" stroke="#979797" opacity=".01"/><path fill="#DB2A7C" fill-rule="evenodd" d="M850.617 209.014C852.647 209.014 854.293 207.371 854.293 205.344C854.293 203.317 852.647 201.674 850.617 201.674C848.587 201.674 846.941 203.317 846.941 205.344C846.941 207.371 848.587 209.014 850.617 209.014Z" clip-rule="evenodd"/><rect width="24.732" height="24.693" x="873.173" y="202.174" fill="#D8D8D8" stroke="#979797" opacity=".01"/><path fill="#DB2A7C" fill-rule="evenodd" d="M876.349 209.014C878.379 209.014 880.025 207.371 880.025 205.344C880.025 203.317 878.379 201.674 876.349 201.674C874.319 201.674 872.673 203.317 872.673 205.344C872.673 207.371 874.319 209.014 876.349 209.014Z" clip-rule="evenodd"/><rect width="24.732" height="24.693" x="898.905" y="202.174" fill="#D8D8D8" stroke="#979797" opacity=".01"/><path fill="#DB2A7C" fill-rule="evenodd" d="M902.08 209.014C904.111 209.014 905.756 207.371 905.756 205.344C905.756 203.317 904.111 201.674 902.08 201.674C900.05 201.674 898.405 203.317 898.405 205.344C898.405 207.371 900.05 209.014 902.08 209.014Z" clip-rule="evenodd"/><rect width="24.732" height="24.693" x="924.636" y="202.174" fill="#D8D8D8" stroke="#979797" opacity=".01"/><path fill="#DB2A7C" fill-rule="evenodd" d="M927.812 209.014C929.842 209.014 931.488 207.371 931.488 205.344C931.488 203.317 929.842 201.674 927.812 201.674C925.782 201.674 924.136 203.317 924.136 205.344C924.136 207.371 925.782 209.014 927.812 209.014Z" clip-rule="evenodd"/><rect width="24.732" height="24.693" x="950.367" y="202.174" fill="#D8D8D8" stroke="#979797" opacity=".01"/><path fill="#DB2A7C" fill-rule="evenodd" d="M953.543 209.014C955.574 209.014 957.219 207.371 957.219 205.344C957.219 203.317 955.574 201.674 953.543 201.674C951.513 201.674 949.867 203.317 949.867 205.344C949.867 207.371 951.513 209.014 953.543 209.014Z" clip-rule="evenodd"/><rect width="24.732" height="24.693" x="976.099" y="202.174" fill="#D8D8D8" stroke="#979797" opacity=".01"/><path fill="#DB2A7C" fill-rule="evenodd" d="M979.275 209.014C981.305 209.014 982.951 207.371 982.951 205.344C982.951 203.317 981.305 201.674 979.275 201.674C977.245 201.674 975.599 203.317 975.599 205.344C975.599 207.371 977.245 209.014 979.275 209.014Z" clip-rule="evenodd" opacity=".8"/><rect width="24.732" height="24.693" x="744.516" y="227.866" fill="#D8D8D8" stroke="#979797" opacity=".01"/><path fill="#DB2A7C" fill-rule="evenodd" d="M747.692 234.707C749.722 234.707 751.367 233.064 751.367 231.037C751.367 229.01 749.722 227.366 747.692 227.366C745.661 227.366 744.016 229.01 744.016 231.037C744.016 233.064 745.661 234.707 747.692 234.707Z" clip-rule="evenodd"/><rect width="24.732" height="24.693" x="770.247" y="227.866" fill="#D8D8D8" stroke="#979797" opacity=".01"/><path fill="#DB2A7C" fill-rule="evenodd" d="M773.423 234.707C775.453 234.707 777.099 233.064 777.099 231.037C777.099 229.01 775.453 227.366 773.423 227.366C771.393 227.366 769.747 229.01 769.747 231.037C769.747 233.064 771.393 234.707 773.423 234.707Z" clip-rule="evenodd"/><rect width="24.732" height="24.693" x="795.979" y="227.866" fill="#D8D8D8" stroke="#979797" opacity=".01"/><path fill="#DB2A7C" fill-rule="evenodd" d="M799.154 234.707C801.185 234.707 802.83 233.064 802.83 231.037C802.83 229.01 801.185 227.366 799.154 227.366C797.124 227.366 795.479 229.01 795.479 231.037C795.479 233.064 797.124 234.707 799.154 234.707Z" clip-rule="evenodd"/><rect width="24.732" height="24.693" x="821.71" y="227.866" fill="#D8D8D8" stroke="#979797" opacity=".01"/><path fill="#DB2A7C" fill-rule="evenodd" d="M824.886 234.707C826.916 234.707 828.562 233.064 828.562 231.037C828.562 229.01 826.916 227.366 824.886 227.366C822.856 227.366 821.21 229.01 821.21 231.037C821.21 233.064 822.856 234.707 824.886 234.707Z" clip-rule="evenodd"/><rect width="24.732" height="24.693" x="847.441" y="227.866" fill="#D8D8D8" stroke="#979797" opacity=".01"/><path fill="#DB2A7C" fill-rule="evenodd" d="M850.617 234.707C852.647 234.707 854.293 233.064 854.293 231.037C854.293 229.01 852.647 227.366 850.617 227.366C848.587 227.366 846.941 229.01 846.941 231.037C846.941 233.064 848.587 234.707 850.617 234.707Z" clip-rule="evenodd"/><rect width="24.732" height="24.693" x="873.173" y="227.866" fill="#D8D8D8" stroke="#979797" opacity=".01"/><path fill="#DB2A7C" fill-rule="evenodd" d="M876.349 234.707C878.379 234.707 880.025 233.064 880.025 231.037C880.025 229.01 878.379 227.366 876.349 227.366C874.319 227.366 872.673 229.01 872.673 231.037C872.673 233.064 874.319 234.707 876.349 234.707Z" clip-rule="evenodd"/><rect width="24.732" height="24.693" x="898.905" y="227.866" fill="#D8D8D8" stroke="#979797" opacity=".01"/><path fill="#DB2A7C" fill-rule="evenodd" d="M902.08 234.707C904.111 234.707 905.756 233.064 905.756 231.037C905.756 229.01 904.111 227.366 902.08 227.366C900.05 227.366 898.405 229.01 898.405 231.037C898.405 233.064 900.05 234.707 902.08 234.707Z" clip-rule="evenodd"/><rect width="24.732" height="24.693" x="924.636" y="227.866" fill="#D8D8D8" stroke="#979797" opacity=".01"/><path fill="#DB2A7C" fill-rule="evenodd" d="M927.812 234.707C929.842 234.707 931.488 233.064 931.488 231.037C931.488 229.01 929.842 227.366 927.812 227.366C925.782 227.366 924.136 229.01 924.136 231.037C924.136 233.064 925.782 234.707 927.812 234.707Z" clip-rule="evenodd"/><rect width="24.732" height="24.693" x="950.367" y="227.866" fill="#D8D8D8" stroke="#979797" opacity=".01"/><path fill="#DB2A7C" fill-rule="evenodd" d="M953.543 234.707C955.574 234.707 957.219 233.064 957.219 231.037C957.219 229.01 955.574 227.366 953.543 227.366C951.513 227.366 949.867 229.01 949.867 231.037C949.867 233.064 951.513 234.707 953.543 234.707Z" clip-rule="evenodd"/><rect width="24.732" height="24.693" x="976.099" y="227.866" fill="#D8D8D8" stroke="#979797" opacity=".01"/><path fill="#DB2A7C" fill-rule="evenodd" d="M979.275 234.707C981.305 234.707 982.951 233.064 982.951 231.037C982.951 229.01 981.305 227.366 979.275 227.366C977.245 227.366 975.599 229.01 975.599 231.037C975.599 233.064 977.245 234.707 979.275 234.707Z" clip-rule="evenodd" opacity=".6"/><rect width="24.732" height="24.693" x="744.516" y="253.559" fill="#D8D8D8" stroke="#979797" opacity=".01"/><path fill="#DB2A7C" fill-rule="evenodd" d="M747.692 260.4C749.722 260.4 751.367 258.756 751.367 256.729C751.367 254.702 749.722 253.059 747.692 253.059C745.661 253.059 744.016 254.702 744.016 256.729C744.016 258.756 745.661 260.4 747.692 260.4Z" clip-rule="evenodd"/><rect width="24.732" height="24.693" x="770.247" y="253.559" fill="#D8D8D8" stroke="#979797" opacity=".01"/><path fill="#DB2A7C" fill-rule="evenodd" d="M773.423 260.4C775.453 260.4 777.099 258.756 777.099 256.729C777.099 254.702 775.453 253.059 773.423 253.059C771.393 253.059 769.747 254.702 769.747 256.729C769.747 258.756 771.393 260.4 773.423 260.4Z" clip-rule="evenodd" opacity=".4"/><rect width="24.732" height="24.693" x="795.979" y="253.559" fill="#D8D8D8" stroke="#979797" opacity=".01"/><path fill="#DB2A7C" fill-rule="evenodd" d="M799.154 260.4C801.185 260.4 802.83 258.756 802.83 256.729C802.83 254.702 801.185 253.059 799.154 253.059C797.124 253.059 795.479 254.702 795.479 256.729C795.479 258.756 797.124 260.4 799.154 260.4Z" clip-rule="evenodd"/><rect width="24.732" height="24.693" x="821.71" y="253.559" fill="#D8D8D8" stroke="#979797" opacity=".01"/><path fill="#DB2A7C" fill-rule="evenodd" d="M824.886 260.4C826.916 260.4 828.562 258.756 828.562 256.729C828.562 254.702 826.916 253.059 824.886 253.059C822.856 253.059 821.21 254.702 821.21 256.729C821.21 258.756 822.856 260.4 824.886 260.4Z" clip-rule="evenodd"/><rect width="24.732" height="24.693" x="847.441" y="253.559" fill="#D8D8D8" stroke="#979797" opacity=".01"/><path fill="#DB2A7C" fill-rule="evenodd" d="M850.617 260.4C852.647 260.4 854.293 258.756 854.293 256.729C854.293 254.702 852.647 253.059 850.617 253.059C848.587 253.059 846.941 254.702 846.941 256.729C846.941 258.756 848.587 260.4 850.617 260.4Z" clip-rule="evenodd"/><rect width="24.732" height="24.693" x="873.173" y="253.559" fill="#D8D8D8" stroke="#979797" opacity=".01"/><path fill="#DB2A7C" fill-rule="evenodd" d="M876.349 260.4C878.379 260.4 880.025 258.756 880.025 256.729C880.025 254.702 878.379 253.059 876.349 253.059C874.319 253.059 872.673 254.702 872.673 256.729C872.673 258.756 874.319 260.4 876.349 260.4Z" clip-rule="evenodd"/><rect width="24.732" height="24.693" x="898.905" y="253.559" fill="#D8D8D8" stroke="#979797" opacity=".01"/><path fill="#DB2A7C" fill-rule="evenodd" d="M902.08 260.4C904.111 260.4 905.756 258.756 905.756 256.729C905.756 254.702 904.111 253.059 902.08 253.059C900.05 253.059 898.405 254.702 898.405 256.729C898.405 258.756 900.05 260.4 902.08 260.4Z" clip-rule="evenodd"/><rect width="24.732" height="24.693" x="924.636" y="253.559" fill="#D8D8D8" stroke="#979797" opacity=".01"/><path fill="#DB2A7C" fill-rule="evenodd" d="M927.812 260.4C929.842 260.4 931.488 258.756 931.488 256.729C931.488 254.702 929.842 253.059 927.812 253.059C925.782 253.059 924.136 254.702 924.136 256.729C924.136 258.756 925.782 260.4 927.812 260.4Z" clip-rule="evenodd"/><rect width="24.732" height="24.693" x="950.367" y="253.559" fill="#D8D8D8" stroke="#979797" opacity=".01"/><path fill="#DB2A7C" fill-rule="evenodd" d="M953.543 260.4C955.574 260.4 957.219 258.756 957.219 256.729C957.219 254.702 955.574 253.059 953.543 253.059C951.513 253.059 949.867 254.702 949.867 256.729C949.867 258.756 951.513 260.4 953.543 260.4Z" clip-rule="evenodd" opacity=".6"/><rect width="24.732" height="24.693" x="976.099" y="253.559" fill="#D8D8D8" stroke="#979797" opacity=".01"/><path fill="#DB2A7C" fill-rule="evenodd" d="M979.275 260.4C981.305 260.4 982.951 258.756 982.951 256.729C982.951 254.702 981.305 253.059 979.275 253.059C977.245 253.059 975.599 254.702 975.599 256.729C975.599 258.756 977.245 260.4 979.275 260.4Z" clip-rule="evenodd"/><rect width="24.732" height="24.693" x="744.516" y="279.252" fill="#D8D8D8" stroke="#979797" opacity=".01"/><path fill="#DB2A7C" fill-rule="evenodd" d="M747.692 286.092C749.722 286.092 751.367 284.449 751.367 282.422C751.367 280.395 749.722 278.752 747.692 278.752C745.661 278.752 744.016 280.395 744.016 282.422C744.016 284.449 745.661 286.092 747.692 286.092Z" clip-rule="evenodd"/><rect width="24.732" height="24.693" x="770.247" y="279.252" fill="#D8D8D8" stroke="#979797" opacity=".01"/><path fill="#DB2A7C" fill-rule="evenodd" d="M773.423 286.092C775.453 286.092 777.099 284.449 777.099 282.422C777.099 280.395 775.453 278.752 773.423 278.752C771.393 278.752 769.747 280.395 769.747 282.422C769.747 284.449 771.393 286.092 773.423 286.092Z" clip-rule="evenodd"/><rect width="24.732" height="24.693" x="795.979" y="279.252" fill="#D8D8D8" stroke="#979797" opacity=".01"/><path fill="#DB2A7C" fill-rule="evenodd" d="M799.154 286.092C801.185 286.092 802.83 284.449 802.83 282.422C802.83 280.395 801.185 278.752 799.154 278.752C797.124 278.752 795.479 280.395 795.479 282.422C795.479 284.449 797.124 286.092 799.154 286.092Z" clip-rule="evenodd" opacity=".4"/><rect width="24.732" height="24.693" x="821.71" y="279.252" fill="#D8D8D8" stroke="#979797" opacity=".01"/><path fill="#DB2A7C" fill-rule="evenodd" d="M824.886 286.092C826.916 286.092 828.562 284.449 828.562 282.422C828.562 280.395 826.916 278.752 824.886 278.752C822.856 278.752 821.21 280.395 821.21 282.422C821.21 284.449 822.856 286.092 824.886 286.092Z" clip-rule="evenodd"/><rect width="24.732" height="24.693" x="847.441" y="279.252" fill="#D8D8D8" stroke="#979797" opacity=".01"/><path fill="#DB2A7C" fill-rule="evenodd" d="M850.617 286.092C852.647 286.092 854.293 284.449 854.293 282.422C854.293 280.395 852.647 278.752 850.617 278.752C848.587 278.752 846.941 280.395 846.941 282.422C846.941 284.449 848.587 286.092 850.617 286.092Z" clip-rule="evenodd"/><rect width="24.732" height="24.693" x="873.173" y="279.252" fill="#D8D8D8" stroke="#979797" opacity=".01"/><path fill="#DB2A7C" fill-rule="evenodd" d="M876.349 286.092C878.379 286.092 880.025 284.449 880.025 282.422C880.025 280.395 878.379 278.752 876.349 278.752C874.319 278.752 872.673 280.395 872.673 282.422C872.673 284.449 874.319 286.092 876.349 286.092Z" clip-rule="evenodd"/><rect width="24.732" height="24.693" x="898.905" y="279.252" fill="#D8D8D8" stroke="#979797" opacity=".01"/><path fill="#DB2A7C" fill-rule="evenodd" d="M902.08 286.092C904.111 286.092 905.756 284.449 905.756 282.422C905.756 280.395 904.111 278.752 902.08 278.752C900.05 278.752 898.405 280.395 898.405 282.422C898.405 284.449 900.05 286.092 902.08 286.092Z" clip-rule="evenodd"/><rect width="24.732" height="24.693" x="924.636" y="279.252" fill="#D8D8D8" stroke="#979797" opacity=".01"/><path fill="#DB2A7C" fill-rule="evenodd" d="M927.812 286.092C929.842 286.092 931.488 284.449 931.488 282.422C931.488 280.395 929.842 278.752 927.812 278.752C925.782 278.752 924.136 280.395 924.136 282.422C924.136 284.449 925.782 286.092 927.812 286.092Z" clip-rule="evenodd" opacity=".6"/><rect width="24.732" height="24.693" x="950.367" y="279.252" fill="#D8D8D8" stroke="#979797" opacity=".01"/><path fill="#DB2A7C" fill-rule="evenodd" d="M953.543 286.092C955.574 286.092 957.219 284.449 957.219 282.422C957.219 280.395 955.574 278.752 953.543 278.752C951.513 278.752 949.867 280.395 949.867 282.422C949.867 284.449 951.513 286.092 953.543 286.092Z" clip-rule="evenodd"/><rect width="24.732" height="24.693" x="976.099" y="279.252" fill="#D8D8D8" stroke="#979797" opacity=".01"/><path fill="#DB2A7C" fill-rule="evenodd" d="M979.275 286.092C981.305 286.092 982.951 284.449 982.951 282.422C982.951 280.395 981.305 278.752 979.275 278.752C977.245 278.752 975.599 280.395 975.599 282.422C975.599 284.449 977.245 286.092 979.275 286.092Z" clip-rule="evenodd"/></g><defs><linearGradient id="paint0_linear" x1="265.959" x2="692.557" y1="239.104" y2="757.184" gradientUnits="userSpaceOnUse"><stop stop-color="#DB2A7C" stop-opacity=".01"/><stop offset=".661" stop-color="#FF3190"/><stop offset="1" stop-color="#FF3190" stop-opacity=".01"/></linearGradient><linearGradient id="paint1_linear" x1="147.363" x2="775.829" y1="311.897" y2="857.982" gradientUnits="userSpaceOnUse"><stop stop-color="#DB2A7C" stop-opacity=".01"/><stop offset=".661" stop-color="#FF3190"/><stop offset="1" stop-color="#FF3190" stop-opacity=".01"/></linearGradient><linearGradient id="paint2_linear" x1="317.959" x2="935.44" y1="247.063" y2="696.323" gradientUnits="userSpaceOnUse"><stop stop-color="#DB2A7C" stop-opacity=".01"/><stop offset=".661" stop-color="#FF3190"/><stop offset="1" stop-color="#FF3190" stop-opacity=".01"/></linearGradient><linearGradient id="paint3_linear" x1="146.42" x2="769.514" y1="261.368" y2="802.227" gradientUnits="userSpaceOnUse"><stop stop-color="#DB2A7C" stop-opacity=".01"/><stop offset=".661" stop-color="#FF3190"/><stop offset="1" stop-color="#FF3190" stop-opacity=".01"/></linearGradient><linearGradient id="paint4_linear" x1="473.003" x2="473.533" y1="161.07" y2="281.408" gradientUnits="userSpaceOnUse"><stop stop-color="#DB2A7C" stop-opacity=".01"/><stop offset=".523" stop-color="#DB2A7C"/><stop offset="1" stop-color="#DB2A7C"/></linearGradient></defs></svg>