<svg xmlns="http://www.w3.org/2000/svg" width="16" height="17" fill="none" viewBox="0 0 16 17"><g opacity=".6"><rect width="14" height="14.823" fill="#000" fill-opacity="0" transform="translate(1 1)"/><path stroke="#fff" stroke-width="1.5" d="M4.70473 2.64726H14.9989"/><path stroke="#fff" stroke-width="1.5" d="M1 8.41191H6.35294"/><path stroke="#fff" stroke-width="1.5" d="M10.0586 8.41191H14.9998"/><path stroke="#fff" stroke-width="1.5" d="M1 14.1766H11.2941"/><path stroke="#fff" stroke-width="1.5" d="M3.05722 4.29412C3.96686 4.29412 4.70427 3.5567 4.70427 2.64706C4.70427 1.73741 3.96686 1 3.05722 1C2.14757 1 1.41016 1.73741 1.41016 2.64706C1.41016 3.5567 2.14757 4.29412 3.05722 4.29412Z"/><path stroke="#fff" stroke-width="1.5" d="M8.41268 10.0588C9.32233 10.0588 10.0597 9.32135 10.0597 8.41171C10.0597 7.50206 9.32233 6.76465 8.41268 6.76465C7.50304 6.76465 6.76562 7.50206 6.76562 8.41171C6.76562 9.32135 7.50304 10.0588 8.41268 10.0588Z"/><path stroke="#fff" stroke-width="1.5" d="M12.94 15.8234C13.8497 15.8234 14.5871 15.086 14.5871 14.1764C14.5871 13.2667 13.8497 12.5293 12.94 12.5293C12.0304 12.5293 11.293 13.2667 11.293 14.1764C11.293 15.086 12.0304 15.8234 12.94 15.8234Z"/></g></svg>