<svg xmlns="http://www.w3.org/2000/svg" xmlns:xlink="http://www.w3.org/1999/xlink" viewBox="0 0 32 32" version="1.1" role="img" aria-labelledby="at-svg-email-3" class="at-icon at-icon-email" style="fill: rgb(255, 255, 255); width: 32px; height: 32px;"><title id="at-svg-email-3">Email</title><g><g fillRule="evenodd"></g><path d="M27 22.757c0 1.24-.988 2.243-2.19 2.243H7.19C5.98 25 5 23.994 5 22.757V13.67c0-.556.39-.773.855-.496l8.78 5.238c.782.467 1.95.467 2.73 0l8.78-5.238c.472-.28.855-.063.855.495v9.087z"></path><path d="M27 9.243C27 8.006 26.02 7 24.81 7H7.19C5.988 7 5 8.004 5 9.243v.465c0 .554.385 1.232.857 1.514l9.61 5.733c.267.16.8.16 1.067 0l9.61-5.733c.473-.283.856-.96.856-1.514v-.465z"></path></g></svg>
