<svg xmlns="http://www.w3.org/2000/svg" width="28" height="28" version="1.1" viewBox="0 0 28 28"><g id="Symbols" fill="none" fill-rule="evenodd" stroke="none" stroke-width="1"><g><g><g id="Group-93-Copy" transform="translate(14.000000, 14.000000) scale(1, -1) translate(-14.000000, -14.000000)"><path id="Oval-7" fill="#312934" d="M0,14 C0,6.2680135 6.2680135,0 14,0 C21.7319865,0 28,6.2680135 28,14 C28,21.7319865 21.7319865,28 14,28 C6.2680135,28 0,21.7319865 0,14 Z"/><path fill="#EB3B5A" d="M3.63655645,4.58714508 C6.19756152,1.76917942 9.89217376,7.10542736e-15 14,7.10542736e-15 C21.7319865,7.10542736e-15 28,6.2680135 28,14 C28,21.7319865 21.7319865,28 14,28 L14,12.4628392 L13.3493052,11.4316742 L3.69884563,4.63738591 L3.63655645,4.58714508 Z" opacity=".1"/></g><path id="Rectangle-18" fill="#EB3B5A" d="M14,7 L15.5,7 L15.5,16.25 C15.5,16.6642136 15.1642136,17 14.75,17 L14.75,17 C14.3357864,17 14,16.6642136 14,16.25 L14,7 Z"/><path id="Rectangle-18-Copy" fill="#EB3B5A" d="M11.0623909,14.25988 L12.5623909,14.25988 L12.2378804,21.7186154 C12.2204272,22.1197711 11.8901244,22.4360157 11.4885893,22.4360157 L11.4566682,22.4360157 C11.0600842,22.4360157 10.7385893,22.1145208 10.7385893,21.7179367 C10.7385893,21.707529 10.7388155,21.6971224 10.7392679,21.6867245 L11.0623909,14.25988 Z" transform="translate(11.650490, 18.347948) rotate(-127.000000) translate(-11.650490, -18.347948)"/></g></g></g></svg>