<svg xmlns="http://www.w3.org/2000/svg" xmlns:xlink="http://www.w3.org/1999/xlink" width="32" height="32"
     viewBox="0 0 32 32">
    <defs>
        <path id="s0xla" d="M620 1133v-32h32v32zm16-2a14 14 0 1 0 0-28 14 14 0 0 0 0 28z"/>
        <path id="s0xlb" d="M636 1131a14 14 0 1 0 0-28 14 14 0 0 0 0 28z"/>
        <path id="s0xld"
              d="M630.75 1116.63c0-.41.34-.75.75-.75h8.64c.41 0 .75.34.75.75 0 .42-.34.76-.75.76h-8.64a.75.75 0 0 1-.75-.76z"/>
        <path id="s0xle" d="M635.21 1112.18a.76.76 0 1 1 1.52 0v8.62a.76.76 0 1 1-1.52 0z"/>
        <clipPath id="s0xlc">
            <use fill="#fff" xlink:href="#s0xla"/>
        </clipPath>
    </defs>
    <g>
        <g transform="translate(-620 -1101)">
            <g transform="matrix(1 0 0 -1 0 2234)">
                <g>
                    <g>
                        <use fill="#312934" xlink:href="#s0xlb"/>
                        <use fill="#fff" fill-opacity="0" stroke="#1c2730" stroke-miterlimit="50" stroke-width="4"
                             clip-path="url(&quot;#s0xlc&quot;)" xlink:href="#s0xlb"/>
                    </g>
                    <g transform="scale(-1 1) rotate(45 0 -419.15)">
                        <g>
                            <use fill="#eb3b5a" xlink:href="#s0xld"/>
                        </g>
                        <g>
                            <use fill="#eb3b5a" xlink:href="#s0xle"/>
                        </g>
                    </g>
                </g>
            </g>
            <g/>
        </g>
    </g>
</svg>
