<svg width="62" height="25" viewBox="0 0 62 25" fill="none" xmlns="http://www.w3.org/2000/svg">
    <path fill-rule="evenodd" clip-rule="evenodd" d="M10.4511 0L6.50234 9.21384H3.93563L0 0H2.8168L5.3177 6.00216L7.87126 0H10.4511Z" transform="translate(0.797852 14.353)" fill="white"/>
    <path fill-rule="evenodd" clip-rule="evenodd" d="M0 0H2.6062V9.21384H0V0Z" transform="translate(12.1123 14.353)" fill="white"/>
    <path fill-rule="evenodd" clip-rule="evenodd" d="M3.88298 9.5824C3.13709 9.5824 2.41315 9.49026 1.71114 9.30598C1.00913 9.12171 0.438757 8.87601 0 8.56888L0.855571 6.64713C1.268 6.91916 1.74624 7.13854 2.2903 7.30526C2.83436 7.47199 3.36963 7.55535 3.89614 7.55535C4.89651 7.55535 5.39668 7.30526 5.39668 6.80508C5.39668 6.54183 5.25409 6.34658 4.96889 6.21935C4.6837 6.09211 4.22521 5.95829 3.5934 5.81788C2.90016 5.66871 2.32101 5.50856 1.85593 5.33745C1.39085 5.16633 0.991587 4.89211 0.658132 4.51478C0.324677 4.13745 0.157952 3.6285 0.157952 2.98792C0.157952 2.42631 0.311514 1.91955 0.618644 1.46763C0.925774 1.01571 1.38427 0.658133 1.99414 0.394879C2.60401 0.131625 3.35208 0 4.23837 0C4.84385 0 5.44055 0.0680063 6.02849 0.204021C6.61642 0.340035 7.13415 0.539667 7.58168 0.802921L6.77876 2.73783C5.90124 2.26397 5.05007 2.02705 4.22521 2.02705C3.70747 2.02705 3.33015 2.10383 3.09322 2.25739C2.85629 2.41096 2.73783 2.61059 2.73783 2.85629C2.73783 3.102 2.87823 3.28627 3.15903 3.40912C3.43984 3.53197 3.89175 3.65921 4.51478 3.79084C5.21679 3.94002 5.79814 4.10016 6.25883 4.27128C6.71953 4.44239 7.11879 4.71442 7.45663 5.08736C7.79448 5.4603 7.96339 5.96706 7.96339 6.60764C7.96339 7.16048 7.80983 7.66065 7.5027 8.10818C7.19557 8.55571 6.73488 8.9133 6.12063 9.18094C5.50637 9.44858 4.76049 9.5824 3.88298 9.5824Z" transform="translate(16.2539 14.1689)" fill="white"/>
    <path fill-rule="evenodd" clip-rule="evenodd" d="M0 0H2.6062V9.21384H0V0Z" transform="translate(25.7388 14.353)" fill="white"/>
    <path fill-rule="evenodd" clip-rule="evenodd" d="M2.49414 8.96387C3.271 9.37598 4.146 9.58252 5.12012 9.58252C6.09424 9.58252 6.96973 9.37598 7.74609 8.96387C8.04541 8.80469 8.31982 8.62256 8.56982 8.4165C8.96826 8.08838 9.30371 7.7002 9.57568 7.25244C10.019 6.52441 10.2407 5.70361 10.2407 4.79102C10.2407 3.87842 10.019 3.05811 9.57568 2.32959C9.13281 1.60156 8.52295 1.03125 7.74609 0.618652C6.96973 0.206055 6.09424 0 5.12012 0C4.146 0 3.271 0.206055 2.49414 0.618652C1.71777 1.03125 1.10791 1.60156 0.664551 2.32959C0.22168 3.05811 0 3.87842 0 4.79102C0 5.70361 0.22168 6.52441 0.664551 7.25244C1.10791 7.98096 1.71777 8.55127 2.49414 8.96387ZM6.38379 7.09473C6.00635 7.31396 5.58496 7.42383 5.12012 7.42383C4.65479 7.42383 4.23389 7.31396 3.85645 7.09473C3.479 6.87549 3.18066 6.56592 2.96143 6.1665C2.74219 5.76758 2.63232 5.30908 2.63232 4.79102C2.63232 4.43994 2.68311 4.11572 2.78418 3.81934C2.83203 3.67871 2.89111 3.54395 2.96143 3.41553C3.18066 3.0166 3.479 2.70703 3.85645 2.48779C4.23389 2.26855 4.65479 2.15869 5.12012 2.15869C5.31836 2.15869 5.50879 2.17871 5.69141 2.21875C5.93652 2.27246 6.16748 2.3623 6.38379 2.48779C6.76123 2.70703 7.05957 3.0166 7.27881 3.41553C7.49805 3.81494 7.60791 4.27344 7.60791 4.79102C7.60791 5.30908 7.49805 5.76758 7.27881 6.1665C7.13232 6.43311 6.95068 6.65967 6.73389 6.84619C6.62598 6.93896 6.50928 7.02197 6.38379 7.09473Z" transform="translate(30.0513 14.1689)" fill="white"/>
    <path fill-rule="evenodd" clip-rule="evenodd" d="M8.76631 0V9.21384H6.62081L2.55355 4.30418V9.21384H0V0H2.14551L6.21276 4.90966V0H8.76631Z" transform="translate(41.9849 14.353)" fill="white"/>
    <path fill-rule="evenodd" clip-rule="evenodd" d="M6.64713 4.59376H8.95059V8.41092C8.42408 8.78825 7.81861 9.07783 7.13415 9.27966C6.44969 9.48149 5.76524 9.5824 5.08078 9.5824C4.11551 9.5824 3.24679 9.37838 2.47458 8.97034C1.70236 8.56229 1.09689 7.99411 0.658132 7.26577C0.219375 6.53744 0 5.71259 0 4.7912C0 3.86981 0.219375 3.04496 0.658132 2.31662C1.09689 1.58829 1.70675 1.02011 2.48774 0.612063C3.26872 0.204019 4.15061 0 5.13343 0C5.99339 0 6.76559 0.144788 7.45005 0.434367C8.13451 0.723946 8.70489 1.14076 9.16119 1.68482L7.5027 3.18536C6.87967 2.5009 6.13379 2.15867 5.26505 2.15867C4.47529 2.15867 3.8391 2.39779 3.35647 2.87604C2.87384 3.35428 2.63253 3.99266 2.63253 4.7912C2.63253 5.30016 2.74221 5.75426 2.96159 6.15353C3.18097 6.5528 3.4881 6.86431 3.88298 7.08808C4.27786 7.31184 4.72977 7.42373 5.23873 7.42373C5.73891 7.42373 6.20837 7.32281 6.64713 7.12099V4.59376ZM18.3305 7.38404V9.39793H10.9331V0.184082H18.1594V2.19797H13.513V3.75116H17.6066V5.69923H13.513V7.38404H18.3305ZM28.8689 0.184082V9.39793H26.7233L22.6561 4.48826V9.39793H20.1025V0.184082H22.248L26.3153 5.09374V0.184082H28.8689ZM38.433 7.38404V9.39793H31.0356V0.184082H38.2619V2.19797H33.6155V3.75116H37.7091V5.69923H33.6155V7.38404H38.433ZM43.4425 9.5824C42.6967 9.5824 41.9727 9.49026 41.2707 9.30598C40.5687 9.12171 39.9983 8.87601 39.5596 8.56888L40.4151 6.64713C40.8276 6.91916 41.3058 7.13854 41.8499 7.30526C42.3939 7.47199 42.9292 7.55535 43.4557 7.55535C44.4561 7.55535 44.9562 7.30526 44.9562 6.80508C44.9562 6.54183 44.8137 6.34658 44.5285 6.21935C44.2433 6.09211 43.7848 5.95829 43.153 5.81788C42.4597 5.66871 41.8806 5.50856 41.4155 5.33745C40.9504 5.16633 40.5512 4.89211 40.2177 4.51478C39.8842 4.13745 39.7175 3.6285 39.7175 2.98792C39.7175 2.42631 39.8711 1.91955 40.1782 1.46763C40.4853 1.01571 40.9438 0.658133 41.5537 0.394879C42.1636 0.131625 42.9117 0 43.7979 0C44.4034 0 45.0001 0.0680063 45.5881 0.204021C46.176 0.340035 46.6937 0.539667 47.1412 0.802921L46.3383 2.73783C45.4608 2.26397 44.6096 2.02705 43.7848 2.02705C43.267 2.02705 42.8897 2.10383 42.6528 2.25739C42.4159 2.41096 42.2974 2.61059 42.2974 2.85629C42.2974 3.102 42.4378 3.28627 42.7186 3.40912C42.9994 3.53197 43.4513 3.65921 44.0744 3.79084C44.7764 3.94002 45.3577 4.10016 45.8184 4.27128C46.2791 4.44239 46.6784 4.71442 47.0162 5.08736C47.354 5.4603 47.523 5.96706 47.523 6.60764C47.523 7.16048 47.3694 7.66065 47.0623 8.10818C46.7551 8.55571 46.2945 8.9133 45.6802 9.18094C45.0659 9.44858 44.3201 9.5824 43.4425 9.5824ZM49.0449 0.184082H51.6511V9.39793H49.0449V0.184082ZM57.069 9.5824C56.3231 9.5824 55.5992 9.49026 54.8972 9.30598C54.1952 9.12171 53.6248 8.87601 53.186 8.56888L54.0416 6.64713C54.454 6.91916 54.9323 7.13854 55.4763 7.30526C56.0204 7.47199 56.5557 7.55535 57.0822 7.55535C58.0825 7.55535 58.5827 7.30526 58.5827 6.80508C58.5827 6.54183 58.4401 6.34658 58.1549 6.21935C57.8697 6.09211 57.4112 5.95829 56.7794 5.81788C56.0862 5.66871 55.507 5.50856 55.042 5.33745C54.5769 5.16633 54.1776 4.89211 53.8442 4.51478C53.5107 4.13745 53.344 3.6285 53.344 2.98792C53.344 2.42631 53.4976 1.91955 53.8047 1.46763C54.1118 1.01571 54.5703 0.658133 55.1802 0.394879C55.79 0.131625 56.5381 0 57.4244 0C58.0299 0 58.6266 0.0680063 59.2145 0.204021C59.8025 0.340035 60.3202 0.539667 60.7677 0.802921L59.9648 2.73783C59.0873 2.26397 58.2361 2.02705 57.4112 2.02705C56.8935 2.02705 56.5162 2.10383 56.2793 2.25739C56.0423 2.41096 55.9239 2.61059 55.9239 2.85629C55.9239 3.102 56.0643 3.28627 56.3451 3.40912C56.6259 3.53197 57.0778 3.65921 57.7008 3.79084C58.4028 3.94002 58.9842 4.10016 59.4449 4.27128C59.9056 4.44239 60.3048 4.71442 60.6427 5.08736C60.9805 5.4603 61.1494 5.96706 61.1494 6.60764C61.1494 7.16048 60.9959 7.66065 60.6887 8.10818C60.3816 8.55571 59.9209 8.9133 59.3067 9.18094C58.6924 9.44858 57.9465 9.5824 57.069 9.5824Z" transform="translate(0.504395 0.255371)" fill="white"/>
</svg>