<svg xmlns="http://www.w3.org/2000/svg" xmlns:xlink="http://www.w3.org/1999/xlink" width="28" height="28" version="1.1" viewBox="0 0 28 28"><title>Group 101 Copy</title><desc>Created with Sketch.</desc><defs><path id="path-1" d="M0,12 C0,5.372583 5.372583,0 12,0 C18.627417,0 24,5.372583 24,12 C24,18.627417 18.627417,24 12,24 C5.372583,24 0,18.627417 0,12 Z"/></defs><g fill="none" fill-rule="evenodd" stroke="none" stroke-width="1"><g id="1600_3_3_wallet" transform="translate(-613.000000, -579.000000)"><g id="Group-24" transform="translate(576.000000, 458.000000)"><g id="Group-101-Copy" transform="translate(39.000000, 123.000000)"><g id="Group-39"><mask id="mask-2" fill="#fff"><use xlink:href="#path-1"/></mask><path stroke="#212C36" stroke-width="2" d="M-1,12 C-1,4.82029825 4.82029825,-1 12,-1 C19.1797017,-1 25,4.82029825 25,12 C25,19.1797017 19.1797017,25 12,25 C4.82029825,25 -1,19.1797017 -1,12 Z"/><path id="Path-38" stroke="#51DAA3" stroke-linecap="round" d="M8,12 L10.6128474,14.6128474 C10.8081096,14.8081096 11.1246921,14.8081096 11.3199542,14.6128474 C11.3306404,14.6021612 11.3408366,14.590996 11.3505115,14.5793862 L16,9" mask="url(#mask-2)"/></g></g></g></g></g></svg>