<svg width="22" height="20" viewBox="0 0 22 20" fill="none" xmlns="http://www.w3.org/2000/svg">
    <path fill-rule="evenodd" clip-rule="evenodd" d="M0 1C0 0.447715 0.447715 0 1 0C1.55228 0 2 0.447715 2 1V9.82251C2 10.3748 1.55228 10.8225 1 10.8225C0.447715 10.8225 0 10.3748 0 9.82251V1Z" transform="translate(4 8.6582)" fill="#15BBAF"/>
    <path fill-rule="evenodd" clip-rule="evenodd" d="M0 1C0 0.447715 0.447715 0 1 0C1.55228 0 2 0.447715 2 1V3.329C2 3.88129 1.55228 4.329 1 4.329C0.447715 4.329 0 3.88129 0 3.329V1Z" transform="translate(0 15.1514)" fill="#15BBAF"/>
    <path fill-rule="evenodd" clip-rule="evenodd" d="M0 1C0 0.447715 0.447715 0 1 0C1.55228 0 2 0.447715 2 1V3.329C2 3.88129 1.55228 4.329 1 4.329C0.447715 4.329 0 3.88129 0 3.329V1Z" transform="translate(20 15.1514)" fill="#15BBAF"/>
    <path fill-rule="evenodd" clip-rule="evenodd" d="M0 1C0 0.447715 0.447715 0 1 0C1.55228 0 2 0.447715 2 1V9.82251C2 10.3748 1.55228 10.8225 1 10.8225C0.447715 10.8225 0 10.3748 0 9.82251V1Z" transform="translate(16 8.6582)" fill="#15BBAF"/>
    <path fill-rule="evenodd" clip-rule="evenodd" d="M0 0.999999C0 0.447715 0.447715 0 1 0C1.55228 0 2 0.447715 2 1V13.0693C2 13.6215 1.55228 14.0693 1 14.0693C0.447715 14.0693 0 13.6215 0 13.0693V0.999999Z" transform="translate(12 5.41113)" fill="#15BBAF"/>
    <path fill-rule="evenodd" clip-rule="evenodd" d="M0 1C0 0.447715 0.447715 0 1 0C1.55228 0 2 0.447715 2 1V18.4805C2 19.0328 1.55228 19.4805 1 19.4805C0.447715 19.4805 0 19.0328 0 18.4805V1Z" transform="translate(8)" fill="#15BBAF"/>
</svg>
