<?xml version="1.0" encoding="UTF-8"?>
<svg width="24px" height="24px" viewBox="0 0 24 24" version="1.1" xmlns="http://www.w3.org/2000/svg" xmlns:xlink="http://www.w3.org/1999/xlink">
    <!-- Generator: Sketch 52.6 (67491) - http://www.bohemiancoding.com/sketch -->
    <title>GV</title>
    <desc>Created with Sketch.</desc>
    <g id="ui" stroke="none" stroke-width="1" fill="none" fill-rule="evenodd">
        <g id="1600_3_2_wallet" transform="translate(-155.000000, -541.000000)" fill="#F7931A" fill-rule="nonzero">
            <g id="Group-16-Copy" transform="translate(155.000000, 541.000000)">
                <g id="logo/btc">
                    <path d="M23.64,14.9030984 C22.03725,21.3317234 15.52575,25.2437234 9.096375,23.6409734 C2.67,22.0382234 -1.242375,15.5267234 0.36075,9.09847338 C1.96275,2.66909838 8.473875,-1.24365162 14.901375,0.359098378 C21.330375,1.96184838 25.242375,8.47409838 23.639625,14.9030984 L23.64,14.9030984 Z" id="Shape" opacity="0.200000003"></path>
                    <path d="M15.6140924,10.6058806 C15.7758874,9.52266847 14.9511401,8.94035927 13.8234089,8.55189874 L14.1892284,7.08455079 L13.2957946,6.86195553 L12.9396422,8.29063551 C12.7050904,8.23212475 12.4639243,8.17692113 12.2242846,8.12222629 L12.582981,6.68413372 L11.6903104,6.46153846 L11.3242366,7.92837762 C11.1298791,7.88411296 10.9390832,7.8403571 10.7538839,7.79431168 L10.7549015,7.78973257 L9.52312293,7.48216952 L9.28551839,8.43614921 C9.28551839,8.43614921 9.94821628,8.58802277 9.93422458,8.59743537 C10.2959737,8.68774545 10.3616075,8.92713075 10.3504141,9.11690911 L9.93371579,10.7885359 C9.95864646,10.7948958 9.99095457,10.804054 10.0265698,10.8183001 L9.93244381,10.7948958 L9.34809946,13.1365979 C9.3038348,13.2464964 9.19164679,13.411344 8.93877858,13.348763 C8.94768239,13.3617371 8.2895636,13.1867136 8.2895636,13.1867136 L7.84615385,14.2093799 L9.00873709,14.4991353 C9.22497248,14.5533213 9.43688317,14.6100513 9.64523233,14.6634742 L9.275597,16.1478666 L10.1677588,16.3704618 L10.534087,14.9020963 C10.7775426,14.9682389 11.0141296,15.0292936 11.2456286,15.0867868 L10.8808268,16.5482836 L11.7740062,16.7708789 L12.1436415,15.2895392 C13.6667019,15.5777683 14.8122407,15.46151 15.2938096,14.0842177 C15.6822702,12.9750573 15.27473,12.335255 14.4733871,11.9177935 C15.0569683,11.7827099 15.4965621,11.3988285 15.613838,10.6058806 L15.6140924,10.6058806 Z M13.5730847,13.4675653 C13.2968122,14.5767256 11.4295559,13.977372 10.8238424,13.8267704 L11.3143152,11.8605547 C11.9197743,12.0116651 13.8610593,12.3108331 13.5733391,13.4675653 L13.5730847,13.4675653 Z M13.8491028,10.5898537 C13.5972522,11.5987827 12.0429013,11.0861776 11.5384368,10.9605066 L11.9831185,9.17720063 C12.487583,9.30287155 14.111638,9.53742335 13.8491028,10.5898537 Z" id="Shape"></path>
                </g>
            </g>
        </g>
    </g>
</svg>