<?xml version="1.0" encoding="UTF-8"?>
<svg width="24px" height="24px" viewBox="0 0 24 24" version="1.1" xmlns="http://www.w3.org/2000/svg" xmlns:xlink="http://www.w3.org/1999/xlink">
    <!-- Generator: Sketch 52.6 (67491) - http://www.bohemiancoding.com/sketch -->
    <title>GV</title>
    <desc>Created with Sketch.</desc>
    <g id="ui" stroke="none" stroke-width="1" fill="none" fill-rule="evenodd">
        <g id="1600_3_2_wallet" transform="translate(-155.000000, -501.000000)" fill="#00BDAF">
            <g id="Group-16" transform="translate(155.000000, 501.000000)">
                <g id="GV">
                    <g id="Group-10">
                        <circle id="Oval" opacity="0.100000001" cx="12" cy="12" r="12"></circle>
                        <path d="M18.2608696,10.1510874 C18.2608696,13.5944572 15.452192,16.3959297 11.9999662,16.3959297 C8.54780801,16.3959297 5.73913043,13.5944572 5.73913043,10.1510874 C5.73913043,9.8938699 5.75474922,9.64036159 5.78558112,9.39130435 L6.9102692,9.39130435 C6.87314922,9.63928254 6.85381167,9.89312805 6.85381167,10.1510874 C6.85381167,12.9814244 9.16234991,15.2840405 11.9999662,15.2840405 C14.7072231,15.2840405 16.9332724,13.1878593 17.132057,10.5372509 L9.17242437,10.5372509 C9.36187826,11.9248363 10.5575608,12.9977449 11.9999662,12.9977449 C13.1165406,12.9977449 14.0855817,12.3547011 14.5541454,11.4204498 L15.7591587,11.4204498 C15.2277818,12.9825709 13.7429825,14.1095667 11.9999662,14.1095667 C9.81184815,14.1095667 8.03130613,12.3335923 8.03130613,10.1510874 C8.03130613,9.89123972 8.0565937,9.63739421 8.10486995,9.39130435 L18.2144189,9.39130435 C18.2452508,9.64036159 18.2608696,9.8938699 18.2608696,10.1510874" id="Fill-1"></path>
                    </g>
                </g>
            </g>
        </g>
    </g>
</svg>