<svg xmlns="http://www.w3.org/2000/svg" width="580" height="461" fill="none" viewBox="0 0 580 461"><path stroke="#DB2A7C" stroke-linecap="round" stroke-width="1.68" d="M327.533 363.434C327.928 364.671 328.665 366.014 332.455 365.354C337.191 364.529 340.744 361.23 341.533 358.343"/><path stroke="#DB2A7C" stroke-linecap="round" stroke-width="1.68" d="M322.033 270.78C322.293 273.149 323.789 281.174 325.033 284.017C326.278 286.859 330.496 294.524 331.533 296.235"/><path stroke="#DB2A7C" stroke-linecap="round" stroke-width="1.68" d="M328.37 291.061C328.5 292.13 327.03 296.97 326.534 300.816C325.12 311.784 325.637 316.305 327.589 329.121C329.151 339.375 329.021 350.215 328.76 354.354C327.589 359.828 327.223 365.587 323.294 371.977C321.033 375.652 299.133 388.888 315.534 388.888C331.934 388.888 337.814 390.206 337.033 383.797C336.252 377.389 338.913 372.378 340.084 370.375C341.256 368.372 343.208 366.77 341.646 361.163C340.084 355.556 351.018 328.721 351.408 319.509C351.799 310.297 351.415 308.335 348.284 289.069C347.113 281.86 349.456 269.043 351.408 262.635"/><path stroke="#DB2A7C" stroke-linecap="round" stroke-linejoin="round" stroke-width="1.68" d="M342.405 112.122C340.621 111.873 338.809 112.519 337.044 111.865C336.116 111.521 335.634 110.902 335.185 110.078C333.768 107.48 335.538 104.064 337.276 102.068C338.274 100.921 339.572 99.9722 340.822 99.1104C341.973 98.3171 343.312 98.0059 344.667 97.6906C345.587 97.4765 346.677 97.7494 347.589 97.9149C348.554 98.0898 349.686 98.4237 350.548 98.9002C351.306 99.3193 351.635 99.9267 352.06 100.686C352.618 101.684 352.546 102.593 352.976 103.435C353.205 103.882 353.29 104.405 353.421 104.885C353.726 106.012 354.032 107.138 354.338 108.265C354.834 110.095 355.356 111.84 355.9 113.648C356.114 114.357 356.381 114.91 356.669 115.726C357.129 117.031 357.362 117.984 357.764 119.094C358.312 120.608 359.588 123.663 359.588 123.663C359.588 123.663 360.181 124.875 360.714 125.551C361.133 126.082 361.921 126.799 361.921 126.799"/><path stroke="#DB2A7C" stroke-linecap="round" stroke-linejoin="round" stroke-width="1.68" d="M339.886 112.255C340.017 113.256 340.253 114.302 340.502 115.281C340.788 116.405 341.125 117.464 341.731 118.47C342.503 119.754 343.768 120.884 344.97 121.768C345.688 122.296 346.46 122.628 347.312 122.886C347.563 122.962 348.147 123.252 348.342 123.085"/><path stroke="#DB2A7C" stroke-linecap="round" stroke-linejoin="round" stroke-width="1.68" d="M348.425 123.111C348.934 124.987 349.351 126.874 349.774 128.769C349.921 129.426 350 130.091 350.126 130.751C350.179 131.031 350.301 131.359 350.298 131.643C350.296 131.826 350.295 132.058 350.342 132.231"/><path stroke="#DB2A7C" stroke-linecap="round" stroke-linejoin="round" stroke-width="1.68" d="M350.28 132.252C350.775 132.235 351.268 132.17 351.765 132.19C352.54 132.221 353.354 132 354.097 131.813C354.62 131.681 355.141 131.489 355.659 131.339C356.38 131.13 356.941 130.802 357.552 130.383C357.828 130.194 358.101 130.007 358.38 129.829C358.627 129.672 358.926 129.513 359.142 129.316C359.541 128.952 359.982 128.614 360.385 128.254C360.717 127.957 361.02 127.567 361.401 127.325C361.537 127.238 361.833 126.849 361.977 126.899"/><path stroke="#DB2A7C" stroke-linecap="round" stroke-linejoin="round" stroke-width="1.68" d="M315.412 82.8041C315.181 82.4179 314.932 82.3081 314.58 82.0528C314.215 81.7888 313.851 81.7666 313.42 81.7666C312.777 81.7666 312.244 82.2242 311.941 82.7325C311.456 83.5466 311.539 84.6231 311.539 85.5309C311.539 86.3842 311.512 87.2563 311.62 88.1026C311.707 88.7869 311.918 89.5237 312.253 90.1358C312.491 90.5701 312.854 91.0718 313.345 91.2468C313.437 91.2796 313.512 91.3789 313.603 91.4257C313.688 91.4696 313.8 91.5166 313.895 91.531C313.996 91.5462 314.09 91.5935 314.192 91.6224C314.449 91.6956 314.728 91.71 314.994 91.7397C315.187 91.7613 315.383 91.7834 315.576 91.7834C316.469 91.7834 317.43 91.4257 317.312 91.4257"/><path stroke="#DB2A7C" stroke-linecap="round" stroke-linejoin="round" stroke-width="1.68" d="M347.337 83.6498C348.028 83.2792 349.224 82.4261 350.387 82.7675C351.549 83.1088 351.622 84.0084 351.622 84.0084C351.622 84.0084 351.655 84.6382 351.622 85.0396C351.58 85.5552 351.54 86.173 351.365 86.8766C351.115 87.8836 350.976 88.49 350.344 89.335C349.873 89.9639 349.263 91.3837 349.263 91.3837C349.263 91.3837 348.823 92.797 348.278 93.3299C347.325 94.263 345.903 94.047 345.14 94.047"/><path stroke="#DB2A7C" stroke-linecap="round" stroke-width="1.68" d="M315.848 91.8965C315.726 93.5696 315.774 97.2743 316.946 100.142C317.501 101.5 322.533 110.484 327.229 112.821C328.51 113.27 329.18 113.42 331.959 112.332C334.888 111.185 334.729 110.484 334.729 110.484"/><path stroke="#DB2A7C" stroke-linecap="round" stroke-linejoin="round" stroke-width="1.68" d="M315.033 143.508C315.81 145.419 316.082 149.614 317.269 151.368C317.893 152.29 318.671 152.622 319.649 152.848C322.736 153.563 325.733 150.443 327.28 147.832C328.169 146.333 328.766 144.565 329.288 142.879C329.769 141.327 329.699 139.727 329.628 138.107C329.58 137.007 328.981 135.88 328.545 134.915C328.084 133.896 327.41 132.742 326.669 131.938C326.016 131.231 325.295 131.066 324.391 130.845C323.201 130.555 322.287 130.939 321.296 130.74C320.769 130.635 320.206 130.714 319.674 130.729C318.425 130.764 317.177 130.799 315.929 130.834C313.902 130.891 311.954 130.891 309.936 130.888C309.144 130.886 308.497 130.773 307.574 130.724C306.097 130.647 305.048 130.704 303.789 130.626C302.072 130.52 298.557 130.115 298.557 130.115C298.557 130.115 297.137 129.858 296.286 129.489C295.618 129.198 294.651 128.557 294.651 128.557"/><path stroke="#DB2A7C" stroke-linecap="round" stroke-linejoin="round" stroke-width="1.68" d="M314.941 145.847C313.925 146.014 312.837 146.091 311.811 146.137C310.632 146.189 309.503 146.171 308.351 145.875C306.883 145.498 305.43 144.592 304.234 143.676C303.52 143.129 302.983 142.471 302.496 141.712C302.352 141.489 301.908 141.002 302.018 140.762"/><path stroke="#DB2A7C" stroke-linecap="round" stroke-linejoin="round" stroke-width="1.68" d="M301.97 140.688C299.994 140.744 298.033 140.894 296.062 141.039C295.379 141.089 294.706 141.208 294.026 141.28C293.737 141.31 293.383 141.288 293.106 141.375C292.927 141.431 292.701 141.501 292.518 141.506"/><path stroke="#DB2A7C" stroke-linecap="round" stroke-linejoin="round" stroke-width="1.68" d="M292.516 141.572C292.397 141.082 292.324 140.58 292.168 140.099C291.925 139.349 291.918 138.486 291.896 137.703C291.881 137.152 291.926 136.585 291.93 136.033C291.936 135.264 292.103 134.619 292.345 133.896C292.454 133.569 292.563 133.247 292.66 132.921C292.746 132.633 292.819 132.293 292.952 132.024C293.199 131.525 293.408 130.993 293.65 130.492C293.849 130.078 294.148 129.666 294.28 129.222C294.327 129.063 294.626 128.658 294.538 128.531"/><path stroke="#DB2A7C" stroke-linecap="round" stroke-width="1.68" d="M249.845 145.809C247.599 143.754 246.547 136.832 247.655 135.171C248.763 133.511 251.975 126.358 257.439 122.606C257.439 122.606 269.414 115.825 272.533 110.927C275.653 106.029 276.625 103.854 285.533 97.6908C294.442 91.5273 305.095 95.3727 309.23 100.055"/><path stroke="#DB2A7C" stroke-linecap="round" stroke-width="1.68" d="M345.873 94.0479C345.384 95.8405 344.729 97.2664 344.729 97.2664"/><path stroke="#DB2A7C" stroke-linecap="round" stroke-width="1.68" d="M315.115 82.2163C314.749 79.3481 314.456 72.7514 316.214 69.3096C318.411 65.0073 323.537 59.6295 327.931 59.271C332.325 58.9125 334.522 58.554 338.916 60.7051C342.431 62.426 345.018 65.2463 345.873 66.4414C346.971 68.951 349.022 75.6912 348.436 82.5748"/><path stroke="#DB2A7C" stroke-linecap="round" stroke-linejoin="round" stroke-width="1.68" d="M347.226 83.5909C347.888 83.1 348.099 82.8662 348.918 82.8662"/><path stroke="#DB2A7C" stroke-linecap="round" stroke-linejoin="round" stroke-width="1.68" d="M315.355 82.6855C317.67 85.677 318.57 80.6129 319.089 79.0301C319.742 77.036 320.488 74.8184 322.934 74.8184C323.67 74.8184 324.174 75.8599 324.587 76.3381C325.147 76.9854 325.871 77.458 326.495 78.0367C328.283 79.6953 330.924 79.7365 333.15 79.0102C334.19 78.6705 335.344 77.805 336.264 77.2222C337.022 76.742 337.916 76.47 338.638 75.9805C339.347 75.4997 340.661 75.5256 341.296 76.0699C341.903 76.5899 343.731 77.1623 343.842 78.0367C343.908 78.5528 344.397 79.421 344.613 79.924C344.82 80.404 344.971 81.0548 345.11 81.5332C345.265 82.0633 345.497 82.6246 345.942 82.9636C346.25 83.1983 347.256 83.8669 347.494 83.4007"/><path stroke="#DB2A7C" stroke-linecap="round" stroke-linejoin="round" stroke-width="1.68" d="M327.125 100.144C327.518 100.219 327.906 100.281 328.301 100.336"/><path stroke="#DB2A7C" stroke-linecap="round" stroke-linejoin="round" stroke-width="1.68" d="M330.847 100.527C331.336 100.361 331.765 100.173 332.219 99.9512"/><path stroke="#DB2A7C" stroke-linecap="round" stroke-width="1.68" d="M354.205 157.323C355.62 162.536 363.115 170.673 366.133 170.657C369.15 170.64 374.406 166.346 374.642 164.431C374.878 162.515 377.07 155.28 375.373 149.024M375.373 149.024C373.676 142.768 365.755 135.851 365.001 133.071M375.373 149.024C375.373 149.024 371.523 132.568 372.677 130.087C373.831 127.606 375.456 120.086 372.718 109.855C369.98 99.623 357.025 98.4163 350.89 99.0919"/><path stroke="#DB2A7C" stroke-linecap="round" stroke-width="1.68" d="M351.141 132.104L354.017 156.627"/><path stroke="#DB2A7C" stroke-linecap="round" stroke-width="1.68" d="M361.277 127.696L365.19 133.766"/><path stroke="#DB2A7C" stroke-linecap="round" stroke-width="1.68" d="M356.406 99.3216C355.624 101.522 354.306 106.352 355.054 110.004"/><path stroke="#DB2A7C" stroke-width="1.68" d="M305.033 96.6724C306.7 95.9936 311.233 94.8396 316.033 95.6542"/><path stroke="#DB2A7C" stroke-linecap="round" stroke-width="1.68" d="M290.506 141.05C290.22 145.842 290.324 156.921 293.028 162.898C295.731 168.875 293.71 184.802 292.361 192.018C293.653 194.489 299.79 198.808 314.002 196.32C331.767 193.21 350.133 186.582 351.335 179.548C350.483 176.532 348.955 169.398 349.654 164.982C350.352 160.567 351.461 156.529 353.533 152.672"/><path stroke="#DB2A7C" stroke-linecap="round" stroke-width="1.68" d="M250.033 146.053C250.533 146.053 251.933 146.053 253.533 146.053C255.533 146.053 255.936 148.599 267.533 148.599C277.033 148.599 281.533 140.453 292.033 139.944"/><path stroke="#DB2A7C" stroke-linecap="round" stroke-width="1.68" d="M294.033 129.254C291.533 129.254 284.933 129.254 278.533 129.254C270.533 129.254 267.533 124.163 262.533 126.709"/><path stroke="#DB2A7C" stroke-linecap="round" stroke-width="1.68" d="M288.391 125.795C289.549 125.388 294.243 124.271 294.533 120.091"/><path stroke="#DB2A7C" stroke-linecap="round" stroke-width="1.68" d="M352.034 180.163C353.701 181.86 356.834 185.967 356.034 188.818C355.034 192.381 353.534 193.399 356.034 196.963C358.534 200.527 361.034 205.108 360.534 208.163C360.034 211.217 358.034 236.163 356.034 246.344C354.034 256.526 353.534 258.053 353.534 262.126C345.201 260.938 329.234 259.275 322.034 264.162C320.534 263.314 317.734 260.802 318.534 257.544C319.534 253.472 322.533 245.326 320.533 242.272"/><path stroke="#DB2A7C" stroke-linecap="round" stroke-width="1.68" d="M292.533 192.381C291.033 197.811 288.033 209.283 288.033 211.726C288.033 214.781 285.033 225.981 287.033 238.199C288.633 247.973 289.367 256.865 289.533 260.089L290.533 274.344C294.448 275.034 299.642 281.27 305.533 281.471C312.684 281.714 320.389 275.739 322.033 274.344V264.671"/><path stroke="#DB2A7C" stroke-linecap="round" stroke-width="1.68" d="M297.034 296.743C297.034 296.743 293.648 313.017 298.283 330.803C301.992 345.031 303.151 349.031 302.533 351.215C300.988 354.648 298.194 358.8 296.033 364.961C293.534 372.088 286.116 368.524 287.033 374.124C287.533 377.179 293.663 377.179 300.533 377.179C308.283 377.179 307.215 372.022 309.533 365.47C311.433 360.099 313.117 359.845 315.435 353.761C315.435 349.831 312.899 348.403 312.533 345.615C311.94 341.098 313.007 337.595 313.581 332.675C314.214 327.234 320.534 310.702 315.435 299.288C312.346 292.375 318.106 280.165 319.033 276.889"/><path stroke="#DB2A7C" stroke-linecap="round" stroke-width="1.68" d="M310.533 95.6543C314.533 98.8785 319.533 109.807 307.533 129.763"/><path stroke="#DB2A7C" stroke-linecap="round" stroke-width="1.68" d="M321.533 107.872C321.033 117.035 328.62 127.97 331.739 126.869C334.138 126.022 338.033 123.654 341.033 117.035"/><path stroke="#DB2A7C" stroke-linecap="round" stroke-width="1.68" d="M337.033 211.726C335.2 211.895 330.733 214.067 327.533 221.398C324.333 228.729 322.033 231.071 320.033 228.525"/><path stroke="#DB2A7C" stroke-linecap="round" stroke-width="1.68" d="M294.23 275.871C293.23 279.944 293.23 286.053 294.73 289.616C296.96 294.914 297.533 296.574 298.533 300.816"/><path stroke="#DB2A7C" stroke-linecap="round" stroke-width="1.68" d="M301.559 352.96C301.393 354.22 301.958 356.645 305.551 356.267C309.143 355.889 312.369 351.385 313.533 349.18"/></svg>