<svg xmlns="http://www.w3.org/2000/svg" width="580" height="461" fill="none" viewBox="0 0 580 461"><g opacity=".4"><path stroke="#DB2A7C" stroke-linecap="round" stroke-linejoin="round" stroke-width="1.68" d="M375.221 96.4085C373.421 96.3934 371.704 97.2879 369.871 96.8602C368.908 96.6355 368.352 96.0721 367.803 95.2975C366.072 92.8538 367.398 89.1591 368.871 86.9059C369.717 85.6117 370.885 84.4778 372.017 83.4386C373.059 82.482 374.348 81.9889 375.652 81.4893C376.538 81.1502 377.653 81.2817 378.579 81.328C379.557 81.377 380.722 81.5646 381.637 81.9328C382.441 82.2565 382.844 82.8279 383.36 83.5403C384.039 84.4777 384.082 85.4075 384.614 86.2029C384.897 86.6259 385.048 87.1437 385.237 87.6132C385.682 88.7137 386.127 89.8143 386.571 90.9149C387.293 92.7022 388.03 94.4004 388.797 96.1595C389.097 96.8492 389.432 97.3742 389.82 98.1622C390.44 99.4232 390.791 100.358 391.329 101.429C392.063 102.889 393.712 105.814 393.712 105.814C393.712 105.814 394.452 106.963 395.065 107.577C395.547 108.059 396.419 108.68 396.419 108.68"/><path stroke="#DB2A7C" stroke-linecap="round" stroke-linejoin="round" stroke-width="1.68" d="M352.929 102.453C354.623 101.843 356.539 102.119 358.127 101.11C358.962 100.579 359.3 99.8634 359.562 98.9507C360.387 96.0717 357.914 93.0239 355.778 91.3849C354.551 90.4434 353.074 89.7598 351.662 89.1535C350.362 88.5955 348.983 88.5564 347.587 88.5164C346.639 88.4893 345.63 88.9824 344.772 89.3323C343.865 89.7022 342.828 90.2646 342.086 90.9146C341.434 91.4862 341.243 92.1588 340.991 93.0018C340.66 94.1111 340.927 95.0028 340.689 95.9293C340.562 96.422 340.591 96.9606 340.567 97.4663C340.512 98.652 340.456 99.8377 340.401 101.023C340.31 102.949 340.177 104.795 340.035 106.709C339.98 107.459 339.838 108.065 339.733 108.937C339.564 110.332 339.542 111.331 339.388 112.519C339.179 114.14 338.59 117.446 338.59 117.446C338.59 117.446 338.272 118.775 337.896 119.557C337.601 120.172 336.984 121.046 336.984 121.046"/><path stroke="#DB2A7C" stroke-linecap="round" stroke-linejoin="round" stroke-width="1.68" d="M372.739 96.8776C372.995 97.8746 373.361 98.9024 373.73 99.8606C374.155 100.961 374.622 101.989 375.349 102.928C376.277 104.126 377.673 105.102 378.976 105.838C379.754 106.277 380.561 106.511 381.439 106.659C381.697 106.703 382.314 106.919 382.486 106.723"/><path stroke="#DB2A7C" stroke-linecap="round" stroke-linejoin="round" stroke-width="1.68" d="M355.427 102.075C355.515 103.1 355.51 104.191 355.478 105.218C355.441 106.397 355.34 107.522 354.965 108.648C354.486 110.085 353.491 111.468 352.504 112.594C351.916 113.266 351.231 113.753 350.452 114.184C350.223 114.31 349.713 114.718 349.485 114.59"/><path stroke="#DB2A7C" stroke-linecap="round" stroke-linejoin="round" stroke-width="1.68" d="M382.571 106.739C383.312 108.571 383.962 110.428 384.62 112.291C384.848 112.937 385.01 113.6 385.218 114.252C385.306 114.528 385.468 114.845 385.5 115.132C385.521 115.318 385.549 115.553 385.617 115.723"/><path stroke="#DB2A7C" stroke-linecap="round" stroke-linejoin="round" stroke-width="1.68" d="M349.41 114.633C349.317 116.607 349.318 118.575 349.313 120.55C349.312 121.235 349.378 121.915 349.398 122.598C349.406 122.888 349.358 123.24 349.422 123.523C349.464 123.705 349.516 123.936 349.507 124.118"/><path stroke="#DB2A7C" stroke-linecap="round" stroke-linejoin="round" stroke-width="1.68" d="M385.558 115.751C386.047 115.668 386.529 115.537 387.024 115.491C387.796 115.419 388.575 115.087 389.289 114.799C389.791 114.596 390.284 114.332 390.779 114.112C391.468 113.804 391.983 113.397 392.537 112.891C392.787 112.663 393.034 112.437 393.288 112.22C393.513 112.028 393.79 111.827 393.979 111.6C394.329 111.177 394.724 110.777 395.079 110.358C395.371 110.013 395.623 109.578 395.97 109.282C396.094 109.176 396.339 108.743 396.488 108.774"/><path stroke="#DB2A7C" stroke-linecap="round" stroke-linejoin="round" stroke-width="1.68" d="M349.572 124.125C349.084 124.209 348.586 124.244 348.103 124.365C347.351 124.553 346.505 124.497 345.736 124.461C345.196 124.436 344.644 124.35 344.104 124.305C343.351 124.243 342.731 124.03 342.041 123.735C341.729 123.603 341.422 123.471 341.11 123.351C340.834 123.244 340.506 123.146 340.252 122.993C339.782 122.711 339.277 122.464 338.804 122.186C338.414 121.957 338.032 121.629 337.607 121.465C337.455 121.406 337.081 121.078 336.95 121.157"/><path stroke="#DB2A7C" stroke-linecap="round" stroke-linejoin="round" stroke-width="1.68" d="M348.183 66.3115C347.952 65.9171 347.704 65.805 347.351 65.5442C346.986 65.2747 346.622 65.252 346.192 65.252C345.549 65.252 345.015 65.7193 344.712 66.2384C344.227 67.0698 344.31 68.1693 344.31 69.0964C344.31 69.9679 344.284 70.8586 344.392 71.723C344.479 72.4218 344.69 73.1744 345.025 73.7995C345.263 74.243 345.625 74.7554 346.117 74.9342C346.209 74.9676 346.284 75.0691 346.375 75.1168C346.46 75.1617 346.571 75.2097 346.667 75.2244C346.768 75.2399 346.862 75.2883 346.963 75.3178C347.221 75.3925 347.5 75.4072 347.765 75.4376C347.958 75.4596 348.155 75.4822 348.348 75.4822C349.241 75.4822 350.202 75.1168 350.084 75.1168"/><path stroke="#DB2A7C" stroke-linecap="round" stroke-linejoin="round" stroke-width="1.68" d="M380.109 67.1752C380.799 66.7967 381.996 65.9254 383.158 66.274C384.321 66.6226 384.394 67.5414 384.394 67.5414C384.394 67.5414 384.427 68.1846 384.394 68.5945C384.352 69.1211 384.312 69.7522 384.137 70.4707C383.886 71.4992 383.748 72.1185 383.115 72.9815C382.644 73.6238 382.035 75.0739 382.035 75.0739C382.035 75.0739 381.594 76.5173 381.05 77.0615C380.097 78.0145 378.675 77.7939 377.912 77.7939"/><path stroke="#DB2A7C" stroke-linecap="round" stroke-width="1.68" d="M348.619 75.5977C348.497 77.3064 348.546 81.09 349.718 84.0193C350.272 85.4056 351.299 87.4216 352.5 89.4315M367.5 94.5811C367.5 94.5811 367.659 95.297 364.73 96.4687C361.952 97.5801 361.282 97.4265 360 96.9678"/><path stroke="#DB2A7C" stroke-linecap="round" stroke-width="1.68" d="M378.644 77.7939C378.156 79.6247 377.5 81.0811 377.5 81.0811"/><path stroke="#DB2A7C" stroke-linecap="round" stroke-width="1.68" d="M347.887 65.711C347.521 62.7817 347.228 56.0444 348.985 52.5292C351.182 48.1353 356.309 42.6429 360.702 42.2768C365.096 41.9106 367.293 41.5445 371.687 43.7414C375.202 45.499 377.79 48.3794 378.644 49.5999C379.743 52.1631 381.793 59.0468 381.207 66.0771"/><path stroke="#DB2A7C" stroke-linecap="round" stroke-linejoin="round" stroke-width="1.68" d="M379.998 67.1152C380.66 66.6138 380.871 66.375 381.69 66.375"/><path stroke="#DB2A7C" stroke-linecap="round" stroke-linejoin="round" stroke-width="1.68" d="M348.127 66.19C350.442 69.2453 351.342 64.0733 351.86 62.4567C352.514 60.4202 353.26 58.1553 355.705 58.1553C356.442 58.1553 356.946 59.219 357.359 59.7074C357.918 60.3684 358.642 60.8512 359.266 61.4422C361.054 63.1361 363.696 63.1782 365.921 62.4364C366.962 62.0895 368.116 61.2056 369.036 60.6103C369.794 60.1199 370.688 59.8421 371.41 59.3422C372.119 58.8511 373.432 58.8775 374.068 59.4335C374.674 59.9646 376.502 60.5492 376.614 61.4422C376.68 61.9692 377.169 62.856 377.385 63.3697C377.591 63.8599 377.742 64.5246 377.882 65.0132C378.037 65.5545 378.269 66.1278 378.714 66.4741C379.022 66.7137 380.028 67.3966 380.266 66.9205"/><path stroke="#DB2A7C" stroke-linecap="round" stroke-linejoin="round" stroke-width="1.68" d="M359.897 84.0205C360.289 84.097 360.678 84.16 361.072 84.2164"/><path stroke="#DB2A7C" stroke-linecap="round" stroke-linejoin="round" stroke-width="1.68" d="M363.619 84.4119C364.107 84.2425 364.536 84.0511 364.99 83.8242"/><path stroke="#DB2A7C" stroke-linecap="round" stroke-width="1.68" d="M392.6 140.624C394.657 145.717 403.113 152.963 406.103 152.545C409.094 152.127 413.768 147.079 413.761 145.107C413.755 143.135 415.02 135.516 412.551 129.404M412.551 129.404C410.083 123.293 401.359 117.34 400.262 114.624M412.551 129.404C412.551 129.404 406.667 113.248 407.5 110.581C408.333 107.915 409 100.082 405 90.0815C401 80.0815 388 80.5815 382 82.0815"/><path stroke="#DB2A7C" stroke-linecap="round" stroke-width="1.68" d="M351.155 149.928C350.899 155.415 345.316 165.05 342.355 165.645C339.395 166.239 333.314 163.022 332.668 161.159C332.022 159.296 328.307 152.524 328.615 145.94M328.615 145.94C328.924 139.357 335.187 130.853 335.324 127.927M328.615 145.94C328.615 145.94 328.824 128.747 327.156 126.506C325.487 124.265 322.267 117.094 322.733 106.333C323.2 95.5732 335.634 91.7446 341.792 91.1753"/><path stroke="#DB2A7C" stroke-linecap="round" stroke-width="1.68" d="M386.394 115.488L392.325 139.945"/><path stroke="#DB2A7C" stroke-linecap="round" stroke-width="1.68" d="M348.697 124.154L351.19 149.197"/><path stroke="#DB2A7C" stroke-linecap="round" stroke-width="1.68" d="M395.893 109.675L400.536 115.302"/><path stroke="#DB2A7C" stroke-linecap="round" stroke-width="1.68" d="M337.809 121.811L335.29 128.657"/><path stroke="#DB2A7C" stroke-linecap="round" stroke-width="1.68" d="M374.71 102.102C374.293 111.14 367.847 117.917 364.51 119.432C362.479 120.355 357.847 116.634 353.293 111.581"/><path stroke="#DB2A7C" stroke-linecap="round" stroke-width="1.68" d="M387.5 81.5811C387 83.9144 386.3 88.9811 387.5 92.5811"/><path stroke="#DB2A7C" stroke-width="1.68" d="M344 165.081L345.5 176.081C357.333 179.081 384.9 182.581 400.5 172.581C400.667 166.748 401.4 154.381 403 151.581"/><path stroke="#DB2A7C" stroke-linecap="round" stroke-width="1.68" d="M345.5 175.581C345 182.748 343.3 198.781 340.5 205.581C337 214.081 331 242.081 331 253.081C341.333 252.914 363.2 253.681 368 258.081"/><path fill="#DB2A7C" d="M409 216.081L408.163 216.005L409 216.081ZM405 256.581L404.734 257.378L405.73 257.71L405.836 256.666L405 256.581ZM368.5 258.081L368.018 258.769L368.417 259.048L368.858 258.841L368.5 258.081ZM368.5 236.081H369.34V235.925L369.284 235.78L368.5 236.081ZM366.784 229.28C366.617 228.847 366.131 228.631 365.698 228.797C365.265 228.964 365.049 229.45 365.216 229.883L366.784 229.28ZM399.855 172.619C400.251 173.095 400.851 173.887 401.346 174.695C401.594 175.099 401.806 175.492 401.953 175.84C402.107 176.204 402.16 176.449 402.16 176.581H403.84C403.84 176.113 403.684 175.621 403.5 175.185C403.309 174.733 403.052 174.263 402.779 173.817C402.232 172.925 401.582 172.067 401.145 171.543L399.855 172.619ZM402.16 176.581C402.16 176.892 402.078 177.495 401.97 178.43C401.868 179.321 401.755 180.428 401.723 181.621C401.659 183.976 401.902 186.81 403.288 189.026L404.712 188.136C403.598 186.353 403.341 183.936 403.402 181.666C403.432 180.547 403.539 179.497 403.639 178.622C403.735 177.792 403.84 177.02 403.84 176.581H402.16ZM403.288 189.026C404.46 190.903 405.936 194.915 406.991 199.881C408.041 204.824 408.654 210.612 408.163 216.005L409.837 216.157C410.346 210.55 409.709 204.588 408.634 199.531C407.564 194.497 406.04 190.26 404.712 188.136L403.288 189.026ZM408.163 216.005C407.364 224.8 405.164 246.661 404.164 256.496L405.836 256.666C406.836 246.834 409.036 224.963 409.837 216.157L408.163 216.005ZM405.266 255.784C401.935 254.674 396.127 253.435 389.432 253.279C382.737 253.123 375.097 254.048 368.142 257.321L368.858 258.841C375.503 255.714 382.863 254.806 389.393 254.958C395.923 255.111 401.565 256.322 404.734 257.378L405.266 255.784ZM368.982 257.393C368.248 256.88 367.234 255.865 366.641 254.548C366.061 253.262 365.881 251.697 366.751 249.957L365.249 249.205C364.119 251.465 364.355 253.566 365.109 255.239C365.849 256.88 367.085 258.116 368.018 258.769L368.982 257.393ZM366.751 249.957C367.811 247.838 368.451 245.068 368.831 242.517C369.212 239.953 369.34 237.537 369.34 236.081H367.66C367.66 237.459 367.538 239.792 367.169 242.27C366.799 244.761 366.189 247.324 365.249 249.205L366.751 249.957ZM369.284 235.78L366.784 229.28L365.216 229.883L367.716 236.383L369.284 235.78Z"/><path stroke="#DB2A7C" stroke-linecap="round" stroke-width="1.68" d="M378.5 202.081C377.167 203.248 373.7 207.181 370.5 213.581"/><path stroke="#DB2A7C" stroke-linecap="round" stroke-width="1.68" d="M334 253.581C334 260.248 334 274.181 334 276.581C334 279.581 332 283.081 333 287.081C333.8 290.281 337.333 294.081 339 295.581"/><path stroke="#DB2A7C" stroke-linecap="round" stroke-width="1.68" d="M336.5 293.081C336.5 294.248 336.5 297.681 336.5 302.081C336.5 307.581 334.5 312.081 339.5 331.081C343.5 346.281 343.167 354.748 342.5 357.081C340.833 360.748 337.886 365.237 334.5 367.581C328 372.081 324 373.581 326.5 376.081C329 378.581 332.09 380.081 339.5 380.081C344.5 380.081 347.5 377.581 350 370.581C352.049 364.843 355.5 366.081 358 359.581C358 355.383 355.895 352.559 355.5 349.581C354.861 344.755 355.382 338.337 356 333.081C356.684 327.269 360.5 309.581 358 302.081C356.29 296.95 355 287.081 356 283.581C356.8 280.781 360.5 263.581 363.5 256.081"/><path stroke="#DB2A7C" stroke-linecap="round" stroke-width="1.68" d="M368.5 258.081C369.167 263.581 371.3 275.781 374.5 280.581C378.5 286.581 375.5 288.081 377 291.581C378.2 294.381 381.5 298.414 383 300.081"/><path stroke="#DB2A7C" stroke-linecap="round" stroke-width="1.68" d="M403 256.081C400.333 263.248 395.2 279.081 396 285.081C396.8 291.081 399 297.248 400 299.581C402.5 305.914 407.4 320.981 407 330.581C406.5 342.581 401.5 359.581 402.5 362.581C403.5 365.581 404.5 365.081 404 367.081C403.5 369.081 403 372.081 405 375.581C407 379.081 404 382.081 403 382.581C402 383.081 404 396.581 397 396.581C390 396.581 377 397.081 379 392.081C381 387.081 388.5 386.581 390 379.581C391.2 373.981 392.833 370.581 393.5 369.581C392.5 362.914 389.9 348.181 387.5 342.581C384.5 335.581 383.044 331.207 381.5 323.581C379.405 313.231 382 302.581 380 296.581"/><path stroke="#DB2A7C" stroke-linecap="round" stroke-width="1.68" d="M392 372.581C393.833 376.414 399 378.081 403.5 371.581"/><path stroke="#DB2A7C" stroke-linecap="round" stroke-width="1.68" d="M342.5 357.581C342 360.248 343.4 363.381 347 362.581C351.5 361.581 356.5 355.581 356 352.581"/></g></svg>