<svg width="581" height="462" fill="none" xmlns="http://www.w3.org/2000/svg"><mask id="a" mask-type="alpha" maskUnits="userSpaceOnUse" x="1" y="161" width="580" height="301"><path d="M1 161h580v300H1V161z" fill="#040027"/></mask><g opacity=".5" stroke-width="2" mask="url(#a)"><path opacity=".5" d="M169 306L2 444" stroke="url(#paint0_linear)"/><path opacity=".1" d="M1 306h579" stroke="url(#paint1_linear)"/><path opacity=".2" d="M1 321h579" stroke="url(#paint2_linear)"/><path opacity=".3" d="M1 337h579" stroke="url(#paint3_linear)"/><path opacity=".5" d="M1 357h579" stroke="url(#paint4_linear)"/><path opacity=".5" d="M1 383h579" stroke="url(#paint5_linear)"/><path opacity=".5" d="M1 417h579" stroke="url(#paint6_linear)"/><path d="M211 306l-83 138" stroke="url(#paint7_linear)"/><path d="M254 306l-43 138" stroke="url(#paint8_linear)"/><path d="M297 306l-1 138" stroke="url(#paint9_linear)"/><path d="M339 306l43 138" stroke="url(#paint10_linear)"/><path d="M381 306l84 138" stroke="url(#paint11_linear)"/><path opacity=".5" d="M413 306l167 138" stroke="url(#paint12_linear)"/></g><g opacity=".4"><path d="M376 97l-5 1-2-2c-2-2-1-6 1-8l3-4 4-2h3l3 1 1 2 2 2v2a4382 4382 0 014 8l1 2 1 3a149 149 0 004 7l1 1M354 103l5-1 2-2c0-3-2-6-4-8l-4-2h-7l-3 2-1 2v4l-1 4v8l-1 4v4l-1 3-1 1" stroke="#DB2A7C" stroke-width="1.7" stroke-linecap="round" stroke-linejoin="round"/><path d="M374 98l1 3 1 3 4 3 2 1h1M356 103v7l-2 4-3 1-1 1M384 108l2 5v2l1 1v1M350 116v9h1M387 117l1-1h2l2-1 2-1v-1h1l1-2 1-1s0 0 0 0" stroke="#DB2A7C" stroke-width="1.7" stroke-linecap="round" stroke-linejoin="round"/><path d="M351 125h-8l-1-1h-1l-1-1-1-1h-1M349 67h-1l-1-1-1 1-1 3v3l1 2 1 1s0 0 0 0h1s0 0 0 0h1s0 0 0 0h2M381 68l3-1 1 2v2l-1 3-1 2-1 2-3 1" stroke="#DB2A7C" stroke-width="1.7" stroke-linecap="round" stroke-linejoin="round"/><path d="M350 77c-1 1 0 5 1 8l3 5m15 6l-3 1c-3 2-4 1-5 1M380 79l-1 3M349 67c0-3-1-10 1-13 2-5 7-10 12-11 4 0 6 0 11 2 3 1 6 4 7 6s3 9 2 16" stroke="#DB2A7C" stroke-width="1.7" stroke-linecap="round"/><path d="M381 68l2-1M349 67c2 3 3-2 4-4s1-4 4-4l1 2 2 1c2 2 5 2 7 1l3-1 2-2h3l3 2v2l1 2 1 1 1 1M361 85h1M365 85h1" stroke="#DB2A7C" stroke-width="1.7" stroke-linecap="round" stroke-linejoin="round"/><path d="M394 142c2 5 10 12 13 12 3-1 8-6 8-8s1-9-1-16m0 0c-3-6-12-12-13-14m13 14s-6-16-5-18c0-3 1-11-3-21s-17-9-23-8M352 151c0 5-6 15-9 16-3 0-9-3-9-5-1-2-5-8-4-15m0 0c0-7 6-15 6-18m-6 18s0-17-2-19c-2-3-5-10-4-21 0-10 13-14 19-15M387 116l6 25M350 125l2 25M397 111l5 5M339 123l-3 7M376 103c-1 9-7 16-10 17s-7-2-12-7M389 83c-1 2-2 7 0 11" stroke="#DB2A7C" stroke-width="1.7" stroke-linecap="round"/><path d="M345 166l2 11c11 3 39 7 55-3 0-6 0-19 2-21" stroke="#DB2A7C" stroke-width="1.7"/><path d="M347 177l-5 30c-4 8-10 36-10 47 10 0 32 1 37 5" stroke="#DB2A7C" stroke-width="1.7" stroke-linecap="round"/><path d="M410 217h-1 1zm-4 41l1 1v-1h-1zm-36 1l-1 1h1v-1zm0-22zm-2-7a1 1 0 00-2 1l2-1zm33-56a19 19 0 012 3v1h2v-2l-1-1-2-2-1 1zm2 4v5l1 7 2-1-2-6 1-3v-2h-2zm1 12l4 11c1 5 2 11 1 16h2a57 57 0 00-5-28l-2 1zm5 27l-4 40 2 1 4-41h-2zm-3 40c-3-1-9-3-16-3-6 0-14 1-21 4l1 2c7-3 14-4 20-4l16 2v-1zm-36 1l-2-2v-5l-2-1v6l3 4 1-2zm-2-7l2-7v-7h-1l-1 6-2 7 2 1zm2-14l-2-7-2 1 3 6h1z" fill="#DB2A7C"/><path d="M380 203c-2 1-5 5-8 12M335 255v23c0 3-2 6-1 10l6 9" stroke="#DB2A7C" stroke-width="1.7" stroke-linecap="round"/><path d="M338 294v9c0 6-2 10 3 29 4 15 3 24 3 26l-8 11c-7 4-11 6-8 8 2 3 5 4 13 4 5 0 8-2 10-9 2-6 6-5 8-11l-2-10v-17c1-6 5-23 2-31-2-5-3-15-2-18l8-28M370 259c0 6 2 18 6 23 4 6 1 7 2 11l6 8" stroke="#DB2A7C" stroke-width="1.7" stroke-linecap="round"/><path d="M404 257c-3 7-8 23-7 29l4 15c3 6 7 21 7 31 0 12-5 29-4 32s2 2 1 4c0 2-1 5 1 9 2 3-1 6-2 7-1 0 1 14-6 14s-20 0-18-5 10-5 11-12c1-6 3-9 4-10l-6-27c-3-7-5-12-6-19-3-11 0-21-2-27M393 374c2 3 7 5 12-1M344 359c-1 2 0 5 4 5 5-1 10-7 9-10" stroke="#DB2A7C" stroke-width="1.7" stroke-linecap="round"/></g><path d="M329 364c0 2 1 3 4 2 5 0 9-4 10-7M323 272l3 13c1 3 5 11 7 12" stroke="#DB2A7C" stroke-width="1.7" stroke-linecap="round"/><path d="M329 292c1 1-1 6-1 10-2 11-1 15 1 28l1 25c-1 6-2 12-6 18-2 4-24 17-7 17 16 0 22 1 21-5-1-7 2-12 3-14s3-3 2-9c-2-5 9-32 9-41 1-10 0-12-3-31-1-7 1-20 3-26" stroke="#DB2A7C" stroke-width="1.7" stroke-linecap="round"/><path d="M343 113h-5l-2-2c-1-3 1-6 2-8l4-3 4-1h3l3 1 1 2 1 2v2l1 3 2 6 1 2 1 3a145 145 0 003 7l1 1" stroke="#DB2A7C" stroke-width="1.7" stroke-linecap="round" stroke-linejoin="round"/><path d="M341 113l1 3 1 3 3 4 2 1h1M349 124l2 6v3s0 0 0 0M351 133h4l2-1 2-1s0 0 0 0l1-1 1-1 1-1h1M316 84v-1h-2l-1 1v7l1 1h1v1s0 0 0 0h2l1-1M348 85c1-1 2-2 3-1l2 1v1l-1 2-1 2-1 2-1 2-3 1" stroke="#DB2A7C" stroke-width="1.7" stroke-linecap="round" stroke-linejoin="round"/><path d="M317 93l1 8c1 2 6 10 10 13l5-1 3-2" stroke="#DB2A7C" stroke-width="1.7" stroke-linecap="round"/><path d="M316 145l2 7 3 2c3 1 6-3 7-5l2-5 1-5-1-3-2-3-3-1h-3-17l-5-1-3-1h-1" stroke="#DB2A7C" stroke-width="1.7" stroke-linecap="round" stroke-linejoin="round"/><path d="M316 147h-7l-4-2-2-2v-1M303 142h-8-1v1" stroke="#DB2A7C" stroke-width="1.7" stroke-linecap="round" stroke-linejoin="round"/><path d="M294 143l-1-2v-2-2-2l1-1v-1l1-2v-1h1" stroke="#DB2A7C" stroke-width="1.7" stroke-linecap="round" stroke-linejoin="round"/><path d="M251 147c-2-2-3-9-2-11 1-1 4-9 9-12 0 0 12-7 16-12 3-5 4-7 13-13 8-6 19-3 23 2M347 95l-1 3M316 83c0-3-1-9 1-13s8-9 12-10c4 0 7 0 11 2l7 5c1 3 3 10 2 17" stroke="#DB2A7C" stroke-width="1.7" stroke-linecap="round"/><path d="M348 85l2-1M316 84c3 3 4-2 4-4 1-2 1-4 4-4l2 1 1 2c2 2 5 2 7 1l3-2 3-1h2l3 2 1 2v2l1 1h1M328 101h1M332 102l1-1" stroke="#DB2A7C" stroke-width="1.7" stroke-linecap="round" stroke-linejoin="round"/><path d="M355 158c2 6 9 14 12 14s8-5 9-7c0-1 2-9 0-15m0 0c-1-6-9-13-10-16m10 16s-3-16-2-19c1-2 2-10 0-20-3-10-16-12-22-11M352 133l3 25M362 129l4 6M357 100c0 3-2 7-1 11" stroke="#DB2A7C" stroke-width="1.7" stroke-linecap="round"/><path d="M306 98c2-1 6-2 11-1" stroke="#DB2A7C" stroke-width="1.7"/><path d="M292 142c-1 5-1 16 2 22s1 22-1 29c2 2 8 7 22 4 18-3 36-9 37-16a38 38 0 012-27M251 147h4c2 0 2 3 14 3 9 0 14-9 24-9M295 130h-15c-8 0-11-5-16-2M289 127c2-1 6-2 7-6" stroke="#DB2A7C" stroke-width="1.7" stroke-linecap="round"/><path d="M353 181c2 2 5 6 4 9s-2 4 0 8c3 4 5 8 5 11l-5 38-2 16c-9-1-25-3-32 2-1-1-4-3-3-6 1-5 4-13 2-16" stroke="#DB2A7C" stroke-width="1.7" stroke-linecap="round"/><path d="M294 193l-5 20c0 3-3 14-1 26l3 22 1 14c3 1 9 7 15 7 7 1 14-5 16-7v-9M298 298s-3 16 1 34l5 20-7 14c-2 7-10 4-9 9 1 3 7 3 14 3s6-5 9-12c1-5 3-5 5-11l-2-8c-1-5 0-8 1-13 0-6 7-22 1-34-3-7 3-19 4-22M312 97c4 3 9 14-3 34M323 109c-1 9 7 20 10 19 2-1 6-3 9-10M338 213c-2 0-6 2-9 9-4 8-6 10-8 8" stroke="#DB2A7C" stroke-width="1.7" stroke-linecap="round"/><path d="M295 277c-1 4-1 10 1 14l4 11M303 354c-1 1 0 4 4 3 3 0 6-5 8-7" stroke="#DB2A7C" stroke-width="1.7" stroke-linecap="round"/><g filter="url(#filter0_d)" stroke="#00BDAF" stroke-width="1.7" stroke-linecap="round"><path d="M254 376c0 1 2 3 5 3 5-1 8-4 9-7"/><path d="M297 140l-5-2-1-2c-1-3 2-6 4-7l4-2 4-1 3 1 3 2 1 2v20l1 5v2l1 1" stroke-linejoin="round"/><path d="M295 139v7l2 4 2 2h1M300 152v10M300 162h7l1-1h1l1-1h2v-1M294 171l-7 10-5 6M283 187c-2 3-2 7-2 10v6l1 5M227 133c2 4 5 10 5 14l-2 12-1 8-2 14v13l-1 10-1 5-1 4M167 121l16-2 6-2 5-3" stroke-linejoin="round"/><path d="M185 119l8 3 10 4 5 2 6 1c3 1 6 3 10 3 3 1 8 2 10 5l3 6 1 4 1 2M167 104c1 0 14-2 23 0 2 1 2 3 6 3l11 2 4 1h4l7 1 4 1h3l5 1 6 2 5 4M242 116h19l5 1M268 108l-1-1h-1l-1 1-1 3v3l1 2 1 1s0 0 0 0h1s0 0 0 0h1s0 0 0 0h2M300 109l3-1 1 1v3l-1 3-1 2-1 2-3 1" stroke-linejoin="round"/><path d="M269 118c-1 1 0 5 1 8 1 4 6 12 9 12 2 1 2 2 6 0l6-4M299 120l-4 9M268 108c0-3-1-10 1-14s7-9 12-10c4 0 6-1 11 2 3 1 6 4 7 6s3 9 2 16"/><path d="M300 109l2-1M268 108c2 3 3-2 4-4s1-4 4-4l1 2 2 1c2 2 5 2 7 1l3-1 2-2h3l3 2v2l1 2 1 1 1 1M280 126h1M284 126h1" stroke-linejoin="round"/><path d="M253 286c6-4 21-2 27-1 1-6 4-21 10-36 7-19 2-23 1-24s-3-3-3-8c1-3-3-7-5-9-2 2-5 6-12 8-9 4-20 6-35 5-11-1-13-6-13-8-2 5-6 17-7 25-1 9 5 43 8 60 3 5 10 16 15 16s14-11 14-16v-12zm0 0c-3-1-6-3-4-10 2-6 2-9 1-9"/><path d="M253 298l2 10 4 8"/><path d="M257 312l-1 7c-1 3-3 15-1 26l1 23-5 16c-2 2-25 16-10 16 16 0 25 1 24-5s0-10 1-12c2-2 3-3 2-8-2-6 9-30 9-39 0-8 0-10-3-27-1-7 1-19 3-25"/><path d="M224 298c-2 2-5 8-5 12a1013 1013 0 007 39c2 3 1 13 2 20 2 7 3 9 7 10 5 1 13 2 14 0s-4-13-6-18l-5-10c1-2 1-6-1-9-2-2-1-8 1-15l3-14M232 148c-1 5 0 15 5 15 7-2 19-28 18-37-1-7-4-10-6-10M294 171l3 16c0 6 5 16 8 17 3 0 9-3 10-4 0-2 5-9 5-15 0-7-6-16-6-19s3-21 0-26l-4-7M300 162l-3 25M311 160l3 7M266 117c-2 8 4 32 9 32 4 1 12-3 17-11M297 150c-2 6-6 17-3 21"/><path d="M226 342c0 4 2 10 7 10s4-7 3-11M278 230c-5 1-16 6-19 13"/></g><path d="M113 35l-7 5c-4 57-11 175-7 185 4 9 27 11 37 11 8 0 23-3 26-11 4-9 4-127 4-185l-6-4m-40-4c12-5 24-3 33 1M111 228c6-3 22-8 40 0" stroke="#DB2A7C" stroke-width="1.7" stroke-linecap="round"/><path d="M121 46l-8 3V34l21-33h2l-15 29c-2 3-1 10 0 16zM152 47l7 4 1-15c0-3-12-25-18-35h-2l13 30c1 3 0 10-1 16zM129 30l7-29h2l-5 29" stroke="#DB2A7C" stroke-width="1.7"/><path d="M149 31l-9-30h-2l6 29" stroke="#DB2A7C" stroke-width="1.7"/><path d="M505 309c0-9 6-16 15-17M505 309c0-9-8-15-17-15M503 277c1 9-6 17-15 17M503 277c1 9 8 16 17 15" stroke="#A09FD1" stroke-width="3.2" stroke-linecap="round" stroke-linejoin="round"/><circle cx="85.3" cy="307.3" r="4" transform="rotate(176 85 307)" fill="#00BDAF"/><circle cx="478.3" cy="162.3" r="4" transform="rotate(176 478 162)" fill="#00BDAF"/><path d="M19 159c0-9 6-17 15-17M19 159c0-9-8-15-17-15M17 127c1 9-6 17-15 17M17 127c1 9 8 15 17 15" stroke="#A09FD1" stroke-width="3.2" stroke-linecap="round" stroke-linejoin="round"/><circle opacity=".2" cx="525.3" cy="46.3" r="4" transform="rotate(176 525 46)" fill="#00BDAF"/><circle opacity=".5" cx="67.3" cy="78" r="4" transform="rotate(176 67 78)" fill="#00BDAF"/><defs><linearGradient id="paint0_linear" x1="168.5" y1="306.3" x2="1.5" y2="306.3" gradientUnits="userSpaceOnUse"><stop stop-color="#DB2A7D" stop-opacity="0"/><stop offset=".5" stop-color="#DB2A7D"/><stop offset="1" stop-color="#DB2A7D" stop-opacity="0"/></linearGradient><linearGradient id="paint1_linear" x1="580" y1="306" x2="1" y2="306" gradientUnits="userSpaceOnUse"><stop stop-color="#DB2A7D" stop-opacity="0"/><stop offset=".5" stop-color="#DB2A7D"/><stop offset=".9" stop-color="#DB2A7D" stop-opacity="0"/></linearGradient><linearGradient id="paint2_linear" x1="580" y1="321" x2="1" y2="321" gradientUnits="userSpaceOnUse"><stop stop-color="#DB2A7D" stop-opacity="0"/><stop offset=".5" stop-color="#DB2A7D"/><stop offset=".9" stop-color="#DB2A7D" stop-opacity="0"/></linearGradient><linearGradient id="paint3_linear" x1="580" y1="337.3" x2="1" y2="337.3" gradientUnits="userSpaceOnUse"><stop stop-color="#DB2A7D" stop-opacity="0"/><stop offset=".5" stop-color="#DB2A7D"/><stop offset=".9" stop-color="#DB2A7D" stop-opacity="0"/></linearGradient><linearGradient id="paint4_linear" x1="580" y1="356.8" x2="1" y2="356.8" gradientUnits="userSpaceOnUse"><stop stop-color="#DB2A7D" stop-opacity="0"/><stop offset=".5" stop-color="#DB2A7D"/><stop offset=".9" stop-color="#DB2A7D" stop-opacity="0"/></linearGradient><linearGradient id="paint5_linear" x1="580" y1="383.2" x2="1" y2="383.2" gradientUnits="userSpaceOnUse"><stop stop-color="#DB2A7D" stop-opacity="0"/><stop offset=".5" stop-color="#DB2A7D"/><stop offset=".9" stop-color="#DB2A7D" stop-opacity="0"/></linearGradient><linearGradient id="paint6_linear" x1="580" y1="416.5" x2="1" y2="416.5" gradientUnits="userSpaceOnUse"><stop stop-color="#DB2A7D" stop-opacity="0"/><stop offset=".5" stop-color="#DB2A7D"/><stop offset=".9" stop-color="#DB2A7D" stop-opacity="0"/></linearGradient><linearGradient id="paint7_linear" x1="211.2" y1="306.2" x2="127.9" y2="306.2" gradientUnits="userSpaceOnUse"><stop stop-color="#DB2A7D" stop-opacity="0"/><stop offset=".5" stop-color="#DB2A7D"/><stop offset="1" stop-color="#DB2A7D" stop-opacity="0"/></linearGradient><linearGradient id="paint8_linear" x1="253.8" y1="306.2" x2="211.2" y2="306.2" gradientUnits="userSpaceOnUse"><stop stop-color="#DB2A7D" stop-opacity="0"/><stop offset=".5" stop-color="#DB2A7D"/><stop offset="1" stop-color="#DB2A7D" stop-opacity="0"/></linearGradient><linearGradient id="paint9_linear" x1="297" y1="306.2" x2="296.5" y2="306.2" gradientUnits="userSpaceOnUse"><stop stop-color="#DB2A7D" stop-opacity="0"/><stop offset=".5" stop-color="#DB2A7D"/><stop offset="1" stop-color="#DB2A7D" stop-opacity="0"/></linearGradient><linearGradient id="paint10_linear" x1="339.1" y1="306.2" x2="381.8" y2="306.2" gradientUnits="userSpaceOnUse"><stop stop-color="#DB2A7D" stop-opacity="0"/><stop offset=".5" stop-color="#DB2A7D"/><stop offset="1" stop-color="#DB2A7D" stop-opacity="0"/></linearGradient><linearGradient id="paint11_linear" x1="381.3" y1="306.2" x2="464.5" y2="306.2" gradientUnits="userSpaceOnUse"><stop stop-color="#DB2A7D" stop-opacity="0"/><stop offset=".5" stop-color="#DB2A7D"/><stop offset="1" stop-color="#DB2A7D" stop-opacity="0"/></linearGradient><linearGradient id="paint12_linear" x1="413" y1="306.3" x2="580" y2="306.3" gradientUnits="userSpaceOnUse"><stop stop-color="#DB2A7D" stop-opacity="0"/><stop offset=".5" stop-color="#DB2A7D"/><stop offset="1" stop-color="#DB2A7D" stop-opacity="0"/></linearGradient><filter id="filter0_d" x="148.9" y="69.6" width="188.3" height="351.3" filterUnits="userSpaceOnUse" color-interpolation-filters="sRGB"><feFlood flood-opacity="0" result="BackgroundImageFix"/><feColorMatrix in="SourceAlpha" type="matrix" values="0 0 0 0 0 0 0 0 0 0 0 0 0 0 0 0 0 0 127 0"/><feOffset dy="3.4"/><feGaussianBlur stdDeviation="8.4"/><feColorMatrix type="matrix" values="0 0 0 0 0 0 0 0 0 0.741176 0 0 0 0 0.686275 0 0 0 0.8 0"/><feBlend mode="normal" in2="BackgroundImageFix" result="effect1_dropShadow"/><feBlend mode="normal" in="SourceGraphic" in2="effect1_dropShadow" result="shape"/></filter></defs></svg>