<svg xmlns="http://www.w3.org/2000/svg" width="580" height="462" fill="none" viewBox="0 0 580 462"><g filter="url(#filter0_d)"><path stroke="#00BDAF" stroke-linecap="round" stroke-width="1.68" d="M252.973 376.025C253.339 377.123 254.95 379.174 258.465 378.588C262.859 377.856 266.154 374.926 266.887 372.363"/><path stroke="#00BDAF" stroke-linecap="round" stroke-linejoin="round" stroke-width="1.68" d="M296.262 139.946C294.598 139.258 292.672 139.444 291.133 138.361C290.324 137.792 290.019 137.062 289.801 136.138C289.11 133.223 291.724 130.294 293.934 128.757C295.203 127.874 296.711 127.26 298.15 126.721C299.474 126.224 300.854 126.249 302.25 126.275C303.198 126.292 304.183 126.832 305.024 127.222C305.913 127.633 306.923 128.244 307.633 128.928C308.258 129.529 308.417 130.21 308.629 131.064C308.907 132.187 308.599 133.066 308.794 134.002C308.898 134.5 308.844 135.037 308.844 135.543C308.844 136.73 308.844 137.917 308.844 139.104C308.844 141.032 308.891 142.882 308.943 144.801C308.963 145.553 309.077 146.165 309.141 147.041C309.244 148.442 309.22 149.44 309.317 150.635C309.45 152.264 309.884 155.594 309.884 155.594C309.884 155.594 310.14 156.936 310.478 157.735C310.745 158.363 311.321 159.265 311.321 159.265"/><path stroke="#00BDAF" stroke-linecap="round" stroke-linejoin="round" stroke-width="1.68" d="M293.785 139.451C293.649 140.471 293.603 141.562 293.587 142.588C293.568 143.768 293.617 144.896 293.939 146.039C294.35 147.497 295.28 148.925 296.212 150.096C296.769 150.794 297.43 151.313 298.188 151.78C298.411 151.917 298.902 152.348 299.135 152.231"/><path stroke="#00BDAF" stroke-linecap="round" stroke-linejoin="round" stroke-width="1.68" d="M299.208 152.277C299.208 154.254 299.116 156.219 299.028 158.193C298.998 158.877 298.899 159.552 298.848 160.235C298.826 160.524 298.857 160.878 298.78 161.157C298.73 161.337 298.667 161.565 298.667 161.748"/><path stroke="#00BDAF" stroke-linecap="round" stroke-linejoin="round" stroke-width="1.68" d="M298.601 161.753C299.086 161.859 299.581 161.918 300.057 162.061C300.801 162.284 301.647 162.268 302.417 162.268C302.959 162.268 303.514 162.208 304.056 162.189C304.81 162.162 305.44 161.977 306.143 161.716C306.46 161.598 306.774 161.48 307.091 161.375C307.372 161.281 307.703 161.198 307.964 161.058C308.447 160.798 308.963 160.574 309.448 160.319C309.849 160.108 310.245 159.799 310.678 159.655C310.833 159.603 311.222 159.293 311.349 159.378"/><path stroke="#00BDAF" stroke-linecap="round" stroke-linejoin="round" stroke-width="1.68" d="M292.832 171.182C291.482 175.177 288.751 177.497 286.391 180.83C284.802 183.073 283.007 185.179 281.485 187.463"/><path stroke="#00BDAF" stroke-linecap="round" stroke-linejoin="round" stroke-width="1.68" d="M281.978 186.723C279.8 189.718 279.758 193.852 279.758 197.467C279.758 199.071 279.552 201.382 280.128 202.88C280.682 204.322 280.361 206.375 281.238 207.691"/><path stroke="#00BDAF" stroke-linecap="round" stroke-linejoin="round" stroke-width="1.68" d="M225.877 132.895C227.713 136.566 230.669 142.966 230.669 147.13C230.669 151.046 230.013 155.338 229.38 159.203C228.969 161.717 228.374 164.188 227.955 166.7C227.138 171.599 226.671 176.453 226.283 181.405C225.97 185.399 226.705 189.543 226.105 193.506C225.6 196.839 225.952 200.417 225.05 203.688C224.585 205.372 224.358 207.122 223.748 208.8C223.271 210.11 222.528 211.716 222.528 213.117"/><path stroke="#00BDAF" stroke-linecap="round" stroke-linejoin="round" stroke-width="1.68" d="M165.545 120.612C170.819 119.695 176.298 120.137 181.565 119.009C183.944 118.499 186.202 117.461 188.459 116.555C189.398 116.178 192.666 115.213 193.173 114.198"/><path stroke="#00BDAF" stroke-linecap="round" stroke-linejoin="round" stroke-width="1.68" d="M183.552 118.886C186.429 119.488 189.175 120.971 191.857 122.147C195.205 123.616 198.686 124.747 202.108 126.039C203.693 126.638 205.456 127.104 207.097 127.52C209.028 128.009 210.831 128.923 212.743 129.383C216.027 130.173 219.273 131.613 222.61 132.152C226.395 132.762 230.697 133.734 232.889 137.085C234.137 138.994 234.951 141.1 236.041 143.143C236.697 144.373 237.015 145.883 237.274 147.254C237.372 147.774 237.822 149.474 237.822 149.474"/><path stroke="#00BDAF" stroke-linecap="round" stroke-linejoin="round" stroke-width="1.68" d="M165.827 104.335C167.284 104.335 180.447 101.909 188.529 104.335C191.184 105.132 191.267 106.863 195.12 107.339C200.447 107.997 204.703 108.571 205.801 108.816C207.272 109.145 208.78 109.273 210.239 109.638C211.372 109.921 212.489 110.218 213.642 110.411C215.923 110.791 218.32 111.479 220.628 111.479C222.203 111.479 223.846 111.75 225.444 111.775C226.36 111.789 227.261 112.042 228.173 112.071C229.589 112.115 231.122 112.252 232.513 112.515C234.885 112.963 237.295 113.925 239.334 115.21C241.166 116.365 242.566 118.363 244.48 119.32"/><path stroke="#00BDAF" stroke-linecap="round" stroke-linejoin="round" stroke-width="1.68" d="M240.929 116.214C245.971 115.407 251.034 115.77 256.118 115.77C257.575 115.77 258.997 115.795 260.441 115.926C261.508 116.023 263.682 116.448 264.69 116.784"/><path stroke="#00BDAF" stroke-linecap="round" stroke-linejoin="round" stroke-width="1.68" d="M267.183 108.23C266.952 107.836 266.704 107.724 266.351 107.463C265.986 107.194 265.622 107.171 265.192 107.171C264.549 107.171 264.015 107.638 263.712 108.157C263.227 108.989 263.31 110.088 263.31 111.015C263.31 111.887 263.283 112.778 263.392 113.642C263.479 114.341 263.69 115.093 264.025 115.718C264.262 116.162 264.625 116.674 265.117 116.853C265.209 116.887 265.284 116.988 265.375 117.036C265.46 117.081 265.571 117.129 265.667 117.143C265.768 117.159 265.862 117.207 265.963 117.237C266.22 117.311 266.5 117.326 266.765 117.357C266.958 117.379 267.154 117.401 267.348 117.401C268.24 117.401 269.202 117.036 269.084 117.036"/><path stroke="#00BDAF" stroke-linecap="round" stroke-linejoin="round" stroke-width="1.68" d="M299.109 109.094C299.799 108.716 300.996 107.844 302.158 108.193C303.32 108.542 303.394 109.46 303.394 109.46C303.394 109.46 303.426 110.104 303.394 110.513C303.351 111.04 303.312 111.671 303.137 112.39C302.886 113.418 302.748 114.037 302.115 114.9C301.644 115.543 301.034 116.993 301.034 116.993C301.034 116.993 300.594 118.436 300.05 118.98C299.097 119.933 297.675 119.713 296.912 119.713"/><path stroke="#00BDAF" stroke-linecap="round" stroke-width="1.68" d="M267.619 117.517C267.497 119.225 267.546 123.009 268.718 125.938C270.182 129.6 274.942 137.655 277.505 138.388C280.068 139.12 280.068 139.852 283.73 138.388C286.659 137.216 289.1 134.97 289.955 133.628"/><path stroke="#00BDAF" stroke-linecap="round" stroke-width="1.68" d="M297.644 119.713C297.156 121.544 295.813 125.864 294.349 128.501"/><path stroke="#00BDAF" stroke-linecap="round" stroke-width="1.68" d="M266.887 107.63C266.521 104.701 266.228 97.9633 267.985 94.4482C270.182 90.0543 275.308 84.5619 279.702 84.1957C284.096 83.8296 286.293 83.4634 290.687 85.6604C294.202 87.4179 296.79 90.2984 297.644 91.5189C298.743 94.082 300.793 100.966 300.207 107.996"/><path stroke="#00BDAF" stroke-linecap="round" stroke-linejoin="round" stroke-width="1.68" d="M298.998 109.034C299.66 108.533 299.871 108.294 300.69 108.294"/><path stroke="#00BDAF" stroke-linecap="round" stroke-linejoin="round" stroke-width="1.68" d="M267.127 108.109C269.442 111.164 270.342 105.992 270.86 104.376C271.514 102.339 272.26 100.074 274.705 100.074C275.442 100.074 275.946 101.138 276.359 101.626C276.918 102.287 277.642 102.77 278.266 103.361C280.054 105.055 282.696 105.097 284.921 104.355C285.962 104.008 287.116 103.125 288.036 102.529C288.794 102.039 289.688 101.761 290.41 101.261C291.119 100.77 292.432 100.796 293.068 101.352C293.674 101.884 295.502 102.468 295.614 103.361C295.68 103.888 296.169 104.775 296.385 105.289C296.591 105.779 296.742 106.444 296.882 106.932C297.037 107.473 297.269 108.047 297.714 108.393C298.022 108.633 299.028 109.316 299.266 108.839"/><path stroke="#00BDAF" stroke-linecap="round" stroke-linejoin="round" stroke-width="1.68" d="M278.897 125.939C279.289 126.016 279.678 126.079 280.072 126.135"/><path stroke="#00BDAF" stroke-linecap="round" stroke-linejoin="round" stroke-width="1.68" d="M282.619 126.332C283.107 126.162 283.536 125.971 283.99 125.744"/><path stroke="#00BDAF" stroke-linecap="round" stroke-width="1.68" d="M251.508 285.949C257.953 281.848 272.501 283.752 278.97 285.217C279.824 279.358 282.998 263.833 288.856 248.601C296.18 229.56 290.687 225.899 289.955 225.167C289.223 224.434 287.026 222.237 287.392 217.477C287.685 213.669 283.608 209.544 281.533 207.957C280.435 209.666 276.553 213.742 269.816 216.379C261.394 219.674 249.677 221.871 235.397 220.773C223.973 219.894 221.849 215.28 222.215 213.083C220.385 218.087 216.43 230.146 215.258 238.348C214.087 246.55 219.896 281.311 222.948 297.666C225.877 303.036 232.907 313.777 237.594 313.777C243.453 313.777 251.508 303.158 251.508 297.666C251.508 293.272 251.508 288.024 251.508 285.949ZM251.508 285.949C249.433 285.461 245.796 282.873 247.847 276.429C249.897 269.984 249.677 267.397 249.311 266.909"/><path stroke="#00BDAF" stroke-linecap="round" stroke-width="1.68" d="M251.508 298.032C251.752 300.229 252.533 305.282 253.705 307.919C254.877 310.555 257.123 314.387 258.099 315.974"/><path stroke="#00BDAF" stroke-linecap="round" stroke-width="1.68" d="M255.536 311.946C255.658 312.923 255.682 315.608 254.804 318.537C253.705 322.199 251.874 333.55 253.705 345.267C255.17 354.64 255.048 364.551 254.804 368.335C253.705 373.339 251.142 383.567 249.677 384.446C247.846 385.544 224.778 399.824 240.157 399.824C255.536 399.824 264.69 400.923 263.957 395.064C263.225 389.206 264.324 384.812 265.422 382.981C266.521 381.15 268.351 379.686 266.887 374.56C265.422 369.433 275.675 344.901 276.041 336.479C276.407 328.057 276.047 326.264 273.111 308.651C272.013 302.06 274.21 290.343 276.041 284.484"/><path stroke="#00BDAF" stroke-linecap="round" stroke-width="1.68" d="M222.948 297.666C221.117 300.107 217.602 306.014 218.188 310.115C218.773 314.216 222.826 333.305 224.778 342.337C224.168 343.192 223.314 345.633 224.778 348.562C226.609 352.224 225.877 362.476 227.342 369.433C228.806 376.39 229.905 378.221 234.299 378.953C238.693 379.686 246.748 380.784 248.213 378.953C249.384 377.489 244.307 366.138 241.622 360.645C240.035 358.326 236.935 353.176 237.228 351.125C237.594 348.562 237.96 344.901 236.129 342.337C234.299 339.774 235.031 333.55 237.228 326.959C238.985 321.686 239.913 315.73 240.157 313.411"/><path stroke="#00BDAF" stroke-linecap="round" stroke-width="1.68" d="M230.637 147.908C230.271 153.156 230.93 163.433 236.496 162.554C243.453 161.455 255.17 135.458 253.705 126.304C252.533 118.981 249.555 116.174 248.213 115.686"/><path stroke="#00BDAF" stroke-linecap="round" stroke-width="1.68" d="M292.884 171.341C293.738 174.881 295.813 183.058 295.813 187.452C295.813 192.945 300.94 202.831 303.869 203.563C306.798 204.296 313.023 201.366 313.755 199.536C314.487 197.705 318.515 191.114 318.515 184.523C318.515 177.932 312.657 169.144 312.657 166.215C312.657 163.286 315.586 144.978 312.657 139.852C310.313 135.751 308.995 133.749 308.629 133.261"/><path stroke="#00BDAF" stroke-linecap="round" stroke-width="1.68" d="M299.475 161.821L295.813 186.72"/><path stroke="#00BDAF" stroke-linecap="round" stroke-width="1.68" d="M310.46 159.99L312.657 166.947"/><path stroke="#00BDAF" stroke-linecap="round" stroke-width="1.68" d="M265.056 117.15C263.225 125.328 269.084 149.207 273.844 149.372C277.505 149.5 286.293 146.297 290.687 138.388"/><path stroke="#00BDAF" stroke-linecap="round" stroke-width="1.68" d="M296.18 150.104C293.883 155.8 290.127 167.436 292.884 171.342"/><path stroke="#00BDAF" stroke-linecap="round" stroke-width="1.68" d="M224.778 342.338C225.023 345.851 226.741 351.624 231.735 351.858C236.73 352.092 236.407 344.508 235.428 340.507"/><path stroke="#00BDAF" stroke-linecap="round" stroke-width="1.68" d="M277.139 229.561C272.013 231.025 261.101 235.785 258.465 243.108"/></g><path stroke="#DB2A7C" stroke-linecap="round" stroke-width="1.68" d="M111.967 35.2134C109.761 36.5419 107.569 38.1189 105.411 39.9733C101.383 97.3382 94.2793 214.558 98.0873 224.517C101.895 234.477 124.573 236.235 135.436 235.868C142.759 235.624 158.211 233.012 161.433 224.517C164.655 216.023 165.217 97.9485 165.094 39.9733C163.464 38.6882 161.436 37.3223 159.088 36.0089M119.325 31.6777C131.317 27.2807 143.229 29.1928 152.446 32.8534"/><path stroke="#DB2A7C" stroke-linecap="round" stroke-width="1.68" d="M110.171 228.377C115.785 225.081 131.554 220.468 149.716 228.377"/><path stroke="#DB2A7C" stroke-width="1.68" d="M119.691 46.1976C117.128 46.5639 113.832 47.7843 112.368 48.7607C112.124 44.8551 111.782 36.3847 112.368 33.7483C112.954 31.112 126.282 10.9244 132.873 1.16016H135.069C130.798 9.70387 121.155 27.4504 119.691 30.0867C118.226 32.7231 118.958 39.973 119.691 46.1976Z"/><path stroke="#DB2A7C" stroke-width="1.68" d="M150.617 47.3186C153.138 47.9097 156.313 49.4162 157.685 50.5181C158.273 46.6492 159.361 38.242 159.01 35.5643C158.659 32.8865 146.997 11.4693 141.294 1.16136L139.463 1.16334C142.964 10.0508 150.813 28.5152 152.039 31.2706C153.265 34.0259 151.896 41.1829 150.617 47.3186Z"/><path stroke="#DB2A7C" stroke-width="1.68" d="M127.746 29.7206L135.362 1.16016H137.266L131.935 29.7206"/><path stroke="#DB2A7C" stroke-width="1.68" d="M147.519 31.1852L139.165 1.16016H137.266L142.583 30.1"/><defs><filter id="filter0_d" width="188.27" height="351.287" x="147.895" y="69.629" color-interpolation-filters="sRGB" filterUnits="userSpaceOnUse"><feFlood flood-opacity="0" result="BackgroundImageFix"/><feColorMatrix in="SourceAlpha" type="matrix" values="0 0 0 0 0 0 0 0 0 0 0 0 0 0 0 0 0 0 127 0"/><feOffset dy="3.36"/><feGaussianBlur stdDeviation="8.405"/><feColorMatrix type="matrix" values="0 0 0 0 0 0 0 0 0 0.741176 0 0 0 0 0.686275 0 0 0 0.8 0"/><feBlend in2="BackgroundImageFix" mode="normal" result="effect1_dropShadow"/><feBlend in="SourceGraphic" in2="effect1_dropShadow" mode="normal" result="shape"/></filter></defs></svg>