<svg xmlns="http://www.w3.org/2000/svg" width="581" height="461" fill="none" viewBox="0 0 581 461"><mask id="mask0" width="580" height="301" x="1" y="160" mask-type="alpha" maskUnits="userSpaceOnUse"><path fill="#040027" d="M1 160H581V460.15H1V160Z"/></mask><g mask="url(#mask0)"><g opacity=".5"><path stroke="url(#paint0_linear)" stroke-width="2" d="M168.511 305.286L1.52191 442.75" opacity=".5"/><path stroke="url(#paint1_linear)" stroke-width="2" d="M1 305H579.999" opacity=".1"/><path stroke="url(#paint2_linear)" stroke-width="2" d="M1 320.034H579.999" opacity=".2"/><path stroke="url(#paint3_linear)" stroke-width="2" d="M1 336.287H579.999" opacity=".3"/><path stroke="url(#paint4_linear)" stroke-width="2" d="M1 355.792H579.999" opacity=".5"/><path stroke="url(#paint5_linear)" stroke-width="2" d="M1 382.205H579.999" opacity=".5"/><path stroke="url(#paint6_linear)" stroke-width="2" d="M1 415.524H579.999" opacity=".5"/><path stroke="url(#paint7_linear)" stroke-width="2" d="M211.167 305.2L127.933 442.751"/><path stroke="url(#paint8_linear)" stroke-width="2" d="M253.826 305.2L211.169 442.751"/><path stroke="url(#paint9_linear)" stroke-width="2" d="M297.003 305.2L296.482 442.751"/><path stroke="url(#paint10_linear)" stroke-width="2" d="M339.142 305.2L381.799 442.751"/><path stroke="url(#paint11_linear)" stroke-width="2" d="M381.278 305.2L464.512 442.751"/><path stroke="url(#paint12_linear)" stroke-width="2" d="M413.011 305.286L580 442.75" opacity=".5"/></g></g><path stroke="#A09FD1" stroke-linecap="round" stroke-linejoin="round" stroke-width="3.207" d="M505.49 308.224C504.798 299.395 511.394 291.678 520.223 290.986"/><path stroke="#A09FD1" stroke-linecap="round" stroke-linejoin="round" stroke-width="3.207" d="M505.491 308.225C504.799 299.396 497.081 292.8 488.252 293.492"/><path stroke="#A09FD1" stroke-linecap="round" stroke-linejoin="round" stroke-width="3.207" d="M502.986 276.252C503.677 285.081 497.081 292.799 488.252 293.491"/><path stroke="#A09FD1" stroke-linecap="round" stroke-linejoin="round" stroke-width="3.207" d="M502.985 276.252C503.677 285.081 511.395 291.678 520.224 290.986"/><circle cx="85.311" cy="306.336" r="4" fill="#00BDAF" transform="rotate(175.52 85.3107 306.336)"/><circle cx="478.3" cy="161.3" r="4" fill="#00BDAF" transform="rotate(175.52 478.3 161.3)"/><path stroke="#A09FD1" stroke-linecap="round" stroke-linejoin="round" stroke-width="3.207" d="M19.4897 158.023C18.798 149.194 25.3943 141.476 34.2231 140.785"/><path stroke="#A09FD1" stroke-linecap="round" stroke-linejoin="round" stroke-width="3.207" d="M19.4907 158.024C18.799 149.195 11.0812 142.599 2.25247 143.291"/><path stroke="#A09FD1" stroke-linecap="round" stroke-linejoin="round" stroke-width="3.207" d="M16.9858 126.051C17.6775 134.88 11.0812 142.598 2.25247 143.29"/><path stroke="#A09FD1" stroke-linecap="round" stroke-linejoin="round" stroke-width="3.207" d="M16.9853 126.051C17.677 134.88 25.3948 141.476 34.2235 140.785"/><circle cx="525.3" cy="45.3" r="4" fill="#00BDAF" opacity=".2" transform="rotate(175.52 525.3 45.3002)"/><circle cx="67.346" cy="77.04" r="4" fill="#00BDAF" opacity=".5" transform="rotate(175.52 67.3457 77.0395)"/><defs><linearGradient id="paint0_linear" x1="168.511" x2="1.522" y1="305.286" y2="305.286" gradientUnits="userSpaceOnUse"><stop stop-color="#DB2A7D" stop-opacity="0"/><stop offset=".521" stop-color="#DB2A7D"/><stop offset="1" stop-color="#DB2A7D" stop-opacity="0"/></linearGradient><linearGradient id="paint1_linear" x1="579.999" x2="1" y1="305" y2="305" gradientUnits="userSpaceOnUse"><stop stop-color="#DB2A7D" stop-opacity="0"/><stop offset=".49" stop-color="#DB2A7D"/><stop offset=".914" stop-color="#DB2A7D" stop-opacity="0"/></linearGradient><linearGradient id="paint2_linear" x1="579.999" x2="1" y1="320.034" y2="320.034" gradientUnits="userSpaceOnUse"><stop stop-color="#DB2A7D" stop-opacity="0"/><stop offset=".49" stop-color="#DB2A7D"/><stop offset=".914" stop-color="#DB2A7D" stop-opacity="0"/></linearGradient><linearGradient id="paint3_linear" x1="579.999" x2="1" y1="336.287" y2="336.287" gradientUnits="userSpaceOnUse"><stop stop-color="#DB2A7D" stop-opacity="0"/><stop offset=".49" stop-color="#DB2A7D"/><stop offset=".914" stop-color="#DB2A7D" stop-opacity="0"/></linearGradient><linearGradient id="paint4_linear" x1="579.999" x2="1" y1="355.792" y2="355.792" gradientUnits="userSpaceOnUse"><stop stop-color="#DB2A7D" stop-opacity="0"/><stop offset=".49" stop-color="#DB2A7D"/><stop offset=".914" stop-color="#DB2A7D" stop-opacity="0"/></linearGradient><linearGradient id="paint5_linear" x1="579.999" x2="1" y1="382.205" y2="382.205" gradientUnits="userSpaceOnUse"><stop stop-color="#DB2A7D" stop-opacity="0"/><stop offset=".49" stop-color="#DB2A7D"/><stop offset=".914" stop-color="#DB2A7D" stop-opacity="0"/></linearGradient><linearGradient id="paint6_linear" x1="579.999" x2="1" y1="415.524" y2="415.524" gradientUnits="userSpaceOnUse"><stop stop-color="#DB2A7D" stop-opacity="0"/><stop offset=".49" stop-color="#DB2A7D"/><stop offset=".914" stop-color="#DB2A7D" stop-opacity="0"/></linearGradient><linearGradient id="paint7_linear" x1="211.167" x2="127.933" y1="305.2" y2="305.2" gradientUnits="userSpaceOnUse"><stop stop-color="#DB2A7D" stop-opacity="0"/><stop offset=".521" stop-color="#DB2A7D"/><stop offset="1" stop-color="#DB2A7D" stop-opacity="0"/></linearGradient><linearGradient id="paint8_linear" x1="253.826" x2="211.169" y1="305.2" y2="305.2" gradientUnits="userSpaceOnUse"><stop stop-color="#DB2A7D" stop-opacity="0"/><stop offset=".521" stop-color="#DB2A7D"/><stop offset="1" stop-color="#DB2A7D" stop-opacity="0"/></linearGradient><linearGradient id="paint9_linear" x1="297.003" x2="296.482" y1="305.2" y2="305.2" gradientUnits="userSpaceOnUse"><stop stop-color="#DB2A7D" stop-opacity="0"/><stop offset=".521" stop-color="#DB2A7D"/><stop offset="1" stop-color="#DB2A7D" stop-opacity="0"/></linearGradient><linearGradient id="paint10_linear" x1="339.142" x2="381.799" y1="305.2" y2="305.2" gradientUnits="userSpaceOnUse"><stop stop-color="#DB2A7D" stop-opacity="0"/><stop offset=".521" stop-color="#DB2A7D"/><stop offset="1" stop-color="#DB2A7D" stop-opacity="0"/></linearGradient><linearGradient id="paint11_linear" x1="381.278" x2="464.512" y1="305.2" y2="305.2" gradientUnits="userSpaceOnUse"><stop stop-color="#DB2A7D" stop-opacity="0"/><stop offset=".521" stop-color="#DB2A7D"/><stop offset="1" stop-color="#DB2A7D" stop-opacity="0"/></linearGradient><linearGradient id="paint12_linear" x1="413.011" x2="580" y1="305.286" y2="305.286" gradientUnits="userSpaceOnUse"><stop stop-color="#DB2A7D" stop-opacity="0"/><stop offset=".521" stop-color="#DB2A7D"/><stop offset="1" stop-color="#DB2A7D" stop-opacity="0"/></linearGradient></defs></svg>