<svg xmlns="http://www.w3.org/2000/svg" width="580" height="461" fill="none" viewBox="0 0 580 461"><g opacity=".2"><g filter="url(#filter0_d)"><path stroke="#DB2A7C" stroke-linecap="round" stroke-linejoin="round" stroke-width="2" d="M453.681 243.071L478.193 237.623L478.015 262.732L453.503 268.179L453.681 243.071Z"/><path stroke="#DB2A7C" stroke-linecap="round" stroke-linejoin="round" stroke-width="2" d="M462.401 256.544L453.681 243.07L468.057 249.543L477.405 262.239L462.401 256.544Z"/><path stroke="#DB2A7C" stroke-linecap="round" stroke-linejoin="round" stroke-width="2" d="M478.307 237.256L453.168 268.369"/></g></g><g opacity=".3"><g filter="url(#filter1_d)"><path fill="#DB2A7C" d="M158.978 67.8475L159.36 66.9235C158.914 66.7389 158.399 66.8996 158.137 67.3055L158.978 67.8475ZM165.278 70.4541L166.125 70.9857C166.281 70.7363 166.32 70.4305 166.23 70.15C166.141 69.8694 165.932 69.6426 165.66 69.53L165.278 70.4541ZM152.171 78.3995L152.3 79.3911C152.592 79.3532 152.852 79.1888 153.011 78.9416L152.171 78.3995ZM147.974 78.9455L147.845 77.9538C147.491 77.9999 147.188 78.2315 147.051 78.5614L147.974 78.9455ZM146.111 83.4242L145.188 83.0401C145.05 83.3699 145.099 83.748 145.317 84.0317C145.534 84.3155 145.886 84.4619 146.24 84.4158L146.111 83.4242ZM149.188 83.0239L150.028 83.566C150.239 83.2387 150.241 82.8188 150.033 82.4896C149.825 82.1605 149.445 81.982 149.059 82.0322L149.188 83.0239ZM143.551 91.7627L142.71 91.2206C142.55 91.4696 142.508 91.777 142.596 92.0599C142.684 92.3429 142.893 92.5721 143.167 92.686L143.551 91.7627ZM159.687 98.4755L159.303 99.3988C159.813 99.6109 160.398 99.3695 160.61 98.8596L159.687 98.4755ZM162.376 92.011L163.299 92.3951C163.512 91.8852 163.27 91.2999 162.76 91.0877L162.376 92.011ZM153.947 88.5045L153.1 87.9729C152.944 88.222 152.905 88.5274 152.994 88.8077C153.083 89.088 153.292 89.3148 153.563 89.4278L153.947 88.5045ZM158.117 81.8623L157.988 80.8707C157.692 80.9092 157.428 81.0779 157.27 81.3307L158.117 81.8623ZM163.146 81.208L163.275 82.1997C163.629 82.1536 163.932 81.922 164.069 81.5921L163.146 81.208ZM165.009 76.7293L165.933 77.1134C166.07 76.7836 166.021 76.4055 165.804 76.1218C165.587 75.838 165.235 75.6916 164.88 75.7377L165.009 76.7293ZM161.012 77.2493L160.165 76.7177C159.959 77.0456 159.961 77.4628 160.17 77.7888C160.379 78.1148 160.757 78.2909 161.141 78.241L161.012 77.2493ZM158.595 68.7716L164.895 71.3781L165.66 69.53L159.36 66.9235L158.595 68.7716ZM153.011 78.9416L159.818 68.3896L158.137 67.3055L151.331 77.8574L153.011 78.9416ZM148.103 79.9371L152.3 79.3911L152.042 77.4079L147.845 77.9538L148.103 79.9371ZM147.034 83.8083L148.897 79.3296L147.051 78.5614L145.188 83.0401L147.034 83.8083ZM149.059 82.0322L145.982 82.4325L146.24 84.4158L149.317 84.0155L149.059 82.0322ZM144.391 92.3047L150.028 83.566L148.348 82.4818L142.71 91.2206L144.391 92.3047ZM160.071 97.5522L143.935 90.8394L143.167 92.686L159.303 99.3988L160.071 97.5522ZM161.453 91.6269L158.764 98.0914L160.61 98.8596L163.299 92.3951L161.453 91.6269ZM153.563 89.4278L161.992 92.9343L162.76 91.0877L154.331 87.5812L153.563 89.4278ZM157.27 81.3307L153.1 87.9729L154.794 89.0362L158.964 82.394L157.27 81.3307ZM163.017 80.2164L157.988 80.8707L158.246 82.854L163.275 82.1997L163.017 80.2164ZM164.086 76.3452L162.223 80.8239L164.069 81.5921L165.933 77.1134L164.086 76.3452ZM161.141 78.241L165.138 77.721L164.88 75.7377L160.883 76.2577L161.141 78.241ZM164.431 69.9224L160.165 76.7177L161.859 77.781L166.125 70.9857L164.431 69.9224Z"/></g></g><g opacity=".5"><g filter="url(#filter2_d)"><path stroke="#DB2A7C" stroke-linecap="round" stroke-linejoin="round" stroke-width="2" d="M75.9873 136.302L80.9186 131.66C81.3582 131.056 81.651 130.125 80.6468 129.058C80.7131 129.056 78.8447 127.146 78.8447 127.146L81.6583 124.496L85.0774 128.132L85.0643 128.145C85.5787 128.691 86.1166 129.241 86.6652 129.8L90.9938 125.728L93.4722 128.362L89.2291 132.355C89.9052 133.045 90.5853 133.74 91.2373 134.433L95.452 130.466L97.9321 133.101L93.6032 137.175C96.5063 140.857 97.9955 144.535 95.157 147.772C93.0836 150.145 90.814 150.48 88.5983 149.684C90.3611 152.767 90.3494 155.75 86.7071 158.591C82.1847 162.121 78.1507 160.071 73.7274 155.88L69.3562 159.993L66.8761 157.358L71.1891 153.301C70.5459 152.619 69.8934 151.914 69.2282 151.177L64.8963 155.254L62.4196 152.622L66.7967 148.5C66.2205 147.88 65.6404 147.242 65.0406 146.603L61.8133 143.174L65.4529 140.736C65.4529 140.736 67.2569 142.714 67.2551 142.652C67.9581 143.396 68.6795 143.09 69.0595 142.821L75.9688 136.319M82.3259 152.896C79.0554 155.977 74.1551 150.025 72.4727 148.24L78.2743 142.782C79.955 144.568 85.7387 149.685 82.3259 152.896ZM89.3568 143.968C86.3793 146.769 82.3295 141.77 80.9294 140.283L86.1907 135.331C87.5907 136.819 92.4613 141.046 89.3568 143.968Z"/></g></g><g opacity=".5"><g filter="url(#filter3_d)"><path stroke="#DB2A7C" stroke-linecap="round" stroke-linejoin="round" stroke-width="2" d="M517.496 297.251L522.322 292.5C522.748 291.886 523.02 290.949 521.992 289.904C522.058 289.901 520.147 288.033 520.147 288.033L522.901 285.321L526.401 288.879L526.388 288.892C526.914 289.427 527.465 289.965 528.025 290.512L532.262 286.344L534.799 288.921L530.646 293.008C531.337 293.683 532.033 294.363 532.7 295.041L536.825 290.98L539.363 293.559L535.127 297.729C538.112 301.345 539.683 304.989 536.918 308.289C534.898 310.708 532.637 311.093 530.404 310.347C532.235 313.39 532.29 316.372 528.712 319.295C524.27 322.925 520.191 320.966 515.675 316.875L511.397 321.084L508.859 318.506L513.08 314.353C512.421 313.686 511.753 312.996 511.072 312.274L506.832 316.447L504.297 313.871L508.581 309.652C507.991 309.045 507.397 308.42 506.783 307.795L503.48 304.439L507.064 301.92C507.064 301.92 508.911 303.857 508.908 303.795C509.628 304.524 510.342 304.201 510.716 303.923L517.478 297.269M524.205 313.699C521.004 316.852 515.972 311.011 514.25 309.265L519.928 303.678C521.648 305.426 527.545 310.412 524.205 313.699ZM531.034 304.616C528.12 307.483 523.959 302.576 522.526 301.12L527.675 296.052C529.108 297.508 534.072 301.625 531.034 304.616Z"/></g></g><g filter="url(#filter4_d)"><path stroke="#DB2A7C" stroke-linecap="round" stroke-linejoin="round" stroke-width="2" d="M297.703 311.411C296.288 310.594 294.696 310.357 293.118 310.302C291.795 310.256 289.82 309.408 289.82 307C289.82 305.206 291.274 303.762 293.119 303.698C294.696 303.643 296.289 303.406 297.703 302.59C298.973 301.856 300.027 300.802 300.761 299.532C301.494 298.262 301.88 296.821 301.88 295.354C301.88 293.888 301.494 292.447 300.761 291.177C300.027 289.907 298.973 288.852 297.703 288.119C296.433 287.386 294.992 287 293.525 287C292.059 287 290.618 287.386 289.348 288.119C288.078 288.853 287.023 289.907 286.29 291.177C285.557 292.448 285.171 293.888 285.171 295.355C285.171 296.973 285.747 298.463 286.481 299.845C287.099 301.007 287.412 303.163 285.293 304.387C283.716 305.297 281.749 304.72 280.767 303.148C279.937 301.82 278.935 300.575 277.532 299.765C276.262 299.032 274.821 298.646 273.355 298.646C271.888 298.646 270.447 299.032 269.177 299.765C267.907 300.498 266.853 301.553 266.12 302.823C265.386 304.093 265 305.534 265 307C265 308.467 265.386 309.907 266.12 311.177C266.853 312.447 267.907 313.502 269.177 314.235C270.447 314.968 271.888 315.354 273.355 315.354C274.821 315.354 276.262 314.968 277.532 314.235C278.934 313.425 279.936 312.182 280.766 310.854C281.447 309.764 283.148 308.375 285.293 309.614C286.867 310.523 287.353 312.516 286.481 314.157C285.746 315.538 285.171 317.027 285.171 318.646C285.171 320.112 285.557 321.553 286.29 322.823C287.024 324.093 288.078 325.147 289.348 325.881C290.618 326.614 292.059 327 293.525 327C294.992 327 296.433 326.614 297.703 325.881C298.973 325.147 300.027 324.093 300.761 322.823C301.494 321.553 301.88 320.112 301.88 318.646C301.88 317.179 301.494 315.739 300.761 314.469C300.027 313.198 298.973 312.144 297.703 311.411Z"/></g><g filter="url(#filter5_d)"><path fill="#DB2A7C" d="M419.983 342.26L420.209 341.286C419.738 341.177 419.257 341.42 419.065 341.864L419.983 342.26ZM429.47 344.456L430.393 344.841C430.507 344.569 430.495 344.261 430.36 343.999C430.226 343.737 429.983 343.548 429.696 343.481L429.47 344.456ZM412.867 358.722L413.157 359.679C413.439 359.594 413.669 359.389 413.785 359.119L412.867 358.722ZM407.082 360.476L406.792 359.519C406.45 359.622 406.189 359.9 406.108 360.248L407.082 360.476ZM405.507 367.223L404.533 366.995C404.452 367.343 404.562 367.708 404.823 367.952C405.083 368.196 405.455 368.283 405.797 368.18L405.507 367.223ZM409.749 365.937L410.667 366.334C410.821 365.976 410.754 365.562 410.495 365.271C410.236 364.981 409.831 364.867 409.459 364.98L409.749 365.937ZM403.855 379.571L402.937 379.174C402.82 379.446 402.829 379.756 402.962 380.021C403.096 380.285 403.339 380.477 403.628 380.545L403.855 379.571ZM428.163 385.245L427.936 386.219C428.194 386.279 428.466 386.235 428.691 386.095C428.916 385.955 429.077 385.731 429.137 385.473L428.163 385.245ZM430.436 375.507L431.41 375.735C431.536 375.197 431.202 374.659 430.664 374.533L430.436 375.507ZM417.739 372.543L416.816 372.158C416.703 372.429 416.715 372.737 416.849 372.999C416.983 373.26 417.225 373.45 417.512 373.517L417.739 372.543ZM422.056 362.207L421.766 361.25C421.48 361.337 421.248 361.546 421.133 361.822L422.056 362.207ZM428.988 360.106L429.278 361.063C429.62 360.96 429.88 360.682 429.962 360.334L428.988 360.106ZM430.563 353.36L431.537 353.587C431.618 353.239 431.507 352.874 431.247 352.63C430.986 352.386 430.615 352.299 430.273 352.403L430.563 353.36ZM425.054 355.029L424.131 354.644C423.982 355.001 424.053 355.412 424.312 355.699C424.572 355.987 424.974 356.098 425.344 355.986L425.054 355.029ZM419.758 343.235L429.245 345.43L429.696 343.481L420.209 341.286L419.758 343.235ZM413.785 359.119L420.901 342.657L419.065 341.864L411.949 358.326L413.785 359.119ZM407.372 361.433L413.157 359.679L412.577 357.765L406.792 359.519L407.372 361.433ZM406.48 367.45L408.055 360.703L406.108 360.248L404.533 366.995L406.48 367.45ZM409.459 364.98L405.217 366.266L405.797 368.18L410.039 366.894L409.459 364.98ZM404.773 379.968L410.667 366.334L408.831 365.54L402.937 379.174L404.773 379.968ZM428.39 384.272L404.083 378.597L403.628 380.545L427.936 386.219L428.39 384.272ZM429.463 375.28L427.189 385.018L429.137 385.473L431.41 375.735L429.463 375.28ZM417.512 373.517L430.209 376.481L430.664 374.533L417.966 371.569L417.512 373.517ZM421.133 361.822L416.816 372.158L418.662 372.928L422.979 362.592L421.133 361.822ZM428.698 359.149L421.766 361.25L422.346 363.164L429.278 361.063L428.698 359.149ZM429.589 353.132L428.014 359.879L429.962 360.334L431.537 353.587L429.589 353.132ZM425.344 355.986L430.853 354.317L430.273 352.403L424.764 354.072L425.344 355.986ZM428.548 344.07L424.131 354.644L425.977 355.414L430.393 344.841L428.548 344.07Z"/></g><g filter="url(#filter6_d)"><path fill="#DB2A7C" d="M546.249 351.913L545.262 351.754C545.22 352.016 545.283 352.283 545.439 352.498C545.594 352.713 545.828 352.858 546.09 352.9L546.249 351.913ZM547.044 346.976L548.032 347.136C548.12 346.59 547.749 346.077 547.204 345.989L547.044 346.976ZM552.173 352.867L553.149 352.648C553.059 352.249 552.736 351.945 552.332 351.88L552.173 352.867ZM554.206 361.927L554.772 362.751C555.109 362.52 555.271 362.107 555.182 361.708L554.206 361.927ZM540.6 371.26L540.034 370.436C539.697 370.667 539.534 371.08 539.624 371.479C539.714 371.878 540.037 372.183 540.441 372.248L540.6 371.26ZM550.966 372.931L551.953 373.09C552.041 372.544 551.67 372.031 551.125 371.943L550.966 372.931ZM549.375 382.803L549.216 383.791C549.762 383.878 550.275 383.508 550.363 382.962L549.375 382.803ZM541.477 381.531L541.636 380.544C541.091 380.456 540.578 380.827 540.49 381.372L541.477 381.531ZM540.682 386.467L540.523 387.454C541.068 387.542 541.581 387.171 541.669 386.626L540.682 386.467ZM530.809 384.877L529.822 384.717C529.734 385.263 530.105 385.776 530.65 385.864L530.809 384.877ZM531.605 379.94L532.592 380.099C532.68 379.554 532.309 379.041 531.764 378.953L531.605 379.94ZM526.668 379.145L525.693 379.364C525.782 379.763 526.105 380.067 526.509 380.132L526.668 379.145ZM524.635 370.085L524.069 369.261C523.732 369.492 523.57 369.905 523.659 370.304L524.635 370.085ZM538.241 360.752L538.807 361.576C539.144 361.345 539.307 360.932 539.217 360.533C539.128 360.134 538.804 359.829 538.4 359.764L538.241 360.752ZM527.875 359.081L526.888 358.922C526.8 359.468 527.171 359.981 527.716 360.069L527.875 359.081ZM529.466 349.209L529.625 348.221C529.363 348.179 529.095 348.243 528.88 348.398C528.665 348.553 528.521 348.788 528.478 349.05L529.466 349.209ZM536.376 350.322L536.217 351.309C536.479 351.352 536.747 351.288 536.962 351.133C537.177 350.977 537.322 350.743 537.364 350.481L536.376 350.322ZM537.172 345.386L537.331 344.399C536.786 344.311 536.272 344.681 536.185 345.227L537.172 345.386ZM547.236 352.072L548.032 347.136L546.057 346.817L545.262 351.754L547.236 352.072ZM552.332 351.88L546.408 350.926L546.09 352.9L552.014 353.854L552.332 351.88ZM555.182 361.708L553.149 352.648L551.197 353.086L553.23 362.146L555.182 361.708ZM541.165 372.085L554.772 362.751L553.64 361.102L540.034 370.436L541.165 372.085ZM551.125 371.943L540.759 370.273L540.441 372.248L550.807 373.918L551.125 371.943ZM550.363 382.962L551.953 373.09L549.979 372.772L548.388 382.644L550.363 382.962ZM541.318 382.518L549.216 383.791L549.534 381.816L541.636 380.544L541.318 382.518ZM540.49 381.372L539.695 386.308L541.669 386.626L542.465 381.69L540.49 381.372ZM540.841 385.48L530.968 383.889L530.65 385.864L540.523 387.454L540.841 385.48ZM531.797 385.036L532.592 380.099L530.617 379.781L529.822 384.717L531.797 385.036ZM526.509 380.132L531.445 380.927L531.764 378.953L526.827 378.158L526.509 380.132ZM523.659 370.304L525.693 379.364L527.644 378.926L525.611 369.866L523.659 370.304ZM537.676 359.927L524.069 369.261L525.201 370.91L538.807 361.576L537.676 359.927ZM527.716 360.069L538.082 361.739L538.4 359.764L528.034 358.094L527.716 360.069ZM528.478 349.05L526.888 358.922L528.862 359.24L530.453 349.368L528.478 349.05ZM536.536 349.335L529.625 348.221L529.307 350.196L536.217 351.309L536.536 349.335ZM536.185 345.227L535.389 350.163L537.364 350.481L538.159 345.545L536.185 345.227ZM547.204 345.989L537.331 344.399L537.013 346.373L546.885 347.964L547.204 345.989Z"/></g><g opacity=".3"><g filter="url(#filter7_d)"><path fill="#DB2A7C" d="M62.1281 59.9503L61.1839 59.6212C61.0021 60.1427 61.2774 60.7128 61.799 60.8946L62.1281 59.9503ZM63.774 55.229L64.7183 55.5582C64.9001 55.0367 64.6247 54.4665 64.1032 54.2847L63.774 55.229ZM67.7938 61.9254L68.7928 61.8804C68.7743 61.4719 68.5091 61.1158 68.1229 60.9812L67.7938 61.9254ZM68.2121 71.2008L68.625 72.1116C68.9974 71.9428 69.2295 71.5642 69.2111 71.1557L68.2121 71.2008ZM53.1839 78.0128L52.7711 77.102C52.3986 77.2708 52.1665 77.6493 52.1849 78.0578C52.2034 78.4663 52.4686 78.8224 52.8547 78.957L53.1839 78.0128ZM63.0987 81.4691L64.043 81.7983C64.2248 81.2768 63.9494 80.7067 63.4279 80.5249L63.0987 81.4691ZM59.807 90.9118L59.4778 91.8561C59.7282 91.9434 60.0031 91.9276 60.2419 91.8123C60.4807 91.6969 60.6639 91.4914 60.7512 91.241L59.807 90.9118ZM52.2528 88.2784L52.582 87.3341C52.0605 87.1523 51.4903 87.4277 51.3085 87.9492L52.2528 88.2784ZM50.6069 92.9997L50.2777 93.944C50.7992 94.1258 51.3694 93.8504 51.5512 93.3289L50.6069 92.9997ZM41.1642 89.7079L40.2199 89.3788C40.1326 89.6292 40.1484 89.9041 40.2638 90.1429C40.3791 90.3817 40.5846 90.5649 40.835 90.6522L41.1642 89.7079ZM42.8101 84.9866L43.7544 85.3158C43.8417 85.0653 43.8259 84.7905 43.7106 84.5517C43.5952 84.3128 43.3897 84.1296 43.1393 84.0423L42.8101 84.9866ZM38.0888 83.3407L37.0898 83.3858C37.1082 83.7943 37.3735 84.1504 37.7596 84.285L38.0888 83.3407ZM37.6704 74.0654L37.2576 73.1546C36.8852 73.3234 36.653 73.702 36.6715 74.1104L37.6704 74.0654ZM52.6986 67.2534L53.1115 68.1642C53.4839 67.9954 53.716 67.6168 53.6976 67.2083C53.6792 66.7998 53.4139 66.4437 53.0278 66.3091L52.6986 67.2534ZM42.7838 63.797L41.8396 63.4678C41.7523 63.7183 41.768 63.9931 41.8834 64.2319C41.9987 64.4708 42.2042 64.654 42.4547 64.7413L42.7838 63.797ZM46.0756 54.3543L46.4048 53.4101C45.8833 53.2283 45.3131 53.5036 45.1313 54.0252L46.0756 54.3543ZM52.6855 56.6586L52.3563 57.6028C52.8778 57.7846 53.4479 57.5092 53.6297 56.9877L52.6855 56.6586ZM54.3313 51.9372L54.6605 50.993C54.139 50.8112 53.5689 51.0865 53.3871 51.608L54.3313 51.9372ZM63.0724 60.2795L64.7183 55.5582L62.8298 54.8998L61.1839 59.6212L63.0724 60.2795ZM68.1229 60.9812L62.4573 59.0061L61.799 60.8946L67.4646 62.8697L68.1229 60.9812ZM69.2111 71.1557L68.7928 61.8804L66.7948 61.9705L67.2131 71.2458L69.2111 71.1557ZM53.5968 78.9236L68.625 72.1116L67.7993 70.29L52.7711 77.102L53.5968 78.9236ZM63.4279 80.5249L53.5131 77.0685L52.8547 78.957L62.7696 82.4134L63.4279 80.5249ZM60.7512 91.241L64.043 81.7983L62.1545 81.14L58.8627 90.5826L60.7512 91.241ZM51.9236 89.2227L59.4778 91.8561L60.1361 89.9676L52.582 87.3341L51.9236 89.2227ZM51.3085 87.9492L49.6626 92.6705L51.5512 93.3289L53.1971 88.6076L51.3085 87.9492ZM50.9361 92.0555L41.4934 88.7637L40.835 90.6522L50.2777 93.944L50.9361 92.0555ZM42.1085 90.0371L43.7544 85.3158L41.8658 84.6574L40.2199 89.3788L42.1085 90.0371ZM37.7596 84.285L42.4809 85.9309L43.1393 84.0423L38.418 82.3965L37.7596 84.285ZM36.6715 74.1104L37.0898 83.3858L39.0878 83.2957L38.6694 74.0203L36.6715 74.1104ZM52.2858 66.3426L37.2576 73.1546L38.0833 74.9762L53.1115 68.1642L52.2858 66.3426ZM42.4547 64.7413L52.3695 68.1976L53.0278 66.3091L43.113 62.8527L42.4547 64.7413ZM45.1313 54.0252L41.8396 63.4678L43.7281 64.1262L47.0199 54.6835L45.1313 54.0252ZM53.0146 55.7143L46.4048 53.4101L45.7464 55.2986L52.3563 57.6028L53.0146 55.7143ZM53.3871 51.608L51.7412 56.3294L53.6297 56.9877L55.2756 52.2664L53.3871 51.608ZM64.1032 54.2847L54.6605 50.993L54.0022 52.8815L63.4448 56.1733L64.1032 54.2847Z"/></g></g><circle cx="117" cy="200" r="4" fill="#00BDAF"/><circle cx="220" cy="271" r="4" fill="#00BDAF"/><circle cx="347" cy="336" r="4" fill="#00BDAF"/><circle cx="476" cy="381" r="4" fill="#00BDAF"/><circle cx="539" cy="334" r="4" fill="#00BDAF" opacity=".5"/><circle cx="493" cy="278" r="4" fill="#00BDAF" opacity=".2"/><circle cx="36" cy="109" r="4" fill="#00BDAF" opacity=".5"/><circle cx="98" cy="73" r="4" fill="#00BDAF" opacity=".2"/><circle cx="213" cy="109" r="4" fill="#00BDAF" opacity=".2"/><g filter="url(#filter8_d)"><path stroke="#DB2A7C" stroke-linecap="round" stroke-linejoin="round" stroke-width="2" d="M159.967 225.093L183.627 216.686L186.524 241.627L162.864 250.034L159.967 225.093Z"/><path stroke="#DB2A7C" stroke-linecap="round" stroke-linejoin="round" stroke-width="2" d="M170.27 237.397L159.967 225.092L175.027 229.756L185.858 241.212L170.27 237.397Z"/><path stroke="#DB2A7C" stroke-linecap="round" stroke-linejoin="round" stroke-width="2" d="M183.695 216.307L162.554 250.263"/></g><defs><filter id="filter0_d" width="73.094" height="73.925" x="429.132" y="219.85" color-interpolation-filters="sRGB" filterUnits="userSpaceOnUse"><feFlood flood-opacity="0" result="BackgroundImageFix"/><feColorMatrix in="SourceAlpha" type="matrix" values="0 0 0 0 0 0 0 0 0 0 0 0 0 0 0 0 0 0 127 0"/><feOffset dy="4"/><feGaussianBlur stdDeviation="10"/><feColorMatrix type="matrix" values="0 0 0 0 0.858824 0 0 0 0 0.164706 0 0 0 0 0.486275 0 0 0 0.8 0"/><feBlend in2="BackgroundImageFix" mode="normal" result="effect1_dropShadow"/><feBlend in="SourceGraphic" in2="effect1_dropShadow" mode="normal" result="shape"/></filter><filter id="filter1_d" width="70.288" height="75.52" x="121.469" y="48.263" color-interpolation-filters="sRGB" filterUnits="userSpaceOnUse"><feFlood flood-opacity="0" result="BackgroundImageFix"/><feColorMatrix in="SourceAlpha" type="matrix" values="0 0 0 0 0 0 0 0 0 0 0 0 0 0 0 0 0 0 127 0"/><feOffset dy="4"/><feGaussianBlur stdDeviation="10"/><feColorMatrix type="matrix" values="0 0 0 0 0.858824 0 0 0 0 0.164706 0 0 0 0 0.486275 0 0 0 0.8 0"/><feBlend in2="BackgroundImageFix" mode="normal" result="effect1_dropShadow"/><feBlend in="SourceGraphic" in2="effect1_dropShadow" mode="normal" result="shape"/></filter><filter id="filter2_d" width="90.43" height="93.406" x="34.987" y="100.175" color-interpolation-filters="sRGB" filterUnits="userSpaceOnUse"><feFlood flood-opacity="0" result="BackgroundImageFix"/><feColorMatrix in="SourceAlpha" type="matrix" values="0 0 0 0 0 0 0 0 0 0 0 0 0 0 0 0 0 0 127 0"/><feOffset dy="4"/><feGaussianBlur stdDeviation="10"/><feColorMatrix type="matrix" values="0 0 0 0 0.858824 0 0 0 0 0.164706 0 0 0 0 0.486275 0 0 0 0.8 0"/><feBlend in2="BackgroundImageFix" mode="normal" result="effect1_dropShadow"/><feBlend in="SourceGraphic" in2="effect1_dropShadow" mode="normal" result="shape"/></filter><filter id="filter3_d" width="90.011" height="93.293" x="476.851" y="261.084" color-interpolation-filters="sRGB" filterUnits="userSpaceOnUse"><feFlood flood-opacity="0" result="BackgroundImageFix"/><feColorMatrix in="SourceAlpha" type="matrix" values="0 0 0 0 0 0 0 0 0 0 0 0 0 0 0 0 0 0 127 0"/><feOffset dy="4"/><feGaussianBlur stdDeviation="10"/><feColorMatrix type="matrix" values="0 0 0 0 0.858824 0 0 0 0 0.164706 0 0 0 0 0.486275 0 0 0 0.8 0"/><feBlend in2="BackgroundImageFix" mode="normal" result="effect1_dropShadow"/><feBlend in="SourceGraphic" in2="effect1_dropShadow" mode="normal" result="shape"/></filter><filter id="filter4_d" width="78.88" height="82" x="244" y="270" color-interpolation-filters="sRGB" filterUnits="userSpaceOnUse"><feFlood flood-opacity="0" result="BackgroundImageFix"/><feColorMatrix in="SourceAlpha" type="matrix" values="0 0 0 0 0 0 0 0 0 0 0 0 0 0 0 0 0 0 127 0"/><feOffset dy="4"/><feGaussianBlur stdDeviation="10"/><feColorMatrix type="matrix" values="0 0 0 0 0.858824 0 0 0 0 0.164706 0 0 0 0 0.486275 0 0 0 0.8 0"/><feBlend in2="BackgroundImageFix" mode="normal" result="effect1_dropShadow"/><feBlend in="SourceGraphic" in2="effect1_dropShadow" mode="normal" result="shape"/></filter><filter id="filter5_d" width="76.975" height="87.32" x="381.486" y="323.126" color-interpolation-filters="sRGB" filterUnits="userSpaceOnUse"><feFlood flood-opacity="0" result="BackgroundImageFix"/><feColorMatrix in="SourceAlpha" type="matrix" values="0 0 0 0 0 0 0 0 0 0 0 0 0 0 0 0 0 0 127 0"/><feOffset dy="4"/><feGaussianBlur stdDeviation="10"/><feColorMatrix type="matrix" values="0 0 0 0 0.858824 0 0 0 0 0.164706 0 0 0 0 0.486275 0 0 0 0.8 0"/><feBlend in2="BackgroundImageFix" mode="normal" result="effect1_dropShadow"/><feBlend in="SourceGraphic" in2="effect1_dropShadow" mode="normal" result="shape"/></filter><filter id="filter6_d" width="76.197" height="86.221" x="501.322" y="326.896" color-interpolation-filters="sRGB" filterUnits="userSpaceOnUse"><feFlood flood-opacity="0" result="BackgroundImageFix"/><feColorMatrix in="SourceAlpha" type="matrix" values="0 0 0 0 0 0 0 0 0 0 0 0 0 0 0 0 0 0 127 0"/><feOffset dy="4"/><feGaussianBlur stdDeviation="10"/><feColorMatrix type="matrix" values="0 0 0 0 0.858824 0 0 0 0 0.164706 0 0 0 0 0.486275 0 0 0 0.8 0"/><feBlend in2="BackgroundImageFix" mode="normal" result="effect1_dropShadow"/><feBlend in="SourceGraphic" in2="effect1_dropShadow" mode="normal" result="shape"/></filter><filter id="filter7_d" width="82.056" height="89.501" x="11.913" y="31.883" color-interpolation-filters="sRGB" filterUnits="userSpaceOnUse"><feFlood flood-opacity="0" result="BackgroundImageFix"/><feColorMatrix in="SourceAlpha" type="matrix" values="0 0 0 0 0 0 0 0 0 0 0 0 0 0 0 0 0 0 127 0"/><feOffset dy="4"/><feGaussianBlur stdDeviation="10"/><feColorMatrix type="matrix" values="0 0 0 0 0.858824 0 0 0 0 0.164706 0 0 0 0 0.486275 0 0 0 0.8 0"/><feBlend in2="BackgroundImageFix" mode="normal" result="effect1_dropShadow"/><feBlend in="SourceGraphic" in2="effect1_dropShadow" mode="normal" result="shape"/></filter><filter id="filter8_d" width="75.75" height="76.711" x="135.37" y="198.929" color-interpolation-filters="sRGB" filterUnits="userSpaceOnUse"><feFlood flood-opacity="0" result="BackgroundImageFix"/><feColorMatrix in="SourceAlpha" type="matrix" values="0 0 0 0 0 0 0 0 0 0 0 0 0 0 0 0 0 0 127 0"/><feOffset dy="4"/><feGaussianBlur stdDeviation="10"/><feColorMatrix type="matrix" values="0 0 0 0 0.858824 0 0 0 0 0.164706 0 0 0 0 0.486275 0 0 0 0.8 0"/><feBlend in2="BackgroundImageFix" mode="normal" result="effect1_dropShadow"/><feBlend in="SourceGraphic" in2="effect1_dropShadow" mode="normal" result="shape"/></filter></defs></svg>