<svg width="580" height="461" fill="none" xmlns="http://www.w3.org/2000/svg"><g opacity=".5" filter="url(#filter0_f)"><circle cx="297" cy="231" r="150" fill="#19134C"/></g><path d="M70 276c-7-8-6-21 3-28L353 14c8-8 21-6 28 2l142 169c7 9 6 21-3 28L241 448c-9 7-21 6-28-2L70 276z" fill="#100C31"/><mask id="a" mask-type="alpha" maskUnits="userSpaceOnUse" x="57" y="0" width="479" height="461"><path d="M70 276c-7-8-6-21 3-28L353 14c8-8 21-6 28 2l142 169c7 9 6 21-3 28L241 448c-9 7-21 6-28-2L70 276z" fill="#100C31"/></mask><g mask="url(#a)"><path opacity=".2" fill-rule="evenodd" clip-rule="evenodd" d="M472 21c-7 3-15 5-22 5 0-7-1-15-3-22 8-1 15-3 22-6 2 7 3 15 3 23zm-1 29c-8 2-16 4-24 4l3-24 22-5c1 8 0 17-1 25zm29-8c-9 10-17 21-22 33l-10 3c3-8 5-17 6-25 9-3 18-6 26-11zm17 20c-6 7-11 15-15 24-9-1-17 0-26 1l4-9c13-3 25-9 37-16zm12 30l-9 21c-8-1-16-2-24-1 2-8 4-16 8-23 8 0 17 1 25 3zm26 8c-5 6-8 13-10 20-7-3-14-5-22-6 3-7 6-15 10-21l22 7zm-39 40l-24-1 3-24c8 0 16 0 24 2-2 7-3 15-3 23zm-27-1c-8 1-15 3-23 6l2-26 23-4-2 24zm3 26c-8 1-15 3-22 6-2-7-3-15-3-23l22-5c0 7 1 15 3 22zm-25 8a68 68 0 00-21 17l-22-7a90 90 0 0139-33l4 23zm-33 40c-7-2-14-5-22-6l10-21 22 7c-5 6-8 13-10 20zm-49-8l8-23c8 0 17 1 25 3l-9 21c-8-1-16-2-24-1zm20 28l-24-1 3-24c8 0 16 0 24 2-2 7-3 15-3 23zm-27-1c-8 1-15 3-23 6l2-26 23-4-2 24zm3 26c-8 1-15 3-22 7l-3-24 22-5c0 7 1 15 3 22zm-53-37c9-11 17-22 22-34l10-2-6 24c-9 3-18 7-26 12zm-17-21c6-7 11-15 15-23l26-2-4 9c-13 4-25 9-37 16zm-12-30c4-6 7-13 9-21 8 2 16 2 24 2-2 8-4 15-8 22-8 0-17-1-25-3zm-26-8c5-6 8-13 10-20l22 7-10 21-22-8zm39-40c8 1 16 2 24 1l-3 24c-8 1-16 0-24-1l3-24zm27 1l23-5-2 25c-8 2-16 4-23 4l2-24zm-3-26c8-1 15-3 22-6 2 8 3 15 3 23-7 3-14 5-22 5l-3-22zm25-8a68 68 0 0021-17l22 8a90 90 0 01-39 33l-4-24zm33-40l21 6c-2 8-5 15-9 21-7-1-15-4-22-7 4-6 8-13 10-20zm49 9l-8 22c-9 0-17-1-25-3 4-6 7-14 9-21l24 2zm-4 22l8-22 23-4-6 24c-8 2-17 2-25 2zm24 10l4-9 9-2-4 9-9 2zm12 1l25-2-8 23-24 3 7-24zm-36 37c9-11 16-22 22-34l10-2-6 24c-9 3-18 7-26 12zm-16 15l1-1c12-10 26-17 40-22l-1 26a94 94 0 00-43 36c-8-2-17-3-25-3 6-14 16-26 28-36zm-58 37l4-9c13-3 25-9 37-16-6 7-11 15-15 24-9-1-17 0-26 1zm24 2l-8 23c-8 0-16 1-24 4l7-25 25-2zm-33-8l9-2-4 9-9 2 4-9zm-3-3c-8 2-17 2-25 2l8-22 24-4-7 24zm36-36c-9 10-16 21-22 33l-10 3c3-8 5-17 6-25 9-3 18-6 26-11zm16-16l-1 1v1c-12 10-26 17-40 21l1-26a94 94 0 0043-36l25 4c-6 13-16 25-28 35zm52-24c-9 17-20 32-35 44l-1 1-1 1c-15 12-31 21-49 26 9-16 20-31 35-44h1l1-1c14-12 31-21 49-27zm-35 12c6-7 11-15 15-23l26-2-4 9c-13 4-25 9-37 16zm1-78c8 1 15 2 23 1 0 8 0 16-2 24-8 1-16 0-24-1l3-24zm60-40l-3-2-9 6c-1-7-4-14-6-20l-3 2c3 6 5 13 6 19-7 4-14 6-21 7l-3-10-3 2 2 8h-11l-4 3h16l2 23c-8 0-16 0-23-2l-2-15-3 2 1 13-12-4-3 3 15 4-3 24-21-6 2-16-4 3-1 11-8-3-3 2 10 5c-2 7-6 14-10 20l-18-10-3 3 18 10a65 65 0 01-17 15l-7-20-3 2 6 19c-7 4-14 6-21 7l-3-10-3 2 2 8h-11l-4 3h16l3 23-24-1-2-16-3 2 1 13-12-4-3 3 15 4-3 24-21-6 2-16-4 3-1 11-8-3-3 2 10 5c-2 7-6 14-10 20l-18-10-3 3 19 10-8 8 2 3 9-10 22 8c-4 7-10 13-17 19l3 2c7-6 13-13 18-21l25 4c-6 13-16 25-28 35v1l2 2h1c15-12 31-21 49-27-9 17-20 32-35 44v1l2 2c12-10 26-17 40-22l-1 26c-8 4-16 8-24 15l2 2 22-13 4 23-11 7 2 3 9-6 8 22 3-2-7-22 21-6 4 13 3-3-3-11 15 1 3-3-19-1-2-22c7-1 15-1 23 1l3 19 3-3-2-15 14 4 3-2c-5-3-11-5-17-6l3-24 21 7-2 19 4-3 1-15 10 5 3-2-12-6c2-7 6-14 10-20 7 3 14 6 20 11l3-3c-6-4-13-8-21-11a65 65 0 0118-15l8 22 3-2c-3-7-6-15-7-22 6-3 14-6 21-6l4 13 3-3-3-11 15 1 3-3c-6-1-13-2-19-1-2-7-2-15-3-22 8-1 16-1 24 1l3 18 3-2-2-15 14 4 3-2c-5-3-11-5-17-6-1-8 0-16 2-24l22 7-2 19 4-3 1-15 10 5 3-2-12-6c2-7 6-14 10-20 7 3 14 6 20 11l3-3c-7-4-13-8-21-11l8-8-2-3-9 9-22-7c4-7 10-13 16-19l-2-3c-7 6-13 13-18 21-8-2-17-3-26-3 7-14 17-26 28-36h1l-3-3c-15 13-31 22-49 27 8-16 20-31 35-44l-2-3v1c-13 10-26 17-40 21l1-26c8-3 16-8 23-14l-2-3c-7 6-14 10-21 14l-4-24 11-7z" fill="#00BDAF"/></g><path d="M199 352l4-1 1 2-5 1 3 4-2 2-3-4-2 5-2-1 1-5-4 1-1-3 5-1-3-3 2-2 3 4 2-5 2 1-1 5zM212 341l4-1 1 3h-5l3 4-2 2-3-4-2 5-2-1 1-5-4 1-1-3h5l-3-4 2-2 3 4 2-5 2 1-1 5zM225 330l4-1 1 3h-5l3 4-2 2-3-4-2 5-2-1 1-5-4 1-1-3h5l-3-4 2-2 3 4 2-5 2 1-1 5zM238 319l4-1 1 3h-5l3 4-2 2-3-4-2 5-2-1 1-5-4 1-1-3h5l-3-4 2-2 3 4 2-5 2 1-1 5zM263 298l5-1v2l-5 1 3 4-2 2-3-4-1 5-3-1 2-5-5 1-1-3 5-1-3-3 2-2 3 4 2-5 3 1-2 5zM276 287l5-1v3h-5l3 4-2 2-3-4-1 5-3-1 2-5-5 1-1-3h5l-3-4 2-2 3 4 2-5 3 1-2 5zM289 276l5-1v3h-5l3 4-2 2-3-4-1 5-3-1 2-5-5 1v-3h4l-3-4 2-2 3 4 2-5 3 1-2 5zM302 265l5-1v3h-5l3 4-2 2-3-4-1 5-3-1 2-5-5 1v-3h4l-3-4 2-2 3 4 2-5 3 1-2 5zM327 244l5-1 1 2-5 1 3 4-2 2-3-4-2 5-3-1 2-5-5 1v-3l5-1-3-3 2-2 3 4 1-5 3 1-2 5zM340 233l5-1 1 3h-5l3 4-2 2-3-4-2 5-3-1 2-5-5 1v-3h5l-3-4 2-2 3 4 1-5 3 1-2 5zM353 222l5-1 1 3h-5l3 4-2 2-3-4-2 5-3-1 2-5-5 1v-3h5l-3-4 2-2 3 4 1-5 3 1-2 5zM366 211l5-1 1 3h-5l3 4-2 2-3-4-2 5-3-1 2-5-5 1v-3h5l-3-4 2-2 3 4 1-5 3 1-2 5zM395 186h2l2 1 1 2-1 2-2 2-2 1-2 1-2-2-1-1v-2h-1l-1-1-1-2v-2l2-2 2-1h2l2 1a3 3 0 010 3zm-5-2l-1 2v1l2 1 1-1 1-1v-2h-3zm6 8l1-2v-2h-2-2l-1 2 1 2h3zm12-17h2l2 1 1 2-1 2-2 2-2 1h-2l-2-1-1-1 1-2h-2l-1-1-1-2v-2l2-2 2-1h2l2 1a3 3 0 010 3zm-5-2l-1 2 1 1 1 1 2-1 1-1-1-2h-3zm6 8l1-2v-2h-3l-2 2 1 2h3zm13-17h2l1 1 1 2-1 2-1 2-3 1h-2l-2-1-1-1 1-2h-2l-1-1-1-2 1-2 1-2 2-1h2l2 1a3 3 0 011 3zm-6-2l-1 2 1 1 1 1 2-1 1-1-1-2h-1-2zm6 7l2-1-1-2-1-1-2 1-1 2v2h1l2-1zm13-16h2l1 1 1 2v2l-2 2-3 1h-2l-2-1v-2-1h-2l-1-1-1-2 1-2 1-2 3-1 2-1 1 2a3 3 0 011 3zm-5-2l-1 2v1l1 1 2-1 1-1v-2h-2-1zm6 7l1-1-1-2-1-1-2 1-1 2v2h2l2-1zM219 387l9 9-2 2-7-8-2 2-1-2 3-3zm16 0l2 2-7 6-1-1v-7-2-1l-2-1-1 1-2 3h-2l1-3 2-2 3-1 2 1 1 2v7l4-4zm-3-14l1-1 7 17-2 1-6-17zm17 3l1 1-7 6-1-1 1-7v-2l-1-1h-1-2l-1 3h-2l1-2 1-2 3-2 3 2 1 1v8l4-4zm-2-12l8 10-2 1-7-8-2 2-1-2 4-3zM275 118l2-1 3 4-1 2-2 2-3 2a6 6 0 01-6-2l-2-3 1-4 2-3 2-1h3v2l-4 1-1 2a4 4 0 001 4l2 2h2l2-1 2-3-3-3zm12-7h1l-6 5 2 1 2-1 1-3h2l-1 2-1 2-3 1a5 5 0 01-4-1l-2-3 1-2 1-2 3-1h2l2 2zm-6 0l-1 2 1 2 4-4h-2-2zm9-9l3-1 3 1 3 5-1 1-4-4-1-1-2 1-1 1 1 2 3 4-2 2-6-8 1-1 1 1 1-2 1-1zm16-7v1l-6 4 2 1 2-1 1-2h2v2l-2 2-2 1a5 5 0 01-5-2l-1-2v-3l2-2 2-1h2l3 2zm-6 1l-1 1v2l4-3-1-1-2 1zm13-1l-2 2h-2v-2h1l2-1 1-2h-3l-1 1h-3l-1-3 2-3a9 9 0 013-1l1 2-3 1-1 1v1h1l2-1h1l2-1 1 1 1 3-2 2zm-1-11l1-2 6 8-1 1-6-7zm-1-2h-1-1v-1l1-1 1-1 1 1v1l-1 1zm13 4l-2 1h-2v-1l2-1 1-1c1-1 2-1 1-2h-1l-1 1-2 1h-2l-1-1-1-3 2-2a9 9 0 014-2v2l-3 1-1 1 1 1 1 1 1-1 2-1h1l2 1v2l-2 3zm10-25l4 13-2 2-12-7 2-1 9 5-3-11 2-1zm3 1l2-1 6 7-2 2-6-8zm0-2l-1 1-1-1v-1-1h2l1 1-1 1zm13 4l-2 1-2 1v-2h1l2-1 1-2-1-1-2 1-1 1h-2l-1-1-1-2 2-3a9 9 0 013-1l1 2-3 1-1 1v1h1l2-1h1l2-1 1 1 1 3-2 2zm-1-11l1-2 6 8-1 1-6-7zm-1-2h-1-1v-1l1-1 1-1 1 1v1l-1 1zm14 3l-2 1a5 5 0 01-5-2l-1-2v-3l2-2 2-1h3l2 2 1 2v3l-2 2zm-1-2l1-2-1-2-2-1-2 1-1 2 1 2 2 1 2-1zm5-14l3-1c1 0 2 0 3 2l3 4-1 1-4-4-1-1-2 1-1 2 1 2 3 3-2 2-6-8 1-1 1 1 1-2 1-1z" fill="#ADACDF"/><path opacity=".5" d="M212 378l1 5h-1l-4-2h1l3 1-1-3 1-1zm4 1l-1 1v1l-1 1-1-5h1l4 2h-2zm-1-1h-1v1l1-1zm1-3v-1l3 3 1-1h1l-3 2-2-3zm3-3l3 3-1 1-2-4zm1-1l2-1 1-1h1l1 1v2l-1 1-1 1-3-3zm4 1v-1l-1-1h-1v1l1 2 1-1zm3-6l-1 1h-1l3-3 1 1-1 1 2 2-1 1-2-3zm5-5l2 4-1-1-2 1 1 1-1 1-2-3 1-1 1 1 1-1-1-1 1-1zm5 1h-2l1 1-1 1-2-3 1-2h2l1 1v1h1l-1 1zm-1-2h-1l-1 1 1 1v-1h1v-1zm4 0h-1l-1-1-2-1 1-1 1 2h2v-1l-2-2 1-1 2 2v1l-1 2z" fill="#ADACDF"/><circle cx="465.8" cy="187.4" r="25" transform="rotate(-40 466 187)" fill="#16B9AD"/><circle cx="439" cy="209.9" r="25" transform="rotate(-40 439 210)" fill="#DB2A7C"/><rect x="141.6" y="298.9" width="60" height="55" rx="10" transform="rotate(-40 142 299)" fill="#ADACDF" fill-opacity=".6"/><path d="M149 307l46-38M156 316l16-14M186 291l15-13M163 324l15-13M193 298l16-12M170 333l46-39" stroke="#100C31" stroke-linecap="round"/><path d="M185 296a10 10 0 11-8 7M178 283a10 10 0 017 12m-19-2a10 10 0 0011 10" stroke="#100C31" stroke-linecap="round" stroke-linejoin="round"/><defs><filter id="filter0_f" x="87" y="21" width="420" height="420" filterUnits="userSpaceOnUse" color-interpolation-filters="sRGB"><feFlood flood-opacity="0" result="BackgroundImageFix"/><feBlend mode="normal" in="SourceGraphic" in2="BackgroundImageFix" result="shape"/><feGaussianBlur stdDeviation="30" result="effect1_foregroundBlur"/></filter></defs></svg>