<svg xmlns="http://www.w3.org/2000/svg" width="580" height="461" fill="none" viewBox="0 0 580 461"><g filter="url(#filter0_f)" opacity=".5"><circle cx="297" cy="231" r="150" fill="#19134C"/></g><path fill="#100C31" d="M70.4683 276.321C63.3683 267.859 64.4719 255.244 72.9334 248.144L352.54 13.5268C361.001 6.42673 373.616 7.53043 380.716 15.9919L522.772 185.288C529.872 193.749 528.769 206.364 520.307 213.464L240.701 448.082C232.239 455.182 219.624 454.078 212.524 445.617L70.4683 276.321Z"/><mask id="mask0" width="479" height="461" x="57" y="0" mask-type="alpha" maskUnits="userSpaceOnUse"><path fill="#100C31" d="M70.4683 276.321C63.3683 267.859 64.4719 255.244 72.9334 248.144L352.54 13.5268C361.001 6.42673 373.616 7.53043 380.716 15.9919L522.772 185.288C529.872 193.749 528.769 206.364 520.307 213.464L240.701 448.082C232.239 455.182 219.624 454.078 212.524 445.617L70.4683 276.321Z"/></mask><g mask="url(#mask0)"><path fill="#00BDAF" fill-rule="evenodd" d="M472.293 20.8932C465.021 23.7051 457.497 25.5824 449.883 26.4436C449.71 18.9519 448.851 11.4772 447.295 4.08775C454.766 3.24638 462.114 1.19146 469.034 -2.11171C470.732 5.48694 471.836 13.178 472.293 20.8932ZM471.054 50.0967C463.3 52.2315 455.4 53.5407 447.454 54.0603C449.08 46.1379 449.877 38.0714 449.924 29.9785C457.565 29.1437 465.111 27.2887 472.432 24.5663C472.717 33.1043 472.27 41.6494 471.054 50.0967ZM499.972 41.8056C490.853 52.0459 483.401 63.3309 477.612 75.2768C474.435 76.1406 471.246 76.925 468.034 77.5687C470.79 69.5259 472.812 61.2747 474.148 52.9213C483.053 50.2907 491.701 46.5524 499.972 41.8056ZM516.855 62.0592C510.809 69.3374 505.764 77.2225 501.653 85.5139C493.143 85.3701 484.613 85.9279 476.164 87.2538C477.352 84.2017 478.678 81.1978 480.082 78.221C492.823 74.5997 505.205 69.2389 516.855 62.0592ZM529.075 92.1157C525.159 98.7813 522.106 105.865 519.943 113.219C511.978 111.849 503.898 111.294 495.815 111.516C497.709 103.801 500.412 96.2876 503.836 89.0537C512.317 89.3273 520.76 90.364 529.075 92.1157ZM554.806 100.107C550.357 106.284 547.051 113.098 544.907 120.302C537.925 117.484 530.719 115.361 523.39 113.882C525.577 106.552 528.681 99.4972 532.677 92.8912C540.212 94.6827 547.608 97.1084 554.806 100.107ZM516.106 140.309C508.296 138.892 500.33 138.544 492.4 139.11C492.464 131.028 493.287 122.97 494.974 115.067C503.003 114.784 511.031 115.278 518.948 116.613C516.989 124.326 516.063 132.292 516.106 140.309ZM488.898 139.355C481.255 140.187 473.708 142.044 466.386 144.767C466.101 136.229 466.55 127.682 467.766 119.234C475.519 117.098 483.42 115.791 491.367 115.267C489.738 123.191 488.943 131.26 488.898 139.355ZM491.526 165.244C484.052 166.087 476.704 168.142 469.784 171.445C468.084 163.848 466.98 156.157 466.526 148.44C473.798 145.628 481.321 143.751 488.936 142.889C489.108 150.381 489.967 157.856 491.526 165.244ZM466.564 173.07C462.674 175.192 458.935 177.684 455.434 180.621C451.942 183.551 448.931 186.854 446.153 190.308C438.867 187.219 431.376 184.719 423.745 182.841C428.471 175.705 434.218 169.137 441.013 163.435C447.854 157.695 455.319 153.192 463.121 149.801C463.644 157.61 464.797 165.39 466.564 173.07ZM434.006 213.359C427.026 210.54 419.818 208.418 412.489 206.939C414.676 199.609 417.78 192.554 421.775 185.948C429.313 187.738 436.707 190.165 443.905 193.164C439.458 199.339 436.149 206.155 434.006 213.359ZM384.913 204.573C386.807 196.859 389.511 189.345 392.935 182.111C401.416 182.384 409.859 183.421 418.174 185.173C414.259 191.838 411.205 198.922 409.042 206.276C401.079 204.904 392.997 204.351 384.913 204.573ZM405.207 233.365C397.397 231.947 389.429 231.601 381.499 232.167C381.563 224.085 382.386 216.027 384.073 208.124C392.102 207.841 400.13 208.335 408.047 209.67C406.088 217.383 405.162 225.349 405.207 233.365ZM377.997 232.412C370.354 233.244 362.806 235.101 355.485 237.824C355.2 229.286 355.649 220.739 356.865 212.292C364.62 210.153 372.519 208.848 380.466 208.324C378.837 216.248 378.042 224.317 377.997 232.412ZM380.625 258.301C373.153 259.142 365.803 261.199 358.885 264.5C357.185 256.903 356.081 249.213 355.624 241.497C362.896 238.685 370.42 236.808 378.034 235.947C378.207 243.438 379.066 250.913 380.625 258.301ZM327.956 220.576C337.073 210.337 344.52 199.056 350.309 187.114C353.482 186.25 356.672 185.468 359.885 184.824C357.128 192.867 355.107 201.114 353.771 209.467C344.868 212.096 336.225 215.831 327.956 220.576ZM311.055 200.337C317.104 193.057 322.151 185.17 326.266 176.875C334.777 177.019 343.306 176.461 351.756 175.137C350.567 178.187 349.239 181.193 347.836 184.167C335.094 187.791 322.708 193.155 311.055 200.337ZM298.846 170.275C302.761 163.609 305.815 156.522 307.978 149.167C315.941 150.54 324.021 151.09 332.103 150.87C330.206 158.587 327.504 166.103 324.082 173.339C315.599 173.063 307.157 172.026 298.846 170.275ZM273.113 162.285C277.56 156.106 280.868 149.29 283.012 142.086C289.994 144.904 297.202 147.025 304.531 148.504C302.346 155.837 299.24 162.893 295.242 169.501C287.707 167.71 280.311 165.283 273.113 162.285ZM311.811 122.081C319.624 123.497 327.587 123.847 335.519 123.279C335.453 131.362 334.632 139.419 332.945 147.321C324.916 147.605 316.89 147.11 308.973 145.774C310.932 138.061 311.858 130.099 311.811 122.081ZM339.023 123.036C346.664 122.201 354.209 120.346 361.53 117.624C361.818 126.16 361.368 134.707 360.153 143.154C352.398 145.289 344.499 146.598 336.553 147.118C338.179 139.195 338.975 131.129 339.023 123.036ZM336.394 97.1449C343.865 96.3035 351.213 94.2486 358.133 90.9451C359.833 98.5421 360.938 106.233 361.392 113.95C354.119 116.762 346.599 118.638 338.984 119.499C338.812 112.007 337.952 104.532 336.394 97.1449ZM361.354 89.3203C365.245 87.2001 368.987 84.7058 372.487 81.7686C375.978 78.839 378.989 75.5366 381.767 72.0797C389.054 75.1715 396.545 77.6708 404.176 79.5495C399.45 86.6856 393.703 93.2538 386.908 98.9553C380.067 104.696 372.6 109.2 364.797 112.589C364.275 104.782 363.122 97.002 361.354 89.3203ZM393.913 49.0289C400.896 51.8468 408.103 53.9681 415.432 55.4472C413.245 62.7813 410.141 69.836 406.143 76.4437C398.608 74.6525 391.212 72.2265 384.014 69.2278C388.461 63.0491 391.77 56.233 393.913 49.0289ZM443.004 57.8131C441.108 65.5296 438.406 73.0454 434.981 80.2833C426.498 80.0076 418.056 78.9709 409.744 77.2196C413.663 70.5521 416.715 63.4663 418.877 56.1115C426.842 57.4824 434.92 58.0345 443.004 57.8131ZM438.818 80.3433C442.172 73.0084 444.813 65.4057 446.657 57.6095C454.662 57.1514 462.621 55.9047 470.451 53.8596C469.038 62.1477 466.896 70.3172 464.047 78.2769C455.691 79.7041 447.249 80.3934 438.818 80.3433ZM463.187 89.8868C464.439 87.0839 465.574 84.2357 466.645 81.372C469.653 80.8136 472.655 80.19 475.632 79.4442C474.381 82.2478 473.246 85.0956 472.175 87.9634C469.167 88.5177 466.166 89.1417 463.187 89.8868ZM474.773 91.0584C483.129 89.6312 491.569 88.9398 499.998 88.9915C496.646 96.3252 494.006 103.927 492.166 111.72C484.158 112.179 476.197 113.424 468.369 115.471C469.782 107.183 471.922 99.016 474.773 91.0584ZM438.857 127.519C447.974 117.28 455.421 105.999 461.208 94.0584C464.383 93.1926 467.573 92.4108 470.786 91.7669C468.029 99.81 466.008 108.057 464.672 116.41C455.769 119.039 447.124 122.775 438.857 127.519ZM422.576 143.201C422.865 142.963 423.162 142.744 423.449 142.503C423.727 142.27 423.986 142.023 424.26 141.789C436.381 131.805 449.914 124.62 464.078 120.218C462.934 128.761 462.567 137.396 462.922 146.017C454.376 149.588 446.219 154.489 438.759 160.749C431.353 166.963 425.132 174.157 420.097 181.997C411.704 180.157 403.171 179.021 394.596 178.654C401.385 165.441 410.722 153.343 422.576 143.201ZM365.263 180.311C366.452 177.259 367.779 174.253 369.181 171.278C381.924 167.655 394.306 162.294 405.954 155.116C399.907 162.395 394.863 170.28 390.752 178.571C382.242 178.427 373.712 178.985 365.263 180.311ZM389.096 182.049C385.745 189.383 383.106 196.983 381.264 204.777C373.258 205.235 365.298 206.48 357.467 208.529C358.88 200.241 361.021 192.073 363.871 184.116C372.227 182.689 380.667 181.997 389.096 182.049ZM355.745 174.428C358.751 173.871 361.753 173.247 364.733 172.499C363.48 175.305 362.344 178.153 361.276 181.019C358.266 181.575 355.265 182.199 352.286 182.944C353.538 180.141 354.673 177.293 355.745 174.428ZM353.146 171.334C344.79 172.761 336.349 173.45 327.917 173.4C331.273 166.063 333.914 158.461 335.756 150.666C343.761 150.209 351.72 148.962 359.552 146.915C358.137 155.205 355.994 163.374 353.146 171.334ZM389.071 134.862C379.952 145.103 372.5 156.388 366.711 168.334C363.536 169.196 360.346 169.982 357.135 170.624C359.892 162.581 361.911 154.332 363.249 145.976C372.152 143.348 380.802 139.608 389.071 134.862ZM405.312 119.217C405.034 119.446 404.747 119.654 404.471 119.886C404.204 120.11 403.955 120.347 403.693 120.572C391.562 130.572 378.019 137.762 363.842 142.167C364.983 133.625 365.35 124.994 364.995 116.373C373.543 112.8 381.7 107.9 389.16 101.64C396.566 95.4255 402.788 88.2313 407.822 80.3921C416.217 82.2341 424.748 83.3679 433.32 83.7367C426.527 96.9613 417.181 109.067 405.312 119.217ZM456.703 95.3276C448.366 111.612 436.76 126.536 422.008 139.105C421.728 139.336 421.426 139.523 421.145 139.758C420.859 139.998 420.612 140.269 420.327 140.512C405.396 152.85 388.69 161.679 371.215 167.061C379.562 150.765 391.179 135.828 405.948 123.256C406.217 123.034 406.507 122.855 406.774 122.63C407.047 122.401 407.283 122.14 407.555 121.908C422.497 109.556 439.214 100.715 456.703 95.3276ZM421.956 107.28C428.005 99.9997 433.052 92.1126 437.167 83.8174C445.678 83.9618 454.205 83.4056 462.658 82.0801C461.468 85.1302 460.14 88.1355 458.738 91.1102C445.993 94.7358 433.609 100.098 421.956 107.28ZM422.712 29.024C430.522 30.4415 438.488 30.7892 446.42 30.2216C446.354 38.3054 445.534 46.3612 443.846 54.2641C435.818 54.5474 427.79 54.0541 419.872 52.7184C421.831 45.0056 422.759 37.0421 422.712 29.024ZM482.665 -10.6977L480.407 -13.3886C477.555 -11.0668 474.555 -9.01832 471.435 -7.25676C469.71 -13.994 467.498 -20.6396 464.794 -27.1441L461.961 -24.7671C464.51 -18.5016 466.61 -12.1048 468.231 -5.62017C461.378 -2.24223 454.059 -0.152107 446.619 0.655049C445.801 -2.73884 444.8 -6.09627 443.682 -9.42922L440.797 -7.00848C441.646 -4.37839 442.387 -1.72538 443.045 0.943079C439.283 1.14481 435.515 1.01596 431.769 0.566923L428.177 3.58107C433.351 4.44757 438.601 4.76065 443.832 4.43739C445.409 11.7985 446.25 19.2513 446.41 26.7157C438.462 27.3084 430.471 26.9259 422.648 25.4442C422.421 20.2437 421.796 15.0349 420.688 9.86509L417.637 12.4255C418.418 16.474 418.872 20.5438 419.091 24.6117C415.101 23.6886 411.158 22.5547 407.306 21.0938L404.241 23.6654C409.108 25.6287 414.118 27.11 419.209 28.2325C419.324 36.3051 418.381 44.3224 416.39 52.0808C409.036 50.6119 401.813 48.4548 394.818 45.5995C396.043 40.5159 396.672 35.2992 396.696 29.9971L393.23 32.9047C393.041 36.7157 392.414 40.4543 391.567 44.1344C389.047 43.0173 386.548 41.8656 384.102 40.5646L381.247 42.9597C384.335 44.6479 387.485 46.1749 390.689 47.5746C388.588 54.8288 385.212 61.6574 380.661 67.8151C374.57 65.0953 368.649 61.9201 362.931 58.3288L360.096 60.7075C366.004 64.4798 372.137 67.7973 378.439 70.6572C375.958 73.6484 373.293 76.5193 370.235 79.0853C367.17 81.6569 363.92 83.888 360.534 85.8002C358.809 79.0633 356.599 72.4158 353.895 65.9112L351.06 68.2901C353.609 74.5557 355.709 80.9522 357.332 87.4351C350.477 90.8148 343.158 92.9049 335.718 93.7123C334.9 90.3182 333.901 86.959 332.781 83.6278L329.898 86.0471C330.747 88.6769 331.488 91.3299 332.146 93.9984C328.384 94.2001 324.614 94.0732 320.87 93.6222L317.276 96.6384C322.45 97.5046 327.7 97.8179 332.931 97.4947C334.51 104.854 335.349 112.309 335.509 119.773C327.561 120.365 319.57 119.983 311.747 118.501C311.52 113.301 310.894 108.092 309.787 102.922L306.738 105.481C307.517 109.531 307.97 113.601 308.192 117.667C304.2 116.746 300.257 115.612 296.405 114.151L293.34 116.722C298.207 118.686 303.22 120.165 308.308 121.29C308.425 129.36 307.48 137.379 305.491 145.136C298.135 143.669 290.912 141.512 283.917 138.656C285.142 133.573 285.771 128.356 285.797 123.052L282.329 125.962C282.14 129.773 281.515 133.51 280.665 137.191C278.146 136.074 275.649 134.921 273.201 133.622L270.346 136.017C273.434 137.705 276.586 139.23 279.788 140.632C277.687 147.886 274.311 154.715 269.76 160.872C263.671 158.151 257.748 154.977 252.03 151.386L249.198 153.763C255.102 157.537 261.236 160.854 267.54 163.713C265.131 166.617 262.548 169.402 259.603 171.909L261.855 174.593C265.231 171.721 268.163 168.502 270.865 165.137C278.153 168.229 285.644 170.728 293.275 172.607C288.614 179.645 282.954 186.133 276.278 191.781L278.53 194.465C285.815 188.304 291.95 181.19 296.921 173.449C305.315 175.291 313.847 176.425 322.421 176.792C315.625 190.018 306.28 202.124 294.413 212.272C294.227 212.425 294.037 212.572 293.848 212.72L296.135 215.446C296.305 215.284 296.473 215.12 296.654 214.965C311.596 202.613 328.313 193.772 345.802 188.384C337.465 204.669 325.859 219.593 311.106 232.162C310.919 232.317 310.722 232.456 310.528 232.599L312.815 235.325C312.996 235.164 313.175 235.003 313.358 234.846C325.482 224.86 339.013 217.677 353.176 213.275C352.035 221.816 351.668 230.451 352.021 239.074C343.579 242.602 335.519 247.429 328.133 253.58L330.386 256.266C337.155 250.633 344.521 246.204 352.221 242.857C352.743 250.667 353.895 258.447 355.662 266.127C351.874 268.194 348.23 270.615 344.809 273.454L347.06 276.137C350.044 273.661 353.198 271.501 356.482 269.647C358.441 277.299 361.06 284.827 364.284 292.167L367.073 289.827C364.012 282.711 361.539 275.42 359.686 268.01C366.539 264.633 373.858 262.543 381.302 261.735C382.348 266.076 383.687 270.362 385.225 274.595L388.088 272.193C386.845 268.648 385.765 265.067 384.875 261.446C389.881 261.18 394.907 261.443 399.85 262.324L403.237 259.482C396.949 258.088 390.501 257.552 384.087 257.951C382.51 250.59 381.667 243.139 381.507 235.674C389.457 235.08 397.45 235.465 405.271 236.944C405.542 243.148 406.455 249.358 407.98 255.501L410.982 252.983C409.833 247.941 409.105 242.86 408.827 237.781C413.828 238.934 418.732 240.485 423.496 242.482L426.476 239.982C420.73 237.447 414.791 235.499 408.71 234.156C408.595 226.083 409.54 218.064 411.531 210.31C418.885 211.775 426.106 213.934 433.102 216.789C431.6 223.011 430.962 229.439 431.272 235.957L434.722 233.062C434.696 228.034 435.241 223.081 436.355 218.252C439.762 219.765 443.1 221.444 446.37 223.288L449.227 220.891C445.323 218.635 441.325 216.604 437.23 214.809C439.331 207.559 442.707 200.731 447.256 194.575C454.215 197.685 460.956 201.38 467.42 205.625L470.209 203.285C463.569 198.856 456.644 194.983 449.482 191.734C451.963 188.742 454.628 185.871 457.686 183.305C460.748 180.736 463.999 178.501 467.381 176.592C469.34 184.244 471.961 191.77 475.185 199.11L477.974 196.77C474.913 189.654 472.44 182.363 470.585 174.955C477.44 171.575 484.759 169.485 492.203 168.678C493.249 173.019 494.588 177.305 496.124 181.54L498.989 179.136C497.746 175.591 496.666 172.01 495.774 168.39C500.78 168.124 505.808 168.386 510.751 169.266L514.138 166.425C507.848 165.033 501.402 164.495 494.988 164.894C493.409 157.534 492.568 150.082 492.408 142.617C500.358 142.023 508.351 142.408 516.17 143.889C516.441 150.093 517.356 156.301 518.881 162.444L521.883 159.926C520.734 154.884 520.006 149.803 519.728 144.723C524.727 145.879 529.634 147.428 534.398 149.425L537.375 146.926C531.631 144.39 525.69 142.444 519.611 141.099C519.496 133.026 520.439 125.009 522.432 117.253C529.787 118.717 537.007 120.876 544.003 123.732C542.501 129.953 541.863 136.382 542.174 142.9L545.621 140.007C545.595 134.978 546.142 130.024 547.254 125.197C550.663 126.708 554.001 128.387 557.272 130.231L560.126 127.836C556.225 125.578 552.226 123.547 548.131 121.752C550.232 114.502 553.606 107.676 558.157 101.518C565.116 104.628 571.855 108.325 578.32 112.57L581.111 110.228C574.47 105.799 567.543 101.927 560.381 98.6783C562.67 95.919 565.117 93.2672 567.881 90.8589L565.63 88.176C562.437 90.9517 559.64 94.0355 557.054 97.2512C549.769 94.1615 542.277 91.6625 534.647 89.7838C539.206 82.8986 544.725 76.551 551.21 70.9914L548.957 68.3058C541.864 74.3807 535.868 81.3551 530.998 88.9393C522.605 87.0996 514.072 85.9634 505.498 85.5967C512.287 72.3833 521.621 60.2875 533.475 50.1461C533.524 50.1066 533.573 50.0684 533.621 50.0295L531.359 47.3337C531.315 47.3739 531.274 47.4158 531.228 47.4546C516.297 59.7933 499.59 68.6236 482.117 74.0034C490.461 57.7095 502.078 42.7725 516.85 30.1987C516.876 30.1773 516.903 30.1591 516.93 30.138L514.671 27.4462C514.644 27.4694 514.618 27.4936 514.591 27.5168C502.463 37.5144 488.919 44.7046 474.741 49.111C475.882 40.5699 476.251 31.9371 475.896 23.3157C484.167 19.8598 492.07 15.1436 499.335 9.16884L497.083 6.48496C490.437 11.9427 483.228 16.262 475.698 19.5318C475.176 11.7256 474.023 3.94496 472.255 -3.73678C475.88 -5.71217 479.373 -8.01722 482.665 -10.6977Z" clip-rule="evenodd" opacity=".2"/></g><path fill="#ADACDF" d="M198.641 351.528L203.301 350.616L203.806 353.429L198.972 354.248L202.023 357.828L199.901 359.609L196.929 356.01L195.287 360.577L192.577 359.615L194.312 355.16L189.624 356.096L189.124 353.231L193.929 352.436L190.902 348.884L193.024 347.103L196.02 350.729L197.642 346.084L200.349 347.097L198.641 351.528Z"/><path fill="#ADACDF" d="M211.664 340.6L216.324 339.688L216.828 342.501L211.995 343.321L215.046 346.9L212.924 348.681L209.952 345.083L208.31 349.649L205.6 348.687L207.335 344.233L202.647 345.168L202.147 342.304L206.952 341.508L203.925 337.956L206.047 336.175L209.042 339.802L210.665 335.156L213.371 336.169L211.664 340.6Z"/><path fill="#ADACDF" d="M224.687 329.674L229.347 328.761L229.851 331.575L225.018 332.394L228.069 335.973L225.946 337.754L222.975 334.156L221.333 338.722L218.622 337.76L220.358 333.306L215.669 334.241L215.17 331.377L219.975 330.581L216.947 327.03L219.07 325.249L222.065 328.875L223.688 324.229L226.394 325.242L224.687 329.674Z"/><path fill="#ADACDF" d="M237.709 318.746L242.37 317.834L242.874 320.647L238.041 321.466L241.092 325.046L238.969 326.827L235.997 323.228L234.356 327.795L231.645 326.833L233.38 322.378L228.692 323.314L228.192 320.449L232.998 319.653L229.97 316.102L232.093 314.321L235.088 317.947L236.711 313.302L239.417 314.315L237.709 318.746Z"/><path fill="#ADACDF" d="M262.989 297.534L267.649 296.622L268.153 299.435L263.32 300.254L266.371 303.834L264.249 305.615L261.277 302.016L259.635 306.583L256.924 305.621L258.66 301.166L253.972 302.102L253.472 299.237L258.277 298.441L255.25 294.89L257.372 293.109L260.367 296.735L261.99 292.09L264.696 293.103L262.989 297.534Z"/><path fill="#ADACDF" d="M276.012 286.606L280.672 285.694L281.176 288.507L276.343 289.327L279.394 292.906L277.271 294.687L274.3 291.089L272.658 295.655L269.947 294.693L271.683 290.239L266.994 291.174L266.495 288.31L271.3 287.514L268.272 283.962L270.395 282.181L273.39 285.807L275.013 281.162L277.719 282.175L276.012 286.606Z"/><path fill="#ADACDF" d="M289.034 275.679L293.695 274.767L294.199 277.58L289.366 278.4L292.417 281.979L290.294 283.76L287.322 280.162L285.681 284.728L282.97 283.766L284.705 279.312L280.017 280.247L279.517 277.383L284.323 276.587L281.295 273.036L283.418 271.254L286.413 274.881L288.036 270.235L290.742 271.248L289.034 275.679Z"/><path fill="#ADACDF" d="M302.057 264.752L306.717 263.84L307.222 266.653L302.388 267.472L305.439 271.051L303.317 272.832L300.345 269.234L298.703 273.8L295.993 272.839L297.728 268.384L293.04 269.32L292.54 266.455L297.345 265.659L294.318 262.108L296.44 260.327L299.436 263.953L301.058 259.307L303.765 260.321L302.057 264.752Z"/><path fill="#ADACDF" d="M327.337 243.54L331.997 242.628L332.501 245.441L327.668 246.26L330.719 249.839L328.596 251.621L325.625 248.022L323.983 252.588L321.272 251.627L323.008 247.172L318.319 248.108L317.82 245.243L322.625 244.447L319.597 240.896L321.72 239.115L324.715 242.741L326.338 238.096L329.044 239.109L327.337 243.54Z"/><path fill="#ADACDF" d="M340.359 232.612L345.02 231.7L345.524 234.513L340.691 235.332L343.742 238.912L341.619 240.693L338.647 237.094L337.006 241.661L334.295 240.699L336.03 236.244L331.342 237.18L330.842 234.315L335.648 233.52L332.62 229.968L334.743 228.187L337.738 231.813L339.361 227.168L342.067 228.181L340.359 232.612Z"/><path fill="#ADACDF" d="M353.382 221.685L358.042 220.773L358.547 223.586L353.713 224.406L356.764 227.985L354.642 229.766L351.67 226.168L350.028 230.734L347.318 229.772L349.053 225.318L344.365 226.253L343.865 223.389L348.67 222.593L345.643 219.041L347.765 217.26L350.761 220.887L352.383 216.241L355.09 217.254L353.382 221.685Z"/><path fill="#ADACDF" d="M366.405 210.758L371.065 209.845L371.569 212.659L366.736 213.478L369.787 217.057L367.665 218.838L364.693 215.24L363.051 219.806L360.34 218.844L362.076 214.39L357.388 215.325L356.888 212.461L361.693 211.665L358.666 208.114L360.788 206.333L363.783 209.959L365.406 205.313L368.112 206.326L366.405 210.758Z"/><path fill="#ADACDF" d="M395.206 185.776C395.904 185.582 396.552 185.571 397.151 185.742C397.75 185.897 398.27 186.236 398.71 186.76C399.203 187.348 399.47 188.002 399.509 188.721C399.558 189.432 399.383 190.158 398.986 190.898C398.582 191.63 397.984 192.327 397.194 192.99C396.403 193.654 395.613 194.121 394.822 194.393C394.033 194.647 393.293 194.689 392.601 194.518C391.909 194.346 391.316 193.967 390.822 193.378C390.383 192.854 390.134 192.287 390.077 191.678C390.012 191.059 390.131 190.426 390.435 189.78C389.871 189.892 389.341 189.867 388.844 189.704C388.349 189.525 387.912 189.21 387.534 188.759C387.079 188.217 386.829 187.62 386.784 186.969C386.748 186.31 386.908 185.642 387.265 184.967C387.623 184.291 388.155 183.656 388.863 183.062C389.58 182.461 390.302 182.043 391.03 181.808C391.757 181.574 392.442 181.531 393.085 181.681C393.728 181.831 394.277 182.177 394.732 182.72C395.11 183.17 395.336 183.654 395.41 184.172C395.484 184.689 395.416 185.224 395.206 185.776ZM390.043 184.469C389.482 184.939 389.137 185.433 389.007 185.95C388.885 186.458 389.006 186.929 389.369 187.361C389.716 187.775 390.154 187.971 390.684 187.949C391.216 187.91 391.762 187.656 392.323 187.185C392.892 186.707 393.243 186.209 393.373 185.693C393.496 185.167 393.383 184.697 393.036 184.283C392.674 183.851 392.222 183.659 391.682 183.705C391.15 183.744 390.604 183.998 390.043 184.469ZM396.013 191.584C396.675 191.028 397.084 190.451 397.238 189.851C397.393 189.251 397.266 188.708 396.857 188.221C396.456 187.743 395.947 187.528 395.329 187.576C394.712 187.624 394.072 187.926 393.41 188.481C392.748 189.037 392.345 189.61 392.199 190.202C392.054 190.794 392.181 191.329 392.583 191.807C392.991 192.295 393.5 192.518 394.108 192.477C394.716 192.437 395.352 192.139 396.013 191.584ZM408.387 174.715C409.086 174.521 409.734 174.51 410.332 174.681C410.932 174.836 411.452 175.175 411.892 175.699C412.385 176.288 412.652 176.941 412.691 177.66C412.739 178.371 412.565 179.097 412.168 179.837C411.764 180.569 411.166 181.266 410.375 181.929C409.585 182.593 408.794 183.06 408.004 183.332C407.215 183.586 406.475 183.628 405.783 183.457C405.091 183.285 404.498 182.906 404.004 182.317C403.565 181.793 403.316 181.226 403.259 180.617C403.194 179.998 403.313 179.365 403.616 178.719C403.053 178.831 402.523 178.806 402.026 178.643C401.531 178.464 401.094 178.149 400.716 177.698C400.261 177.156 400.011 176.559 399.966 175.908C399.929 175.249 400.09 174.582 400.447 173.906C400.805 173.23 401.337 172.595 402.045 172.001C402.762 171.4 403.484 170.982 404.212 170.747C404.939 170.513 405.624 170.47 406.267 170.62C406.91 170.77 407.459 171.116 407.914 171.659C408.292 172.109 408.518 172.593 408.592 173.111C408.666 173.628 408.598 174.163 408.387 174.715ZM403.225 173.408C402.664 173.878 402.319 174.372 402.188 174.889C402.067 175.398 402.188 175.868 402.55 176.3C402.898 176.714 403.336 176.91 403.866 176.888C404.398 176.849 404.944 176.595 405.504 176.124C406.074 175.646 406.424 175.148 406.555 174.632C406.678 174.106 406.565 173.636 406.218 173.222C405.856 172.79 405.404 172.598 404.863 172.644C404.332 172.683 403.786 172.937 403.225 173.408ZM409.195 180.523C409.857 179.967 410.265 179.39 410.42 178.79C410.575 178.19 410.448 177.647 410.039 177.16C409.638 176.682 409.129 176.467 408.511 176.515C407.894 176.563 407.254 176.865 406.592 177.42C405.93 177.976 405.526 178.549 405.381 179.141C405.235 179.733 405.363 180.268 405.764 180.746C406.173 181.234 406.682 181.457 407.29 181.417C407.898 181.376 408.533 181.078 409.195 180.523ZM421.569 163.655C422.268 163.46 422.916 163.449 423.514 163.62C424.114 163.775 424.634 164.114 425.073 164.638C425.567 165.227 425.834 165.88 425.873 166.599C425.921 167.31 425.747 168.036 425.35 168.777C424.945 169.508 424.348 170.205 423.557 170.868C422.767 171.532 421.976 171.999 421.186 172.271C420.397 172.525 419.657 172.567 418.965 172.396C418.273 172.225 417.68 171.845 417.186 171.256C416.747 170.732 416.498 170.166 416.441 169.556C416.376 168.937 416.495 168.304 416.798 167.658C416.235 167.77 415.705 167.745 415.208 167.583C414.712 167.403 414.276 167.088 413.898 166.638C413.443 166.095 413.193 165.498 413.147 164.847C413.111 164.188 413.272 163.521 413.629 162.845C413.986 162.169 414.519 161.534 415.227 160.94C415.944 160.339 416.666 159.921 417.394 159.686C418.121 159.452 418.806 159.41 419.449 159.559C420.092 159.709 420.641 160.056 421.096 160.598C421.474 161.048 421.7 161.532 421.774 162.05C421.847 162.567 421.779 163.102 421.569 163.655ZM416.407 162.347C415.846 162.817 415.501 163.311 415.37 163.828C415.249 164.337 415.37 164.807 415.732 165.239C416.079 165.653 416.518 165.849 417.048 165.827C417.579 165.788 418.126 165.534 418.686 165.063C419.256 164.585 419.606 164.088 419.737 163.571C419.859 163.045 419.747 162.575 419.4 162.162C419.038 161.73 418.586 161.537 418.045 161.583C417.514 161.622 416.968 161.876 416.407 162.347ZM422.377 169.462C423.039 168.907 423.447 168.329 423.602 167.729C423.757 167.13 423.63 166.586 423.221 166.099C422.82 165.621 422.31 165.406 421.693 165.454C421.075 165.502 420.436 165.804 419.774 166.359C419.112 166.915 418.708 167.489 418.563 168.081C418.417 168.673 418.545 169.208 418.946 169.686C419.355 170.173 419.864 170.396 420.472 170.356C421.08 170.315 421.715 170.017 422.377 169.462ZM434.751 152.594C435.45 152.399 436.098 152.388 436.696 152.559C437.296 152.714 437.816 153.053 438.255 153.577C438.749 154.166 439.015 154.819 439.055 155.538C439.103 156.249 438.929 156.975 438.532 157.716C438.127 158.447 437.53 159.144 436.739 159.807C435.949 160.471 435.158 160.938 434.368 161.21C433.579 161.465 432.839 161.506 432.147 161.335C431.455 161.164 430.862 160.784 430.368 160.196C429.928 159.672 429.68 159.105 429.622 158.495C429.557 157.876 429.677 157.243 429.98 156.597C429.417 156.709 428.887 156.684 428.39 156.522C427.894 156.342 427.458 156.027 427.08 155.577C426.625 155.034 426.374 154.437 426.329 153.786C426.293 153.127 426.454 152.46 426.811 151.784C427.168 151.108 427.701 150.473 428.409 149.88C429.126 149.278 429.848 148.86 430.575 148.625C431.303 148.391 431.988 148.349 432.631 148.499C433.273 148.648 433.822 148.995 434.278 149.537C434.655 149.987 434.881 150.471 434.955 150.989C435.029 151.506 434.961 152.041 434.751 152.594ZM429.589 151.286C429.028 151.757 428.683 152.25 428.552 152.767C428.431 153.276 428.552 153.746 428.914 154.178C429.261 154.592 429.7 154.788 430.23 154.766C430.761 154.728 431.307 154.473 431.868 154.002C432.438 153.524 432.788 153.027 432.919 152.51C433.041 151.984 432.929 151.514 432.582 151.101C432.219 150.669 431.768 150.476 431.227 150.522C430.696 150.561 430.15 150.815 429.589 151.286ZM435.559 158.401C436.221 157.846 436.629 157.268 436.784 156.668C436.939 156.069 436.811 155.525 436.403 155.038C436.002 154.56 435.492 154.345 434.875 154.393C434.257 154.441 433.618 154.743 432.956 155.299C432.294 155.854 431.89 156.428 431.745 157.02C431.599 157.612 431.727 158.147 432.128 158.625C432.537 159.112 433.045 159.335 433.654 159.295C434.262 159.254 434.897 158.956 435.559 158.401Z"/><path fill="#ADACDF" d="M219.48 386.78L227.58 396.432L225.787 397.937L218.949 389.787L216.908 391.5L215.647 389.997L219.48 386.78ZM235.401 387.285L236.673 388.802L229.558 394.772L228.552 393.573L229.33 386.716C229.415 385.94 229.404 385.338 229.297 384.911C229.191 384.468 229.01 384.094 228.756 383.791C228.378 383.34 227.937 383.123 227.433 383.138C226.929 383.154 226.383 383.409 225.795 383.902C224.811 384.728 224.339 385.696 224.378 386.806L222.313 386.894C222.266 386.072 222.444 385.257 222.847 384.449C223.251 383.624 223.848 382.88 224.639 382.217C225.687 381.338 226.732 380.884 227.773 380.856C228.815 380.828 229.694 381.241 230.412 382.096C230.851 382.62 231.154 383.204 231.319 383.849C231.484 384.494 231.501 385.372 231.369 386.485L230.85 391.103L235.401 387.285ZM231.818 373.091L233.363 371.795L239.711 388.602L238.167 389.898L231.818 373.091ZM249.054 375.829L250.326 377.346L243.211 383.316L242.205 382.116L242.984 375.259C243.068 374.483 243.057 373.882 242.95 373.455C242.844 373.011 242.663 372.638 242.409 372.334C242.031 371.884 241.59 371.667 241.086 371.682C240.582 371.698 240.036 371.952 239.448 372.446C238.464 373.271 237.992 374.239 238.031 375.35L235.966 375.438C235.919 374.616 236.097 373.801 236.5 372.993C236.904 372.168 237.502 371.424 238.292 370.76C239.34 369.881 240.385 369.427 241.426 369.399C242.468 369.371 243.348 369.785 244.065 370.639C244.505 371.163 244.807 371.748 244.972 372.393C245.137 373.037 245.154 373.916 245.022 375.029L244.503 379.647L249.054 375.829ZM246.787 363.868L254.886 373.52L253.093 375.024L246.255 366.875L244.215 368.587L242.953 367.084L246.787 363.868Z"/><path fill="#ADACDF" d="M275.015 118.466L276.711 117.043L279.94 120.89C279.775 121.701 279.45 122.491 278.966 123.258C278.481 124.024 277.89 124.701 277.191 125.287C276.208 126.112 275.143 126.645 273.998 126.886C272.845 127.117 271.727 127.045 270.644 126.669C269.561 126.293 268.622 125.632 267.828 124.685C267.033 123.738 266.545 122.699 266.363 121.567C266.181 120.435 266.307 119.326 266.743 118.24C267.18 117.137 267.895 116.169 268.888 115.336C269.697 114.657 270.544 114.173 271.43 113.885C272.315 113.596 273.199 113.52 274.082 113.657L273.877 115.709C272.524 115.59 271.329 115.967 270.29 116.839C269.61 117.409 269.123 118.061 268.828 118.793C268.544 119.518 268.465 120.265 268.594 121.034C268.732 121.796 269.078 122.508 269.634 123.169C270.174 123.813 270.807 124.269 271.533 124.537C272.268 124.797 273.021 124.854 273.792 124.709C274.572 124.555 275.298 124.197 275.969 123.634C276.722 123.002 277.245 122.281 277.538 121.472L275.015 118.466ZM287.108 110.528C287.208 110.647 287.342 110.825 287.508 111.061L281.731 115.909C282.287 116.366 282.912 116.579 283.604 116.546C284.299 116.496 284.963 116.205 285.597 115.672C286.406 114.994 286.849 114.168 286.926 113.195L288.74 113.481C288.741 114.154 288.574 114.804 288.238 115.431C287.902 116.057 287.417 116.636 286.782 117.169C285.973 117.847 285.126 118.284 284.24 118.479C283.354 118.674 282.502 118.63 281.684 118.345C280.867 118.044 280.154 117.53 279.544 116.804C278.943 116.087 278.564 115.308 278.407 114.468C278.252 113.611 278.329 112.779 278.638 111.972C278.948 111.164 279.465 110.455 280.191 109.846C280.909 109.244 281.682 108.869 282.513 108.72C283.345 108.555 284.161 108.63 284.959 108.947C285.759 109.247 286.475 109.774 287.108 110.528ZM281.349 111.225C280.797 111.688 280.467 112.247 280.359 112.901C280.252 113.539 280.384 114.164 280.757 114.776L284.935 111.27C284.414 110.799 283.826 110.556 283.171 110.541C282.517 110.526 281.909 110.754 281.349 111.225ZM289.936 101.669C290.865 100.89 291.837 100.537 292.853 100.608C293.868 100.68 294.824 101.249 295.718 102.316L299.259 106.535L297.535 107.981L294.18 103.983C293.64 103.339 293.083 102.984 292.51 102.917C291.929 102.84 291.358 103.037 290.797 103.508C290.163 104.04 289.824 104.653 289.78 105.348C289.729 106.033 290.004 106.735 290.606 107.452L293.73 111.175L292.006 112.621L285.828 105.258L287.468 103.881L288.267 104.832C288.266 104.253 288.409 103.695 288.694 103.158C288.98 102.621 289.394 102.124 289.936 101.669ZM305.568 95.0376C305.668 95.1571 305.802 95.3349 305.969 95.571L300.191 100.419C300.747 100.876 301.372 101.089 302.065 101.056C302.759 101.006 303.423 100.714 304.058 100.182C304.867 99.5034 305.309 98.6776 305.386 97.7048L307.201 97.9913C307.201 98.6643 307.034 99.314 306.698 99.9405C306.362 100.567 305.877 101.146 305.243 101.679C304.434 102.357 303.586 102.794 302.701 102.989C301.815 103.184 300.963 103.14 300.144 102.855C299.327 102.554 298.614 102.04 298.005 101.314C297.403 100.597 297.024 99.8181 296.868 98.9782C296.713 98.1214 296.79 97.2891 297.099 96.4815C297.408 95.6738 297.926 94.9652 298.652 94.3559C299.369 93.7542 300.143 93.379 300.973 93.2302C301.806 93.0645 302.621 93.1401 303.42 93.457C304.219 93.757 304.936 94.2839 305.568 95.0376ZM299.809 95.7348C299.257 96.1976 298.927 96.7564 298.819 97.4113C298.712 98.0493 298.845 98.6742 299.217 99.286L303.395 95.7802C302.874 95.3087 302.286 95.0657 301.632 95.051C300.977 95.0363 300.37 95.2642 299.809 95.7348ZM312.823 95.3183C312.225 95.8197 311.576 96.2314 310.875 96.5533C310.174 96.8753 309.553 97.0595 309.012 97.1058L308.575 95.2405C309.091 95.1835 309.637 95.0311 310.212 94.7833C310.789 94.5186 311.302 94.1973 311.753 93.8193C312.782 92.9554 313.07 92.2523 312.614 91.7099C312.398 91.4525 312.115 91.3851 311.763 91.5077C311.421 91.6225 310.922 91.877 310.266 92.271C309.582 92.6882 308.997 92.999 308.51 93.2034C308.033 93.4002 307.529 93.471 306.997 93.416C306.466 93.344 305.978 93.0415 305.53 92.5083C304.944 91.8097 304.767 91.0106 304.999 90.1109C305.232 89.1944 305.846 88.3196 306.838 87.4866C307.344 87.0623 307.9 86.6979 308.506 86.3931C309.104 86.0792 309.645 85.8838 310.128 85.8068L310.566 87.6721C309.632 87.829 308.775 88.2352 307.993 88.8908C307.488 89.3151 307.167 89.7172 307.032 90.0971C306.898 90.4602 306.935 90.7658 307.143 91.014C307.374 91.2898 307.678 91.3717 308.054 91.2598C308.432 91.131 308.957 90.8703 309.63 90.4778C310.296 90.0761 310.867 89.7768 311.344 89.5801C311.821 89.3833 312.313 89.3156 312.819 89.3769C313.333 89.4304 313.811 89.7192 314.25 90.2432C314.829 90.9326 314.993 91.7349 314.743 92.6499C314.492 93.5649 313.852 94.4544 312.823 95.3183ZM311.572 83.6553L313.296 82.209L319.474 89.5723L317.751 91.0185L311.572 83.6553ZM311.423 81.713C311.11 81.9752 310.767 82.0985 310.394 82.0829C310.013 82.0581 309.699 81.8986 309.452 81.6044C309.205 81.3103 309.106 80.978 309.156 80.6075C309.198 80.2279 309.375 79.9069 309.687 79.6447C310 79.3824 310.343 79.2591 310.716 79.2747C311.082 79.2812 311.384 79.4269 311.623 79.7118C311.878 80.0152 311.988 80.3613 311.954 80.7501C311.922 81.122 311.745 81.443 311.423 81.713ZM324.281 85.7037C323.683 86.2051 323.034 86.6167 322.333 86.9387C321.632 87.2607 321.011 87.4448 320.47 87.4912L320.033 85.6259C320.549 85.5689 321.095 85.4164 321.67 85.1686C322.247 84.904 322.761 84.5826 323.211 84.2047C324.241 83.3408 324.528 82.6376 324.073 82.0953C323.857 81.8379 323.573 81.7705 323.222 81.893C322.879 82.0079 322.38 82.2623 321.724 82.6564C321.04 83.0735 320.455 83.3843 319.969 83.5888C319.491 83.7856 318.987 83.8564 318.455 83.8014C317.925 83.7294 317.436 83.4269 316.988 82.8937C316.402 82.1951 316.225 81.3959 316.457 80.4963C316.691 79.5798 317.304 78.705 318.297 77.872C318.802 77.4477 319.358 77.0832 319.964 76.7785C320.562 76.4646 321.103 76.2691 321.587 76.1922L322.024 78.0575C321.09 78.2143 320.233 78.6206 319.451 79.2762C318.946 79.7004 318.625 80.1025 318.49 80.4825C318.356 80.8456 318.393 81.1512 318.601 81.3994C318.833 81.6752 319.136 81.7571 319.512 81.6452C319.89 81.5164 320.415 81.2557 321.089 80.8632C321.754 80.4614 322.325 80.1622 322.802 79.9655C323.28 79.7687 323.771 79.701 324.277 79.7622C324.792 79.8158 325.269 80.1046 325.709 80.6286C326.287 81.318 326.451 82.1202 326.201 83.0353C325.95 83.9503 325.31 84.8398 324.281 85.7037ZM334.099 60.8526L337.993 74.0337L336.228 75.5146L323.909 69.403L325.853 67.7716L335.314 72.5217L332.307 62.3567L334.099 60.8526ZM337.128 62.2114L338.852 60.7652L345.03 68.1284L343.307 69.5747L337.128 62.2114ZM336.979 60.2691C336.666 60.5314 336.323 60.6547 335.95 60.639C335.569 60.6142 335.255 60.4547 335.008 60.1606C334.761 59.8664 334.662 59.5341 334.712 59.1636C334.753 58.784 334.931 58.463 335.243 58.2008C335.556 57.9385 335.899 57.8152 336.272 57.8309C336.638 57.8373 336.94 57.983 337.179 58.268C337.434 58.5713 337.544 58.9174 337.51 59.3063C337.478 59.6782 337.3 59.9991 336.979 60.2691ZM349.837 64.2598C349.239 64.7612 348.59 65.1729 347.889 65.4948C347.188 65.8168 346.567 66.001 346.026 66.0474L345.589 64.1821C346.105 64.125 346.651 63.9726 347.226 63.7248C347.803 63.4601 348.316 63.1388 348.767 62.7608C349.796 61.8969 350.084 61.1938 349.628 60.6514C349.412 60.394 349.129 60.3266 348.777 60.4492C348.435 60.564 347.936 60.8185 347.28 61.2125C346.596 61.6297 346.011 61.9405 345.524 62.1449C345.047 62.3417 344.543 62.4125 344.011 62.3575C343.481 62.2855 342.992 61.983 342.544 61.4498C341.958 60.7512 341.781 59.9521 342.013 59.0525C342.247 58.1359 342.86 57.2612 343.852 56.4281C344.358 56.0039 344.914 55.6394 345.52 55.3346C346.118 55.0207 346.659 54.8253 347.142 54.7484L347.58 56.6137C346.646 56.7705 345.789 57.1767 345.007 57.8323C344.502 58.2566 344.181 58.6587 344.046 59.0386C343.912 59.4017 343.949 59.7073 344.157 59.9555C344.389 60.2313 344.692 60.3132 345.068 60.2013C345.446 60.0725 345.971 59.8119 346.644 59.4193C347.31 59.0176 347.881 58.7183 348.358 58.5216C348.835 58.3248 349.327 58.2571 349.833 58.3184C350.347 58.372 350.825 58.6607 351.264 59.1847C351.843 59.8741 352.007 60.6764 351.757 61.5914C351.506 62.5065 350.866 63.3959 349.837 64.2598ZM348.586 52.5968L350.31 51.1505L356.488 58.5138L354.765 59.96L348.586 52.5968ZM348.437 50.6545C348.124 50.9167 347.781 51.0401 347.408 51.0244C347.027 50.9996 346.713 50.8401 346.466 50.5459C346.219 50.2518 346.121 49.9195 346.17 49.549C346.212 49.1694 346.389 48.8484 346.701 48.5862C347.014 48.3239 347.357 48.2006 347.73 48.2162C348.096 48.2227 348.398 48.3684 348.638 48.6533C348.892 48.9567 349.002 49.3028 348.968 49.6916C348.936 50.0636 348.759 50.3845 348.437 50.6545ZM362.329 53.7774C361.584 54.4022 360.778 54.8044 359.911 54.9841C359.043 55.1637 358.201 55.1113 357.382 54.8267C356.565 54.5253 355.852 54.0114 355.243 53.2852C354.633 52.559 354.255 51.7721 354.108 50.9245C353.97 50.0692 354.064 49.2299 354.392 48.4068C354.719 47.5837 355.256 46.8598 356 46.235C356.754 45.6025 357.565 45.1964 358.432 45.0168C359.3 44.8371 360.138 44.8934 360.947 45.1857C361.765 45.4702 362.479 45.9756 363.089 46.7018C363.698 47.428 364.076 48.2234 364.221 49.0879C364.369 49.9355 364.279 50.7709 363.951 51.594C363.623 52.4171 363.083 53.1449 362.329 53.7774ZM361.091 52.302C361.725 51.7698 362.072 51.1187 362.131 50.3488C362.19 49.5788 361.93 48.8491 361.351 48.1596C360.773 47.4702 360.099 47.0876 359.331 47.0119C358.562 46.9361 357.861 47.1643 357.227 47.6966C356.592 48.2288 356.246 48.8799 356.187 49.6499C356.137 50.4121 356.402 51.138 356.98 51.8274C357.559 52.5168 358.228 52.9033 358.987 52.9868C359.755 53.0625 360.457 52.8343 361.091 52.302ZM365.944 37.8909C366.873 37.1119 367.845 36.7583 368.861 36.8301C369.876 36.9019 370.832 37.471 371.727 38.5374L375.267 42.7567L373.543 44.203L370.188 40.2043C369.648 39.5608 369.091 39.2054 368.518 39.1382C367.937 39.0619 367.366 39.2589 366.805 39.7294C366.171 40.2617 365.832 40.8751 365.788 41.5697C365.737 42.2552 366.012 42.9564 366.614 43.6734L369.738 47.3964L368.014 48.8426L361.836 41.4794L363.476 40.1026L364.275 41.054C364.274 40.4748 364.417 39.9165 364.702 39.3794C364.988 38.8422 365.402 38.346 365.944 37.8909Z"/><path fill="#ADACDF" d="M211.555 378.287L212.862 382.673L212.127 383.29L208.039 381.238L208.844 380.563L211.751 382.04L210.815 378.908L211.555 378.287ZM216.144 378.745L214.651 379.998L214.944 380.927L214.181 381.567L212.915 377.146L213.651 376.529L217.789 378.539L217.008 379.195L216.144 378.745ZM215.436 378.376L213.892 377.572L214.415 379.232L215.436 378.376ZM215.611 374.884L216.356 374.259L218.547 376.87L220.16 375.516L220.669 376.123L218.311 378.101L215.611 374.884ZM218.573 372.399L219.318 371.774L222.018 374.991L221.273 375.616L218.573 372.399ZM220.269 370.975L221.731 369.749C222.08 369.456 222.445 369.265 222.825 369.176C223.205 369.082 223.57 369.094 223.92 369.212C224.273 369.328 224.585 369.547 224.855 369.869C225.125 370.191 225.286 370.536 225.339 370.904C225.396 371.269 225.345 371.632 225.189 371.994C225.033 372.349 224.78 372.673 224.431 372.966L222.969 374.193L220.269 370.975ZM223.881 372.386C224.203 372.116 224.384 371.812 224.425 371.475C224.466 371.132 224.358 370.808 224.101 370.501C223.844 370.195 223.545 370.034 223.202 370.018C222.861 369.997 222.529 370.121 222.207 370.391L221.527 370.962L223.201 372.957L223.881 372.386ZM226.92 366.429L225.89 367.293L225.381 366.686L228.185 364.333L228.694 364.94L227.665 365.804L229.855 368.415L229.111 369.039L226.92 366.429ZM231.725 361.363L234.424 364.581L233.68 365.206L232.573 363.886L231.111 365.113L232.218 366.432L231.473 367.057L228.774 363.839L229.518 363.215L230.583 364.483L232.044 363.257L230.98 361.988L231.725 361.363ZM237.423 362.064L236.051 361.689L236.014 361.719L235.366 362.263L236.118 363.16L235.374 363.784L232.674 360.567L234.066 359.398C234.351 359.159 234.638 359 234.926 358.92C235.217 358.837 235.493 358.836 235.753 358.916C236.013 358.995 236.243 359.154 236.443 359.393C236.644 359.632 236.759 359.888 236.789 360.16C236.82 360.427 236.768 360.695 236.634 360.964L238.223 361.393L237.423 362.064ZM235.69 360.026C235.538 359.845 235.364 359.756 235.168 359.759C234.969 359.758 234.758 359.852 234.534 360.04L233.927 360.549L234.869 361.67L235.475 361.161C235.699 360.974 235.828 360.782 235.862 360.586C235.896 360.39 235.839 360.204 235.69 360.026ZM240.417 359.646C239.957 360.032 239.492 360.206 239.021 360.167C238.554 360.126 238.122 359.87 237.726 359.398L236.214 357.596L236.959 356.971L238.447 358.746C238.931 359.322 239.411 359.409 239.889 359.008C240.122 358.813 240.242 358.595 240.249 358.354C240.253 358.11 240.131 357.84 239.881 357.542L238.393 355.768L239.128 355.151L240.64 356.953C241.036 357.425 241.212 357.896 241.168 358.366C241.127 358.834 240.877 359.261 240.417 359.646Z" opacity=".5"/><circle cx="465.803" cy="187.402" r="25" fill="#16B9AD" transform="rotate(-40 465.803 187.402)"/><g style="mix-blend-mode:screen"><circle cx="438.991" cy="209.899" r="25" fill="#DB2A7C" transform="rotate(-40 438.991 209.899)"/></g><rect width="60" height="55" x="141.606" y="298.87" fill="#ADACDF" fill-opacity=".6" rx="10" transform="rotate(-40 141.606 298.87)"/><path stroke="#100C31" stroke-linecap="round" d="M148.676 307.297L194.639 268.73"/><path stroke="#100C31" stroke-linecap="round" d="M155.747 315.723L171.834 302.224"/><path stroke="#100C31" stroke-linecap="round" d="M185.623 290.654L200.944 277.799"/><path stroke="#100C31" stroke-linecap="round" d="M162.818 324.149L178.139 311.294"/><path stroke="#100C31" stroke-linecap="round" d="M193.459 298.438L208.78 285.583"/><path stroke="#100C31" stroke-linecap="round" d="M169.888 332.576L215.851 294.009"/><path stroke="#100C31" stroke-linecap="round" stroke-linejoin="round" d="M185.015 295.733C188.324 295.26 191.796 296.455 194.102 299.204C197.652 303.435 197.1 309.743 192.87 313.293C188.639 316.843 182.331 316.291 178.781 312.06C176.475 309.311 175.9 305.685 176.941 302.509"/><path stroke="#100C31" stroke-linecap="round" stroke-linejoin="round" d="M177.785 282.87C179.822 283.343 181.728 284.457 183.175 286.182C185.419 288.856 186.024 292.36 185.097 295.473M165.529 293.155C165.641 295.243 166.407 297.313 167.854 299.037C170.161 301.787 173.632 302.982 176.941 302.509"/><defs><filter id="filter0_f" width="420" height="420" x="87" y="21" color-interpolation-filters="sRGB" filterUnits="userSpaceOnUse"><feFlood flood-opacity="0" result="BackgroundImageFix"/><feBlend in="SourceGraphic" in2="BackgroundImageFix" mode="normal" result="shape"/><feGaussianBlur result="effect1_foregroundBlur" stdDeviation="30"/></filter></defs></svg>