<svg xmlns="http://www.w3.org/2000/svg" width="580" height="461" fill="none" viewBox="0 0 580 461"><path stroke="#DB2A7C" stroke-linecap="round" stroke-linejoin="round" stroke-width="1.681" d="M359.986 160.382C359.986 152.119 363.421 138.575 365.138 132.837L370.928 130.064C370.356 134.655 368.572 144.543 375.442 143.166C382.311 141.789 386.318 129.967 387.463 124.229H396.049C395.477 124.802 393.988 128.016 392.615 136.28C390.897 146.609 397.766 155.217 404.636 155.217C410.131 155.217 410.36 151.774 409.788 150.053H413.222C412.65 151.2 411.505 156.25 411.505 167.269C411.505 181.042 419.075 199.276 418.374 199.979C415.626 202.734 397.766 208.013 389.18 210.309C388.035 206.866 385.058 198.946 382.311 194.814C378.876 189.65 359.986 170.712 359.986 160.382Z"/><path stroke="#DB2A7C" stroke-linecap="round" stroke-linejoin="round" stroke-width="1.681" d="M364.728 132.618C361.85 132.618 353.232 134.018 349.087 138.162C343.906 143.342 342.178 148.522 336.997 150.248C331.815 151.975 316.271 162.335 312.816 165.788C309.362 169.241 290.363 172.694 280 177.874C269.637 183.054 274.818 181.327 271.364 183.054C267.91 184.78 257.547 184.78 254.092 189.96C250.638 195.14 248.911 200.32 247.184 202.047C245.456 203.773 252.365 208.953 259.274 205.5C266.183 202.046 262.73 191.687 273.093 189.96C283.456 188.234 311.091 184.78 319.727 179.601C328.362 174.421 355.014 156.726 356.741 155"/><path stroke="#DB2A7C" stroke-linecap="round" stroke-linejoin="round" stroke-width="1.681" d="M347.585 154.867H359.986"/><path stroke="#DB2A7C" stroke-linecap="round" stroke-linejoin="round" stroke-width="4" d="M231 209.506C232.041 208.658 250.592 198.574 259.737 193.638"/><path stroke="#DB2A7C" stroke-linecap="round" stroke-linejoin="round" stroke-width="1.681" d="M403.026 150.232C408.116 149.308 418.973 147.336 421.688 146.843"/><path stroke="#DB2A7C" stroke-linecap="round" stroke-linejoin="round" stroke-width="1.681" d="M410.686 148.667C419.264 150.391 435.663 150.092 439.094 151.817C442.526 153.541 451.104 162.162 461.397 163.886C471.691 165.611 481.985 165.611 485.416 170.783C488.847 175.956 492.278 179.405 497.425 179.405C502.572 179.405 507.719 181.129 512.866 181.129C518.013 181.129 511.15 172.508 502.572 167.335C493.994 162.162 488.847 163.886 485.416 162.162C481.985 160.438 466.544 146.644 454.535 143.195C442.526 139.747 418.507 127.677 413.36 125.953C409.243 124.573 401.567 124.229 395.731 124.229"/><path stroke="#DB2A7C" stroke-linecap="round" stroke-linejoin="round" stroke-width="1.681" d="M389.166 209.58L388.436 230.735C395.366 226.358 397.795 223.805 408.862 223.805C419.929 223.805 426.676 236.692 427.829 241.313C431.476 237.3 435.508 227.47 434.124 219.154C432.741 210.838 423.173 202.984 418.562 200.096"/><path stroke="#DB2A7C" stroke-linecap="round" stroke-linejoin="round" stroke-width="1.681" d="M388.71 230.735C378.938 242.86 359.049 268.495 357.669 274.038C355.944 280.967 357.669 289.627 366.291 291.359C374.914 293.092 409.723 292.104 418.345 293.836C426.968 295.568 428.293 294.202 430.017 301.131C431.742 308.06 430.945 323.837 434.394 325.569C437.843 327.301 437.265 327.301 438.989 325.569C440.714 323.837 442.419 302.225 444.607 295.66C445.831 291.989 443.757 286.055 441.325 285.812C434.03 285.082 423.087 287.635 406.309 275.599C397.784 269.483 387.707 271.951 381.871 275.599"/><path stroke="#DB2A7C" stroke-linecap="round" stroke-linejoin="round" stroke-width="1.681" d="M428.194 240.948C409.956 260.644 394.168 270.78 380.412 275.963"/><path stroke="#DB2A7C" stroke-linecap="round" stroke-linejoin="round" stroke-width="1.681" d="M405.242 262C406.856 266.596 408.831 272.709 411.356 278.881M430.382 238.03C438.959 267.191 435.952 272.497 437.962 285.447M418.252 293.836C419.595 296.23 420.806 297.942 421.77 298.582C423.68 299.851 426.998 302.991 430.859 306.967M440.782 317.65C444.582 321.884 448.256 326.123 451.153 329.587C459.795 339.922 458.067 345.09 459.795 351.98C461.524 358.87 459.795 366.522 459.795 368.244C459.795 369.967 451.153 370.928 451.153 374.373C451.153 377.818 466.807 375.626 469.41 373.351C472.666 370.505 473.623 357.148 477.08 353.703C480.537 350.258 482.265 345.09 477.08 343.368C471.894 341.645 468.438 339.922 466.709 334.755C464.981 329.587 453.751 299.332 449.349 294.93C447.897 293.479 446.395 292.291 444.972 291.33"/><path stroke="#DB2A7C" stroke-linecap="round" stroke-linejoin="round" stroke-width="1.681" d="M469.41 339.429C469.41 342.834 467.367 349.642 459.197 349.642"/><path stroke="#DB2A7C" stroke-linecap="round" stroke-linejoin="round" stroke-width="1.681" d="M432 285.5C433.094 292.431 430.017 295.701 428.558 297.119"/><path stroke="#DB2A7C" stroke-linecap="round" stroke-linejoin="round" stroke-width="1.681" d="M384.059 115.475C384.546 118.393 385.81 124.229 386.977 124.229"/><path stroke="#DB2A7C" stroke-linecap="round" stroke-linejoin="round" stroke-width="1.681" d="M382.137 113.653C383.873 115.372 387.346 115.372 390.819 111.934C394.292 108.496 397.764 103.339 394.292 99.9006C390.819 96.4624 394.292 94.7433 389.082 91.3051C383.873 87.8669 383.873 91.3051 380.4 87.8669C376.928 84.4287 376.928 77.5523 366.509 79.2714C356.091 80.9905 359.564 84.4293 354.354 84.4293C349.145 84.4293 345.395 87.8669 345.395 91.3051C345.395 94.7433 349.145 96.4635 349.145 98.182C349.145 99.9005 349.495 105.262 351.231 105.262C353.058 105.262 351.231 114.38 351.231 114.38H354.704C354.704 115.154 354.502 116.176 354.502 118M373.455 122.249C369.982 125.688 360.739 125.5 359.002 125.5C358.38 125.5 356.911 123.514 356.337 121.311C356.184 120.722 356.47 120.105 356.337 119.487M354.502 118C354.591 118.478 356.232 118.997 356.337 119.487M354.502 118L356.337 119.487"/><path stroke="#DB2A7C" stroke-linecap="round" stroke-linejoin="round" stroke-width="1.681" d="M357.797 96.5078C362.97 96.5078 371.591 98.21 373.316 101.614C375.04 105.019 375.04 110.125 376.764 111.827"/><path stroke="#DB2A7C" stroke-linecap="round" stroke-linejoin="round" stroke-width="1.681" d="M368.01 87.7539C371.577 89.4865 373.36 89.4865 376.926 94.6841C379.78 98.8422 382.87 101.037 384.059 101.614"/><path stroke="#DB2A7C" stroke-linecap="round" stroke-linejoin="round" stroke-width="1.681" d="M370.928 124.229V129.7"/></svg>