<svg width="582" height="461" fill="none" xmlns="http://www.w3.org/2000/svg"><circle cx="122" cy="4" r="4" fill="#00BDAF"/><circle opacity=".2" cx="292" cy="58" r="4" fill="#00BDAF"/><circle cx="524" cy="58" r="4" fill="#00BDAF"/><circle opacity=".2" cx="6" cy="119" r="4" fill="#00BDAF"/><mask id="a" mask-type="alpha" maskUnits="userSpaceOnUse" x="2" y="135" width="580" height="301"><path d="M2 135h580v300H2V135z" fill="#040027"/></mask><g opacity=".5" stroke-width="2" mask="url(#a)"><path opacity=".5" d="M170 280L3 418" stroke="url(#paint0_linear)"/><path opacity=".1" d="M2 280h579" stroke="url(#paint1_linear)"/><path opacity=".2" d="M2 295h579" stroke="url(#paint2_linear)"/><path opacity=".3" d="M2 311h579" stroke="url(#paint3_linear)"/><path opacity=".5" d="M2 331h579" stroke="url(#paint4_linear)"/><path opacity=".5" d="M2 357h579" stroke="url(#paint5_linear)"/><path opacity=".5" d="M2 391h579" stroke="url(#paint6_linear)"/><path d="M212 280l-83 138" stroke="url(#paint7_linear)"/><path d="M255 280l-43 138" stroke="url(#paint8_linear)"/><path d="M298 280l-1 138" stroke="url(#paint9_linear)"/><path d="M340 280l43 138" stroke="url(#paint10_linear)"/><path d="M382 280l84 138" stroke="url(#paint11_linear)"/><path opacity=".5" d="M414 280l167 138" stroke="url(#paint12_linear)"/></g><g opacity=".4" stroke="#DB2A7C" stroke-linecap="round" stroke-linejoin="round"><path d="M329 194c-1 4-4 12-9 16-4 5-8 6-9 6 1-5 3-16 6-20 3-6 3-6 11-9 7-4 27-20 38-22l7-2c13-16 24-22 29-27 6-6 16-8 19-8M443 123c1 0 11-2 18 7 6 7 5 7 4 6 12 10 21 23 25 29 6 7 9 11 7 31-1 20-5 22-5 24 0 1 2 18-4 23-5 6-5-5-9-7s0-16 4-22c3-5 0-35 0-38 0-4-20-11-31-29" stroke-width="1.7"/><path d="M472 192c-6 4-24 15-26 11l-27-35c-6-5-4-27-2-39M469 165c0 2 1 25 3 27" stroke-width="1.7"/><path d="M444 201l-11 24c8 4 25 12 26 16M479 220c-6 2-18 9-20 20M472 192c2 1 8 5 12 13" stroke-width="1.7"/><path d="M459 239c1 18 3 55 9 61 7 7 11 5 15 4 3-2 42-50 51-52l31-1c2 0 2-6-4-8-5-2-20-3-27-5s-9-6-13-2 2 13-2 15l-31 14M521 246s8 0 10 7M488 243v35M433 227c-6 13-18 41-21 51-4 13 16 73 14 82l-2 4m35-110c-4 9-24 26-26 29-1 4 0 11 4 17 4 5 0 51 0 58l2 8m-15-2c-7 8-24 15-25 16-2 2 20 0 29 0s11 2 15 0c2-1-1-8-4-14m-15-2c1 3 7 6 15 2" stroke-width="1.7"/><path d="M333 197l-36 20" stroke-width="4"/><path d="M444 123c-4 3-10 13-6 23 4 11 14 10 19 8M439 123c-2 5-6 15-13 18s-8-7-7-13M415 147c-2 2-19 16-33 21-9 6-15 16-31 20l-22 5M433 114c1 3 2 9 4 9h4" stroke-width="1.7"/><path d="M432 112c2 2 5 2 8-1 4-4 7-9 4-12-4-3 0-5-5-8s-5 0-9-3c-3-4-3-10-13-9-10 2-7 5-12 5s-8 4-8 7 3 5 3 6l2 7c2 0 0 9 0 9h4v3m18 5c-4 3-13 3-14 3l-3-4v-2m-1-2l1 2m-1-2l1 2" stroke-width="1.7"/><path d="M409 96c5 0 13 1 15 5 1 3 1 8 3 10M418 87c4 2 6 2 9 7l7 7M421 122v6" stroke-width="1.7"/></g><path d="M362 160c0-8 3-21 5-27l6-3c-1 5-2 15 4 13 7-1 11-13 12-19h9l-3 12c-2 11 5 19 12 19 5 0 5-3 5-5h3l-1 17c0 14 7 32 6 33-2 3-20 8-29 10-1-3-4-11-7-15-3-5-22-24-22-35zM367 133c-3 0-12 1-16 5-5 5-7 11-12 12-5 2-21 12-24 16-4 3-23 7-33 12l-9 5c-3 2-13 2-17 7l-7 12c-2 2 5 7 12 4 7-4 4-14 14-16s38-5 47-10l37-25M350 155h12" stroke="#DB2A7C" stroke-width="1.7" stroke-linecap="round" stroke-linejoin="round"/><path d="M233 210l29-16" stroke="#DB2A7C" stroke-width="4" stroke-linecap="round" stroke-linejoin="round"/><path d="M405 150l19-3M413 149c8 1 25 1 28 3 4 2 12 10 22 12 11 2 21 2 24 7 4 5 7 8 12 8l16 2c5 0-2-8-10-14-9-5-14-3-18-5-3-2-18-15-30-19-12-3-36-15-42-17l-17-2M391 210l-1 21c7-5 10-7 21-7s18 13 19 17c3-4 8-14 6-22-1-8-11-16-15-19" stroke="#DB2A7C" stroke-width="1.7" stroke-linecap="round" stroke-linejoin="round"/><path d="M391 231c-10 12-30 37-31 43-2 7 0 16 8 17 9 2 44 1 52 3 9 2 10 0 12 7s1 23 4 25h5c2-2 3-24 6-30 1-4-1-10-4-10-7-1-18 2-35-10-8-7-18-4-24 0M430 241c-18 20-34 30-48 35" stroke="#DB2A7C" stroke-width="1.7" stroke-linecap="round" stroke-linejoin="round"/><path d="M407 262l6 17m19-41c9 29 6 34 8 47m-20 9l4 5 9 8m10 11l10 12c9 10 7 15 9 22s0 15 0 16c0 2-9 3-9 6 0 4 16 2 18-1 4-2 5-16 8-19 4-4 5-9 0-11-5-1-9-3-10-8-2-5-13-36-18-40l-4-4M471 339c0 4-2 11-10 11M434 286c1 6-2 10-3 11M386 115l3 9M384 114c2 1 5 1 9-2 3-4 7-9 3-12-3-4 0-5-5-9-5-3-5 0-9-3-3-4-3-10-13-9-11 2-7 5-13 5-5 0-9 4-9 7 0 4 4 5 4 7s0 7 2 7 0 9 0 9h4v4m18 4c-3 4-12 4-14 4l-3-5v-2m-1-1l1 1m-1-1l1 1" stroke="#DB2A7C" stroke-width="1.7" stroke-linecap="round" stroke-linejoin="round"/><path d="M360 97c5 0 14 1 15 5 2 3 2 8 4 10M370 88c4 1 5 1 9 7l7 7M373 124v6" stroke="#DB2A7C" stroke-width="1.7" stroke-linecap="round" stroke-linejoin="round"/><g filter="url(#filter0_d)" stroke="#00BDAF" stroke-width="1.7" stroke-linecap="round" stroke-linejoin="round"><path d="M161 153l5 49c0 2-27 14-29 8-2-5-12-25-19-32-6-7-5-10-5-18m44-9c1 2 1 11-6 9-9-1-14-20-12-27l2-6-6-1c0 6-3 16-10 17-4 1-7-6-7-10l-3 1v1m0 0a327 327 0 00-2 25m2-25c-3 0-10 4-16 15-7 14-12 25-15 26-10 3-26 16-33 19-4 2-12 0-19 2-6 1-9 5-12 7-7 5 16-1 16 1 0 4 6-1 15-5 6-3 30-2 43-14 4-3 17-24 19-26"/><path d="M141 127c3 1 10-1 16 2s16 7 35 22c4 4 17 5 26 12 8 7 15 21 19 23 7 4 8 3 13 14-2 3-3 9-8 10 1-4 0-9-1-8m-3 2c-2-1-3-2-4-7-2-7-12-13-24-19-10-5-14-13-19-14-5-2-38-14-40-17M166 201c5 5 17 12 18 27 1 8-4 14-6 17 0-7-4-19-17-17-15 1-34 36-39 45-6 8-6 22 7 24 12 1 58-2 63 3s9 19 12 23c4 3 6 0 6-5l-2-21c0-5 3-12-4-12s-21 3-38-6c-7-3-16 0-21 2M179 245c-13 14-16 25-38 38M137 211c-3 26 0 30 0 36M137 237l11-1"/><path d="M168 300c7 5 11 11 14 17 5 9 5 39 13 50 1 2 4 7 3 9-1 3-5 4-10 3-4-1-17 2-22 2-3 0-6-1-5-2 1-5 23-8 23-12 0-3-7-18-14-28l-22-39-2-3M184 368c2 1 7 3 10-1M168 300l1-2m0-41c1 9 2 11 0 24M198 285c0 2 1 11-4 16M131 116c1 3 3 11 4 10"/><path d="M129 115c2 1 6 1 9-3s6-9 2-12-1-5-6-8c-6-3-5 0-9-3s-5-10-15-7-6 6-11 7c-6 0-9 4-9 7 1 4 5 5 5 7s1 7 3 7l1 9 3-1v4m20 2c-4 4-13 5-15 5l-3-4v-2m-2-1l2 1m-2-1l2 1"/><path d="M103 100c5 0 14 1 16 4l5 10M113 91c3 1 5 1 9 6l8 6M118 127l1 6"/></g><defs><linearGradient id="paint0_linear" x1="169.5" y1="280.3" x2="2.5" y2="280.3" gradientUnits="userSpaceOnUse"><stop stop-color="#DB2A7D" stop-opacity="0"/><stop offset=".5" stop-color="#DB2A7D"/><stop offset="1" stop-color="#DB2A7D" stop-opacity="0"/></linearGradient><linearGradient id="paint1_linear" x1="581" y1="280" x2="2" y2="280" gradientUnits="userSpaceOnUse"><stop stop-color="#DB2A7D" stop-opacity="0"/><stop offset=".5" stop-color="#DB2A7D"/><stop offset=".9" stop-color="#DB2A7D" stop-opacity="0"/></linearGradient><linearGradient id="paint2_linear" x1="581" y1="295" x2="2" y2="295" gradientUnits="userSpaceOnUse"><stop stop-color="#DB2A7D" stop-opacity="0"/><stop offset=".5" stop-color="#DB2A7D"/><stop offset=".9" stop-color="#DB2A7D" stop-opacity="0"/></linearGradient><linearGradient id="paint3_linear" x1="581" y1="311.3" x2="2" y2="311.3" gradientUnits="userSpaceOnUse"><stop stop-color="#DB2A7D" stop-opacity="0"/><stop offset=".5" stop-color="#DB2A7D"/><stop offset=".9" stop-color="#DB2A7D" stop-opacity="0"/></linearGradient><linearGradient id="paint4_linear" x1="581" y1="330.8" x2="2" y2="330.8" gradientUnits="userSpaceOnUse"><stop stop-color="#DB2A7D" stop-opacity="0"/><stop offset=".5" stop-color="#DB2A7D"/><stop offset=".9" stop-color="#DB2A7D" stop-opacity="0"/></linearGradient><linearGradient id="paint5_linear" x1="581" y1="357.2" x2="2" y2="357.2" gradientUnits="userSpaceOnUse"><stop stop-color="#DB2A7D" stop-opacity="0"/><stop offset=".5" stop-color="#DB2A7D"/><stop offset=".9" stop-color="#DB2A7D" stop-opacity="0"/></linearGradient><linearGradient id="paint6_linear" x1="581" y1="390.5" x2="2" y2="390.5" gradientUnits="userSpaceOnUse"><stop stop-color="#DB2A7D" stop-opacity="0"/><stop offset=".5" stop-color="#DB2A7D"/><stop offset=".9" stop-color="#DB2A7D" stop-opacity="0"/></linearGradient><linearGradient id="paint7_linear" x1="212.2" y1="280.2" x2="128.9" y2="280.2" gradientUnits="userSpaceOnUse"><stop stop-color="#DB2A7D" stop-opacity="0"/><stop offset=".5" stop-color="#DB2A7D"/><stop offset="1" stop-color="#DB2A7D" stop-opacity="0"/></linearGradient><linearGradient id="paint8_linear" x1="254.8" y1="280.2" x2="212.2" y2="280.2" gradientUnits="userSpaceOnUse"><stop stop-color="#DB2A7D" stop-opacity="0"/><stop offset=".5" stop-color="#DB2A7D"/><stop offset="1" stop-color="#DB2A7D" stop-opacity="0"/></linearGradient><linearGradient id="paint9_linear" x1="298" y1="280.2" x2="297.5" y2="280.2" gradientUnits="userSpaceOnUse"><stop stop-color="#DB2A7D" stop-opacity="0"/><stop offset=".5" stop-color="#DB2A7D"/><stop offset="1" stop-color="#DB2A7D" stop-opacity="0"/></linearGradient><linearGradient id="paint10_linear" x1="340.1" y1="280.2" x2="382.8" y2="280.2" gradientUnits="userSpaceOnUse"><stop stop-color="#DB2A7D" stop-opacity="0"/><stop offset=".5" stop-color="#DB2A7D"/><stop offset="1" stop-color="#DB2A7D" stop-opacity="0"/></linearGradient><linearGradient id="paint11_linear" x1="382.3" y1="280.2" x2="465.5" y2="280.2" gradientUnits="userSpaceOnUse"><stop stop-color="#DB2A7D" stop-opacity="0"/><stop offset=".5" stop-color="#DB2A7D"/><stop offset="1" stop-color="#DB2A7D" stop-opacity="0"/></linearGradient><linearGradient id="paint12_linear" x1="414" y1="280.3" x2="581" y2="280.3" gradientUnits="userSpaceOnUse"><stop stop-color="#DB2A7D" stop-opacity="0"/><stop offset=".5" stop-color="#DB2A7D"/><stop offset="1" stop-color="#DB2A7D" stop-opacity="0"/></linearGradient><filter id="filter0_d" x=".6" y="64.6" width="266.6" height="337.4" filterUnits="userSpaceOnUse" color-interpolation-filters="sRGB"><feFlood flood-opacity="0" result="BackgroundImageFix"/><feColorMatrix in="SourceAlpha" type="matrix" values="0 0 0 0 0 0 0 0 0 0 0 0 0 0 0 0 0 0 127 0"/><feOffset dy="3.4"/><feGaussianBlur stdDeviation="8.4"/><feColorMatrix type="matrix" values="0 0 0 0 0 0 0 0 0 0.741176 0 0 0 0 0.686275 0 0 0 0.8 0"/><feBlend mode="normal" in2="BackgroundImageFix" result="effect1_dropShadow"/><feBlend mode="normal" in="SourceGraphic" in2="effect1_dropShadow" result="shape"/></filter></defs></svg>