<svg xmlns="http://www.w3.org/2000/svg" width="582" height="461" fill="none" viewBox="0 0 582 461"><g filter="url(#filter0_d)"><path stroke="#00BDAF" stroke-linecap="round" stroke-linejoin="round" stroke-width="1.681" d="M161 153.001C161 156.451 166.484 200.137 166.484 201.862C166.484 203.587 138.91 215.664 137.187 210.488C135.463 205.313 125.122 184.61 118.229 177.71C111.814 171.288 112.861 167.854 113.037 160.458M157 151.001C157.574 153.301 157.867 161.838 150.974 160.458C142.357 158.733 137.187 139.756 138.91 132.855C140.289 127.334 140.587 128.241 140.587 126.782L135.481 126.053C134.907 131.803 132.016 141.826 125.123 143.206C121.073 144.017 118.229 137.36 118.229 132.855C118.229 132.253 114.614 134.077 114.614 134.077C114.562 134.595 114.674 133.951 114.614 134.58M114.614 134.58C114.01 140.936 113.058 152.453 113.058 158.733C113.058 159.332 113.05 159.906 113.037 160.458M114.614 134.58C111.798 135.155 104.883 138.72 99.3686 149.761C92.4749 163.563 87.4019 174.72 83.7609 175.984C74.201 179.306 57.9098 191.511 51.0162 194.962C47.2407 196.851 38.7154 195.152 32 196.501C26.454 197.615 22.6193 201.66 19.5012 204.001C12.6076 209.177 36.2691 203.014 36.2687 204.838C36.2678 208.693 42.4701 204.109 51.0162 200.137C57.4606 197.142 81.1312 197.543 94.1013 186.336C97.7915 183.147 111.292 162.183 113.037 160.458"/><path stroke="#00BDAF" stroke-linecap="round" stroke-linejoin="round" stroke-width="1.681" d="M140.949 127.147C144.385 127.723 150.914 125.779 157 129.001C163.201 132.284 173.412 136.266 191.649 150.856C196.494 154.732 208.956 155.982 217.546 162.892C226.137 169.802 232.949 183.566 237.242 185.871C244.035 189.519 244.762 188.804 249.5 199.501C248.262 202.804 247 208.501 242.349 209.58C243 206.001 242.255 200.671 240.599 201.698M237.502 204.001C236.357 203.425 235.101 202.043 233.726 196.515C232.008 189.605 222.288 184.412 209.522 178.212C199.742 173.462 195.928 165.42 190.774 163.693C185.62 161.965 152.718 150.456 151 147.001"/><path stroke="#00BDAF" stroke-linecap="round" stroke-linejoin="round" stroke-width="1.681" d="M166.116 201.19C170.712 205.806 182.529 213.227 183.988 227.518C184.832 235.784 179.645 241.942 178.496 244.827C177.921 238.481 173.669 226.134 161.259 227.518C145.747 229.249 126.787 263.867 121.616 272.521C116.445 281.176 116.445 295.023 128.511 296.754C140.576 298.484 187.114 295.023 192.285 300.215C197.455 305.408 200.903 319.255 204.35 322.717C207.797 326.178 209.521 322.717 209.521 317.524C209.521 312.331 207.797 301.946 207.797 296.754C207.797 291.561 211.244 284.637 204.35 284.637C197.455 284.637 183.409 288 166.116 279.445C158.834 275.842 149.758 278.964 145 280.5"/><path stroke="#00BDAF" stroke-linecap="round" stroke-linejoin="round" stroke-width="1.681" d="M178.883 244.596C166.482 258.821 163.199 270.493 140.949 282.529"/><path stroke="#00BDAF" stroke-linecap="round" stroke-linejoin="round" stroke-width="1.681" d="M137.301 211.039C134.382 236.936 137.301 241.181 137.301 246.784"/><path stroke="#00BDAF" stroke-linecap="round" stroke-linejoin="round" stroke-width="1.681" d="M136.572 236.571C139.598 236.571 142.69 235.767 147.515 235.847"/><path stroke="#00BDAF" stroke-linecap="round" stroke-linejoin="round" stroke-width="1.681" d="M168.305 300.037C175.263 304.954 178.72 311.191 181.8 316.927C186.833 326.299 187.223 355.629 194.567 367.326C196.026 369.213 198.725 373.57 197.849 375.904C196.755 378.822 192.796 379.552 188.366 378.822C183.936 378.093 170.858 381.376 166.481 381.011C162.979 380.719 159.551 380.403 161.01 378.822C162.104 373.716 183.936 370.786 183.936 367.326C183.936 363.866 177.016 349.084 170.128 338.703C163.241 328.323 149.236 303.497 147.514 300.037L146.42 297.484"/><path stroke="#00BDAF" stroke-linecap="round" stroke-linejoin="round" stroke-width="1.681" d="M183.988 367.88C186.055 369.096 190.991 370.579 194.201 366.786"/><path stroke="#00BDAF" stroke-linecap="round" stroke-linejoin="round" stroke-width="1.681" d="M167.973 299.918C168.159 298.915 168.335 298.443 168.5 297.5M169.398 256.997C170.493 266.48 170.565 267.849 169.398 281.07"/><path stroke="#00BDAF" stroke-linecap="round" stroke-linejoin="round" stroke-width="1.681" d="M197.742 285.001C197.742 286.679 199.267 296.463 194.201 301.496"/><path stroke="#00BDAF" stroke-linecap="round" stroke-linejoin="round" stroke-width="1.681" d="M131.355 116.48C132.138 119.333 133.951 126.537 135.112 126.418"/><path stroke="#00BDAF" stroke-linecap="round" stroke-linejoin="round" stroke-width="1.681" d="M129.257 114.866C131.161 116.397 134.616 116.041 137.717 112.265C140.819 108.488 143.744 103.002 139.937 99.9384C136.13 96.8746 139.408 94.8083 133.874 91.9226C128.339 89.037 128.692 92.4571 124.885 89.3933C121.077 86.3295 120.372 79.4894 110.185 82.2683C99.9979 85.0472 103.805 88.1116 98.6234 88.646C93.4417 89.1804 90.064 92.9846 90.4167 96.4047C90.7695 99.8247 94.6764 101.151 94.8527 102.861C95.029 104.57 95.9265 109.867 97.6537 109.689C99.4715 109.502 98.5893 118.76 98.5893 118.76L102.044 118.403C102.123 119.173 101.857 120.186 102.044 122M121.503 124.307C118.401 128.083 108.728 128.822 107.001 129C106.382 129.064 105.177 127.262 104.38 125.129C104.167 124.559 104.388 123.916 104.193 123.315M102.044 122C102.181 122.467 104.037 122.839 104.193 123.315M102.044 122L104.193 123.315"/><path stroke="#00BDAF" stroke-linecap="round" stroke-linejoin="round" stroke-width="1.681" d="M103.286 100.308C108.432 99.7769 117.182 100.586 119.246 103.795C121.311 107.004 121.835 112.084 123.725 113.6"/><path stroke="#00BDAF" stroke-linecap="round" stroke-linejoin="round" stroke-width="1.681" d="M112.547 90.5518C116.273 91.9093 118.046 91.7263 122.127 96.5307C125.392 100.374 128.692 102.24 129.933 102.692"/><path stroke="#00BDAF" stroke-linecap="round" stroke-linejoin="round" stroke-width="1.681" d="M118.334 127.147L118.895 132.589"/></g><defs><filter id="filter0_d" width="266.56" height="337.423" x=".591" y="64.63" color-interpolation-filters="sRGB" filterUnits="userSpaceOnUse"><feFlood flood-opacity="0" result="BackgroundImageFix"/><feColorMatrix in="SourceAlpha" type="matrix" values="0 0 0 0 0 0 0 0 0 0 0 0 0 0 0 0 0 0 127 0"/><feOffset dy="3.362"/><feGaussianBlur stdDeviation="8.405"/><feColorMatrix type="matrix" values="0 0 0 0 0 0 0 0 0 0.741176 0 0 0 0 0.686275 0 0 0 0.8 0"/><feBlend in2="BackgroundImageFix" mode="normal" result="effect1_dropShadow"/><feBlend in="SourceGraphic" in2="effect1_dropShadow" mode="normal" result="shape"/></filter></defs></svg>