<svg xmlns="http://www.w3.org/2000/svg" width="580" height="461" fill="none" viewBox="0 0 580 461"><g opacity=".4"><path stroke="#DB2A7C" stroke-linecap="round" stroke-linejoin="round" stroke-width="1.681" d="M327.455 194.023C326.238 197.673 322.709 206.069 318.329 210.449C313.948 214.83 310.42 215.925 309.203 215.925C309.811 211.058 311.758 200.228 314.679 195.848C318.329 190.373 318.329 190.373 325.629 186.722C332.93 183.072 352.647 166.61 363.598 164.785C372.358 163.325 371.866 162.995 371.258 162.995C384.169 147.278 394.62 141.459 400.46 135.618C406.301 129.778 415.704 128.02 418.745 128.02"/><path stroke="#DB2A7C" stroke-linecap="round" stroke-linejoin="round" stroke-width="1.681" d="M440.614 122.842C442.439 122.842 451.565 121.017 458.866 130.142C464.706 137.443 463.733 136.835 462.516 135.619C474.768 145.527 483.688 158.981 488.068 164.821C493.543 172.122 497.194 175.772 495.368 195.849C493.543 215.925 489.893 217.75 489.893 219.575C489.893 221.401 491.718 237.827 486.243 243.302C480.767 248.778 480.767 237.827 477.117 236.002C473.467 234.177 477.117 219.575 480.767 214.1C484.418 208.625 480.767 179.422 480.767 175.772C480.767 172.122 461.2 164.821 449.74 146.57"/><path stroke="#DB2A7C" stroke-linecap="round" stroke-linejoin="round" stroke-width="1.681" d="M469.815 192.199C464.34 195.849 446.088 206.8 444.263 203.15C442.438 199.499 424.186 175.772 416.885 168.472C411.387 162.973 413.006 140.867 414.738 128.652"/><path stroke="#DB2A7C" stroke-linecap="round" stroke-linejoin="round" stroke-width="1.681" d="M466.89 165.223C467.328 167.412 467.992 190.374 469.817 192.199"/><path stroke="#DB2A7C" stroke-linecap="round" stroke-linejoin="round" stroke-width="1.681" d="M442.439 201.324L431.488 225.051C439.397 228.701 455.58 237.097 457.04 241.477"/><path stroke="#DB2A7C" stroke-linecap="round" stroke-linejoin="round" stroke-width="1.681" d="M477.117 219.576C471.034 222.009 458.501 229.431 457.041 239.652"/><path stroke="#DB2A7C" stroke-linecap="round" stroke-linejoin="round" stroke-width="1.681" d="M469.816 192.199C472.249 193.415 477.829 197.314 482.209 204.614"/><path stroke="#DB2A7C" stroke-linecap="round" stroke-linejoin="round" stroke-width="1.681" d="M457.261 239.191C457.87 257.442 460.326 294.042 466.166 299.882C473.467 307.183 477.117 305.358 480.768 303.533C484.418 301.708 522.746 254.254 531.872 252.429C540.998 250.603 561.074 250.603 562.899 250.603C564.724 250.603 564.724 245.128 559.249 243.303C553.774 241.478 539.172 239.653 531.872 237.827C524.571 236.002 522.746 232.352 519.096 236.002C515.445 239.653 520.921 248.778 517.271 250.603C513.62 252.429 491.719 261.554 486.243 265.204"/><path stroke="#DB2A7C" stroke-linecap="round" stroke-linejoin="round" stroke-width="1.681" d="M518.537 245.756C519.412 245.756 526.852 245.756 529.479 253.197"/><path stroke="#DB2A7C" stroke-linecap="round" stroke-linejoin="round" stroke-width="1.681" d="M486.242 243.302C486.242 251.819 486.242 270.679 486.242 277.98"/><path stroke="#DB2A7C" stroke-linecap="round" stroke-linejoin="round" stroke-width="1.681" d="M431.487 226.876C425.403 239.652 412.505 267.759 409.585 277.98C405.935 290.756 426.011 350.986 424.186 360.112C423.894 361.571 423.042 363.031 421.809 364.46M457.039 254.253C453.389 263.379 433.312 279.805 431.487 283.456C429.661 287.106 431.487 294.406 435.137 299.882C438.788 305.357 435.137 350.986 435.137 358.287C435.137 360.558 436.021 363.36 437.128 366.196M421.809 364.46C415.332 371.97 398.343 378.655 396.81 380.188C394.985 382.014 416.886 380.188 426.012 380.188C435.138 380.188 436.963 382.014 440.613 380.188C443.127 378.931 439.579 372.477 437.128 366.196M421.809 364.46C423.414 366.67 428.725 370.11 437.128 366.196"/><path stroke="#DB2A7C" stroke-linecap="round" stroke-linejoin="round" stroke-width="4" d="M331.275 196.866L295 217.27"/><path stroke="#DB2A7C" stroke-linecap="round" stroke-linejoin="round" stroke-width="1.681" d="M441.505 122.768C437.855 126.418 431.649 136.274 436.03 146.495C440.41 156.716 450.347 155.695 455.214 153.87"/><path stroke="#DB2A7C" stroke-linecap="round" stroke-linejoin="round" stroke-width="1.681" d="M437.128 122.768C435.303 128.244 431.489 138.174 424.188 141.094C416.888 144.014 416.387 134.104 416.995 128.02"/><path stroke="#DB2A7C" stroke-linecap="round" stroke-linejoin="round" stroke-width="1.681" d="M412.618 147.278C410.793 149.103 394.235 162.598 380.384 168.472C371.258 173.948 365.143 183.895 348.717 187.546C335.575 190.466 329.266 192.798 326.833 192.798"/><path stroke="#DB2A7C" stroke-linecap="round" stroke-linejoin="round" stroke-width="1.681" d="M431.439 114.015C431.963 116.933 433.327 122.768 434.586 122.768H439.317"/><path stroke="#DB2A7C" stroke-linecap="round" stroke-linejoin="round" stroke-width="1.681" d="M430.007 112.326C431.677 113.979 435.017 113.979 438.357 110.672C441.696 107.366 445.036 102.406 441.696 99.0998C438.357 95.7933 441.696 94.1401 436.687 90.8336C431.677 87.5272 431.677 90.8336 428.337 87.5272C424.998 84.2207 424.998 77.6077 414.978 79.261C404.959 80.9142 408.299 84.2213 403.289 84.2213C398.28 84.2213 394.673 87.5272 394.673 90.8336C394.673 94.1401 398.28 95.7945 398.28 97.4472C398.28 99.0998 398.615 104.256 400.285 104.256C402.043 104.256 400.285 113.025 400.285 113.025H403.625C403.625 113.769 403.625 114.449 403.625 116.203M421.658 120.592C418.318 123.899 409.473 123.643 407.803 123.643C407.205 123.643 405.748 121.809 405.196 119.69C405.049 119.123 405.324 118.53 405.196 117.936M403.625 116.203C403.71 116.663 405.095 117.465 405.196 117.936M403.625 116.203L405.196 117.936"/><path stroke="#DB2A7C" stroke-linecap="round" stroke-linejoin="round" stroke-width="1.681" d="M406.6 95.8369C411.575 95.8369 419.866 97.4739 421.524 100.748C423.182 104.022 423.182 108.932 424.84 110.569"/><path stroke="#DB2A7C" stroke-linecap="round" stroke-linejoin="round" stroke-width="1.681" d="M416.422 87.4185C419.852 89.0846 421.567 89.0846 424.997 94.0831C427.741 98.082 430.713 100.192 431.856 100.748"/><path stroke="#DB2A7C" stroke-linecap="round" stroke-linejoin="round" stroke-width="1.681" d="M419.229 122.495V127.757"/></g></svg>