<svg xmlns="http://www.w3.org/2000/svg" width="60" height="34" fill="none" viewBox="0 0 60 34"><mask id="mask0" width="60" height="34" x="0" y="0" mask-type="alpha" maskUnits="userSpaceOnUse"><path fill="#fff" fill-rule="evenodd" d="M0 0H60V33.5339H0V0Z" clip-rule="evenodd"/></mask><g mask="url(#mask0)"><path fill="#16B9AD" fill-rule="evenodd" d="M60 3.63742C60 20.1223 46.5418 33.5342 29.9998 33.5342C13.4582 33.5342 0 20.1223 0 3.63742C0 2.406 0.07484 1.19235 0.222576 0H5.61171C5.43384 1.18718 5.34118 2.40245 5.34118 3.63742C5.34118 17.1875 16.4029 28.2111 29.9998 28.2111C42.9721 28.2111 53.6386 18.1758 54.5911 5.48615H16.4512C17.359 12.1291 23.0883 17.2656 29.9998 17.2656C35.3501 17.2656 39.9934 14.1871 42.2386 9.71442H48.0126C45.4665 17.193 38.3518 22.5884 29.9998 22.5884C19.5151 22.5884 10.9833 14.086 10.9833 3.63742C10.9833 2.39341 11.1045 1.17814 11.3358 0H59.7774C59.9252 1.19235 60 2.406 60 3.63742Z" clip-rule="evenodd"/></g></svg>