<svg xmlns="http://www.w3.org/2000/svg" width="320" height="200" fill="none" viewBox="0 0 320 200"><mask id="mask0" width="320" height="200" x="0" y="0" mask-type="alpha" maskUnits="userSpaceOnUse"><rect width="320" height="200" fill="#F7F7F7" rx="20"/></mask><g mask="url(#mask0)"><path fill="#DB2A7C" d="M307.758 60.7496L306.026 59.7496C305.474 60.7062 305.802 61.9294 306.758 62.4817L307.758 60.7496ZM311.509 54.2539L313.241 55.2539C313.793 54.2974 313.465 53.0742 312.509 52.5219L311.509 54.2539ZM325.078 70.7491L326.81 71.7491C327.362 70.7925 327.035 69.5693 326.078 69.017L325.078 70.7491ZM313.828 90.2343L312.828 91.9664C313.785 92.5187 315.008 92.1909 315.56 91.2343L313.828 90.2343ZM274.858 67.7347L275.858 66.0026C274.901 65.4503 273.678 65.7781 273.126 66.7347L274.858 67.7347ZM271.108 74.2298L269.376 73.2298C269.11 73.6891 269.039 74.235 269.176 74.7474C269.313 75.2598 269.648 75.6966 270.108 75.9618L271.108 74.2298ZM297.088 89.2295L298.088 87.4975L297.088 89.2295ZM303.158 118.715L304.89 119.715L303.158 118.715ZM298.159 127.375L296.426 126.375L298.159 127.375ZM265.26 134.361L266.26 132.629C265.303 132.077 264.08 132.405 263.528 133.361L265.26 134.361ZM261.511 140.855L260.511 142.587C261.467 143.14 262.69 142.812 263.243 141.855L261.511 140.855ZM239.86 128.355L238.128 127.355C237.576 128.312 237.904 129.535 238.86 130.087L239.86 128.355ZM243.61 121.861L245.342 122.861C245.894 121.905 245.566 120.682 244.61 120.129L243.61 121.861ZM228.453 113.111L226.721 112.111C226.168 113.067 226.496 114.29 227.453 114.843L228.453 113.111ZM239.703 93.6253L240.703 91.8933C239.746 91.341 238.523 91.6687 237.971 92.6253L239.703 93.6253ZM276.508 114.875L275.508 116.607C276.465 117.159 277.688 116.832 278.24 115.875L276.508 114.875ZM280.258 108.38L281.99 109.38C282.255 108.921 282.327 108.375 282.19 107.862C282.053 107.35 281.718 106.913 281.258 106.648L280.258 108.38ZM286.108 48.2498L285.108 49.9819C286.065 50.5341 287.288 50.2064 287.84 49.2498L286.108 48.2498ZM289.858 41.7541L290.858 40.0221C289.902 39.4698 288.679 39.7975 288.126 40.7541L289.858 41.7541ZM309.49 61.7496L313.241 55.2539L309.777 53.2539L306.026 59.7496L309.49 61.7496ZM326.078 69.017L308.758 59.0176L306.758 62.4817L324.078 72.4811L326.078 69.017ZM315.56 91.2343L326.81 71.7491L323.346 69.7491L312.096 89.2343L315.56 91.2343ZM273.858 69.4667L312.828 91.9664L314.828 88.5023L275.858 66.0026L273.858 69.4667ZM272.84 75.2298L276.59 68.7347L273.126 66.7347L269.376 73.2298L272.84 75.2298ZM298.088 87.4975L272.108 72.4977L270.108 75.9618L296.088 90.9616L298.088 87.4975ZM304.89 119.715C308.194 113.993 309.503 107.699 308.457 101.911C307.403 96.0815 303.977 90.8977 298.088 87.4975L296.088 90.9616C300.96 93.7745 303.676 97.9525 304.521 102.622C305.372 107.333 304.336 112.674 301.426 117.715L304.89 119.715ZM299.891 128.375L304.89 119.715L301.426 117.715L296.426 126.375L299.891 128.375ZM268.588 138.592C274.478 141.992 280.68 142.367 286.255 140.365C291.791 138.377 296.587 134.096 299.891 128.375L296.426 126.375C293.516 131.415 289.409 134.983 284.903 136.601C280.437 138.204 275.461 137.941 270.588 135.128L268.588 138.592ZM264.26 136.093L268.588 138.592L270.588 135.128L266.26 132.629L264.26 136.093ZM263.528 133.361L259.779 139.855L263.243 141.855L266.992 135.361L263.528 133.361ZM262.511 139.123L240.86 126.623L238.86 130.087L260.511 142.587L262.511 139.123ZM241.592 129.355L245.342 122.861L241.878 120.861L238.128 127.355L241.592 129.355ZM227.453 114.843L242.61 123.593L244.61 120.129L229.453 111.379L227.453 114.843ZM237.971 92.6253L226.721 112.111L230.185 114.111L241.435 94.6253L237.971 92.6253ZM277.508 113.143L240.703 91.8933L238.703 95.3574L275.508 116.607L277.508 113.143ZM278.526 107.38L274.776 113.875L278.24 115.875L281.99 109.38L278.526 107.38ZM255.443 96.3621L279.258 110.112L281.258 106.648L257.443 92.898L255.443 96.3621ZM246.475 62.895C239.71 74.613 243.725 89.5968 255.443 96.3621L257.443 92.898C247.638 87.2372 244.279 74.6998 249.939 64.895L246.475 62.895ZM251.475 54.2349L246.475 62.895L249.939 64.895L254.939 56.2349L251.475 54.2349ZM284.942 45.2674C273.224 38.502 258.241 42.5168 251.475 54.2349L254.939 56.2349C260.6 46.43 273.138 43.0706 282.942 48.7315L284.942 45.2674ZM287.108 46.5178L284.942 45.2674L282.942 48.7315L285.108 49.9819L287.108 46.5178ZM288.126 40.7541L284.376 47.2498L287.84 49.2498L291.59 42.7541L288.126 40.7541ZM312.509 52.5219L290.858 40.0221L288.858 43.4862L310.509 55.986L312.509 52.5219Z"/><g opacity=".3"><path stroke="#DB2A7C" stroke-linecap="round" stroke-linejoin="round" stroke-width="4" d="M114.56 41.5769L105.667 26.7772C104.399 25.3547 102.239 24.1216 99.0356 26.0452C99.0681 25.8794 93.2954 29.4995 93.2954 29.4995L88.2185 21.0549L99.1276 14.5052L99.1528 14.5448C100.792 13.5587 102.454 12.5166 104.145 11.4529L96.3439 -1.53668L104.248 -6.28541L111.897 6.44821C113.983 5.13753 116.083 3.81959 118.162 2.5702L110.561 -10.0786L118.469 -14.8309L126.275 -1.83956C137.02 -7.07866 146.992 -8.79677 153.52 0.0282239C158.308 6.47885 157.913 12.3147 154.731 17.4042C163.367 14.6819 170.791 16.326 175.899 26.9394C182.245 40.1183 174.952 49.0587 162.116 57.8098L169.994 70.9274L162.087 75.6797L154.315 62.737C152.267 63.9702 150.157 65.2141 147.962 66.4725L155.773 79.4729L147.873 84.2181L139.975 71.0806C138.118 72.1804 136.214 73.2801 134.298 74.4285L124.007 80.6124L119.904 70.2243C119.904 70.2243 125.808 66.8006 125.653 66.7718C127.889 65.4232 127.515 63.46 127.05 62.3675L114.594 41.6327M159.338 34.7711C165.242 44.5877 147.758 53.5731 142.402 56.7984L131.943 39.3882C137.305 36.1683 153.184 24.5291 159.338 34.7711ZM140.902 12.4192C146.267 21.3542 131.619 28.7369 127.155 31.4196L117.668 15.6301C122.132 12.9475 135.302 3.10207 140.902 12.4192Z"/></g></g></svg>