<svg xmlns="http://www.w3.org/2000/svg" width="100" height="23" fill="none" viewBox="0 0 100 23"><g id="Group 23"><g id="Group 23_2"><g id="Group 3"><mask id="mask0" width="32" height="18" x="2" y="2" mask-type="alpha" maskUnits="userSpaceOnUse"><path id="Clip 2" fill="#fff" fill-rule="evenodd" d="M2.26465 2.21228H33.8277V19.8228H2.26465V2.21228Z" clip-rule="evenodd"/></mask><g mask="url(#mask0)"><path id="Fill 1" fill="#DB2A7C" fill-rule="evenodd" d="M33.8277 4.12237C33.8277 12.7795 26.748 19.8229 18.0461 19.8229C9.34437 19.8229 2.26465 12.7795 2.26465 4.12237C2.26465 3.47568 2.30402 2.83833 2.38173 2.21216H5.21669C5.12313 2.83561 5.07438 3.47382 5.07438 4.12237C5.07438 11.2383 10.8934 17.0274 18.0461 17.0274C24.8702 17.0274 30.4813 11.7573 30.9824 5.09324H10.9188C11.3964 8.58184 14.4103 11.2793 18.0461 11.2793C20.8606 11.2793 23.3032 9.66259 24.4843 7.31374H27.5218C26.1823 11.2411 22.4397 14.0746 18.0461 14.0746C12.5306 14.0746 8.04245 9.60952 8.04245 4.12237C8.04245 3.46907 8.10619 2.83087 8.22788 2.21216H33.7106C33.7883 2.83833 33.8277 3.47568 33.8277 4.12237" clip-rule="evenodd"/></g></g><g id="Group"><path id="Fill 4" fill="#444" fill-rule="evenodd" d="M49.4926 5.5006H51.4965V8.43562C51.1002 8.70286 50.6118 8.92322 50.0312 9.09671C49.4506 9.27019 48.9087 9.35716 48.4052 9.35716C47.6733 9.35716 47.0172 9.19856 46.4365 8.88138C45.8559 8.5642 45.401 8.12676 45.0723 7.56907C44.7434 7.01159 44.5791 6.38205 44.5791 5.68088C44.5791 4.98628 44.7502 4.36024 45.0926 3.80276C45.4347 3.24507 45.9081 2.80938 46.5123 2.49527C47.1162 2.18159 47.7975 2.02454 48.5562 2.02454C49.1064 2.02454 49.6586 2.12464 50.2126 2.32507C50.7664 2.52528 51.2312 2.79252 51.6072 3.12656L50.2879 4.71926C50.053 4.48554 49.776 4.30022 49.4574 4.16332C49.1386 4.02641 48.8347 3.95785 48.5461 3.95785C48.2506 3.95785 47.9822 4.03298 47.7407 4.18325C47.4989 4.33352 47.3109 4.53876 47.1766 4.79943C47.0423 5.05988 46.9753 5.35384 46.9753 5.68088C46.9753 6.01493 47.044 6.31371 47.1818 6.57744C47.3192 6.84139 47.509 7.04817 47.7506 7.19844C47.9923 7.34871 48.2642 7.42384 48.5663 7.42384C48.8213 7.42384 49.1302 7.34367 49.4926 7.18355V5.5006Z" clip-rule="evenodd"/><path id="Fill 6" fill="#444" fill-rule="evenodd" d="M52.9662 2.1748H58.9373V3.93792H55.3024V4.79943H58.6048V6.56233H55.3024V7.43392H59.0278V9.19703H52.9662V2.1748Z" clip-rule="evenodd"/><path id="Fill 8" fill="#444" fill-rule="evenodd" d="M65.2606 2.1748H67.3752V9.19703H65.4216L62.6425 5.61079V9.19703H60.5179V2.1748H62.4714L65.2606 5.78099V2.1748Z" clip-rule="evenodd"/><path id="Fill 10" fill="#444" fill-rule="evenodd" d="M68.9858 2.1748H74.9569V3.93792H71.3219V4.79943H74.6244V6.56233H71.3219V7.43392H75.0474V9.19703H68.9858V2.1748Z" clip-rule="evenodd"/><path id="Fill 12" fill="#444" fill-rule="evenodd" d="M80.545 4.02805C80.0752 3.86113 79.6925 3.77768 79.3972 3.77768C79.1086 3.77768 78.9642 3.88129 78.9642 4.08807C78.9642 4.24841 79.0564 4.37195 79.2411 4.4587C79.4256 4.54566 79.7194 4.64248 80.1221 4.74915C80.6256 4.88956 81.0435 5.02975 81.3758 5.16994C81.708 5.31035 81.9984 5.53247 82.2468 5.83607C82.495 6.14011 82.6194 6.53899 82.6194 7.03316C82.6194 7.54091 82.4866 7.96652 82.2215 8.31043C81.9564 8.65455 81.5988 8.90996 81.1492 9.07666C80.6994 9.24357 80.1994 9.32725 79.6489 9.32725C79.0247 9.32725 78.3952 9.22539 77.7609 9.02168C77.1268 8.81796 76.5778 8.53933 76.1148 8.18535L76.9808 6.43231C77.3364 6.73942 77.7827 7.00162 78.3199 7.21848C78.8567 7.43555 79.3065 7.5442 79.6689 7.5442C79.8435 7.5442 79.9812 7.51244 80.0818 7.44891C80.1826 7.38561 80.233 7.28704 80.233 7.15342C80.233 6.99308 80.1373 6.868 79.9459 6.77775C79.7546 6.68772 79.4543 6.59244 79.045 6.49233C78.548 6.36551 78.1336 6.23364 77.8012 6.09651C77.4689 5.95983 77.182 5.74779 76.9405 5.46062C76.6987 5.17345 76.5778 4.78946 76.5778 4.30843C76.5778 3.8412 76.702 3.43202 76.9504 3.08132C77.1988 2.73085 77.551 2.46208 78.0077 2.27501C78.4641 2.08816 78.9945 1.99463 79.5985 1.99463C80.1489 1.99463 80.6976 2.0713 81.245 2.22507C81.7919 2.37862 82.2668 2.58233 82.6696 2.83599L81.8238 4.60896C81.4412 4.3886 81.0149 4.19496 80.545 4.02805" clip-rule="evenodd"/><path id="Fill 14" fill="#444" fill-rule="evenodd" d="M83.8273 9.19716H86.1634V2.17493H83.8273V9.19716Z" clip-rule="evenodd"/><path id="Fill 16" fill="#444" fill-rule="evenodd" d="M91.7817 4.02805C91.3119 3.86113 90.9292 3.77768 90.6339 3.77768C90.3453 3.77768 90.2008 3.88129 90.2008 4.08807C90.2008 4.24841 90.2931 4.37195 90.4778 4.4587C90.6623 4.54566 90.9561 4.64248 91.3588 4.74915C91.8623 4.88956 92.2802 5.02975 92.6125 5.16994C92.9447 5.31035 93.2351 5.53247 93.4835 5.83607C93.7316 6.14011 93.856 6.53899 93.856 7.03316C93.856 7.54091 93.7233 7.96652 93.4582 8.31043C93.1931 8.65455 92.8355 8.90996 92.3859 9.07666C91.9361 9.24357 91.4361 9.32725 90.8856 9.32725C90.2614 9.32725 89.6319 9.22539 88.9976 9.02168C88.3634 8.81796 87.8145 8.53933 87.3515 8.18535L88.2175 6.43231C88.5731 6.73942 89.0194 7.00162 89.5566 7.21848C90.0934 7.43555 90.5432 7.5442 90.9056 7.5442C91.0802 7.5442 91.2179 7.51244 91.3185 7.44891C91.4193 7.38561 91.4697 7.28704 91.4697 7.15342C91.4697 6.99308 91.374 6.868 91.1826 6.77775C90.9913 6.68772 90.691 6.59244 90.2817 6.49233C89.7847 6.36551 89.3703 6.23364 89.0379 6.09651C88.7056 5.95983 88.4187 5.74779 88.1772 5.46062C87.9354 5.17345 87.8145 4.78946 87.8145 4.30843C87.8145 3.8412 87.9387 3.43202 88.1871 3.08132C88.4354 2.73085 88.7877 2.46208 89.2444 2.27501C89.7008 2.08816 90.2312 1.99463 90.8352 1.99463C91.3856 1.99463 91.9343 2.0713 92.4817 2.22507C93.0286 2.37862 93.5035 2.58233 93.9062 2.83599L93.0605 4.60896C92.6779 4.3886 92.2516 4.19496 91.7817 4.02805" clip-rule="evenodd"/></g></g><path id="MARKETS" fill="#444" d="M50.82 19L50.8 15.81L49.28 18.37H48.24L46.72 15.92V19H44.57V12H46.51L48.79 15.73L51.01 12H52.95L52.97 19H50.82ZM59.0143 17.78H56.3543L55.8843 19H53.4843L56.5443 12H58.8643L61.9243 19H59.4843L59.0143 17.78ZM58.3643 16.08L57.6843 14.32L57.0043 16.08H58.3643ZM65.4343 17.24H64.7943V19H62.4343V12H65.8043C66.451 12 67.0143 12.1067 67.4943 12.32C67.9743 12.5333 68.3443 12.84 68.6043 13.24C68.8643 13.64 68.9943 14.1067 68.9943 14.64C68.9943 15.14 68.881 15.5767 68.6543 15.95C68.4277 16.3233 68.101 16.62 67.6743 16.84L69.1443 19H66.6243L65.4343 17.24ZM66.6143 14.64C66.6143 14.38 66.5343 14.18 66.3743 14.04C66.2143 13.8933 65.9743 13.82 65.6543 13.82H64.7943V15.46H65.6543C65.9743 15.46 66.2143 15.39 66.3743 15.25C66.5343 15.1033 66.6143 14.9 66.6143 14.64ZM72.8688 16.68L72.3388 17.27V19H70.0188V12H72.3388V14.54L74.6388 12H77.2088L74.4088 15.08L77.3488 19H74.6188L72.8688 16.68ZM83.6186 17.22V19H77.7986V12H83.4886V13.78H80.1186V14.6H83.0786V16.3H80.1186V17.22H83.6186ZM86.1805 13.83H84.1305V12H90.5905V13.83H88.5405V19H86.1805V13.83ZM93.9468 19.16C93.3668 19.16 92.8001 19.0967 92.2468 18.97C91.7001 18.8367 91.2501 18.66 90.8968 18.44L91.6568 16.72C91.9901 16.9133 92.3635 17.07 92.7768 17.19C93.1901 17.3033 93.5868 17.36 93.9668 17.36C94.2935 17.36 94.5268 17.33 94.6668 17.27C94.8068 17.2033 94.8768 17.1067 94.8768 16.98C94.8768 16.8333 94.7835 16.7233 94.5968 16.65C94.4168 16.5767 94.1168 16.4967 93.6968 16.41C93.1568 16.2967 92.7068 16.1767 92.3468 16.05C91.9868 15.9167 91.6735 15.7033 91.4068 15.41C91.1401 15.11 91.0068 14.7067 91.0068 14.2C91.0068 13.76 91.1301 13.36 91.3768 13C91.6235 12.64 91.9901 12.3567 92.4768 12.15C92.9701 11.9433 93.5668 11.84 94.2668 11.84C94.7468 11.84 95.2168 11.8933 95.6768 12C96.1435 12.1 96.5535 12.25 96.9068 12.45L96.1968 14.16C95.5101 13.8133 94.8601 13.64 94.2468 13.64C93.6401 13.64 93.3368 13.7867 93.3368 14.08C93.3368 14.22 93.4268 14.3267 93.6068 14.4C93.7868 14.4667 94.0835 14.54 94.4968 14.62C95.0301 14.72 95.4801 14.8367 95.8468 14.97C96.2135 15.0967 96.5301 15.3067 96.7968 15.6C97.0701 15.8933 97.2068 16.2933 97.2068 16.8C97.2068 17.24 97.0835 17.64 96.8368 18C96.5901 18.3533 96.2201 18.6367 95.7268 18.85C95.2401 19.0567 94.6468 19.16 93.9468 19.16Z"/></g></svg>