<svg xmlns="http://www.w3.org/2000/svg" width="127.532" height="18.531" viewBox="0 0 127.532 18.531"><path fill="#ca5454" fill-rule="evenodd" d="M438.422,61.915H434.2V63.4l1.91,0.328V74.255a3.228,3.228,0,0,1-.808,2.3,2.733,2.733,0,0,1-2.086.861,3.121,3.121,0,0,1-2.268-.779,3.154,3.154,0,0,1-.8-2.361h-2.214l-0.024.07a4.366,4.366,0,0,0,1.395,3.627,5.8,5.8,0,0,0,3.914,1.248,5.3,5.3,0,0,0,3.756-1.342,4.708,4.708,0,0,0,1.447-3.627V63.731l1.91-.328V61.915h-1.91Zm13.107,17.063h3.527V77.5l-1.453-.328V66.3H449.6v1.488l1.7,0.328v7.324a3.12,3.12,0,0,1-1.213,1.412,3.8,3.8,0,0,1-2.033.5,2.224,2.224,0,0,1-1.864-.762,4.724,4.724,0,0,1-.6-2.789V66.3h-3.762v1.488l1.453,0.328v5.66a6.15,6.15,0,0,0,1.16,4.125,4.06,4.06,0,0,0,3.223,1.324,4.234,4.234,0,0,0,2.174-.551,4.29,4.29,0,0,0,1.541-1.57Zm15.181-11.5a5.386,5.386,0,0,0-1.91-1.043,8.321,8.321,0,0,0-2.59-.375,5.2,5.2,0,0,0-3.427,1.09,3.311,3.311,0,0,0-1.319,2.637,2.765,2.765,0,0,0,1.172,2.344,9.226,9.226,0,0,0,3.481,1.371,5.454,5.454,0,0,1,2.2.856,1.571,1.571,0,0,1,.58,1.254,1.535,1.535,0,0,1-.7,1.307,3.268,3.268,0,0,1-1.928.5,5.983,5.983,0,0,1-1.4-.164,2.406,2.406,0,0,1-1.084-.527l-0.434-1.7h-1.734l0.011,2.895a6.9,6.9,0,0,0,2.051.967,9.277,9.277,0,0,0,2.59.334,5.717,5.717,0,0,0,3.568-1.043,3.277,3.277,0,0,0,1.366-2.73,2.823,2.823,0,0,0-1.172-2.373,9.247,9.247,0,0,0-3.574-1.4,5.465,5.465,0,0,1-2.145-.773,1.449,1.449,0,0,1-.527-1.184,1.691,1.691,0,0,1,.6-1.3,2.663,2.663,0,0,1,1.828-.539,4.094,4.094,0,0,1,1.448.24,3.129,3.129,0,0,1,1.06.639l0.375,1.523h1.735Zm4.612-4.242V66.3h-2v1.711h2v7.7a3.688,3.688,0,0,0,.832,2.666,2.987,2.987,0,0,0,2.238.85,6.057,6.057,0,0,0,1.265-.135,2.951,2.951,0,0,0,.961-0.346L476.3,77.161q-0.258.059-.639,0.111a5.05,5.05,0,0,1-.685.053A1.334,1.334,0,0,1,474,76.962a1.724,1.724,0,0,1-.369-1.254v-7.7h2.4V66.3h-2.4V63.239h-2.308Zm18.45,15.738V75.216h-1.957l-0.187,1.957h-6.059l-0.023-.059,4.488-4.887a18.122,18.122,0,0,0,2.326-3.012,5.43,5.43,0,0,0,.827-2.789,4.587,4.587,0,0,0-1.366-3.416,5.014,5.014,0,0,0-3.674-1.342,5.729,5.729,0,0,0-4.212,1.5,4.8,4.8,0,0,0-1.459,3.7l0.023,0.07h2.215a3.63,3.63,0,0,1,.832-2.555,3.38,3.38,0,0,1,2.6-.9,2.483,2.483,0,0,1,1.981.873,3.186,3.186,0,0,1,.75,2.15,4.189,4.189,0,0,1-.533,2.016,15.751,15.751,0,0,1-2.033,2.66l-5.59,6.211v1.582h11.05Zm1.74-17.062v3.773h1.981l0.164-1.957h3.8V77.173l-1.91.328v1.477h6.129V77.5l-1.911-.328V63.731h3.786l0.175,1.957h1.969V61.915h-14.18Zm16.928,6.2v9.059l-1.91.328v1.477h6.129V77.5l-1.91-.328V69.9a2.759,2.759,0,0,1,.961-1.2,2.642,2.642,0,0,1,1.535-.428l1.312,0.07,0.3-2.144a3.108,3.108,0,0,0-.44-0.088,3.936,3.936,0,0,0-.556-0.041,3.093,3.093,0,0,0-1.811.551,4.43,4.43,0,0,0-1.33,1.523L510.5,66.3H506.53v1.488Zm19.552,10.863V77.5l-0.937-.129c-0.016-.156-0.025-0.312-0.029-0.469s-0.006-.316-0.006-0.48V70.317a3.853,3.853,0,0,0-1.336-3.152,5.314,5.314,0,0,0-3.492-1.1,8.3,8.3,0,0,0-2.672.416,6.856,6.856,0,0,0-2.1,1.107v2.461H519.2l0.247-1.336a2.863,2.863,0,0,1,1.072-.609,4.8,4.8,0,0,1,1.529-.223,2.773,2.773,0,0,1,1.957.65,2.284,2.284,0,0,1,.7,1.764V71.77h-2.379a7.113,7.113,0,0,0-4,.978,3.157,3.157,0,0,0-1.459,2.783,3.551,3.551,0,0,0,1.032,2.725,4.783,4.783,0,0,0,5.15.4,5.583,5.583,0,0,0,1.67-1.424q0.024,0.41.082,0.82t0.164,0.926h3.023Zm-8.3-2.127a1.577,1.577,0,0,1-.516-1.271,1.972,1.972,0,0,1,.826-1.594,3.512,3.512,0,0,1,2.244-.656h2.461v2.086a3.411,3.411,0,0,1-1.359,1.324,4.1,4.1,0,0,1-2.1.551A2.353,2.353,0,0,1,519.7,76.85Zm19.189,2.127H542.8V77.5l-1.91-.328V60.7H536.67v1.488l1.91,0.328v5.168a4.1,4.1,0,0,0-1.471-1.2,4.514,4.514,0,0,0-1.986-.416,4.2,4.2,0,0,0-3.65,1.875,8.463,8.463,0,0,0-1.307,4.934v0.246a7.011,7.011,0,0,0,1.307,4.424,4.335,4.335,0,0,0,3.627,1.682,4.621,4.621,0,0,0,2.08-.445,4.094,4.094,0,0,0,1.517-1.312Zm-6.41-6.105a7.071,7.071,0,0,1,.791-3.562,2.627,2.627,0,0,1,2.443-1.371,3.053,3.053,0,0,1,1.711.469,3.565,3.565,0,0,1,1.16,1.266v5.883a3.573,3.573,0,0,1-1.16,1.324,3.058,3.058,0,0,1-1.734.469,2.725,2.725,0,0,1-2.426-1.16,5.384,5.384,0,0,1-.785-3.07V72.872Zm20.8,5.9a5.534,5.534,0,0,0,1.8-1.108l-0.9-1.5a4.731,4.731,0,0,1-1.53.92,5.807,5.807,0,0,1-2.056.334,2.947,2.947,0,0,1-2.5-1.178,5.007,5.007,0,0,1-.926-3.006l0.035-.059h8.227V71.735a6.144,6.144,0,0,0-1.319-4.125,4.806,4.806,0,0,0-3.873-1.547,4.962,4.962,0,0,0-3.814,1.8,6.5,6.5,0,0,0-1.612,4.506v0.516a6.639,6.639,0,0,0,1.565,4.576,5.348,5.348,0,0,0,4.213,1.764A7.189,7.189,0,0,0,553.275,78.772Zm-0.885-9.978a3.535,3.535,0,0,1,.727,2.273v0.3h-5.848l-0.023-.059a4.635,4.635,0,0,1,1.008-2.455,2.5,2.5,0,0,1,1.98-.978A2.588,2.588,0,0,1,552.39,68.794Z" transform="translate(-427.906 -60.688)"/></svg>