<svg xmlns="http://www.w3.org/2000/svg" width="61" height="60" fill="none" viewBox="0 0 61 60"><path stroke="#DB2A7C" stroke-linecap="round" stroke-linejoin="round" stroke-width="2" d="M50.1991 18.6001H53.7991C57.1128 18.6001 59.7991 21.2864 59.7991 24.6001V48.6001C59.7991 51.9138 57.1128 54.6001 53.7991 54.6001H17.7991C14.4854 54.6001 11.7991 51.9138 11.7991 48.6001V41.4001" opacity=".3"/><path stroke="#DB2A7C" stroke-linecap="round" stroke-linejoin="round" stroke-width="2" d="M1.74982 11.25C1.74982 7.93629 4.43611 5.25 7.74982 5.25H43.7498C47.0635 5.25 49.7498 7.93629 49.7498 11.25V35.25C49.7498 38.5637 47.0635 41.25 43.7498 41.25H7.74982C4.43611 41.25 1.74982 38.5637 1.74982 35.25V11.25Z"/><path stroke="#DB2A7C" stroke-linecap="round" stroke-linejoin="round" stroke-width="2" d="M22.8499 15.3994H27.4749C29.615 15.3994 31.3499 17.1343 31.3499 19.2744C31.3499 21.4145 29.615 23.1494 27.4749 23.1494H22.8499V15.3994Z"/><path stroke="#DB2A7C" stroke-linecap="round" stroke-linejoin="round" stroke-width="2" d="M22.8503 23.6494H27.4753C29.6154 23.6494 31.3503 25.3843 31.3503 27.5244C31.3503 29.6645 29.6154 31.3994 27.4753 31.3994H22.8503V23.6494Z"/><path stroke="#DB2A7C" stroke-linecap="round" stroke-linejoin="round" stroke-width="2" d="M22.5989 15.1497L22.5989 13.6497"/><path stroke="#DB2A7C" stroke-linecap="round" stroke-linejoin="round" stroke-width="2" d="M26.3489 15.1497V13.6497"/><path stroke="#DB2A7C" stroke-linecap="round" stroke-linejoin="round" stroke-width="2" d="M22.5989 33.1499V31.6499"/><path stroke="#DB2A7C" stroke-linecap="round" stroke-linejoin="round" stroke-width="2" d="M21.0987 31.6499L24.0289 31.6499"/><path stroke="#DB2A7C" stroke-linecap="round" stroke-linejoin="round" stroke-width="2" d="M21.0987 15.1497L24.0289 15.1497"/><path stroke="#DB2A7C" stroke-linecap="round" stroke-linejoin="round" stroke-width="2" d="M26.3489 33.1499V31.6499"/></svg>