<svg xmlns="http://www.w3.org/2000/svg" width="79" height="60" fill="none" viewBox="0 0 79 60"><path stroke="#DB2A7C" stroke-linecap="round" stroke-linejoin="round" stroke-width="2" d="M63.1988 18.6001H66.7988C70.1125 18.6001 72.7988 21.2864 72.7988 24.6001V48.6001C72.7988 51.9138 70.1125 54.6001 66.7988 54.6001H30.7988C27.4851 54.6001 24.7988 51.9138 24.7988 48.6001V41.4001" opacity=".3"/><path stroke="#DB2A7C" stroke-linecap="round" stroke-linejoin="round" stroke-width="2" d="M15.2012 11.3999C15.2012 8.08619 17.8875 5.3999 21.2012 5.3999H57.2012C60.5149 5.3999 63.2012 8.08619 63.2012 11.3999V35.3999C63.2012 38.7136 60.5149 41.3999 57.2012 41.3999H21.2012C17.8875 41.3999 15.2012 38.7136 15.2012 35.3999V11.3999Z"/><g filter="url(#filter0_d)"><circle cx="26.001" cy="23.4" r="4.8" stroke="#DB2A7C" stroke-linecap="round" stroke-linejoin="round" stroke-width="2"/></g><g filter="url(#filter1_d)"><path stroke="#DB2A7C" stroke-linecap="round" stroke-linejoin="round" stroke-width="2" d="M36.8027 26.3999H47.0027"/></g><g filter="url(#filter2_d)"><path stroke="#DB2A7C" stroke-linecap="round" stroke-linejoin="round" stroke-width="2" d="M36.8018 20.3999L57.2018 20.3999"/></g><defs><filter id="filter0_d" width="51.6" height="51.6" x=".201" y="1.6" color-interpolation-filters="sRGB" filterUnits="userSpaceOnUse"><feFlood flood-opacity="0" result="BackgroundImageFix"/><feColorMatrix in="SourceAlpha" type="matrix" values="0 0 0 0 0 0 0 0 0 0 0 0 0 0 0 0 0 0 127 0"/><feOffset dy="4"/><feGaussianBlur stdDeviation="10"/><feColorMatrix type="matrix" values="0 0 0 0 0.858824 0 0 0 0 0.164706 0 0 0 0 0.486275 0 0 0 0.4 0"/><feBlend in2="BackgroundImageFix" mode="normal" result="effect1_dropShadow"/><feBlend in="SourceGraphic" in2="effect1_dropShadow" mode="normal" result="shape"/></filter><filter id="filter1_d" width="52.2" height="42" x="15.803" y="9.4" color-interpolation-filters="sRGB" filterUnits="userSpaceOnUse"><feFlood flood-opacity="0" result="BackgroundImageFix"/><feColorMatrix in="SourceAlpha" type="matrix" values="0 0 0 0 0 0 0 0 0 0 0 0 0 0 0 0 0 0 127 0"/><feOffset dy="4"/><feGaussianBlur stdDeviation="10"/><feColorMatrix type="matrix" values="0 0 0 0 0.858824 0 0 0 0 0.164706 0 0 0 0 0.486275 0 0 0 0.4 0"/><feBlend in2="BackgroundImageFix" mode="normal" result="effect1_dropShadow"/><feBlend in="SourceGraphic" in2="effect1_dropShadow" mode="normal" result="shape"/></filter><filter id="filter2_d" width="62.4" height="42" x="15.802" y="3.4" color-interpolation-filters="sRGB" filterUnits="userSpaceOnUse"><feFlood flood-opacity="0" result="BackgroundImageFix"/><feColorMatrix in="SourceAlpha" type="matrix" values="0 0 0 0 0 0 0 0 0 0 0 0 0 0 0 0 0 0 127 0"/><feOffset dy="4"/><feGaussianBlur stdDeviation="10"/><feColorMatrix type="matrix" values="0 0 0 0 0.858824 0 0 0 0 0.164706 0 0 0 0 0.486275 0 0 0 0.4 0"/><feBlend in2="BackgroundImageFix" mode="normal" result="effect1_dropShadow"/><feBlend in="SourceGraphic" in2="effect1_dropShadow" mode="normal" result="shape"/></filter></defs></svg>