<?xml version="1.0" encoding="UTF-8"?>
<svg width="80px" height="80px" viewBox="0 0 80 80" version="1.1" xmlns="http://www.w3.org/2000/svg" xmlns:xlink="http://www.w3.org/1999/xlink">
    <!-- Generator: sketchtool 49.1 (51147) - http://www.bohemiancoding.com/sketch -->
    <title>F742220B-5323-49CD-ADAD-95002FF8884A</title>
    <desc>Created with sketchtool.</desc>
    <defs></defs>
    <g id="Genesis-WebApp" stroke="none" stroke-width="1" fill="none" fill-rule="evenodd">
        <g id="Dashboard-Programs" transform="translate(-1168.000000, -398.000000)">
            <g id="Dashboard" transform="translate(166.000000, 164.000000)">
                <g id="Period" transform="translate(852.666667, 128.000000)">
                    <g id="Period-Calendar" transform="translate(150.000000, 109.000000)">
                        <path d="M41,37.745098 L21.5,37.745098 L21.5,57.372549 L47,57.372549 L47,48.3137255 L60.5,48.3137255 L60.5,37.745098 L41,37.745098 Z M55.2,14.4941176 L69,14.4941176 L69,77 L1.8189894e-12,77 L1.8189894e-12,14.4941176 L13.8,14.4941176 L55.2,14.4941176 Z" id="Shape" fill="#B2EAE7" opacity="0.5"></path>
                        <path d="M76.5,23.1503268 L7.5,23.1503268" id="Shape" stroke="#16B7AD" stroke-width="4.5" stroke-linecap="square"></path>
                        <polyline id="Shape" stroke="#16B7AD" stroke-width="4.5" stroke-linecap="square" points="62.7 6.94509804 76.5 6.94509804 76.5 69.4509804 7.5 69.4509804 7.5 6.94509804 21.3 6.94509804"></polyline>
                        <path d="M30.5,6.94509804 L53.5,6.94509804" id="Shape" stroke="#16B7AD" stroke-width="4.5" stroke-linecap="square"></path>
                        <polygon id="Shape" stroke="#16B7AD" stroke-width="4.5" stroke-linecap="square" points="21.3 34.7254902 21.3 46.3006536 21.3 57.875817 48.9 57.875817 48.9 46.3006536 62.7 46.3006536 62.7 34.7254902"></polygon>
                        <path d="M48.9,34.7254902 L48.9,46.3006536" id="Shape" stroke="#16B7AD" stroke-width="4.5" stroke-linecap="square"></path>
                        <path d="M35.1,37.0405229 L35.1,57.875817" id="Shape" stroke="#16B7AD" stroke-width="4.5" stroke-linecap="square"></path>
                        <path d="M48.9,46.3006536 L21.3,46.3006536" id="Shape" stroke="#16B7AD" stroke-width="4.5" stroke-linecap="square"></path>
                        <rect id="Rectangle-path" stroke="#16B7AD" stroke-width="4.5" stroke-linecap="square" x="21.3" y="0" width="9.2" height="13.8901961"></rect>
                        <rect id="Rectangle-path" stroke="#16B7AD" stroke-width="4.5" stroke-linecap="square" x="53.5" y="0" width="9.2" height="13.8901961"></rect>
                    </g>
                </g>
            </g>
        </g>
    </g>
</svg>