<svg width="1600" height="828" viewBox="0 0 1600 828" fill="none" xmlns="http://www.w3.org/2000/svg">
<mask id="mask0" mask-type="alpha" maskUnits="userSpaceOnUse" x="0" y="0" width="1600" height="828">
<path d="M0 0H1600V828H0V0Z" fill="#040027"/>
</mask>
<g mask="url(#mask0)">
<g opacity="0.5">
<path opacity="0.5" d="M395.473 400.788L-158.273 780" stroke="url(#paint0_linear)" stroke-width="2"/>
<path opacity="0.1" d="M-160 400H1760" stroke="url(#paint1_linear)" stroke-width="2"/>
<path opacity="0.2" d="M-160 441.475H1760" stroke="url(#paint2_linear)" stroke-width="2"/>
<path opacity="0.3" d="M-160 486.312H1760" stroke="url(#paint3_linear)" stroke-width="2"/>
<path opacity="0.5" d="M-160 540.118H1760" stroke="url(#paint4_linear)" stroke-width="2"/>
<path opacity="0.5" d="M-160 612.979H1760" stroke="url(#paint5_linear)" stroke-width="2"/>
<path opacity="0.5" d="M-160 704.897H1760" stroke="url(#paint6_linear)" stroke-width="2"/>
<path d="M536.925 400.55L260.914 780" stroke="url(#paint7_linear)" stroke-width="2"/>
<path d="M678.385 400.55L536.93 780" stroke="url(#paint8_linear)" stroke-width="2"/>
<path d="M821.561 400.55L819.836 780" stroke="url(#paint9_linear)" stroke-width="2"/>
<path d="M961.294 400.55L1102.75 780" stroke="url(#paint10_linear)" stroke-width="2"/>
<path d="M1101.02 400.55L1377.04 780" stroke="url(#paint11_linear)" stroke-width="2"/>
<path opacity="0.5" d="M1206.25 400.788L1760 780" stroke="url(#paint12_linear)" stroke-width="2"/>
</g>
</g>
<g filter="url(#filter0_d)">
<path d="M764.76 244.982L771.811 237.931L781.683 247.803L797.431 232.055L800.721 235.346L812.943 223.124L815.999 226.179" stroke="#DB2A7C" stroke-width="4" stroke-linecap="round" stroke-linejoin="round"/>
</g>
<path d="M784.551 280.238L743.841 209.726L825.261 209.726L784.551 280.238Z" stroke="#16B9AD" stroke-width="4" stroke-linecap="round" stroke-linejoin="round"/>
<circle cx="892.839" cy="245.551" r="3.25678" fill="#00BDAF"/>
<circle cx="1325.99" cy="245.551" r="3.25678" fill="#00BDAF"/>
<circle opacity="0.3" cx="892.839" cy="460.499" r="3.25678" fill="#00BDAF"/>
<circle opacity="0.3" cx="1325.99" cy="460.499" r="3.25678" fill="#00BDAF"/>
<circle cx="784.551" cy="567.973" r="3.25678" fill="#00BDAF"/>
<path d="M1291.39 582.628H1360.6" stroke="#16B9AD" stroke-width="4" stroke-linecap="round" stroke-linejoin="round"/>
<path d="M1290.98 541.918L1361 541.918" stroke="#16B9AD" stroke-width="4" stroke-linecap="round" stroke-linejoin="round"/>
<circle cx="1325.99" cy="562.273" r="40.7098" stroke="#16B9AD" stroke-width="4" stroke-linecap="round" stroke-linejoin="round"/>
<g filter="url(#filter1_d)">
<ellipse cx="1325.99" cy="562.273" rx="20.3549" ry="40.7098" stroke="#DB2A7C" stroke-width="4" stroke-linecap="round" stroke-linejoin="round"/>
</g>
<path d="M1285.28 562.273L1366.7 562.273" stroke="#16B9AD" stroke-width="4" stroke-linecap="round" stroke-linejoin="round"/>
<g filter="url(#filter2_d)">
<path d="M1043.45 328.717C1044 330.089 1046.58 332.834 1052.51 332.834C1058.44 332.834 1061.02 330.089 1061.57 328.717" stroke="#00BDAF" stroke-width="2" stroke-linecap="round" stroke-linejoin="round"/>
<path d="M1040.98 321.717C1035.49 323.639 1023.52 328.634 1019.57 333.246" stroke="#00BDAF" stroke-width="2" stroke-linecap="round" stroke-linejoin="round"/>
<path d="M1036.04 317.188C1035.22 317.188 1015.87 316.777 1010.93 319.659" stroke="#00BDAF" stroke-width="2" stroke-linecap="round" stroke-linejoin="round"/>
<path d="M1086.68 333.246C1082.57 330.089 1072.6 323.364 1065.69 321.717" stroke="#00BDAF" stroke-width="2" stroke-linecap="round" stroke-linejoin="round"/>
<path d="M1039.75 314.307C1035.36 311.973 1024.68 307.39 1017.1 307.719" stroke="#00BDAF" stroke-width="2" stroke-linecap="round" stroke-linejoin="round"/>
<path d="M925.699 368.242C929.404 365.635 942.497 360.419 965.225 360.419" stroke="#00BDAF" stroke-width="2" stroke-linecap="round" stroke-linejoin="round"/>
<path d="M926.111 372.772C933.247 372.36 949.579 372.278 957.813 375.242" stroke="#00BDAF" stroke-width="2" stroke-linecap="round" stroke-linejoin="round"/>
<path d="M903.466 368.654C896.466 365.36 878.68 359.102 863.528 360.42" stroke="#00BDAF" stroke-width="2" stroke-linecap="round" stroke-linejoin="round"/>
<path d="M903.054 372.772C895.506 372.223 878.515 371.948 870.939 375.242" stroke="#00BDAF" stroke-width="2" stroke-linecap="round" stroke-linejoin="round"/>
<path d="M908.818 359.185C910.602 356.577 913.841 350.127 912.524 345.186C911.206 340.246 902.917 336.265 898.937 334.893" stroke="#00BDAF" stroke-width="2" stroke-linecap="round" stroke-linejoin="round"/>
<path d="M928.169 352.186C929.098 350.095 931.206 346.774 934.345 344.157M934.345 344.157C936.771 342.134 939.813 340.533 943.403 340.245C951.638 339.587 955.618 341.892 956.578 343.128C955.206 346.696 950.649 353.997 943.403 354.656C936.157 355.315 934.345 347.931 934.345 344.157Z" stroke="#00BDAF" stroke-width="2" stroke-linecap="round" stroke-linejoin="round"/>
<path d="M898.524 334.893C897.015 339.01 895.395 347.986 900.995 350.95C906.594 353.915 911.288 349.166 912.935 346.421" stroke="#00BDAF" stroke-width="2" stroke-linecap="round" stroke-linejoin="round"/>
<path d="M959.872 322.952C962.891 313.482 970.412 293.636 976.341 290.014C980.047 287.75 983.34 299.484 983.34 307.719" stroke="#00BDAF" stroke-width="2" stroke-linecap="round" stroke-linejoin="round"/>
<path d="M947.932 318.424C953.284 311.836 969.754 284.662 976.753 282.604C983.752 280.545 989.105 305.249 988.693 316.365C988.364 325.258 987.183 336.54 986.634 341.069" stroke="#00BDAF" stroke-width="2" stroke-linecap="round" stroke-linejoin="round"/>
<path d="M987.458 333.246L1005.57 350.95" stroke="#00BDAF" stroke-width="2" stroke-linecap="round" stroke-linejoin="round"/>
<path d="M1017.1 421.767C1013.4 411.474 1005.99 386.523 1005.99 369.066C1005.99 347.244 1002.69 254.606 1002.69 252.136C1002.69 249.665 997.339 222.999 1003.52 219.198C1006.92 217.101 1012.52 221.729 1017.51 227.212M1103.56 336.128C1101.64 326.384 1098.62 317.6 1096.98 292.897C1096.04 278.905 1098.62 245.96 1098.62 241.431C1098.62 236.902 1101.09 217.098 1094.09 219.198C1085.86 221.668 1068.98 245.96 1066.92 246.783C1064.86 247.607 1057.04 244.725 1051.28 244.725C1045.51 244.725 1040.57 246.372 1035.22 246.783C1029.87 247.195 1030.28 243.489 1027.81 240.196C1026.59 238.579 1022.33 232.498 1017.51 227.212M1028.63 258.312C1028.22 251.44 1025.42 235.6 1017.51 227.212" stroke="#00BDAF" stroke-width="2" stroke-linecap="round" stroke-linejoin="round"/>
<path d="M946.181 340.245C946.249 340.903 946.285 341.593 946.285 342.304C946.285 346.852 944.81 350.538 942.991 350.538C941.172 350.538 939.698 346.852 939.698 342.304C939.698 341.884 939.71 341.471 939.734 341.069" stroke="#00BDAF" stroke-width="2" stroke-linecap="round" stroke-linejoin="round"/>
<path d="M1014.22 287.545C1019.85 284.8 1033.16 281.533 1041.39 290.427" stroke="#00BDAF" stroke-width="2" stroke-linecap="round" stroke-linejoin="round"/>
<path d="M1019.57 285.897C1019.44 289.74 1021.05 297.426 1028.63 297.426C1036.21 297.426 1038.92 291.387 1039.33 288.368" stroke="#00BDAF" stroke-width="2" stroke-linecap="round" stroke-linejoin="round"/>
<path d="M1032.75 285.65C1032.75 289.652 1031.09 292.897 1029.04 292.897C1026.99 292.897 1025.34 289.652 1025.34 285.65C1025.34 285.281 1025.35 284.918 1025.38 284.563" stroke="#00BDAF" stroke-width="2" stroke-linecap="round" stroke-linejoin="round"/>
<path d="M1087.92 287.544C1082.29 284.799 1068.98 281.533 1060.74 290.426" stroke="#00BDAF" stroke-width="2" stroke-linecap="round" stroke-linejoin="round"/>
<path d="M1082.57 285.897C1082.7 289.74 1081.08 297.426 1073.51 297.426C1065.93 297.426 1063.22 291.387 1062.8 288.368" stroke="#00BDAF" stroke-width="2" stroke-linecap="round" stroke-linejoin="round"/>
<path d="M1069.39 285.65C1069.39 289.652 1071.05 292.897 1073.1 292.897C1075.14 292.897 1076.8 289.652 1076.8 285.65C1076.8 285.281 1076.79 284.918 1076.76 284.563" stroke="#00BDAF" stroke-width="2" stroke-linecap="round" stroke-linejoin="round"/>
<path d="M1058.53 314.86L1060.33 306.072" stroke="#00BDAF" stroke-width="2" stroke-linecap="round" stroke-linejoin="round"/>
<path d="M1046.09 314.86L1044.28 306.072" stroke="#00BDAF" stroke-width="2" stroke-linecap="round" stroke-linejoin="round"/>
<path d="M1089.15 307.307C1083.53 307.582 1071.04 309.283 1066.1 313.895" stroke="#00BDAF" stroke-width="2" stroke-linecap="round" stroke-linejoin="round"/>
<path d="M1096.15 320.893C1092.59 319.109 1082.32 315.788 1069.8 316.776" stroke="#00BDAF" stroke-width="2" stroke-linecap="round" stroke-linejoin="round"/>
<path d="M1017.51 258.312C1018.34 257.9 1022.04 254.194 1027.81 252.547" stroke="#00BDAF" stroke-width="2" stroke-linecap="round" stroke-linejoin="round"/>
<path d="M1108.09 332.011L1085.86 355.479" stroke="#00BDAF" stroke-width="2" stroke-linecap="round" stroke-linejoin="round"/>
<path d="M1078.86 237.725C1076.8 242.529 1072.77 253.206 1073.1 257.488" stroke="#00BDAF" stroke-width="2" stroke-linecap="round" stroke-linejoin="round"/>
<path d="M1073.92 252.959C1076.39 253.783 1081.74 256.006 1083.39 258.312" stroke="#00BDAF" stroke-width="2" stroke-linecap="round" stroke-linejoin="round"/>
<path d="M943.815 390.476C950.951 397.2 968.024 417.65 979.223 445.647C990.422 473.644 995.143 488.64 996.241 493.169" stroke="#00BDAF" stroke-width="2" stroke-linecap="round" stroke-linejoin="round"/>
<path d="M988.281 453.47C992.398 461.155 1003.52 478.091 1016.69 485.996" stroke="#00BDAF" stroke-width="2" stroke-linecap="round" stroke-linejoin="round"/>
<path d="M955.344 385.535C952.325 386.358 945.133 388.829 940.522 392.122C934.758 396.24 933.111 399.533 926.935 399.533C920.759 399.533 917.465 399.945 914.995 395.416C913.019 391.793 915.818 385.946 917.465 383.476" stroke="#00BDAF" stroke-width="2" stroke-linecap="round" stroke-linejoin="round"/>
<path d="M914.582 374.007V380.183" stroke="#00BDAF" stroke-width="2" stroke-linecap="round" stroke-linejoin="round"/>
<path d="M914.17 391.299L915.057 392.186C915.807 392.936 916.825 393.358 917.886 393.358H925.634C926.727 393.358 927.77 392.91 928.533 392.127C931.744 388.83 937.09 383.567 939.697 381.829C942.662 379.853 945.05 378.536 945.873 378.124C944.363 379.633 939.203 382.982 930.639 384.3C922.075 385.617 916.092 381.829 914.17 379.771C914.033 381.28 912.441 384.053 907.171 383.064C900.583 381.829 899.76 376.889 898.113 369.478C896.466 362.066 888.643 355.891 889.878 346.833C891.114 337.775 896.466 336.128 896.055 330.775C895.643 325.423 889.467 307.307 891.114 291.25C892.761 275.192 896.878 280.956 911.288 295.779C922.817 307.636 926.797 310.601 927.345 310.601" stroke="#00BDAF" stroke-width="2" stroke-linecap="round" stroke-linejoin="round"/>
<path d="M920.346 314.306C924.189 312.385 933.686 308.46 940.933 308.131C948.179 307.801 953.284 307.993 954.931 308.131" stroke="#00BDAF" stroke-width="2" stroke-linecap="round" stroke-linejoin="round"/>
<path d="M914.994 311.013C912.661 312.523 907.748 315.789 906.759 316.777" stroke="#00BDAF" stroke-width="2" stroke-linecap="round" stroke-linejoin="round"/>
<path d="M907.759 368.537C907.759 366.88 909.103 365.537 910.759 365.537H918.405C920.062 365.537 921.405 366.88 921.405 368.537V368.889C920.57 371.116 918.44 372.595 916.057 372.595H914.582H913.107C910.725 372.595 908.594 371.116 907.759 368.889V368.537Z" stroke="#00BDAF" stroke-width="2" stroke-linecap="round" stroke-linejoin="round"/>
<path d="M1046.92 315.234C1046.92 313.91 1048 312.836 1049.32 312.836H1055.7C1057.02 312.836 1058.1 313.91 1058.1 315.234V315.359C1057.41 317.099 1055.73 318.247 1053.86 318.247H1052.51H1051.17C1049.29 318.247 1047.61 317.099 1046.92 315.359V315.234Z" stroke="#00BDAF" stroke-width="2" stroke-linecap="round" stroke-linejoin="round"/>
<path d="M1175.38 368.758C1175.38 367.434 1176.46 366.36 1177.78 366.36H1184.16C1185.48 366.36 1186.56 367.434 1186.56 368.758V368.883C1185.87 370.623 1184.19 371.771 1182.31 371.771H1180.97H1179.62C1177.75 371.771 1176.07 370.623 1175.38 368.883V368.758Z" stroke="#00BDAF" stroke-width="2" stroke-linecap="round" stroke-linejoin="round"/>
<path d="M914.995 311.424C909.78 302.504 898.608 284.992 895.644 286.309C891.938 287.956 894.821 318.012 898.938 323.364" stroke="#00BDAF" stroke-width="2" stroke-linecap="round" stroke-linejoin="round"/>
<path d="M960.696 321.306C963.166 323.639 968.93 328.634 972.224 329.952" stroke="#00BDAF" stroke-width="2" stroke-linecap="round" stroke-linejoin="round"/>
<path d="M1197.85 498.76C1198.67 499.584 1223.38 472.41 1223.38 448.118C1223.38 423.826 1191.67 407.769 1156.27 418.474C1120.86 429.179 1066.92 481.056 1034.39 497.525C1001.87 513.994 959.46 525.934 933.11 508.642C906.759 491.349 906.348 463.763 915.405 461.705C924.463 459.646 931.463 494.231 970.577 495.878C1009.69 497.525 1038.92 473.645 1041.39 472.41C1043.86 471.174 1122.92 398.711 1168.62 396.652C1214.32 394.593 1240.67 413.533 1245.2 448.118C1249.73 482.703 1220.91 516.876 1206.91 528.816C1195.71 538.368 1191.26 541.031 1190.44 541.168" stroke="#00BDAF" stroke-width="2" stroke-linecap="round" stroke-linejoin="round"/>
<path d="M1156.68 418.062C1160.24 423.277 1169.03 436.013 1175.61 445.235C1183.85 456.764 1196.61 473.645 1197.85 499.995C1199.08 526.345 1187.97 545.285 1185.5 548.579C1183.03 551.873 1184.26 553.931 1185.5 555.99C1186.73 558.048 1189.2 560.107 1184.67 563.813C1180.14 567.518 1145.97 580.282 1131.15 580.693C1116.33 581.105 1117.56 578.223 1117.15 575.341C1116.56 571.224 1120.45 568.753 1123.33 568.753" stroke="#00BDAF" stroke-width="2" stroke-linecap="round" stroke-linejoin="round"/>
<path d="M1117.97 578.635C1115.09 579.047 1109.33 578.388 1109.33 572.459C1109.33 566.53 1113.99 565.048 1116.33 565.048" stroke="#00BDAF" stroke-width="2" stroke-linecap="round" stroke-linejoin="round"/>
<path d="M1109.74 576.164C1107.54 576.164 1103.4 574.682 1104.39 568.753C1105.62 561.342 1115.5 562.577 1120.03 562.166C1123.66 561.836 1136.09 562.166 1143.5 559.695" stroke="#00BDAF" stroke-width="2" stroke-linecap="round" stroke-linejoin="round"/>
<path d="M1144.74 560.519C1135.82 555.304 1116.91 541.25 1112.63 526.757C1107.27 508.641 1110.98 497.936 1125.8 483.526C1139 470.692 1145.97 466.508 1147.62 465.822" stroke="#00BDAF" stroke-width="2" stroke-linecap="round" stroke-linejoin="round"/>
<path d="M1112.21 464.998C1111.94 475.428 1109 501.148 1099.45 520.581C1087.51 544.873 1071.45 574.929 1068.16 579.87C1064.86 584.81 1061.98 590.986 1054.57 592.633C1047.16 594.28 1045.1 592.221 1044.69 588.928C1044.36 586.293 1046.47 583.163 1047.57 581.928" stroke="#00BDAF" stroke-width="2" stroke-linecap="round" stroke-linejoin="round"/>
<path d="M1045.92 592.221C1043.45 592.77 1038.43 592.715 1038.1 588.104C1037.77 583.493 1040.43 580.693 1041.8 579.87" stroke="#00BDAF" stroke-width="2" stroke-linecap="round" stroke-linejoin="round"/>
<path d="M1038.92 590.575C1036.04 590.986 1030.85 590.163 1033.16 583.575C1036.04 575.341 1048.39 574.517 1050.45 572.459C1052.51 570.4 1062.39 547.755 1064.45 538.697C1066.51 529.639 1069.39 511.111 1069.39 498.348C1069.39 488.137 1069.39 478.173 1069.39 474.468M1067.74 418.885L1068.67 450.176M1031.1 499.583C1020.12 516.738 996.845 552.696 991.575 559.283C984.987 567.518 976.341 579.87 970.988 581.105C965.636 582.34 962.342 581.517 961.519 576.988C960.86 573.364 963.44 571.361 964.812 570.812" stroke="#00BDAF" stroke-width="2" stroke-linecap="round" stroke-linejoin="round"/>
<path d="M963.161 580.282C961.103 580.831 955.856 581.105 954.93 577.4C953.696 572.459 957.26 570.675 959.456 568.753" stroke="#00BDAF" stroke-width="2" stroke-linecap="round" stroke-linejoin="round"/>
<path d="M955.344 579.046C953.011 579.321 950.164 578.578 950.815 572.047C951.637 563.813 968.106 562.989 970.988 560.519C973.871 558.048 981.693 545.697 984.987 538.697C987.622 533.098 992.947 519.072 995.28 512.759M1032.75 498.348C1042.63 503.289 1063.54 513.417 1068.16 514.405" stroke="#00BDAF" stroke-width="2" stroke-linecap="round" stroke-linejoin="round"/>
<path d="M1030.69 499.583C1028.91 503.289 1027.97 513.17 1038.51 523.052C1049.05 532.933 1059.65 539.246 1063.63 541.168" stroke="#00BDAF" stroke-width="2" stroke-linecap="round" stroke-linejoin="round"/>
<path d="M1081.74 555.166C1085.59 554.617 1095.82 553.849 1106.03 555.166C1116.25 556.484 1121.54 560.382 1122.92 562.166" stroke="#00BDAF" stroke-width="2" stroke-linecap="round" stroke-linejoin="round"/>
<path d="M1099.86 554.754C1098.62 556.264 1094.26 559.777 1086.68 561.754C1079.11 563.73 1076.39 564.773 1075.98 565.048M1034.39 558.048C1031.92 556.95 1026.57 558.048 1026.57 562.989C1026.57 572.702 1045.97 569.471 1052.51 569.05M1061.57 546.932C1057.18 548.03 1046.09 550.39 1036.86 551.049C1025.34 551.872 1020.39 550.637 1017.51 554.754C1014.63 558.872 1018.34 562.577 1020.39 563.812" stroke="#00BDAF" stroke-width="2" stroke-linecap="round" stroke-linejoin="round"/>
<path d="M1027.39 555.166C1025.34 555.166 1021.05 556.154 1020.4 560.107C1019.57 565.047 1023.28 567.106 1027.39 567.106" stroke="#00BDAF" stroke-width="2" stroke-linecap="round" stroke-linejoin="round"/>
<path d="M908.303 339.833C908.37 340.36 908.406 340.912 908.406 341.48C908.406 345.119 906.932 348.068 905.113 348.068C903.293 348.068 901.819 345.119 901.819 341.48C901.819 339.513 902.25 337.747 902.934 336.54" stroke="#00BDAF" stroke-width="2" stroke-linecap="round" stroke-linejoin="round"/>
<path d="M1109.74 339.422C1107.96 332.285 1105.13 314.471 1108.09 300.308C1111.8 282.603 1118.39 279.721 1123.33 286.309C1128.27 292.897 1135.27 306.072 1141.86 312.659C1147.13 317.929 1150.09 320.345 1150.91 320.894" stroke="#00BDAF" stroke-width="2" stroke-linecap="round" stroke-linejoin="round"/>
<path d="M1134.86 321.717C1131.97 324.325 1125.63 329.787 1123.33 330.775" stroke="#00BDAF" stroke-width="2" stroke-linecap="round" stroke-linejoin="round"/>
<path d="M1136.09 325.834C1133.89 316.365 1128.02 296.519 1122.09 292.896C1114.68 288.367 1112.62 299.072 1112.21 311.012" stroke="#00BDAF" stroke-width="2" stroke-linecap="round" stroke-linejoin="round"/>
<path d="M1138.97 309.366C1144.74 308.679 1153.38 306.507 1163.68 309.366C1169.61 311.012 1172.73 313.071 1173.56 313.895" stroke="#00BDAF" stroke-width="2" stroke-linecap="round" stroke-linejoin="round"/>
<path d="M1169.26 311.196C1170.49 310.373 1186.73 294.132 1192.09 289.191C1197.44 284.251 1199.5 281.368 1203.61 284.662C1207.73 287.956 1201.97 318.012 1201.56 322.129C1201.14 326.247 1198.67 331.187 1199.5 333.246C1200.32 335.305 1206.08 342.716 1204.44 352.185C1202.79 361.655 1196.2 367.831 1195.38 371.948C1194.56 376.066 1194.14 382.241 1188.38 382.653C1183.77 382.983 1181.24 380.869 1180.56 379.771C1179.87 380.869 1177.1 383.394 1171.5 384.712C1165.9 386.029 1154.34 380.32 1149.27 377.301C1154.89 383.202 1167.38 395.005 1172.32 395.005C1177.26 395.005 1179.87 394.182 1180.56 393.77" stroke="#00BDAF" stroke-width="2" stroke-linecap="round" stroke-linejoin="round"/>
<path d="M1162.44 383.888C1164.9 386.051 1169.62 389.804 1173.56 391.881M1173.56 391.881C1175.12 392.704 1176.55 393.264 1177.68 393.358C1182.62 393.77 1185.91 393.77 1188.38 391.299C1190.85 388.829 1187.14 384.712 1183.85 385.947C1180.56 387.182 1177.26 391.228 1173.56 391.881Z" stroke="#00BDAF" stroke-width="2" stroke-linecap="round" stroke-linejoin="round"/>
<path d="M1176.85 382.241C1177.81 383.476 1180.15 386.194 1181.79 387.182" stroke="#00BDAF" stroke-width="2" stroke-linecap="round" stroke-linejoin="round"/>
<path d="M1138.97 385.947C1144.46 387.045 1156.84 390.805 1162.44 397.063" stroke="#00BDAF" stroke-width="2" stroke-linecap="round" stroke-linejoin="round"/>
<path d="M1150.09 400.357C1149.4 399.534 1149.43 396.652 1155.03 391.711" stroke="#00BDAF" stroke-width="2" stroke-linecap="round" stroke-linejoin="round"/>
<path d="M1170.26 368.654C1162.03 364.812 1142.43 357.867 1129.91 360.832" stroke="#00BDAF" stroke-width="2" stroke-linecap="round" stroke-linejoin="round"/>
<path d="M1169.44 372.772C1163.13 372.085 1147.78 371.536 1136.91 374.83" stroke="#00BDAF" stroke-width="2" stroke-linecap="round" stroke-linejoin="round"/>
<path d="M1190.85 368.654C1197.71 364.949 1215.55 358.114 1232.02 360.42" stroke="#00BDAF" stroke-width="2" stroke-linecap="round" stroke-linejoin="round"/>
<path d="M1192.09 373.183C1198.12 372.222 1212.92 371.207 1223.79 374.83" stroke="#00BDAF" stroke-width="2" stroke-linecap="round" stroke-linejoin="round"/>
<path d="M917.875 390.887C918.204 389.57 916.229 387.182 914.993 385.947C914.993 385.947 914.171 390.064 914.582 390.887C914.993 391.711 917.546 392.205 917.875 390.887Z" stroke="#00BDAF" stroke-width="2" stroke-linecap="round" stroke-linejoin="round"/>
<path d="M924.088 390.887C923.759 389.57 925.734 387.182 926.97 385.947C926.97 385.947 927.792 390.064 927.381 390.887C926.97 391.711 924.418 392.205 924.088 390.887Z" stroke="#00BDAF" stroke-width="2" stroke-linecap="round" stroke-linejoin="round"/>
<path d="M1035.32 324.223C1036.7 325.733 1039.91 328.305 1043.86 328.305C1047.82 328.305 1051.05 323.707 1052.42 321.374" stroke="#00BDAF" stroke-width="2" stroke-linecap="round" stroke-linejoin="round"/>
<path d="M1070.63 323.776C1069.25 325.286 1065.52 328.305 1061.57 328.305C1057.62 328.305 1053.88 323.639 1052.51 321.306" stroke="#00BDAF" stroke-width="2" stroke-linecap="round" stroke-linejoin="round"/>
<path d="M1052.51 319.247V322.129" stroke="#00BDAF" stroke-width="2" stroke-linecap="round" stroke-linejoin="round"/>
<path d="M1187.14 316.777C1185.09 314.992 1180.56 311.342 1178.91 311.012C1176.85 310.601 1197.44 285.074 1201.14 287.132C1204.11 288.779 1199.36 312.248 1196.61 323.776" stroke="#00BDAF" stroke-width="2" stroke-linecap="round" stroke-linejoin="round"/>
<path d="M1164.09 345.597C1163.68 347.656 1160.79 351.444 1152.56 350.126C1144.33 348.809 1141.72 343.539 1141.44 341.068C1143.64 339.97 1149.92 338.433 1157.5 341.068C1165.08 343.703 1167.79 351.224 1168.21 354.655" stroke="#00BDAF" stroke-width="2" stroke-linecap="round" stroke-linejoin="round"/>
<path d="M1157.82 341.069C1157.5 344.148 1156.37 346.421 1155.03 346.421C1153.52 346.421 1152.27 343.52 1152.16 339.833" stroke="#00BDAF" stroke-width="2" stroke-linecap="round" stroke-linejoin="round"/>
<path d="M1192.5 335.143C1192.5 339.098 1191.21 342.304 1189.62 342.304C1188.46 342.304 1187.47 340.619 1187.01 338.186" stroke="#00BDAF" stroke-width="2" stroke-linecap="round" stroke-linejoin="round"/>
<path d="M1185.91 361.656C1184.54 359.048 1181.87 352.351 1182.2 346.422C1182.23 345.999 1182.28 345.588 1182.36 345.187M1182.36 345.187C1183.72 338.553 1192.66 334.87 1195.38 334.482C1198.26 334.07 1196.61 342.222 1191.26 344.363C1187.18 345.996 1183.54 345.598 1182.36 345.187Z" stroke="#00BDAF" stroke-width="2" stroke-linecap="round" stroke-linejoin="round"/>
</g>
<g filter="url(#filter3_d)">
<path d="M886.903 565.737L884.063 561.011C883.658 560.557 882.969 560.163 881.946 560.777C881.956 560.724 880.113 561.88 880.113 561.88L878.491 559.184L881.975 557.092L881.983 557.105C882.506 556.79 883.037 556.457 883.577 556.117L881.086 551.969L883.61 550.453L886.053 554.519C886.719 554.101 887.39 553.68 888.054 553.281L885.626 549.241L888.151 547.724L890.644 551.872C894.076 550.199 897.26 549.651 899.345 552.469C900.874 554.529 900.748 556.392 899.732 558.018C902.489 557.148 904.86 557.673 906.491 561.063C908.518 565.271 906.189 568.126 902.09 570.921L904.606 575.11L902.081 576.627L899.599 572.494C898.945 572.888 898.271 573.285 897.57 573.687L900.064 577.839L897.542 579.354L895.019 575.159C894.426 575.51 893.818 575.861 893.206 576.228L889.92 578.203L888.61 574.885C888.61 574.885 890.495 573.792 890.446 573.783C891.16 573.352 891.04 572.725 890.892 572.376L886.914 565.755M901.203 563.564C903.088 566.699 897.505 569.568 895.794 570.598L892.454 565.038C894.167 564.01 899.238 560.293 901.203 563.564ZM895.315 556.426C897.029 559.279 892.351 561.637 890.925 562.493L887.896 557.451C889.321 556.595 893.527 553.451 895.315 556.426Z" stroke="#DB2A7C" stroke-width="2" stroke-linecap="round" stroke-linejoin="round"/>
</g>
<g opacity="0.3">
<g filter="url(#filter4_d)">
<path d="M1337.15 356.616C1336 355.951 1334.7 355.759 1333.42 355.714C1332.34 355.676 1330.73 354.986 1330.73 353.025C1330.73 351.565 1331.91 350.389 1333.42 350.337C1334.7 350.292 1336 350.099 1337.15 349.434C1338.18 348.837 1339.04 347.979 1339.64 346.944C1340.23 345.91 1340.55 344.737 1340.55 343.543C1340.55 342.349 1340.23 341.176 1339.64 340.142C1339.04 339.108 1338.18 338.249 1337.15 337.652C1336.11 337.055 1334.94 336.741 1333.75 336.741C1332.55 336.741 1331.38 337.056 1330.35 337.653C1329.31 338.25 1328.45 339.108 1327.86 340.142C1327.26 341.177 1326.94 342.35 1326.94 343.544C1326.94 344.862 1327.41 346.074 1328.01 347.199C1328.51 348.145 1328.77 349.901 1327.04 350.897C1325.76 351.638 1324.16 351.169 1323.36 349.889C1322.68 348.807 1321.87 347.794 1320.73 347.134C1319.69 346.537 1318.52 346.223 1317.32 346.223C1316.13 346.223 1314.96 346.537 1313.92 347.134C1312.89 347.731 1312.03 348.59 1311.43 349.624C1310.84 350.658 1310.52 351.831 1310.52 353.025C1310.52 354.219 1310.84 355.392 1311.43 356.426C1312.03 357.46 1312.89 358.319 1313.92 358.916C1314.96 359.513 1316.13 359.827 1317.32 359.827C1318.52 359.827 1319.69 359.513 1320.73 358.916C1321.87 358.257 1322.68 357.244 1323.36 356.163C1323.91 355.276 1325.3 354.144 1327.04 355.153C1328.33 355.894 1328.72 357.516 1328.01 358.852C1327.41 359.977 1326.94 361.189 1326.94 362.507C1326.94 363.701 1327.26 364.874 1327.86 365.908C1328.45 366.942 1329.31 367.801 1330.35 368.398C1331.38 368.995 1332.55 369.309 1333.75 369.309C1334.94 369.309 1336.11 368.995 1337.15 368.398C1338.18 367.801 1339.04 366.942 1339.64 365.908C1340.23 364.874 1340.55 363.701 1340.55 362.507C1340.55 361.313 1340.23 360.14 1339.64 359.106C1339.04 358.072 1338.18 357.213 1337.15 356.616Z" stroke="#DB2A7C" stroke-width="2" stroke-linecap="round" stroke-linejoin="round"/>
</g>
</g>
<g opacity="0.3">
<g filter="url(#filter5_d)">
<path d="M772.368 341.272L771.867 340.407C771.449 340.65 771.264 341.156 771.427 341.611L772.368 341.272ZM779.227 337.295L780.164 336.945C780.061 336.669 779.841 336.453 779.564 336.353C779.287 336.254 778.98 336.282 778.725 336.43L779.227 337.295ZM777.306 355.014L778.172 355.514C778.319 355.26 778.346 354.953 778.247 354.676L777.306 355.014ZM774.845 359.277L773.979 358.777C773.8 359.087 773.8 359.468 773.979 359.777L774.845 359.277ZM777.665 364.162L776.799 364.662C776.978 364.972 777.308 365.162 777.665 365.162C778.022 365.162 778.352 364.972 778.531 364.662L777.665 364.162ZM779.47 361.037L780.411 360.699C780.279 360.332 779.947 360.075 779.559 360.041C779.171 360.006 778.798 360.199 778.604 360.537L779.47 361.037ZM783.559 372.418L782.618 372.756C782.718 373.035 782.937 373.255 783.215 373.357C783.493 373.459 783.802 373.432 784.059 373.284L783.559 372.418ZM801.159 362.256L801.659 363.122C801.889 362.989 802.057 362.771 802.125 362.515C802.194 362.259 802.158 361.986 802.025 361.756L801.159 362.256ZM797.088 355.205L797.954 354.705C797.678 354.227 797.067 354.063 796.588 354.339L797.088 355.205ZM787.895 360.513L786.958 360.863C787.061 361.138 787.28 361.355 787.556 361.454C787.833 361.553 788.14 361.526 788.395 361.379L787.895 360.513ZM784.705 351.969L783.839 351.469C783.69 351.727 783.664 352.039 783.768 352.319L784.705 351.969ZM787.654 346.862L788.52 347.362C788.698 347.052 788.698 346.671 788.52 346.362L787.654 346.862ZM784.833 341.977L785.699 341.477C785.521 341.167 785.19 340.977 784.833 340.977C784.476 340.977 784.146 341.167 783.967 341.477L784.833 341.977ZM782.49 346.035L781.553 346.385C781.688 346.748 782.021 347 782.407 347.032C782.793 347.064 783.162 346.87 783.356 346.535L782.49 346.035ZM772.87 342.137L779.729 338.16L778.725 336.43L771.867 340.407L772.87 342.137ZM778.247 354.676L773.31 340.934L771.427 341.611L776.365 355.352L778.247 354.676ZM775.711 359.777L778.172 355.514L776.44 354.514L773.979 358.777L775.711 359.777ZM778.531 363.662L775.711 358.777L773.979 359.777L776.799 364.662L778.531 363.662ZM778.604 360.537L776.799 363.662L778.531 364.662L780.336 361.537L778.604 360.537ZM784.5 372.079L780.411 360.699L778.529 361.375L782.618 372.756L784.5 372.079ZM800.659 361.39L783.059 371.552L784.059 373.284L801.659 363.122L800.659 361.39ZM796.222 355.705L800.293 362.756L802.025 361.756L797.954 354.705L796.222 355.705ZM788.395 361.379L797.588 356.071L796.588 354.339L787.395 359.647L788.395 361.379ZM783.768 352.319L786.958 360.863L788.831 360.163L785.642 351.619L783.768 352.319ZM786.788 346.362L783.839 351.469L785.571 352.469L788.52 347.362L786.788 346.362ZM783.967 342.477L786.788 347.362L788.52 346.362L785.699 341.477L783.967 342.477ZM783.356 346.535L785.699 342.477L783.967 341.477L781.624 345.535L783.356 346.535ZM778.29 337.644L781.553 346.385L783.427 345.685L780.164 336.945L778.29 337.644Z" fill="#DB2A7C"/>
</g>
</g>
<g filter="url(#filter6_d)">
<path d="M1228.15 235.601L1227.28 235.101C1227.01 235.579 1227.17 236.19 1227.65 236.467L1228.15 235.601ZM1229.37 233.485L1230.24 233.985C1230.51 233.507 1230.35 232.895 1229.87 232.619L1229.37 233.485ZM1233.79 238.857L1234.66 239.357C1234.93 238.879 1234.77 238.267 1234.29 237.991L1233.79 238.857ZM1230.13 245.203L1229.63 246.069C1229.86 246.202 1230.13 246.238 1230.39 246.169C1230.64 246.101 1230.86 245.933 1230.99 245.703L1230.13 245.203ZM1217.43 237.876L1217.93 237.01C1217.46 236.733 1216.85 236.897 1216.57 237.376L1217.43 237.876ZM1216.21 239.991L1215.35 239.491C1215.22 239.721 1215.18 239.994 1215.25 240.25C1215.32 240.506 1215.48 240.724 1215.71 240.857L1216.21 239.991ZM1224.68 244.876L1225.18 244.01L1224.68 244.876ZM1226.65 254.479L1225.79 253.979L1226.65 254.479ZM1225.02 257.299L1225.89 257.799L1225.02 257.299ZM1214.31 259.574L1214.81 258.708C1214.33 258.432 1213.72 258.596 1213.44 259.074L1214.31 259.574ZM1213.09 261.69L1212.59 262.556C1213.07 262.832 1213.68 262.668 1213.95 262.19L1213.09 261.69ZM1206.04 257.619L1205.17 257.119C1205.04 257.349 1205 257.622 1205.07 257.878C1205.14 258.134 1205.31 258.352 1205.54 258.485L1206.04 257.619ZM1207.26 255.503L1208.12 256.003C1208.4 255.525 1208.24 254.914 1207.76 254.637L1207.26 255.503ZM1202.32 252.654L1201.46 252.154C1201.18 252.632 1201.34 253.244 1201.82 253.52L1202.32 252.654ZM1205.99 246.308L1206.49 245.442C1206.26 245.309 1205.98 245.273 1205.73 245.342C1205.47 245.41 1205.25 245.578 1205.12 245.808L1205.99 246.308ZM1217.97 253.228L1217.47 254.094C1217.7 254.227 1217.98 254.263 1218.23 254.194C1218.49 254.126 1218.71 253.958 1218.84 253.728L1217.97 253.228ZM1219.19 251.113L1220.06 251.613C1220.34 251.135 1220.17 250.523 1219.69 250.247L1219.19 251.113ZM1221.1 231.53L1220.6 232.396C1221.08 232.672 1221.69 232.508 1221.96 232.03L1221.1 231.53ZM1222.32 229.414L1222.82 228.548C1222.34 228.272 1221.73 228.436 1221.45 228.914L1222.32 229.414ZM1229.02 236.101L1230.24 233.985L1228.51 232.985L1227.28 235.101L1229.02 236.101ZM1234.29 237.991L1228.65 234.735L1227.65 236.467L1233.29 239.723L1234.29 237.991ZM1230.99 245.703L1234.66 239.357L1232.92 238.357L1229.26 244.703L1230.99 245.703ZM1216.93 238.742L1229.63 246.069L1230.63 244.337L1217.93 237.01L1216.93 238.742ZM1217.08 240.491L1218.3 238.376L1216.57 237.376L1215.35 239.491L1217.08 240.491ZM1225.18 244.01L1216.71 239.125L1215.71 240.857L1224.18 245.742L1225.18 244.01ZM1227.52 254.979C1228.63 253.056 1229.08 250.923 1228.72 248.944C1228.36 246.945 1227.18 245.169 1225.18 244.01L1224.18 245.742C1225.67 246.607 1226.5 247.88 1226.75 249.3C1227.01 250.74 1226.7 252.397 1225.79 253.979L1227.52 254.979ZM1225.89 257.799L1227.52 254.979L1225.79 253.979L1224.16 256.799L1225.89 257.799ZM1215.22 261.255C1217.23 262.413 1219.35 262.545 1221.26 261.858C1223.16 261.179 1224.78 259.722 1225.89 257.799L1224.16 256.799C1223.24 258.382 1221.97 259.481 1220.59 259.976C1219.23 260.464 1217.72 260.388 1216.22 259.523L1215.22 261.255ZM1213.81 260.44L1215.22 261.255L1216.22 259.523L1214.81 258.708L1213.81 260.44ZM1213.44 259.074L1212.22 261.19L1213.95 262.19L1215.17 260.074L1213.44 259.074ZM1213.59 260.824L1206.54 256.753L1205.54 258.485L1212.59 262.556L1213.59 260.824ZM1206.9 258.119L1208.12 256.003L1206.39 255.003L1205.17 257.119L1206.9 258.119ZM1201.82 253.52L1206.76 256.37L1207.76 254.637L1202.82 251.788L1201.82 253.52ZM1205.12 245.808L1201.46 252.154L1203.19 253.154L1206.85 246.808L1205.12 245.808ZM1218.47 252.362L1206.49 245.442L1205.49 247.174L1217.47 254.094L1218.47 252.362ZM1218.33 250.613L1217.11 252.728L1218.84 253.728L1220.06 251.613L1218.33 250.613ZM1210.94 247.501L1218.69 251.979L1219.69 250.247L1211.94 245.769L1210.94 247.501ZM1207.89 236.125C1205.59 240.108 1206.95 245.201 1210.94 247.501L1211.94 245.769C1208.91 244.022 1207.87 240.152 1209.62 237.125L1207.89 236.125ZM1209.52 233.305L1207.89 236.125L1209.62 237.125L1211.25 234.305L1209.52 233.305ZM1220.89 230.256C1216.91 227.957 1211.82 229.322 1209.52 233.305L1211.25 234.305C1213 231.278 1216.87 230.241 1219.89 231.988L1220.89 230.256ZM1221.6 230.664L1220.89 230.256L1219.89 231.988L1220.6 232.396L1221.6 230.664ZM1221.45 228.914L1220.23 231.03L1221.96 232.03L1223.19 229.914L1221.45 228.914ZM1229.87 232.619L1222.82 228.548L1221.82 230.28L1228.87 234.351L1229.87 232.619Z" fill="#DB2A7C"/>
</g>
<defs>
<filter id="filter0_d" x="742.76" y="205.124" width="95.2383" height="68.679" filterUnits="userSpaceOnUse" color-interpolation-filters="sRGB">
<feFlood flood-opacity="0" result="BackgroundImageFix"/>
<feColorMatrix in="SourceAlpha" type="matrix" values="0 0 0 0 0 0 0 0 0 0 0 0 0 0 0 0 0 0 127 0"/>
<feOffset dy="4"/>
<feGaussianBlur stdDeviation="10"/>
<feColorMatrix type="matrix" values="0 0 0 0 0.858824 0 0 0 0 0.164706 0 0 0 0 0.486275 0 0 0 0.8 0"/>
<feBlend mode="normal" in2="BackgroundImageFix" result="effect1_dropShadow"/>
<feBlend mode="normal" in="SourceGraphic" in2="effect1_dropShadow" result="shape"/>
</filter>
<filter id="filter1_d" x="1283.64" y="503.563" width="84.7098" height="125.42" filterUnits="userSpaceOnUse" color-interpolation-filters="sRGB">
<feFlood flood-opacity="0" result="BackgroundImageFix"/>
<feColorMatrix in="SourceAlpha" type="matrix" values="0 0 0 0 0 0 0 0 0 0 0 0 0 0 0 0 0 0 127 0"/>
<feOffset dy="4"/>
<feGaussianBlur stdDeviation="10"/>
<feColorMatrix type="matrix" values="0 0 0 0 0.858824 0 0 0 0 0.164706 0 0 0 0 0.486275 0 0 0 0.8 0"/>
<feBlend mode="normal" in2="BackgroundImageFix" result="effect1_dropShadow"/>
<feBlend mode="normal" in="SourceGraphic" in2="effect1_dropShadow" result="shape"/>
</filter>
<filter id="filter2_d" x="842.528" y="201.68" width="424.148" height="416.533" filterUnits="userSpaceOnUse" color-interpolation-filters="sRGB">
<feFlood flood-opacity="0" result="BackgroundImageFix"/>
<feColorMatrix in="SourceAlpha" type="matrix" values="0 0 0 0 0 0 0 0 0 0 0 0 0 0 0 0 0 0 127 0"/>
<feOffset dy="4"/>
<feGaussianBlur stdDeviation="10"/>
<feColorMatrix type="matrix" values="0 0 0 0 0 0 0 0 0 0.741176 0 0 0 0 0.686275 0 0 0 0.8 0"/>
<feBlend mode="normal" in2="BackgroundImageFix" result="effect1_dropShadow"/>
<feBlend mode="normal" in="SourceGraphic" in2="effect1_dropShadow" result="shape"/>
</filter>
<filter id="filter3_d" x="850.972" y="525.629" width="83.784" height="83.784" filterUnits="userSpaceOnUse" color-interpolation-filters="sRGB">
<feFlood flood-opacity="0" result="BackgroundImageFix"/>
<feColorMatrix in="SourceAlpha" type="matrix" values="0 0 0 0 0 0 0 0 0 0 0 0 0 0 0 0 0 0 127 0"/>
<feOffset dy="4"/>
<feGaussianBlur stdDeviation="10"/>
<feColorMatrix type="matrix" values="0 0 0 0 0.858824 0 0 0 0 0.164706 0 0 0 0 0.486275 0 0 0 0.8 0"/>
<feBlend mode="normal" in2="BackgroundImageFix" result="effect1_dropShadow"/>
<feBlend mode="normal" in="SourceGraphic" in2="effect1_dropShadow" result="shape"/>
</filter>
<filter id="filter4_d" x="1289.52" y="319.741" width="72.0273" height="74.5679" filterUnits="userSpaceOnUse" color-interpolation-filters="sRGB">
<feFlood flood-opacity="0" result="BackgroundImageFix"/>
<feColorMatrix in="SourceAlpha" type="matrix" values="0 0 0 0 0 0 0 0 0 0 0 0 0 0 0 0 0 0 127 0"/>
<feOffset dy="4"/>
<feGaussianBlur stdDeviation="10"/>
<feColorMatrix type="matrix" values="0 0 0 0 0.858824 0 0 0 0 0.164706 0 0 0 0 0.486275 0 0 0 0.8 0"/>
<feBlend mode="normal" in2="BackgroundImageFix" result="effect1_dropShadow"/>
<feBlend mode="normal" in="SourceGraphic" in2="effect1_dropShadow" result="shape"/>
</filter>
<filter id="filter5_d" x="745.056" y="316.672" width="77.4699" height="81.5999" filterUnits="userSpaceOnUse" color-interpolation-filters="sRGB">
<feFlood flood-opacity="0" result="BackgroundImageFix"/>
<feColorMatrix in="SourceAlpha" type="matrix" values="0 0 0 0 0 0 0 0 0 0 0 0 0 0 0 0 0 0 127 0"/>
<feOffset dy="4"/>
<feGaussianBlur stdDeviation="10"/>
<feColorMatrix type="matrix" values="0 0 0 0 0.858824 0 0 0 0 0.164706 0 0 0 0 0.486275 0 0 0 0.8 0"/>
<feBlend mode="normal" in2="BackgroundImageFix" result="effect1_dropShadow"/>
<feBlend mode="normal" in="SourceGraphic" in2="effect1_dropShadow" result="shape"/>
</filter>
<filter id="filter6_d" x="1177.62" y="207.977" width="80.1695" height="83.1497" filterUnits="userSpaceOnUse" color-interpolation-filters="sRGB">
<feFlood flood-opacity="0" result="BackgroundImageFix"/>
<feColorMatrix in="SourceAlpha" type="matrix" values="0 0 0 0 0 0 0 0 0 0 0 0 0 0 0 0 0 0 127 0"/>
<feOffset dy="4"/>
<feGaussianBlur stdDeviation="10"/>
<feColorMatrix type="matrix" values="0 0 0 0 0.858824 0 0 0 0 0.164706 0 0 0 0 0.486275 0 0 0 0.8 0"/>
<feBlend mode="normal" in2="BackgroundImageFix" result="effect1_dropShadow"/>
<feBlend mode="normal" in="SourceGraphic" in2="effect1_dropShadow" result="shape"/>
</filter>
<linearGradient id="paint0_linear" x1="395.473" y1="400.788" x2="-158.273" y2="400.788" gradientUnits="userSpaceOnUse">
<stop stop-color="#DB2A7D" stop-opacity="0"/>
<stop offset="0.520833" stop-color="#DB2A7D"/>
<stop offset="1" stop-color="#DB2A7D" stop-opacity="0"/>
</linearGradient>
<linearGradient id="paint1_linear" x1="1760" y1="400" x2="-160" y2="400" gradientUnits="userSpaceOnUse">
<stop stop-color="#DB2A7D" stop-opacity="0"/>
<stop offset="0.489583" stop-color="#DB2A7D"/>
<stop offset="0.913706" stop-color="#DB2A7D" stop-opacity="0"/>
</linearGradient>
<linearGradient id="paint2_linear" x1="1760" y1="441.475" x2="-160" y2="441.475" gradientUnits="userSpaceOnUse">
<stop stop-color="#DB2A7D" stop-opacity="0"/>
<stop offset="0.489583" stop-color="#DB2A7D"/>
<stop offset="0.913706" stop-color="#DB2A7D" stop-opacity="0"/>
</linearGradient>
<linearGradient id="paint3_linear" x1="1760" y1="486.312" x2="-160" y2="486.313" gradientUnits="userSpaceOnUse">
<stop stop-color="#DB2A7D" stop-opacity="0"/>
<stop offset="0.489583" stop-color="#DB2A7D"/>
<stop offset="0.913706" stop-color="#DB2A7D" stop-opacity="0"/>
</linearGradient>
<linearGradient id="paint4_linear" x1="1760" y1="540.118" x2="-160" y2="540.118" gradientUnits="userSpaceOnUse">
<stop stop-color="#DB2A7D" stop-opacity="0"/>
<stop offset="0.489583" stop-color="#DB2A7D"/>
<stop offset="0.913706" stop-color="#DB2A7D" stop-opacity="0"/>
</linearGradient>
<linearGradient id="paint5_linear" x1="1760" y1="612.979" x2="-160" y2="612.979" gradientUnits="userSpaceOnUse">
<stop stop-color="#DB2A7D" stop-opacity="0"/>
<stop offset="0.489583" stop-color="#DB2A7D"/>
<stop offset="0.913706" stop-color="#DB2A7D" stop-opacity="0"/>
</linearGradient>
<linearGradient id="paint6_linear" x1="1760" y1="704.897" x2="-160" y2="704.897" gradientUnits="userSpaceOnUse">
<stop offset="0.640625" stop-color="#DB2A7D"/>
</linearGradient>
<linearGradient id="paint7_linear" x1="536.925" y1="400.55" x2="260.914" y2="400.55" gradientUnits="userSpaceOnUse">
<stop stop-color="#DB2A7D" stop-opacity="0"/>
<stop offset="0.520833" stop-color="#DB2A7D"/>
<stop offset="1" stop-color="#DB2A7D" stop-opacity="0"/>
</linearGradient>
<linearGradient id="paint8_linear" x1="678.385" y1="400.55" x2="536.93" y2="400.55" gradientUnits="userSpaceOnUse">
<stop stop-color="#DB2A7D" stop-opacity="0"/>
<stop offset="0.520833" stop-color="#DB2A7D"/>
<stop offset="1" stop-color="#DB2A7D" stop-opacity="0"/>
</linearGradient>
<linearGradient id="paint9_linear" x1="821.561" y1="400.55" x2="819.836" y2="400.55" gradientUnits="userSpaceOnUse">
<stop stop-color="#DB2A7D" stop-opacity="0"/>
<stop offset="0.520833" stop-color="#DB2A7D"/>
<stop offset="1" stop-color="#DB2A7D" stop-opacity="0"/>
</linearGradient>
<linearGradient id="paint10_linear" x1="961.294" y1="400.55" x2="1102.75" y2="400.55" gradientUnits="userSpaceOnUse">
<stop stop-color="#DB2A7D" stop-opacity="0"/>
<stop offset="0.520833" stop-color="#DB2A7D"/>
<stop offset="1" stop-color="#DB2A7D" stop-opacity="0"/>
</linearGradient>
<linearGradient id="paint11_linear" x1="1101.02" y1="400.55" x2="1377.04" y2="400.55" gradientUnits="userSpaceOnUse">
<stop stop-color="#DB2A7D" stop-opacity="0"/>
<stop offset="0.520833" stop-color="#DB2A7D"/>
<stop offset="1" stop-color="#DB2A7D" stop-opacity="0"/>
</linearGradient>
<linearGradient id="paint12_linear" x1="1206.25" y1="400.788" x2="1760" y2="400.788" gradientUnits="userSpaceOnUse">
<stop stop-color="#DB2A7D" stop-opacity="0"/>
<stop offset="0.520833" stop-color="#DB2A7D"/>
<stop offset="1" stop-color="#DB2A7D" stop-opacity="0"/>
</linearGradient>
</defs>
</svg>
