<svg width="768" height="459" viewBox="0 0 768 459" fill="none" xmlns="http://www.w3.org/2000/svg">
<mask id="mask0" mask-type="alpha" maskUnits="userSpaceOnUse" x="0" y="0" width="768" height="459">
<path d="M0 0H768V459H0V0Z" fill="#040027"/>
</mask>
<g mask="url(#mask0)">
<g opacity="0.5">
<path opacity="0.5" d="M131.172 221.743L-214.92 458.75" stroke="url(#paint0_linear)" stroke-width="1.35224"/>
<path opacity="0.1" d="M-216 221.25H984" stroke="url(#paint1_linear)" stroke-width="1.35224"/>
<path opacity="0.2" d="M-216 247.172H984" stroke="url(#paint2_linear)" stroke-width="1.35224"/>
<path opacity="0.3" d="M-216 275.196H984" stroke="url(#paint3_linear)" stroke-width="1.35224"/>
<path opacity="0.5" d="M-216 308.823H984" stroke="url(#paint4_linear)" stroke-width="1.35224"/>
<path opacity="0.5" d="M-216 354.362H984" stroke="url(#paint5_linear)" stroke-width="1.35224"/>
<path opacity="0.5" d="M-216 411.811H984" stroke="url(#paint6_linear)" stroke-width="1.35224"/>
<path d="M219.578 221.594L47.0713 458.75" stroke="url(#paint7_linear)" stroke-width="1.35224"/>
<path d="M307.991 221.594L219.581 458.75" stroke="url(#paint8_linear)" stroke-width="1.35224"/>
<path d="M397.475 221.594L396.397 458.75" stroke="url(#paint9_linear)" stroke-width="1.35224"/>
<path d="M484.809 221.594L573.219 458.75" stroke="url(#paint10_linear)" stroke-width="1.35224"/>
<path d="M572.14 221.594L744.646 458.75" stroke="url(#paint11_linear)" stroke-width="1.35224"/>
<path opacity="0.5" d="M637.908 221.743L984 458.75" stroke="url(#paint12_linear)" stroke-width="1.35224"/>
</g>
</g>
<g filter="url(#filter0_d)">
<path d="M205.391 130.219L209.73 125.88L215.805 131.955L225.495 122.264L227.52 124.289L235.042 116.768L236.922 118.648" stroke="#DB2A7C" stroke-width="2.66667" stroke-linecap="round" stroke-linejoin="round"/>
</g>
<path d="M217.569 151.915L192.517 108.523L242.622 108.523L217.569 151.915Z" stroke="#16B9AD" stroke-width="2.66667" stroke-linecap="round" stroke-linejoin="round"/>
<circle cx="284.209" cy="130.57" r="2.00418" fill="#00BDAF"/>
<circle cx="550.764" cy="130.57" r="2.00418" fill="#00BDAF"/>
<circle opacity="0.3" cx="284.209" cy="262.846" r="2.00418" fill="#00BDAF"/>
<circle opacity="0.3" cx="550.764" cy="262.846" r="2.00418" fill="#00BDAF"/>
<circle cx="217.57" cy="328.983" r="2.00418" fill="#00BDAF"/>
<path d="M529.468 338.002H572.057" stroke="#16B9AD" stroke-width="2.66667" stroke-linecap="round" stroke-linejoin="round"/>
<path d="M529.219 312.95L572.309 312.95" stroke="#16B9AD" stroke-width="2.66667" stroke-linecap="round" stroke-linejoin="round"/>
<circle cx="550.764" cy="325.476" r="25.0522" stroke="#16B9AD" stroke-width="2.66667" stroke-linecap="round" stroke-linejoin="round"/>
<g filter="url(#filter1_d)">
<ellipse cx="550.763" cy="325.476" rx="12.5261" ry="25.0522" stroke="#DB2A7C" stroke-width="2.66667" stroke-linecap="round" stroke-linejoin="round"/>
</g>
<path d="M525.711 325.476L575.815 325.476" stroke="#16B9AD" stroke-width="2.66667" stroke-linecap="round" stroke-linejoin="round"/>
<g filter="url(#filter2_d)">
<path d="M376.894 181.749C377.232 182.594 378.82 184.283 382.468 184.283C386.117 184.283 387.704 182.594 388.042 181.749" stroke="#00BDAF" stroke-width="1.33333" stroke-linecap="round" stroke-linejoin="round"/>
<path d="M375.374 177.442C371.996 178.624 364.631 181.698 362.199 184.536" stroke="#00BDAF" stroke-width="1.33333" stroke-linecap="round" stroke-linejoin="round"/>
<path d="M372.333 174.655C371.827 174.655 359.918 174.401 356.878 176.175" stroke="#00BDAF" stroke-width="1.33333" stroke-linecap="round" stroke-linejoin="round"/>
<path d="M403.498 184.536C400.964 182.594 394.833 178.455 390.576 177.442" stroke="#00BDAF" stroke-width="1.33333" stroke-linecap="round" stroke-linejoin="round"/>
<path d="M374.614 172.881C371.911 171.445 365.341 168.624 360.679 168.827" stroke="#00BDAF" stroke-width="1.33333" stroke-linecap="round" stroke-linejoin="round"/>
<path d="M304.43 206.073C306.711 204.468 314.768 201.259 328.754 201.259" stroke="#00BDAF" stroke-width="1.33333" stroke-linecap="round" stroke-linejoin="round"/>
<path d="M304.684 208.86C309.076 208.606 319.126 208.556 324.194 210.38" stroke="#00BDAF" stroke-width="1.33333" stroke-linecap="round" stroke-linejoin="round"/>
<path d="M290.748 206.326C286.441 204.299 275.495 200.448 266.171 201.258" stroke="#00BDAF" stroke-width="1.33333" stroke-linecap="round" stroke-linejoin="round"/>
<path d="M290.495 208.86C285.85 208.522 275.394 208.353 270.732 210.38" stroke="#00BDAF" stroke-width="1.33333" stroke-linecap="round" stroke-linejoin="round"/>
<path d="M294.042 200.498C295.14 198.894 297.133 194.924 296.323 191.884C295.512 188.843 290.411 186.394 287.961 185.55" stroke="#00BDAF" stroke-width="1.33333" stroke-linecap="round" stroke-linejoin="round"/>
<path d="M305.95 196.191C306.522 194.905 307.819 192.861 309.751 191.25M309.751 191.25C311.244 190.006 313.116 189.02 315.325 188.843C320.392 188.438 322.842 189.857 323.433 190.617C322.588 192.813 319.784 197.306 315.325 197.711C310.866 198.117 309.751 193.573 309.751 191.25Z" stroke="#00BDAF" stroke-width="1.33333" stroke-linecap="round" stroke-linejoin="round"/>
<path d="M287.708 185.55C286.779 188.083 285.782 193.607 289.228 195.431C292.674 197.255 295.562 194.333 296.576 192.644" stroke="#00BDAF" stroke-width="1.33333" stroke-linecap="round" stroke-linejoin="round"/>
<path d="M325.46 178.201C327.318 172.374 331.946 160.161 335.595 157.932C337.875 156.539 339.902 163.759 339.902 168.827" stroke="#00BDAF" stroke-width="1.33333" stroke-linecap="round" stroke-linejoin="round"/>
<path d="M318.112 175.415C321.406 171.361 331.541 154.639 335.848 153.372C340.155 152.105 343.449 167.307 343.196 174.148C342.993 179.621 342.267 186.563 341.929 189.35" stroke="#00BDAF" stroke-width="1.33333" stroke-linecap="round" stroke-linejoin="round"/>
<path d="M342.436 184.536L353.584 195.431" stroke="#00BDAF" stroke-width="1.33333" stroke-linecap="round" stroke-linejoin="round"/>
<path d="M360.679 239.011C358.398 232.676 353.838 217.322 353.838 206.579C353.838 193.151 351.811 136.142 351.811 134.622C351.811 133.102 348.516 116.692 352.317 114.353C354.414 113.063 357.856 115.91 360.931 119.285M413.886 186.31C412.703 180.313 410.845 174.908 409.832 159.706C409.258 151.095 410.845 130.822 410.845 128.035C410.845 125.247 412.365 113.06 408.058 114.353C402.991 115.873 392.603 130.822 391.336 131.328C390.069 131.835 385.255 130.062 381.708 130.062C378.161 130.062 375.12 131.075 371.826 131.328C368.533 131.582 368.786 129.301 367.266 127.274C366.519 126.279 363.896 122.537 360.931 119.285M367.772 138.423C367.519 134.194 365.796 124.446 360.931 119.285" stroke="#00BDAF" stroke-width="1.33333" stroke-linecap="round" stroke-linejoin="round"/>
<path d="M317.035 188.843C317.077 189.248 317.099 189.673 317.099 190.11C317.099 192.909 316.191 195.178 315.072 195.178C313.952 195.178 313.045 192.909 313.045 190.11C313.045 189.852 313.053 189.598 313.068 189.35" stroke="#00BDAF" stroke-width="1.33333" stroke-linecap="round" stroke-linejoin="round"/>
<path d="M358.904 156.413C362.367 154.724 370.559 152.714 375.626 158.187" stroke="#00BDAF" stroke-width="1.33333" stroke-linecap="round" stroke-linejoin="round"/>
<path d="M362.198 155.398C362.114 157.763 363.11 162.493 367.772 162.493C372.434 162.493 374.106 158.776 374.359 156.918" stroke="#00BDAF" stroke-width="1.33333" stroke-linecap="round" stroke-linejoin="round"/>
<path d="M370.305 155.246C370.305 157.709 369.284 159.706 368.025 159.706C366.766 159.706 365.745 157.709 365.745 155.246C365.745 155.019 365.753 154.796 365.77 154.577" stroke="#00BDAF" stroke-width="1.33333" stroke-linecap="round" stroke-linejoin="round"/>
<path d="M404.258 156.413C400.796 154.724 392.603 152.714 387.536 158.187" stroke="#00BDAF" stroke-width="1.33333" stroke-linecap="round" stroke-linejoin="round"/>
<path d="M400.963 155.398C401.048 157.763 400.051 162.493 395.389 162.493C390.727 162.493 389.056 158.776 388.803 156.918" stroke="#00BDAF" stroke-width="1.33333" stroke-linecap="round" stroke-linejoin="round"/>
<path d="M392.856 155.246C392.856 157.709 393.877 159.706 395.137 159.706C396.396 159.706 397.417 157.709 397.417 155.246C397.417 155.019 397.408 154.796 397.392 154.577" stroke="#00BDAF" stroke-width="1.33333" stroke-linecap="round" stroke-linejoin="round"/>
<path d="M386.171 173.222L387.283 167.814" stroke="#00BDAF" stroke-width="1.33333" stroke-linecap="round" stroke-linejoin="round"/>
<path d="M378.515 173.222L377.403 167.814" stroke="#00BDAF" stroke-width="1.33333" stroke-linecap="round" stroke-linejoin="round"/>
<path d="M405.018 168.574C401.556 168.743 393.87 169.79 390.83 172.628" stroke="#00BDAF" stroke-width="1.33333" stroke-linecap="round" stroke-linejoin="round"/>
<path d="M409.325 176.934C407.129 175.837 400.812 173.793 393.109 174.401" stroke="#00BDAF" stroke-width="1.33333" stroke-linecap="round" stroke-linejoin="round"/>
<path d="M360.932 138.423C361.439 138.169 363.719 135.889 367.266 134.875" stroke="#00BDAF" stroke-width="1.33333" stroke-linecap="round" stroke-linejoin="round"/>
<path d="M416.673 183.776L402.991 198.218" stroke="#00BDAF" stroke-width="1.33333" stroke-linecap="round" stroke-linejoin="round"/>
<path d="M398.683 125.753C397.417 128.709 394.934 135.28 395.136 137.915" stroke="#00BDAF" stroke-width="1.33333" stroke-linecap="round" stroke-linejoin="round"/>
<path d="M395.644 135.129C397.164 135.636 400.458 137.004 401.471 138.423" stroke="#00BDAF" stroke-width="1.33333" stroke-linecap="round" stroke-linejoin="round"/>
<path d="M315.578 219.754C319.97 223.893 330.476 236.477 337.368 253.706C344.26 270.935 347.165 280.163 347.841 282.95" stroke="#00BDAF" stroke-width="1.33333" stroke-linecap="round" stroke-linejoin="round"/>
<path d="M342.942 258.52C345.476 263.25 352.317 273.672 360.425 278.536" stroke="#00BDAF" stroke-width="1.33333" stroke-linecap="round" stroke-linejoin="round"/>
<path d="M322.673 216.714C320.815 217.221 316.39 218.741 313.552 220.768C310.005 223.302 308.991 225.329 305.191 225.329C301.39 225.329 299.363 225.582 297.843 222.795C296.627 220.566 298.35 216.968 299.363 215.448" stroke="#00BDAF" stroke-width="1.33333" stroke-linecap="round" stroke-linejoin="round"/>
<path d="M297.589 209.62V213.42" stroke="#00BDAF" stroke-width="1.33333" stroke-linecap="round" stroke-linejoin="round"/>
<path d="M297.336 220.261L297.822 220.746C298.322 221.247 299 221.527 299.707 221.527H304.303C305.032 221.527 305.727 221.229 306.236 220.707C308.218 218.675 311.457 215.492 313.045 214.433C314.869 213.217 316.339 212.406 316.845 212.153C315.916 213.082 312.741 215.143 307.471 215.953C302.201 216.764 298.518 214.433 297.336 213.166C297.252 214.095 296.272 215.801 293.029 215.193C288.975 214.433 288.468 211.393 287.455 206.832C286.441 202.271 281.627 198.471 282.387 192.897C283.147 187.323 286.441 186.309 286.188 183.015C285.934 179.721 282.134 168.573 283.147 158.692C284.161 148.81 286.695 152.357 295.563 161.479C302.657 168.776 305.106 170.6 305.444 170.6" stroke="#00BDAF" stroke-width="1.33333" stroke-linecap="round" stroke-linejoin="round"/>
<path d="M301.136 172.881C303.501 171.699 309.345 169.283 313.805 169.08C318.264 168.878 321.406 168.996 322.419 169.08" stroke="#00BDAF" stroke-width="1.33333" stroke-linecap="round" stroke-linejoin="round"/>
<path d="M297.843 170.854C296.407 171.784 293.383 173.794 292.775 174.402" stroke="#00BDAF" stroke-width="1.33333" stroke-linecap="round" stroke-linejoin="round"/>
<path d="M293.442 206.354C293.442 205.307 294.29 204.459 295.337 204.459H299.842C300.888 204.459 301.737 205.307 301.737 206.354V206.461C301.228 207.807 299.939 208.7 298.497 208.7H297.589H296.682C295.24 208.7 293.951 207.807 293.442 206.461V206.354Z" stroke="#00BDAF" stroke-width="1.33333" stroke-linecap="round" stroke-linejoin="round"/>
<path d="M379.081 173.452C379.081 172.665 379.719 172.028 380.506 172.028H384.431C385.218 172.028 385.856 172.665 385.856 173.452V173.519C385.439 174.565 384.426 175.255 383.296 175.255H382.468H381.641C380.511 175.255 379.498 174.565 379.081 173.519V173.452Z" stroke="#00BDAF" stroke-width="1.33333" stroke-linecap="round" stroke-linejoin="round"/>
<path d="M458.132 206.39C458.132 205.603 458.77 204.965 459.557 204.965H463.483C464.269 204.965 464.907 205.603 464.907 206.39V206.457C464.491 207.503 463.477 208.193 462.347 208.193H461.52H460.692C459.562 208.193 458.549 207.503 458.132 206.457V206.39Z" stroke="#00BDAF" stroke-width="1.33333" stroke-linecap="round" stroke-linejoin="round"/>
<path d="M297.844 171.108C294.634 165.618 287.759 154.841 285.935 155.652C283.655 156.665 285.428 175.161 287.962 178.455" stroke="#00BDAF" stroke-width="1.33333" stroke-linecap="round" stroke-linejoin="round"/>
<path d="M325.967 177.188C327.487 178.624 331.034 181.698 333.061 182.509" stroke="#00BDAF" stroke-width="1.33333" stroke-linecap="round" stroke-linejoin="round"/>
<path d="M471.908 286.391C472.414 286.898 487.616 270.176 487.616 255.227C487.616 240.278 468.107 230.397 446.317 236.984C424.527 243.572 391.336 275.496 371.32 285.631C351.303 295.766 325.206 303.114 308.991 292.472C292.775 281.831 292.522 264.855 298.096 263.588C303.67 262.321 307.977 283.604 332.047 284.618C356.118 285.631 374.107 270.936 375.627 270.176C377.147 269.415 425.794 224.822 453.918 223.555C482.042 222.289 498.258 233.944 501.045 255.227C503.832 276.51 486.096 297.539 477.482 304.887C470.59 310.765 467.854 312.404 467.347 312.488" stroke="#00BDAF" stroke-width="1.33333" stroke-linecap="round" stroke-linejoin="round"/>
<path d="M446.57 236.73C448.766 239.939 454.171 247.777 458.225 253.452C463.292 260.547 471.147 270.935 471.907 287.15C472.667 303.366 465.826 315.021 464.306 317.048C462.786 319.075 463.546 320.342 464.306 321.609C465.066 322.876 466.586 324.142 463.799 326.423C461.012 328.703 439.982 336.557 430.861 336.811C421.74 337.064 422.499 335.291 422.246 333.517C421.886 330.983 424.275 329.463 426.047 329.463" stroke="#00BDAF" stroke-width="1.33333" stroke-linecap="round" stroke-linejoin="round"/>
<path d="M422.754 335.545C420.98 335.798 417.433 335.393 417.433 331.744C417.433 328.096 420.305 327.184 421.74 327.184" stroke="#00BDAF" stroke-width="1.33333" stroke-linecap="round" stroke-linejoin="round"/>
<path d="M417.686 334.024C416.334 334.024 413.784 333.112 414.392 329.464C415.152 324.903 421.234 325.663 424.021 325.41C426.251 325.207 433.902 325.41 438.463 323.889" stroke="#00BDAF" stroke-width="1.33333" stroke-linecap="round" stroke-linejoin="round"/>
<path d="M439.225 324.396C433.735 321.187 422.097 312.538 419.462 303.62C416.168 292.472 418.447 285.884 427.57 277.016C435.695 269.118 439.985 266.543 440.998 266.121" stroke="#00BDAF" stroke-width="1.33333" stroke-linecap="round" stroke-linejoin="round"/>
<path d="M419.206 265.614C419.037 272.033 417.23 287.86 411.352 299.819C404.004 314.768 394.123 333.264 392.096 336.304C390.069 339.345 388.295 343.145 383.734 344.159C379.174 345.172 377.907 343.906 377.654 341.879C377.451 340.257 378.751 338.331 379.427 337.571" stroke="#00BDAF" stroke-width="1.33333" stroke-linecap="round" stroke-linejoin="round"/>
<path d="M378.414 343.906C376.894 344.243 373.802 344.21 373.6 341.372C373.397 338.534 375.035 336.811 375.88 336.304" stroke="#00BDAF" stroke-width="1.33333" stroke-linecap="round" stroke-linejoin="round"/>
<path d="M374.106 342.892C372.332 343.145 369.14 342.639 370.559 338.585C372.332 333.517 379.934 333.011 381.201 331.744C382.468 330.477 388.549 316.542 389.816 310.967C391.083 305.393 392.856 293.992 392.856 286.137C392.856 279.854 392.856 273.722 392.856 271.442M391.843 237.237L392.413 256.493M369.293 286.897C362.536 297.454 348.212 319.582 344.969 323.636C340.915 328.703 335.595 336.304 332.301 337.065C329.007 337.825 326.98 337.318 326.473 334.531C326.068 332.301 327.656 331.068 328.5 330.73" stroke="#00BDAF" stroke-width="1.33333" stroke-linecap="round" stroke-linejoin="round"/>
<path d="M327.484 336.558C326.217 336.896 322.988 337.065 322.418 334.785C321.659 331.744 323.852 330.646 325.203 329.464" stroke="#00BDAF" stroke-width="1.33333" stroke-linecap="round" stroke-linejoin="round"/>
<path d="M322.673 335.798C321.238 335.967 319.485 335.51 319.886 331.491C320.392 326.424 330.527 325.917 332.301 324.397C334.074 322.876 338.888 315.275 340.915 310.968C342.537 307.522 345.814 298.891 347.249 295.006M370.306 286.138C376.387 289.178 389.258 295.411 392.096 296.019" stroke="#00BDAF" stroke-width="1.33333" stroke-linecap="round" stroke-linejoin="round"/>
<path d="M369.04 286.898C367.942 289.178 367.368 295.259 373.854 301.34C380.34 307.421 386.86 311.306 389.309 312.488" stroke="#00BDAF" stroke-width="1.33333" stroke-linecap="round" stroke-linejoin="round"/>
<path d="M400.458 321.102C402.822 320.764 409.123 320.291 415.406 321.102C421.69 321.913 424.95 324.311 425.795 325.409" stroke="#00BDAF" stroke-width="1.33333" stroke-linecap="round" stroke-linejoin="round"/>
<path d="M411.605 320.849C410.845 321.778 408.159 323.94 403.497 325.156C398.835 326.372 397.163 327.014 396.909 327.183M371.319 322.876C369.798 322.2 366.505 322.876 366.505 325.916C366.504 331.894 378.445 329.905 382.467 329.646M388.041 316.035C385.339 316.711 378.514 318.163 372.839 318.569C365.745 319.075 362.704 318.315 360.931 320.849C359.157 323.383 361.437 325.663 362.704 326.423" stroke="#00BDAF" stroke-width="1.33333" stroke-linecap="round" stroke-linejoin="round"/>
<path d="M367.012 321.102C365.745 321.102 363.11 321.71 362.705 324.143C362.198 327.183 364.479 328.45 367.012 328.45" stroke="#00BDAF" stroke-width="1.33333" stroke-linecap="round" stroke-linejoin="round"/>
<path d="M293.725 188.59C293.767 188.914 293.789 189.253 293.789 189.603C293.789 191.842 292.881 193.657 291.762 193.657C290.642 193.657 289.735 191.842 289.735 189.603C289.735 188.392 290 187.306 290.421 186.563" stroke="#00BDAF" stroke-width="1.33333" stroke-linecap="round" stroke-linejoin="round"/>
<path d="M417.687 188.337C416.589 183.945 414.85 172.983 416.674 164.267C418.954 153.372 423.007 151.598 426.048 155.652C429.088 159.706 433.396 167.814 437.449 171.868C440.693 175.111 442.517 176.597 443.024 176.935" stroke="#00BDAF" stroke-width="1.33333" stroke-linecap="round" stroke-linejoin="round"/>
<path d="M433.142 177.442C431.369 179.046 427.467 182.408 426.048 183.016" stroke="#00BDAF" stroke-width="1.33333" stroke-linecap="round" stroke-linejoin="round"/>
<path d="M433.902 179.975C432.551 174.148 428.936 161.935 425.287 159.706C420.727 156.919 419.46 163.506 419.207 170.854" stroke="#00BDAF" stroke-width="1.33333" stroke-linecap="round" stroke-linejoin="round"/>
<path d="M435.676 169.841C439.223 169.418 444.544 168.081 450.878 169.841C454.527 170.854 456.452 172.121 456.959 172.628" stroke="#00BDAF" stroke-width="1.33333" stroke-linecap="round" stroke-linejoin="round"/>
<path d="M454.313 170.967C455.073 170.46 465.066 160.466 468.36 157.425C471.654 154.385 472.921 152.611 475.455 154.638C477.988 156.665 474.441 175.161 474.188 177.695C473.934 180.229 472.414 183.269 472.921 184.536C473.428 185.803 476.975 190.364 475.961 196.191C474.948 202.019 470.894 205.819 470.387 208.353C469.88 210.887 469.627 214.687 466.08 214.941C463.242 215.143 461.688 213.843 461.266 213.167C460.844 213.843 459.138 215.397 455.692 216.207C452.246 217.018 445.135 213.505 442.01 211.647C445.472 215.278 453.158 222.542 456.198 222.542C459.239 222.542 460.844 222.035 461.266 221.782" stroke="#00BDAF" stroke-width="1.33333" stroke-linecap="round" stroke-linejoin="round"/>
<path d="M450.118 215.7C451.63 217.031 454.537 219.341 456.959 220.619M456.959 220.619C457.919 221.126 458.802 221.47 459.493 221.528C462.533 221.781 464.56 221.781 466.08 220.261C467.601 218.741 465.32 216.207 463.293 216.967C461.266 217.727 459.239 220.217 456.959 220.619Z" stroke="#00BDAF" stroke-width="1.33333" stroke-linecap="round" stroke-linejoin="round"/>
<path d="M458.986 214.687C459.577 215.447 461.013 217.119 462.026 217.727" stroke="#00BDAF" stroke-width="1.33333" stroke-linecap="round" stroke-linejoin="round"/>
<path d="M435.676 216.967C439.054 217.643 446.672 219.957 450.118 223.808" stroke="#00BDAF" stroke-width="1.33333" stroke-linecap="round" stroke-linejoin="round"/>
<path d="M442.517 225.835C442.095 225.328 442.112 223.555 445.557 220.514" stroke="#00BDAF" stroke-width="1.33333" stroke-linecap="round" stroke-linejoin="round"/>
<path d="M454.932 206.326C449.864 203.961 437.804 199.687 430.102 201.512" stroke="#00BDAF" stroke-width="1.33333" stroke-linecap="round" stroke-linejoin="round"/>
<path d="M454.425 208.859C450.54 208.437 441.098 208.099 434.409 210.126" stroke="#00BDAF" stroke-width="1.33333" stroke-linecap="round" stroke-linejoin="round"/>
<path d="M467.601 206.326C471.823 204.046 482.803 199.84 492.938 201.259" stroke="#00BDAF" stroke-width="1.33333" stroke-linecap="round" stroke-linejoin="round"/>
<path d="M468.361 209.113C472.077 208.522 481.181 207.897 487.87 210.127" stroke="#00BDAF" stroke-width="1.33333" stroke-linecap="round" stroke-linejoin="round"/>
<path d="M299.616 220.007C299.818 219.197 298.603 217.727 297.842 216.967C297.842 216.967 297.337 219.501 297.589 220.007C297.842 220.514 299.413 220.818 299.616 220.007Z" stroke="#00BDAF" stroke-width="1.33333" stroke-linecap="round" stroke-linejoin="round"/>
<path d="M303.439 220.007C303.236 219.197 304.452 217.727 305.212 216.967C305.212 216.967 305.718 219.501 305.465 220.007C305.212 220.514 303.642 220.818 303.439 220.007Z" stroke="#00BDAF" stroke-width="1.33333" stroke-linecap="round" stroke-linejoin="round"/>
<path d="M371.892 178.983C372.737 179.912 374.715 181.495 377.147 181.495C379.58 181.495 381.569 178.665 382.414 177.23" stroke="#00BDAF" stroke-width="1.33333" stroke-linecap="round" stroke-linejoin="round"/>
<path d="M393.616 178.708C392.772 179.637 390.474 181.496 388.042 181.496C385.61 181.496 383.313 178.624 382.468 177.188" stroke="#00BDAF" stroke-width="1.33333" stroke-linecap="round" stroke-linejoin="round"/>
<path d="M382.468 175.921V177.695" stroke="#00BDAF" stroke-width="1.33333" stroke-linecap="round" stroke-linejoin="round"/>
<path d="M465.32 174.401C464.053 173.303 461.266 171.056 460.252 170.854C458.986 170.6 471.654 154.891 473.934 156.158C475.759 157.172 472.837 171.614 471.148 178.708" stroke="#00BDAF" stroke-width="1.33333" stroke-linecap="round" stroke-linejoin="round"/>
<path d="M451.132 192.137C450.878 193.404 449.105 195.735 444.037 194.924C438.97 194.114 437.365 190.87 437.196 189.35C438.548 188.675 442.416 187.729 447.078 189.35C451.74 190.972 453.412 195.6 453.665 197.711" stroke="#00BDAF" stroke-width="1.33333" stroke-linecap="round" stroke-linejoin="round"/>
<path d="M447.273 189.35C447.075 191.245 446.382 192.644 445.557 192.644C444.625 192.644 443.861 190.859 443.789 188.59" stroke="#00BDAF" stroke-width="1.33333" stroke-linecap="round" stroke-linejoin="round"/>
<path d="M468.614 185.704C468.614 188.137 467.82 190.11 466.841 190.11C466.131 190.11 465.518 189.074 465.235 187.577" stroke="#00BDAF" stroke-width="1.33333" stroke-linecap="round" stroke-linejoin="round"/>
<path d="M464.56 202.019C463.715 200.414 462.077 196.292 462.279 192.644C462.294 192.384 462.327 192.131 462.378 191.884M462.378 191.884C463.212 187.802 468.715 185.535 470.388 185.296C472.161 185.043 471.148 190.059 467.854 191.377C465.343 192.381 463.105 192.137 462.378 191.884Z" stroke="#00BDAF" stroke-width="1.33333" stroke-linecap="round" stroke-linejoin="round"/>
</g>
<g filter="url(#filter3_d)">
<path d="M280.556 327.607L278.808 324.698C278.559 324.419 278.134 324.176 277.505 324.554C277.511 324.522 276.377 325.233 276.377 325.233L275.379 323.574L277.523 322.287L277.528 322.294C277.85 322.101 278.176 321.896 278.509 321.687L276.976 319.134L278.529 318.201L280.032 320.703C280.442 320.446 280.855 320.187 281.263 319.941L279.77 317.455L281.324 316.522L282.858 319.075C284.969 318.045 286.929 317.707 288.212 319.442C289.153 320.709 289.075 321.856 288.45 322.856C290.147 322.321 291.606 322.644 292.61 324.73C293.857 327.32 292.424 329.077 289.901 330.797L291.449 333.374L289.895 334.308L288.368 331.765C287.966 332.007 287.551 332.252 287.119 332.499L288.655 335.054L287.102 335.986L285.55 333.405C285.185 333.621 284.811 333.837 284.434 334.063L282.412 335.278L281.606 333.236C281.606 333.236 282.766 332.564 282.735 332.558C283.175 332.293 283.101 331.907 283.01 331.692L280.562 327.618M289.355 326.269C290.515 328.198 287.079 329.964 286.027 330.598L283.972 327.177C285.025 326.544 288.146 324.256 289.355 326.269ZM285.732 321.877C286.786 323.633 283.908 325.083 283.031 325.611L281.166 322.508C282.044 321.98 284.632 320.046 285.732 321.877Z" stroke="#DB2A7C" stroke-width="1.33333" stroke-linecap="round" stroke-linejoin="round"/>
</g>
<g opacity="0.3">
<g filter="url(#filter4_d)">
<path d="M557.629 198.918C556.921 198.509 556.123 198.39 555.332 198.362C554.669 198.339 553.68 197.914 553.68 196.708C553.68 195.809 554.409 195.086 555.333 195.053C556.123 195.026 556.921 194.907 557.629 194.498C558.266 194.131 558.794 193.602 559.162 192.966C559.529 192.33 559.722 191.608 559.722 190.873C559.722 190.138 559.529 189.416 559.162 188.78C558.794 188.144 558.266 187.615 557.629 187.248C556.993 186.88 556.271 186.687 555.536 186.687C554.802 186.687 554.08 186.88 553.443 187.248C552.807 187.615 552.279 188.144 551.911 188.78C551.544 189.416 551.351 190.138 551.351 190.873C551.351 191.684 551.639 192.43 552.007 193.123C552.317 193.705 552.473 194.785 551.412 195.398C550.622 195.854 549.636 195.566 549.144 194.778C548.728 194.112 548.226 193.489 547.523 193.083C546.887 192.715 546.165 192.522 545.43 192.522C544.695 192.522 543.973 192.715 543.337 193.083C542.701 193.45 542.172 193.979 541.805 194.615C541.438 195.251 541.244 195.973 541.244 196.708C541.244 197.443 541.438 198.165 541.805 198.801C542.172 199.437 542.701 199.966 543.337 200.333C543.973 200.7 544.695 200.894 545.43 200.894C546.165 200.894 546.887 200.7 547.523 200.333C548.226 199.927 548.728 199.304 549.143 198.639C549.485 198.093 550.337 197.397 551.412 198.018C552.2 198.473 552.444 199.471 552.007 200.294C551.639 200.986 551.351 201.732 551.351 202.543C551.351 203.278 551.544 203.999 551.911 204.636C552.279 205.272 552.807 205.801 553.444 206.168C554.08 206.535 554.802 206.729 555.537 206.729C556.271 206.729 556.993 206.535 557.629 206.168C558.266 205.801 558.794 205.272 559.162 204.636C559.529 203.999 559.722 203.278 559.722 202.543C559.722 201.808 559.529 201.086 559.162 200.45C558.794 199.814 558.266 199.285 557.629 198.918Z" stroke="#DB2A7C" stroke-width="1.33333" stroke-linecap="round" stroke-linejoin="round"/>
</g>
</g>
<g opacity="0.3">
<g filter="url(#filter5_d)">
<path d="M210.073 189.475L209.738 188.899C209.46 189.06 209.336 189.398 209.445 189.701L210.073 189.475ZM214.293 187.028L214.918 186.794C214.849 186.611 214.703 186.466 214.518 186.4C214.333 186.334 214.129 186.352 213.959 186.451L214.293 187.028ZM213.111 197.932L213.688 198.265C213.786 198.096 213.805 197.891 213.738 197.707L213.111 197.932ZM211.597 200.555L211.02 200.221C210.9 200.428 210.9 200.682 211.02 200.888L211.597 200.555ZM213.333 203.561L212.755 203.894C212.874 204.101 213.094 204.228 213.333 204.228C213.571 204.228 213.791 204.101 213.91 203.894L213.333 203.561ZM214.443 201.638L215.07 201.413C214.982 201.169 214.761 200.997 214.502 200.974C214.244 200.951 213.995 201.08 213.865 201.305L214.443 201.638ZM216.959 208.642L216.332 208.867C216.398 209.053 216.544 209.2 216.73 209.268C216.915 209.336 217.121 209.318 217.292 209.219L216.959 208.642ZM227.79 202.388L228.123 202.966C228.442 202.782 228.552 202.374 228.367 202.055L227.79 202.388ZM225.285 198.049L225.862 197.716C225.774 197.563 225.628 197.451 225.457 197.405C225.287 197.359 225.105 197.383 224.952 197.472L225.285 198.049ZM219.627 201.316L219.003 201.549C219.071 201.733 219.217 201.877 219.402 201.943C219.586 202.009 219.791 201.991 219.96 201.893L219.627 201.316ZM217.664 196.058L217.087 195.725C216.988 195.897 216.97 196.105 217.04 196.291L217.664 196.058ZM219.479 192.914L220.057 193.248C220.176 193.041 220.176 192.787 220.057 192.581L219.479 192.914ZM217.744 189.908L218.321 189.575C218.202 189.369 217.982 189.242 217.744 189.242C217.506 189.242 217.285 189.369 217.166 189.575L217.744 189.908ZM216.301 192.407L215.677 192.64C215.767 192.882 215.989 193.05 216.246 193.071C216.503 193.092 216.75 192.963 216.879 192.74L216.301 192.407ZM210.407 190.052L214.628 187.604L213.959 186.451L209.738 188.899L210.407 190.052ZM213.738 197.707L210.7 189.25L209.445 189.701L212.484 198.158L213.738 197.707ZM212.174 200.888L213.688 198.265L212.534 197.599L211.02 200.221L212.174 200.888ZM213.91 203.228L212.174 200.221L211.02 200.888L212.755 203.894L213.91 203.228ZM213.865 201.305L212.755 203.228L213.91 203.894L215.02 201.972L213.865 201.305ZM217.586 208.416L215.07 201.413L213.815 201.864L216.332 208.867L217.586 208.416ZM227.457 201.811L216.626 208.064L217.292 209.219L228.123 202.966L227.457 201.811ZM224.707 198.383L227.213 202.722L228.367 202.055L225.862 197.716L224.707 198.383ZM219.96 201.893L225.618 198.627L224.952 197.472L219.294 200.738L219.96 201.893ZM217.04 196.291L219.003 201.549L220.252 201.083L218.289 195.825L217.04 196.291ZM218.902 192.581L217.087 195.725L218.242 196.391L220.057 193.248L218.902 192.581ZM217.166 190.242L218.902 193.248L220.057 192.581L218.321 189.575L217.166 190.242ZM216.879 192.74L218.321 190.242L217.166 189.575L215.724 192.073L216.879 192.74ZM213.669 187.261L215.677 192.64L216.926 192.173L214.918 186.794L213.669 187.261Z" fill="#DB2A7C"/>
</g>
</g>
<g filter="url(#filter6_d)">
<path d="M490.555 124.447L489.978 124.114C489.889 124.267 489.865 124.449 489.911 124.62C489.957 124.79 490.069 124.936 490.222 125.024L490.555 124.447ZM491.307 123.145L491.884 123.479C491.972 123.326 491.996 123.144 491.95 122.973C491.905 122.802 491.793 122.656 491.64 122.568L491.307 123.145ZM494.026 126.451L494.603 126.784C494.788 126.465 494.678 126.058 494.359 125.874L494.026 126.451ZM491.771 130.356L491.438 130.934C491.591 131.022 491.773 131.046 491.944 131C492.115 130.954 492.26 130.843 492.349 130.69L491.771 130.356ZM483.961 125.847L484.294 125.27C484.141 125.181 483.959 125.157 483.788 125.203C483.618 125.249 483.472 125.36 483.384 125.514L483.961 125.847ZM483.209 127.149L482.632 126.815C482.448 127.134 482.557 127.542 482.876 127.726L483.209 127.149ZM488.416 130.155L488.083 130.732L488.416 130.155ZM482.905 139.701L483.238 139.124L482.905 139.701ZM482.037 139.2L482.37 138.623C482.052 138.439 481.644 138.548 481.46 138.867L482.037 139.2ZM481.286 140.502L480.952 141.079C481.271 141.263 481.679 141.154 481.863 140.835L481.286 140.502ZM476.946 137.996L476.369 137.663C476.281 137.816 476.257 137.998 476.303 138.169C476.348 138.34 476.46 138.485 476.613 138.574L476.946 137.996ZM477.698 136.695L478.275 137.028C478.364 136.875 478.388 136.693 478.342 136.522C478.296 136.352 478.184 136.206 478.031 136.117L477.698 136.695ZM474.66 134.941L474.083 134.608C473.995 134.761 473.971 134.943 474.016 135.114C474.062 135.284 474.174 135.43 474.327 135.518L474.66 134.941ZM476.915 131.036L477.248 130.459C476.93 130.274 476.522 130.384 476.338 130.703L476.915 131.036ZM484.292 135.295L483.958 135.872C484.277 136.056 484.685 135.947 484.869 135.628L484.292 135.295ZM485.043 133.993L485.621 134.326C485.805 134.007 485.695 133.6 485.377 133.416L485.043 133.993ZM478.62 125.077L479.197 125.411L478.62 125.077ZM479.622 123.342L479.044 123.008L479.622 123.342ZM485.782 121.691L486.115 121.114L485.782 121.691ZM486.216 121.942L485.883 122.519C486.036 122.608 486.218 122.631 486.388 122.586C486.559 122.54 486.705 122.428 486.793 122.275L486.216 121.942ZM486.967 120.64L487.301 120.063C486.982 119.879 486.574 119.988 486.39 120.307L486.967 120.64ZM491.132 124.78L491.884 123.479L490.729 122.812L489.978 124.114L491.132 124.78ZM494.359 125.874L490.888 123.87L490.222 125.024L493.693 127.028L494.359 125.874ZM492.349 130.69L494.603 126.784L493.449 126.118L491.194 130.023L492.349 130.69ZM483.628 126.424L491.438 130.934L492.105 129.779L484.294 125.27L483.628 126.424ZM483.787 127.482L484.538 126.18L483.384 125.514L482.632 126.815L483.787 127.482ZM488.75 129.578L483.543 126.571L482.876 127.726L488.083 130.732L488.75 129.578ZM490.21 136.398C490.898 135.206 491.179 133.881 490.956 132.649C490.731 131.404 489.998 130.298 488.75 129.578L488.083 130.732C488.992 131.257 489.489 132.027 489.644 132.886C489.802 133.759 489.613 134.766 489.056 135.731L490.21 136.398ZM489.208 138.133L490.21 136.398L489.056 135.731L488.054 137.467L489.208 138.133ZM482.572 140.278C483.819 140.999 485.144 141.081 486.335 140.654C487.513 140.231 488.52 139.325 489.208 138.133L488.054 137.467C487.496 138.432 486.719 139.099 485.884 139.399C485.063 139.694 484.147 139.648 483.238 139.124L482.572 140.278ZM481.704 139.777L482.572 140.278L483.238 139.124L482.37 138.623L481.704 139.777ZM481.46 138.867L480.708 140.168L481.863 140.835L482.614 139.533L481.46 138.867ZM481.619 139.924L477.28 137.419L476.613 138.574L480.952 141.079L481.619 139.924ZM477.524 138.33L478.275 137.028L477.121 136.362L476.369 137.663L477.524 138.33ZM474.327 135.518L477.365 137.272L478.031 136.117L474.994 134.364L474.327 135.518ZM476.338 130.703L474.083 134.608L475.238 135.274L477.492 131.369L476.338 130.703ZM484.625 134.717L477.248 130.459L476.582 131.613L483.958 135.872L484.625 134.717ZM484.466 133.66L483.714 134.961L484.869 135.628L485.621 134.326L484.466 133.66ZM479.937 131.815L484.71 134.57L485.377 133.416L480.604 130.66L479.937 131.815ZM478.042 124.744C476.613 127.22 477.461 130.385 479.937 131.815L480.604 130.66C478.766 129.599 478.136 127.249 479.197 125.411L478.042 124.744ZM479.044 123.008L478.042 124.744L479.197 125.411L480.199 123.675L479.044 123.008ZM486.115 121.114C483.639 119.684 480.474 120.533 479.044 123.008L480.199 123.675C481.26 121.837 483.61 121.207 485.448 122.268L486.115 121.114ZM486.549 121.364L486.115 121.114L485.448 122.268L485.883 122.519L486.549 121.364ZM486.39 120.307L485.639 121.608L486.793 122.275L487.545 120.973L486.39 120.307ZM491.64 122.568L487.301 120.063L486.634 121.217L490.973 123.723L491.64 122.568Z" fill="#DB2A7C"/>
</g>
<defs>
<filter id="filter0_d" x="190.724" y="104.768" width="60.8646" height="44.5204" filterUnits="userSpaceOnUse" color-interpolation-filters="sRGB">
<feFlood flood-opacity="0" result="BackgroundImageFix"/>
<feColorMatrix in="SourceAlpha" type="matrix" values="0 0 0 0 0 0 0 0 0 0 0 0 0 0 0 0 0 0 127 0"/>
<feOffset dy="2.66667"/>
<feGaussianBlur stdDeviation="6.66667"/>
<feColorMatrix type="matrix" values="0 0 0 0 0.858824 0 0 0 0 0.164706 0 0 0 0 0.486275 0 0 0 0.8 0"/>
<feBlend mode="normal" in2="BackgroundImageFix" result="effect1_dropShadow"/>
<feBlend mode="normal" in="SourceGraphic" in2="effect1_dropShadow" result="shape"/>
</filter>
<filter id="filter1_d" x="523.57" y="288.424" width="54.3855" height="79.4377" filterUnits="userSpaceOnUse" color-interpolation-filters="sRGB">
<feFlood flood-opacity="0" result="BackgroundImageFix"/>
<feColorMatrix in="SourceAlpha" type="matrix" values="0 0 0 0 0 0 0 0 0 0 0 0 0 0 0 0 0 0 127 0"/>
<feOffset dy="2.66667"/>
<feGaussianBlur stdDeviation="6.66667"/>
<feColorMatrix type="matrix" values="0 0 0 0 0.858824 0 0 0 0 0.164706 0 0 0 0 0.486275 0 0 0 0.8 0"/>
<feBlend mode="normal" in2="BackgroundImageFix" result="effect1_dropShadow"/>
<feBlend mode="normal" in="SourceGraphic" in2="effect1_dropShadow" result="shape"/>
</filter>
<filter id="filter2_d" x="252.172" y="102.701" width="263.168" height="258.481" filterUnits="userSpaceOnUse" color-interpolation-filters="sRGB">
<feFlood flood-opacity="0" result="BackgroundImageFix"/>
<feColorMatrix in="SourceAlpha" type="matrix" values="0 0 0 0 0 0 0 0 0 0 0 0 0 0 0 0 0 0 127 0"/>
<feOffset dy="2.66667"/>
<feGaussianBlur stdDeviation="6.66667"/>
<feColorMatrix type="matrix" values="0 0 0 0 0 0 0 0 0 0.741176 0 0 0 0 0.686275 0 0 0 0.8 0"/>
<feBlend mode="normal" in2="BackgroundImageFix" result="effect1_dropShadow"/>
<feBlend mode="normal" in="SourceGraphic" in2="effect1_dropShadow" result="shape"/>
</filter>
<filter id="filter3_d" x="257.346" y="302.032" width="53.7557" height="53.7557" filterUnits="userSpaceOnUse" color-interpolation-filters="sRGB">
<feFlood flood-opacity="0" result="BackgroundImageFix"/>
<feColorMatrix in="SourceAlpha" type="matrix" values="0 0 0 0 0 0 0 0 0 0 0 0 0 0 0 0 0 0 127 0"/>
<feOffset dy="2.66667"/>
<feGaussianBlur stdDeviation="6.66667"/>
<feColorMatrix type="matrix" values="0 0 0 0 0.858824 0 0 0 0 0.164706 0 0 0 0 0.486275 0 0 0 0.8 0"/>
<feBlend mode="normal" in2="BackgroundImageFix" result="effect1_dropShadow"/>
<feBlend mode="normal" in="SourceGraphic" in2="effect1_dropShadow" result="shape"/>
</filter>
<filter id="filter4_d" x="527.244" y="175.354" width="46.4783" height="48.0418" filterUnits="userSpaceOnUse" color-interpolation-filters="sRGB">
<feFlood flood-opacity="0" result="BackgroundImageFix"/>
<feColorMatrix in="SourceAlpha" type="matrix" values="0 0 0 0 0 0 0 0 0 0 0 0 0 0 0 0 0 0 127 0"/>
<feOffset dy="2.66667"/>
<feGaussianBlur stdDeviation="6.66667"/>
<feColorMatrix type="matrix" values="0 0 0 0 0.858824 0 0 0 0 0.164706 0 0 0 0 0.486275 0 0 0 0.8 0"/>
<feBlend mode="normal" in2="BackgroundImageFix" result="effect1_dropShadow"/>
<feBlend mode="normal" in="SourceGraphic" in2="effect1_dropShadow" result="shape"/>
</filter>
<filter id="filter5_d" x="192.17" y="173.446" width="49.8645" height="52.4063" filterUnits="userSpaceOnUse" color-interpolation-filters="sRGB">
<feFlood flood-opacity="0" result="BackgroundImageFix"/>
<feColorMatrix in="SourceAlpha" type="matrix" values="0 0 0 0 0 0 0 0 0 0 0 0 0 0 0 0 0 0 127 0"/>
<feOffset dy="2.66667"/>
<feGaussianBlur stdDeviation="6.66667"/>
<feColorMatrix type="matrix" values="0 0 0 0 0.858824 0 0 0 0 0.164706 0 0 0 0 0.486275 0 0 0 0.8 0"/>
<feBlend mode="normal" in2="BackgroundImageFix" result="effect1_dropShadow"/>
<feBlend mode="normal" in="SourceGraphic" in2="effect1_dropShadow" result="shape"/>
</filter>
<filter id="filter6_d" x="458.363" y="106.557" width="51.5262" height="53.3601" filterUnits="userSpaceOnUse" color-interpolation-filters="sRGB">
<feFlood flood-opacity="0" result="BackgroundImageFix"/>
<feColorMatrix in="SourceAlpha" type="matrix" values="0 0 0 0 0 0 0 0 0 0 0 0 0 0 0 0 0 0 127 0"/>
<feOffset dy="2.66667"/>
<feGaussianBlur stdDeviation="6.66667"/>
<feColorMatrix type="matrix" values="0 0 0 0 0.858824 0 0 0 0 0.164706 0 0 0 0 0.486275 0 0 0 0.8 0"/>
<feBlend mode="normal" in2="BackgroundImageFix" result="effect1_dropShadow"/>
<feBlend mode="normal" in="SourceGraphic" in2="effect1_dropShadow" result="shape"/>
</filter>
<linearGradient id="paint0_linear" x1="131.172" y1="221.743" x2="-214.92" y2="221.743" gradientUnits="userSpaceOnUse">
<stop stop-color="#DB2A7D" stop-opacity="0"/>
<stop offset="0.520833" stop-color="#DB2A7D"/>
<stop offset="1" stop-color="#DB2A7D" stop-opacity="0"/>
</linearGradient>
<linearGradient id="paint1_linear" x1="984" y1="221.25" x2="-216" y2="221.25" gradientUnits="userSpaceOnUse">
<stop stop-color="#DB2A7D" stop-opacity="0"/>
<stop offset="0.489583" stop-color="#DB2A7D"/>
<stop offset="0.913706" stop-color="#DB2A7D" stop-opacity="0"/>
</linearGradient>
<linearGradient id="paint2_linear" x1="984" y1="247.172" x2="-216" y2="247.172" gradientUnits="userSpaceOnUse">
<stop stop-color="#DB2A7D" stop-opacity="0"/>
<stop offset="0.489583" stop-color="#DB2A7D"/>
<stop offset="0.913706" stop-color="#DB2A7D" stop-opacity="0"/>
</linearGradient>
<linearGradient id="paint3_linear" x1="984" y1="275.196" x2="-216" y2="275.196" gradientUnits="userSpaceOnUse">
<stop stop-color="#DB2A7D" stop-opacity="0"/>
<stop offset="0.489583" stop-color="#DB2A7D"/>
<stop offset="0.913706" stop-color="#DB2A7D" stop-opacity="0"/>
</linearGradient>
<linearGradient id="paint4_linear" x1="984" y1="308.823" x2="-216" y2="308.823" gradientUnits="userSpaceOnUse">
<stop stop-color="#DB2A7D" stop-opacity="0"/>
<stop offset="0.489583" stop-color="#DB2A7D"/>
<stop offset="0.913706" stop-color="#DB2A7D" stop-opacity="0"/>
</linearGradient>
<linearGradient id="paint5_linear" x1="984" y1="354.362" x2="-216" y2="354.362" gradientUnits="userSpaceOnUse">
<stop stop-color="#DB2A7D" stop-opacity="0"/>
<stop offset="0.489583" stop-color="#DB2A7D"/>
<stop offset="0.913706" stop-color="#DB2A7D" stop-opacity="0"/>
</linearGradient>
<linearGradient id="paint6_linear" x1="984" y1="411.811" x2="-216" y2="411.811" gradientUnits="userSpaceOnUse">
<stop offset="0.640625" stop-color="#DB2A7D"/>
</linearGradient>
<linearGradient id="paint7_linear" x1="219.578" y1="221.594" x2="47.0713" y2="221.594" gradientUnits="userSpaceOnUse">
<stop stop-color="#DB2A7D" stop-opacity="0"/>
<stop offset="0.520833" stop-color="#DB2A7D"/>
<stop offset="1" stop-color="#DB2A7D" stop-opacity="0"/>
</linearGradient>
<linearGradient id="paint8_linear" x1="307.991" y1="221.594" x2="219.581" y2="221.594" gradientUnits="userSpaceOnUse">
<stop stop-color="#DB2A7D" stop-opacity="0"/>
<stop offset="0.520833" stop-color="#DB2A7D"/>
<stop offset="1" stop-color="#DB2A7D" stop-opacity="0"/>
</linearGradient>
<linearGradient id="paint9_linear" x1="397.475" y1="221.594" x2="396.397" y2="221.594" gradientUnits="userSpaceOnUse">
<stop stop-color="#DB2A7D" stop-opacity="0"/>
<stop offset="0.520833" stop-color="#DB2A7D"/>
<stop offset="1" stop-color="#DB2A7D" stop-opacity="0"/>
</linearGradient>
<linearGradient id="paint10_linear" x1="484.809" y1="221.594" x2="573.219" y2="221.594" gradientUnits="userSpaceOnUse">
<stop stop-color="#DB2A7D" stop-opacity="0"/>
<stop offset="0.520833" stop-color="#DB2A7D"/>
<stop offset="1" stop-color="#DB2A7D" stop-opacity="0"/>
</linearGradient>
<linearGradient id="paint11_linear" x1="572.14" y1="221.594" x2="744.646" y2="221.594" gradientUnits="userSpaceOnUse">
<stop stop-color="#DB2A7D" stop-opacity="0"/>
<stop offset="0.520833" stop-color="#DB2A7D"/>
<stop offset="1" stop-color="#DB2A7D" stop-opacity="0"/>
</linearGradient>
<linearGradient id="paint12_linear" x1="637.908" y1="221.743" x2="984" y2="221.743" gradientUnits="userSpaceOnUse">
<stop stop-color="#DB2A7D" stop-opacity="0"/>
<stop offset="0.520833" stop-color="#DB2A7D"/>
<stop offset="1" stop-color="#DB2A7D" stop-opacity="0"/>
</linearGradient>
</defs>
</svg>
