<?xml version="1.0" encoding="UTF-8"?>
<svg fill="none" viewBox="0 0 1600 828" xmlns="http://www.w3.org/2000/svg">
    <mask id="n" x="0" y="0" width="1600" height="828" mask-type="alpha" maskUnits="userSpaceOnUse">
        <path d="M0 0H1600V828H0V0Z" fill="#040027"/>
    </mask>
    <g mask="url(#n)">
        <g opacity=".5" stroke-width="2">
            <path d="m395.47 400.79-553.75 379.21" opacity=".5" stroke="url(#m)"/>
            <path d="m-160 400h1920" opacity=".1" stroke="url(#i)"/>
            <path d="m-160 441.48h1920" opacity=".2" stroke="url(#h)"/>
            <path d="m-160 486.31h1920" opacity=".3" stroke="url(#g)"/>
            <path d="m-160 540.12h1920" opacity=".5" stroke="url(#f)"/>
            <path d="m-160 612.98h1920" opacity=".5" stroke="url(#e)"/>
            <path d="m-160 704.9h1920" opacity=".5" stroke="url(#d)"/>
            <path d="M536.925 400.55L260.914 780" stroke="url(#c)"/>
            <path d="M678.385 400.55L536.93 780" stroke="url(#b)"/>
            <path d="m821.56 400.55-1.725 379.45" stroke="url(#a)"/>
            <path d="M961.294 400.55L1102.75 780" stroke="url(#l)"/>
            <path d="m1101 400.55 276.02 379.45" stroke="url(#k)"/>
            <path d="M1206.25 400.788L1760 780" opacity=".5" stroke="url(#j)"/>
        </g>
    </g>
    <g filter="url(#u)">
        <path d="m764.76 244.98 7.051-7.051 9.872 9.872 15.748-15.748 3.29 3.291 12.222-12.222 3.056 3.055" stroke="#DB2A7C" stroke-linecap="round" stroke-linejoin="round" stroke-width="4"/>
    </g>
    <path d="m784.55 280.24-40.71-70.512h81.42l-40.71 70.512z" stroke="#16B9AD" stroke-linecap="round" stroke-linejoin="round" stroke-width="4"/>
    <circle cx="892.84" cy="245.55" r="3.2568" fill="#00BDAF"/>
    <circle cx="1326" cy="245.55" r="3.2568" fill="#00BDAF"/>
    <circle cx="892.84" cy="460.5" r="3.2568" fill="#00BDAF" opacity=".3"/>
    <circle cx="1326" cy="460.5" r="3.2568" fill="#00BDAF" opacity=".3"/>
    <circle cx="784.55" cy="567.97" r="3.2568" fill="#00BDAF"/>
    <path d="m1291.4 582.63h69.21" stroke="#16B9AD" stroke-linecap="round" stroke-linejoin="round" stroke-width="4"/>
    <path d="m1291 541.92h70.02" stroke="#16B9AD" stroke-linecap="round" stroke-linejoin="round" stroke-width="4"/>
    <circle cx="1326" cy="562.27" r="40.71" stroke="#16B9AD" stroke-linecap="round" stroke-linejoin="round" stroke-width="4"/>
    <g filter="url(#t)">
        <ellipse cx="1326" cy="562.27" rx="20.355" ry="40.71" stroke="#DB2A7C" stroke-linecap="round" stroke-linejoin="round" stroke-width="4"/>
    </g>
    <path d="m1285.3 562.27h81.42" stroke="#16B9AD" stroke-linecap="round" stroke-linejoin="round" stroke-width="4"/>
    <g filter="url(#s)" stroke="#00BDAF" stroke-linecap="round" stroke-linejoin="round" stroke-width="2">
        <path d="m1043.4 328.72c0.55 1.372 3.13 4.117 9.06 4.117s8.51-2.745 9.06-4.117"/>
        <path d="m1041 321.72c-5.49 1.922-17.46 6.917-21.41 11.529"/>
        <path d="m1036 317.19c-0.82 0-20.17-0.411-25.11 2.471"/>
        <path d="m1086.7 333.25c-4.11-3.157-14.08-9.882-20.99-11.529"/>
        <path d="m1039.8 314.31c-4.39-2.334-15.07-6.917-22.65-6.588"/>
        <path d="m925.7 368.24c3.705-2.607 16.798-7.823 39.526-7.823"/>
        <path d="m926.11 372.77c7.136-0.412 23.468-0.494 31.702 2.47"/>
        <path d="m903.47 368.65c-7-3.294-24.786-9.552-39.938-8.234"/>
        <path d="m903.05 372.77c-7.548-0.549-24.539-0.824-32.115 2.47"/>
        <path d="m908.82 359.18c1.784-2.608 5.023-9.058 3.706-13.999-1.318-4.94-9.607-8.921-13.587-10.293"/>
        <path d="m928.17 352.19c0.929-2.091 3.037-5.412 6.176-8.029m0 0c2.426-2.023 5.468-3.624 9.058-3.912 8.235-0.658 12.215 1.647 13.175 2.883-1.372 3.568-5.929 10.869-13.175 11.528s-9.058-6.725-9.058-10.499z"/>
        <path d="m898.52 334.89c-1.509 4.117-3.129 13.093 2.471 16.057 5.599 2.965 10.293-1.784 11.94-4.529"/>
        <path d="m959.87 322.95c3.019-9.47 10.54-29.316 16.469-32.938 3.706-2.264 6.999 9.47 6.999 17.705"/>
        <path d="m947.93 318.42c5.352-6.588 21.822-33.762 28.821-35.82 6.999-2.059 12.352 22.645 11.94 33.761-0.329 8.893-1.51 20.175-2.059 24.704"/>
        <path d="m987.46 333.25 18.112 17.704"/>
        <path d="m1017.1 421.77c-3.7-10.293-11.11-35.244-11.11-52.701 0-21.822-3.3-114.46-3.3-116.93 0-2.471-5.351-29.137 0.83-32.938 3.4-2.097 9 2.531 13.99 8.014m86.05 108.92c-1.92-9.744-4.94-18.528-6.58-43.231-0.94-13.992 1.64-46.937 1.64-51.466s2.47-24.333-4.53-22.233c-8.23 2.47-25.11 26.762-27.17 27.585-2.06 0.824-9.88-2.058-15.64-2.058-5.77 0-10.71 1.647-16.06 2.058-5.35 0.412-4.94-3.294-7.41-6.587-1.22-1.617-5.48-7.698-10.3-12.984m11.12 31.1c-0.41-6.872-3.21-22.712-11.12-31.1"/>
        <path d="m946.18 340.24c0.068 0.658 0.104 1.348 0.104 2.059 0 4.548-1.475 8.234-3.294 8.234s-3.293-3.686-3.293-8.234c0-0.42 0.012-0.833 0.036-1.235"/>
        <path d="m1014.2 287.54c5.63-2.745 18.94-6.012 27.17 2.882"/>
        <path d="m1019.6 285.9c-0.13 3.843 1.48 11.529 9.06 11.529s10.29-6.039 10.7-9.058"/>
        <path d="m1032.8 285.65c0 4.002-1.66 7.247-3.71 7.247s-3.7-3.245-3.7-7.247c0-0.369 0.01-0.732 0.04-1.087"/>
        <path d="m1087.9 287.54c-5.63-2.745-18.94-6.011-27.18 2.882"/>
        <path d="m1082.6 285.9c0.13 3.843-1.49 11.529-9.06 11.529-7.58 0-10.29-6.039-10.71-9.058"/>
        <path d="m1069.4 285.65c0 4.002 1.66 7.247 3.71 7.247 2.04 0 3.7-3.245 3.7-7.247 0-0.369-0.01-0.732-0.04-1.087"/>
        <path d="m1058.5 314.86 1.8-8.788"/>
        <path d="m1046.1 314.86-1.81-8.788"/>
        <path d="m1089.2 307.31c-5.62 0.275-18.11 1.976-23.05 6.588"/>
        <path d="m1096.2 320.89c-3.56-1.784-13.83-5.105-26.35-4.117"/>
        <path d="m1017.5 258.31c0.83-0.412 4.53-4.118 10.3-5.765"/>
        <path d="m1108.1 332.01-22.23 23.468"/>
        <path d="m1078.9 237.72c-2.06 4.804-6.09 15.481-5.76 19.763"/>
        <path d="m1073.9 252.96c2.47 0.824 7.82 3.047 9.47 5.353"/>
        <path d="m943.82 390.48c7.136 6.724 24.209 27.174 35.408 55.171s15.92 42.993 17.018 47.522"/>
        <path d="m988.28 453.47c4.117 7.685 15.239 24.621 28.409 32.526"/>
        <path d="m955.34 385.54c-3.019 0.823-10.211 3.294-14.822 6.587-5.764 4.118-7.411 7.411-13.587 7.411s-9.47 0.412-11.94-4.117c-1.976-3.623 0.823-9.47 2.47-11.94"/>
        <path d="m914.58 374.01v6.176"/>
        <path d="m914.17 391.3 0.887 0.887c0.75 0.75 1.768 1.172 2.829 1.172h7.748c1.093 0 2.136-0.448 2.899-1.231 3.211-3.297 8.557-8.56 11.164-10.298 2.965-1.976 5.353-3.293 6.176-3.705-1.51 1.509-6.67 4.858-15.234 6.176-8.564 1.317-14.547-2.471-16.469-4.529-0.137 1.509-1.729 4.282-6.999 3.293-6.588-1.235-7.411-6.175-9.058-13.586-1.647-7.412-9.47-13.587-8.235-22.645 1.236-9.058 6.588-10.705 6.177-16.058-0.412-5.352-6.588-23.468-4.941-39.525 1.647-16.058 5.764-10.294 20.174 4.529 11.529 11.857 15.509 14.822 16.057 14.822"/>
        <path d="m920.35 314.31c3.843-1.921 13.34-5.846 20.587-6.175 7.246-0.33 12.351-0.138 13.998 0"/>
        <path d="m914.99 311.01c-2.333 1.51-7.246 4.776-8.235 5.764"/>
        <path d="m907.76 368.54c0-1.657 1.344-3 3-3h7.646c1.657 0 3 1.343 3 3v0.352c-0.835 2.227-2.965 3.706-5.348 3.706h-2.95c-2.382 0-4.513-1.479-5.348-3.706v-0.352z"/>
        <path d="m1046.9 315.23c0-1.324 1.08-2.398 2.4-2.398h6.38c1.32 0 2.4 1.074 2.4 2.398v0.125c-0.69 1.74-2.37 2.888-4.24 2.888h-2.69c-1.88 0-3.56-1.148-4.25-2.888v-0.125z"/>
        <path d="m1175.4 368.76c0-1.324 1.08-2.398 2.4-2.398h6.38c1.32 0 2.4 1.074 2.4 2.398v0.125c-0.69 1.74-2.37 2.888-4.25 2.888h-2.69c-1.87 0-3.55-1.148-4.24-2.888v-0.125z"/>
        <path d="m915 311.42c-5.215-8.92-16.387-26.432-19.351-25.115-3.706 1.647-0.823 31.703 3.294 37.055"/>
        <path d="m960.7 321.31c2.47 2.333 8.234 7.328 11.528 8.646"/>
        <path d="m1197.8 498.76c0.82 0.824 25.53-26.35 25.53-50.642s-31.71-40.349-67.11-29.644c-35.41 10.705-89.35 62.582-121.88 79.051-32.52 16.469-74.93 28.409-101.28 11.117-26.351-17.293-26.762-44.879-17.705-46.937 9.058-2.059 16.058 32.526 55.172 34.173 39.113 1.647 68.343-22.233 70.813-23.468 2.47-1.236 81.53-73.699 127.23-75.758s72.05 16.881 76.58 51.466-24.29 68.758-38.29 80.698c-11.2 9.552-15.65 12.215-16.47 12.352"/>
        <path d="m1156.7 418.06c3.56 5.215 12.35 17.951 18.93 27.173 8.24 11.529 21 28.41 22.24 54.76 1.23 26.35-9.88 45.29-12.35 48.584s-1.24 5.352 0 7.411c1.23 2.058 3.7 4.117-0.83 7.823-4.53 3.705-38.7 16.469-53.52 16.88-14.82 0.412-13.59-2.47-14-5.352-0.59-4.117 3.3-6.588 6.18-6.588"/>
        <path d="m1118 578.64c-2.88 0.412-8.64-0.247-8.64-6.176s4.66-7.411 7-7.411"/>
        <path d="m1109.7 576.16c-2.2 0-6.34-1.482-5.35-7.411 1.23-7.411 11.11-6.176 15.64-6.587 3.63-0.33 16.06 0 23.47-2.471"/>
        <path d="m1144.7 560.52c-8.92-5.215-27.83-19.269-32.11-33.762-5.36-18.116-1.65-28.821 13.17-43.231 13.2-12.834 20.17-17.018 21.82-17.704"/>
        <path d="m1112.2 465c-0.27 10.43-3.21 36.15-12.76 55.583-11.94 24.292-28 54.348-31.29 59.289-3.3 4.94-6.18 11.116-13.59 12.763s-9.47-0.412-9.88-3.705c-0.33-2.635 1.78-5.765 2.88-7"/>
        <path d="m1045.9 592.22c-2.47 0.549-7.49 0.494-7.82-4.117s2.33-7.411 3.7-8.234"/>
        <path d="m1038.9 590.58c-2.88 0.411-8.07-0.412-5.76-7 2.88-8.234 15.23-9.058 17.29-11.116 2.06-2.059 11.94-24.704 14-33.762s4.94-27.586 4.94-40.349v-23.88m-1.65-55.583 0.93 31.291m-37.57 49.407c-10.98 17.155-34.255 53.113-39.525 59.7-6.588 8.235-15.234 20.587-20.587 21.822-5.352 1.235-8.646 0.412-9.469-4.117-0.659-3.624 1.921-5.627 3.293-6.176"/>
        <path d="m963.16 580.28c-2.058 0.549-7.305 0.823-8.231-2.882-1.234-4.941 2.33-6.725 4.526-8.647"/>
        <path d="m955.34 579.05c-2.333 0.275-5.18-0.468-4.529-6.999 0.822-8.234 17.291-9.058 20.173-11.528 2.883-2.471 10.705-14.822 13.999-21.822 2.635-5.599 7.96-19.625 10.293-25.938m37.47-14.411c9.88 4.941 30.79 15.069 35.41 16.057"/>
        <path d="m1030.7 499.58c-1.78 3.706-2.72 13.587 7.82 23.469 10.54 9.881 21.14 16.194 25.12 18.116"/>
        <path d="m1081.7 555.17c3.85-0.549 14.08-1.317 24.29 0 10.22 1.318 15.51 5.216 16.89 7"/>
        <path d="m1099.9 554.75c-1.24 1.51-5.6 5.023-13.18 7-7.57 1.976-10.29 3.019-10.7 3.294m-41.59-7c-2.47-1.098-7.82 0-7.82 4.941 0 9.713 19.4 6.482 25.94 6.061m9.06-22.118c-4.39 1.098-15.48 3.458-24.71 4.117-11.52 0.823-16.47-0.412-19.35 3.705-2.88 4.118 0.83 7.823 2.88 9.058"/>
        <path d="m1027.4 555.17c-2.05 0-6.34 0.988-6.99 4.941-0.83 4.94 2.88 6.999 6.99 6.999"/>
        <path d="m908.3 339.83c0.067 0.527 0.103 1.079 0.103 1.647 0 3.639-1.474 6.588-3.293 6.588-1.82 0-3.294-2.949-3.294-6.588 0-1.967 0.431-3.733 1.115-4.94"/>
        <path d="m1109.7 339.42c-1.78-7.137-4.61-24.951-1.65-39.114 3.71-17.705 10.3-20.587 15.24-13.999s11.94 19.763 18.53 26.35c5.27 5.27 8.23 7.686 9.05 8.235"/>
        <path d="m1134.9 321.72c-2.89 2.608-9.23 8.07-11.53 9.058"/>
        <path d="m1136.1 325.83c-2.2-9.469-8.07-29.315-14-32.938-7.41-4.529-9.47 6.176-9.88 18.116"/>
        <path d="m1139 309.37c5.77-0.687 14.41-2.859 24.71 0 5.93 1.646 9.05 3.705 9.88 4.529"/>
        <path d="m1169.3 311.2c1.23-0.823 17.47-17.064 22.83-22.005 5.35-4.94 7.41-7.823 11.52-4.529 4.12 3.294-1.64 33.35-2.05 37.467-0.42 4.118-2.89 9.058-2.06 11.117 0.82 2.059 6.58 9.47 4.94 18.939-1.65 9.47-8.24 15.646-9.06 19.763-0.82 4.118-1.24 10.293-7 10.705-4.61 0.33-7.14-1.784-7.82-2.882-0.69 1.098-3.46 3.623-9.06 4.941-5.6 1.317-17.16-4.392-22.23-7.411 5.62 5.901 18.11 17.704 23.05 17.704s7.55-0.823 8.24-1.235"/>
        <path d="m1162.4 383.89c2.46 2.163 7.18 5.916 11.12 7.993m0 0c1.56 0.823 2.99 1.383 4.12 1.477 4.94 0.412 8.23 0.412 10.7-2.059 2.47-2.47-1.24-6.587-4.53-5.352s-6.59 5.281-10.29 5.934z"/>
        <path d="m1176.8 382.24c0.96 1.235 3.3 3.953 4.94 4.941"/>
        <path d="m1139 385.95c5.49 1.098 17.87 4.858 23.47 11.116"/>
        <path d="m1150.1 400.36c-0.69-0.823-0.66-3.705 4.94-8.646"/>
        <path d="m1170.3 368.65c-8.23-3.842-27.83-10.787-40.35-7.822"/>
        <path d="m1169.4 372.77c-6.31-0.687-21.66-1.236-32.53 2.058"/>
        <path d="m1190.8 368.65c6.86-3.705 24.7-10.54 41.17-8.234"/>
        <path d="m1192.1 373.18c6.03-0.961 20.83-1.976 31.7 1.647"/>
        <path d="m917.88 390.89c0.329-1.317-1.646-3.705-2.882-4.94 0 0-0.822 4.117-0.411 4.94 0.411 0.824 2.964 1.318 3.293 0z"/>
        <path d="m924.09 390.89c-0.329-1.317 1.646-3.705 2.882-4.94 0 0 0.822 4.117 0.411 4.94-0.411 0.824-2.963 1.318-3.293 0z"/>
        <path d="m1035.3 324.22c1.38 1.51 4.59 4.082 8.54 4.082 3.96 0 7.19-4.598 8.56-6.931"/>
        <path d="m1070.6 323.78c-1.38 1.51-5.11 4.529-9.06 4.529s-7.69-4.666-9.06-6.999"/>
        <path d="m1052.5 319.25v2.882"/>
        <path d="m1187.1 316.78c-2.05-1.785-6.58-5.435-8.23-5.765-2.06-0.411 18.53-25.938 22.23-23.88 2.97 1.647-1.78 25.116-4.53 36.644"/>
        <path d="m1164.1 345.6c-0.41 2.059-3.3 5.847-11.53 4.529-8.23-1.317-10.84-6.587-11.12-9.058 2.2-1.098 8.48-2.635 16.06 0s10.29 10.156 10.71 13.587"/>
        <path d="m1157.8 341.07c-0.32 3.079-1.45 5.352-2.79 5.352-1.51 0-2.76-2.901-2.87-6.588"/>
        <path d="m1192.5 335.14c0 3.955-1.29 7.161-2.88 7.161-1.16 0-2.15-1.685-2.61-4.118"/>
        <path d="m1185.9 361.66c-1.37-2.608-4.04-9.305-3.71-15.234 0.03-0.423 0.08-0.834 0.16-1.235m0 0c1.36-6.634 10.3-10.317 13.02-10.705 2.88-0.412 1.23 7.74-4.12 9.881-4.08 1.633-7.72 1.235-8.9 0.824z"/>
    </g>
    <g filter="url(#r)">
        <path d="m886.9 565.74-2.84-4.726c-0.405-0.454-1.094-0.848-2.117-0.234 0.01-0.053-1.833 1.103-1.833 1.103l-1.622-2.696 3.484-2.092 8e-3 0.013c0.523-0.315 1.054-0.648 1.594-0.988l-2.491-4.148 2.524-1.516 2.443 4.066c0.666-0.418 1.337-0.839 2.001-1.238l-2.428-4.04 2.525-1.517 2.493 4.148c3.432-1.673 6.616-2.221 8.701 0.597 1.529 2.06 1.403 3.923 0.387 5.549 2.757-0.87 5.128-0.345 6.759 3.045 2.027 4.208-0.302 7.063-4.401 9.858l2.516 4.189-2.525 1.517-2.482-4.133c-0.654 0.394-1.328 0.791-2.029 1.193l2.494 4.152-2.522 1.515-2.523-4.195c-0.593 0.351-1.201 0.702-1.813 1.069l-3.286 1.975-1.31-3.318s1.885-1.093 1.836-1.102c0.714-0.431 0.594-1.058 0.446-1.407l-3.978-6.621m14.289-2.191c1.885 3.135-3.698 6.004-5.409 7.034l-3.34-5.56c1.713-1.028 6.784-4.745 8.749-1.474zm-5.888-7.138c1.714 2.853-2.964 5.211-4.39 6.067l-3.029-5.042c1.425-0.856 5.631-4 7.419-1.025z" stroke="#DB2A7C" stroke-linecap="round" stroke-linejoin="round" stroke-width="2"/>
    </g>
    <g opacity=".3">
        <g filter="url(#q)">
            <path d="m1337.2 356.62c-1.15-0.665-2.45-0.857-3.73-0.902-1.08-0.038-2.69-0.728-2.69-2.689 0-1.46 1.18-2.636 2.69-2.688 1.28-0.045 2.58-0.238 3.73-0.903 1.03-0.597 1.89-1.455 2.49-2.49 0.59-1.034 0.91-2.207 0.91-3.401s-0.32-2.367-0.91-3.401c-0.6-1.034-1.46-1.893-2.49-2.49-1.04-0.597-2.21-0.911-3.4-0.911-1.2 0-2.37 0.315-3.4 0.912-1.04 0.597-1.9 1.455-2.49 2.489-0.6 1.035-0.92 2.208-0.92 3.402 0 1.318 0.47 2.53 1.07 3.655 0.5 0.946 0.76 2.702-0.97 3.698-1.28 0.741-2.88 0.272-3.68-1.008-0.68-1.082-1.49-2.095-2.63-2.755-1.04-0.597-2.21-0.911-3.41-0.911-1.19 0-2.36 0.314-3.4 0.911-1.03 0.597-1.89 1.456-2.49 2.49-0.59 1.034-0.91 2.207-0.91 3.401s0.32 2.367 0.91 3.401c0.6 1.034 1.46 1.893 2.49 2.49 1.04 0.597 2.21 0.911 3.4 0.911 1.2 0 2.37-0.314 3.41-0.911 1.14-0.659 1.95-1.672 2.63-2.753 0.55-0.887 1.94-2.019 3.68-1.01 1.29 0.741 1.68 2.363 0.97 3.699-0.6 1.125-1.07 2.337-1.07 3.655 0 1.194 0.32 2.367 0.92 3.401 0.59 1.034 1.45 1.893 2.49 2.49 1.03 0.597 2.2 0.911 3.4 0.911 1.19 0 2.36-0.314 3.4-0.911 1.03-0.597 1.89-1.456 2.49-2.49 0.59-1.034 0.91-2.207 0.91-3.401s-0.32-2.367-0.91-3.401c-0.6-1.034-1.46-1.893-2.49-2.49z" stroke="#DB2A7C" stroke-linecap="round" stroke-linejoin="round" stroke-width="2"/>
        </g>
    </g>
    <g opacity=".3">
        <g filter="url(#p)">
            <path d="m772.37 341.27-0.501-0.865c-0.418 0.243-0.603 0.749-0.44 1.204l0.941-0.339zm6.859-3.977 0.937-0.35c-0.103-0.276-0.323-0.492-0.6-0.592-0.277-0.099-0.584-0.071-0.839 0.077l0.502 0.865zm-1.921 17.719 0.866 0.5c0.147-0.254 0.174-0.561 0.075-0.838l-0.941 0.338zm-2.461 4.263-0.866-0.5c-0.179 0.31-0.179 0.691 0 1l0.866-0.5zm2.82 4.885-0.866 0.5c0.179 0.31 0.509 0.5 0.866 0.5s0.687-0.19 0.866-0.5l-0.866-0.5zm1.805-3.125 0.941-0.338c-0.132-0.367-0.464-0.624-0.852-0.658-0.388-0.035-0.761 0.158-0.955 0.496l0.866 0.5zm4.089 11.381-0.941 0.338c0.1 0.279 0.319 0.499 0.597 0.601s0.587 0.075 0.844-0.073l-0.5-0.866zm17.6-10.162 0.5 0.866c0.23-0.133 0.398-0.351 0.466-0.607 0.069-0.256 0.033-0.529-0.1-0.759l-0.866 0.5zm-4.071-7.051 0.866-0.5c-0.276-0.478-0.887-0.642-1.366-0.366l0.5 0.866zm-9.193 5.308-0.937 0.35c0.103 0.275 0.322 0.492 0.598 0.591 0.277 0.099 0.584 0.072 0.839-0.075l-0.5-0.866zm-3.19-8.544-0.866-0.5c-0.149 0.258-0.175 0.57-0.071 0.85l0.937-0.35zm2.949-5.107 0.866 0.5c0.178-0.31 0.178-0.691 0-1l-0.866 0.5zm-2.821-4.885 0.866-0.5c-0.178-0.31-0.509-0.5-0.866-0.5s-0.687 0.19-0.866 0.5l0.866 0.5zm-2.343 4.058-0.937 0.35c0.135 0.363 0.468 0.615 0.854 0.647s0.755-0.162 0.949-0.497l-0.866-0.5zm-9.62-3.898 6.859-3.977-1.004-1.73-6.858 3.977 1.003 1.73zm5.377 12.539-4.937-13.742-1.883 0.677 4.938 13.741 1.882-0.676zm-2.536 5.101 2.461-4.263-1.732-1-2.461 4.263 1.732 1zm2.82 3.885-2.82-4.885-1.732 1 2.82 4.885 1.732-1zm0.073-3.125-1.805 3.125 1.732 1 1.805-3.125-1.732-1zm5.896 11.542-4.089-11.38-1.882 0.676 4.089 11.381 1.882-0.677zm16.159-10.689-17.6 10.162 1 1.732 17.6-10.162-1-1.732zm-4.437-5.685 4.071 7.051 1.732-1-4.071-7.051-1.732 1zm-7.827 5.674 9.193-5.308-1-1.732-9.193 5.308 1 1.732zm-4.627-9.06 3.19 8.544 1.873-0.7-3.189-8.544-1.874 0.7zm3.02-5.957-2.949 5.107 1.732 1 2.949-5.107-1.732-1zm-2.821-3.885 2.821 4.885 1.732-1-2.821-4.885-1.732 1zm-0.611 4.058 2.343-4.058-1.732-1-2.343 4.058 1.732 1zm-5.066-8.891 3.263 8.741 1.874-0.7-3.263-8.74-1.874 0.699z" fill="#DB2A7C"/>
        </g>
    </g>
    <g filter="url(#o)">
        <path d="m1228.2 235.6-0.87-0.5c-0.27 0.478-0.11 1.089 0.37 1.366l0.5-0.866zm1.22-2.116 0.87 0.5c0.27-0.478 0.11-1.09-0.37-1.366l-0.5 0.866zm4.42 5.372 0.87 0.5c0.27-0.478 0.11-1.09-0.37-1.366l-0.5 0.866zm-3.66 6.346-0.5 0.866c0.23 0.133 0.5 0.169 0.76 0.1 0.25-0.068 0.47-0.236 0.6-0.466l-0.86-0.5zm-12.7-7.327 0.5-0.866c-0.47-0.277-1.08-0.113-1.36 0.366l0.86 0.5zm-1.22 2.115-0.86-0.5c-0.13 0.23-0.17 0.503-0.1 0.759s0.23 0.474 0.46 0.607l0.5-0.866zm8.47 4.885 0.5-0.866-0.5 0.866zm1.97 9.603-0.86-0.5 0.86 0.5zm-1.63 2.82 0.87 0.5-0.87-0.5zm-10.71 2.275 0.5-0.866c-0.48-0.276-1.09-0.112-1.37 0.366l0.87 0.5zm-1.22 2.116-0.5 0.866c0.48 0.276 1.09 0.112 1.36-0.366l-0.86-0.5zm-7.05-4.071-0.87-0.5c-0.13 0.23-0.17 0.503-0.1 0.759s0.24 0.474 0.47 0.607l0.5-0.866zm1.22-2.116 0.86 0.5c0.28-0.478 0.12-1.089-0.36-1.366l-0.5 0.866zm-4.94-2.849-0.86-0.5c-0.28 0.478-0.12 1.09 0.36 1.366l0.5-0.866zm3.67-6.346 0.5-0.866c-0.23-0.133-0.51-0.169-0.76-0.1-0.26 0.068-0.48 0.236-0.61 0.466l0.87 0.5zm11.98 6.92-0.5 0.866c0.23 0.133 0.51 0.169 0.76 0.1 0.26-0.068 0.48-0.236 0.61-0.466l-0.87-0.5zm1.22-2.115 0.87 0.5c0.28-0.478 0.11-1.09-0.37-1.366l-0.5 0.866zm1.91-19.583-0.5 0.866c0.48 0.276 1.09 0.112 1.36-0.366l-0.86-0.5zm1.22-2.116 0.5-0.866c-0.48-0.276-1.09-0.112-1.37 0.366l0.87 0.5zm6.7 6.687 1.22-2.116-1.73-1-1.23 2.116 1.74 1zm5.27 1.89-5.64-3.256-1 1.732 5.64 3.256 1-1.732zm-3.3 7.712 3.67-6.346-1.74-1-3.66 6.346 1.73 1zm-14.06-6.961 12.7 7.327 1-1.732-12.7-7.327-1 1.732zm0.15 1.749 1.22-2.115-1.73-1-1.22 2.115 1.73 1zm8.1 3.519-8.47-4.885-1 1.732 8.47 4.885 1-1.732zm2.34 10.969c1.11-1.923 1.56-4.056 1.2-6.035-0.36-1.999-1.54-3.775-3.54-4.934l-1 1.732c1.49 0.865 2.32 2.138 2.57 3.558 0.26 1.44-0.05 3.097-0.96 4.679l1.73 1zm-1.63 2.82 1.63-2.82-1.73-1-1.63 2.82 1.73 1zm-10.67 3.456c2.01 1.158 4.13 1.29 6.04 0.603 1.9-0.679 3.52-2.136 4.63-4.059l-1.73-1c-0.92 1.583-2.19 2.682-3.57 3.177-1.36 0.488-2.87 0.412-4.37-0.453l-1 1.732zm-1.41-0.815 1.41 0.815 1-1.732-1.41-0.815-1 1.732zm-0.37-1.366-1.22 2.116 1.73 1 1.22-2.116-1.73-1zm0.15 1.75-7.05-4.071-1 1.732 7.05 4.071 1-1.732zm-6.69-2.705 1.22-2.116-1.73-1-1.22 2.116 1.73 1zm-5.08-4.599 4.94 2.85 1-1.733-4.94-2.849-1 1.732zm3.3-7.712-3.66 6.346 1.73 1 3.66-6.346-1.73-1zm13.35 6.554-11.98-6.92-1 1.732 11.98 6.92 1-1.732zm-0.14-1.749-1.22 2.115 1.73 1 1.22-2.115-1.73-1zm-7.39-3.112 7.75 4.478 1-1.732-7.75-4.478-1 1.732zm-3.05-11.376c-2.3 3.983-0.94 9.076 3.05 11.376l1-1.732c-3.03-1.747-4.07-5.617-2.32-8.644l-1.73-1zm1.63-2.82-1.63 2.82 1.73 1 1.63-2.82-1.73-1zm11.37-3.049c-3.98-2.299-9.07-0.934-11.37 3.049l1.73 1c1.75-3.027 5.62-4.064 8.64-2.317l1-1.732zm0.71 0.408-0.71-0.408-1 1.732 0.71 0.408 1-1.732zm-0.15-1.75-1.22 2.116 1.73 1 1.23-2.116-1.74-1zm8.42 3.705-7.05-4.071-1 1.732 7.05 4.071 1-1.732z" fill="#DB2A7C"/>
    </g>
    <defs>
        <filter id="u" x="742.76" y="205.12" width="95.238" height="68.679" color-interpolation-filters="sRGB" filterUnits="userSpaceOnUse">
            <feFlood flood-opacity="0" result="BackgroundImageFix"/>
            <feColorMatrix in="SourceAlpha" values="0 0 0 0 0 0 0 0 0 0 0 0 0 0 0 0 0 0 127 0"/>
            <feOffset dy="4"/>
            <feGaussianBlur stdDeviation="10"/>
            <feColorMatrix values="0 0 0 0 0.858824 0 0 0 0 0.164706 0 0 0 0 0.486275 0 0 0 0.8 0"/>
            <feBlend in2="BackgroundImageFix" result="effect1_dropShadow"/>
            <feBlend in="SourceGraphic" in2="effect1_dropShadow" result="shape"/>
        </filter>
        <filter id="t" x="1283.6" y="503.56" width="84.71" height="125.42" color-interpolation-filters="sRGB" filterUnits="userSpaceOnUse">
            <feFlood flood-opacity="0" result="BackgroundImageFix"/>
            <feColorMatrix in="SourceAlpha" values="0 0 0 0 0 0 0 0 0 0 0 0 0 0 0 0 0 0 127 0"/>
            <feOffset dy="4"/>
            <feGaussianBlur stdDeviation="10"/>
            <feColorMatrix values="0 0 0 0 0.858824 0 0 0 0 0.164706 0 0 0 0 0.486275 0 0 0 0.8 0"/>
            <feBlend in2="BackgroundImageFix" result="effect1_dropShadow"/>
            <feBlend in="SourceGraphic" in2="effect1_dropShadow" result="shape"/>
        </filter>
        <filter id="s" x="842.53" y="201.68" width="424.15" height="416.53" color-interpolation-filters="sRGB" filterUnits="userSpaceOnUse">
            <feFlood flood-opacity="0" result="BackgroundImageFix"/>
            <feColorMatrix in="SourceAlpha" values="0 0 0 0 0 0 0 0 0 0 0 0 0 0 0 0 0 0 127 0"/>
            <feOffset dy="4"/>
            <feGaussianBlur stdDeviation="10"/>
            <feColorMatrix values="0 0 0 0 0 0 0 0 0 0.741176 0 0 0 0 0.686275 0 0 0 0.8 0"/>
            <feBlend in2="BackgroundImageFix" result="effect1_dropShadow"/>
            <feBlend in="SourceGraphic" in2="effect1_dropShadow" result="shape"/>
        </filter>
        <filter id="r" x="850.97" y="525.63" width="83.784" height="83.784" color-interpolation-filters="sRGB" filterUnits="userSpaceOnUse">
            <feFlood flood-opacity="0" result="BackgroundImageFix"/>
            <feColorMatrix in="SourceAlpha" values="0 0 0 0 0 0 0 0 0 0 0 0 0 0 0 0 0 0 127 0"/>
            <feOffset dy="4"/>
            <feGaussianBlur stdDeviation="10"/>
            <feColorMatrix values="0 0 0 0 0.858824 0 0 0 0 0.164706 0 0 0 0 0.486275 0 0 0 0.8 0"/>
            <feBlend in2="BackgroundImageFix" result="effect1_dropShadow"/>
            <feBlend in="SourceGraphic" in2="effect1_dropShadow" result="shape"/>
        </filter>
        <filter id="q" x="1289.5" y="319.74" width="72.027" height="74.568" color-interpolation-filters="sRGB" filterUnits="userSpaceOnUse">
            <feFlood flood-opacity="0" result="BackgroundImageFix"/>
            <feColorMatrix in="SourceAlpha" values="0 0 0 0 0 0 0 0 0 0 0 0 0 0 0 0 0 0 127 0"/>
            <feOffset dy="4"/>
            <feGaussianBlur stdDeviation="10"/>
            <feColorMatrix values="0 0 0 0 0.858824 0 0 0 0 0.164706 0 0 0 0 0.486275 0 0 0 0.8 0"/>
            <feBlend in2="BackgroundImageFix" result="effect1_dropShadow"/>
            <feBlend in="SourceGraphic" in2="effect1_dropShadow" result="shape"/>
        </filter>
        <filter id="p" x="745.06" y="316.67" width="77.47" height="81.6" color-interpolation-filters="sRGB" filterUnits="userSpaceOnUse">
            <feFlood flood-opacity="0" result="BackgroundImageFix"/>
            <feColorMatrix in="SourceAlpha" values="0 0 0 0 0 0 0 0 0 0 0 0 0 0 0 0 0 0 127 0"/>
            <feOffset dy="4"/>
            <feGaussianBlur stdDeviation="10"/>
            <feColorMatrix values="0 0 0 0 0.858824 0 0 0 0 0.164706 0 0 0 0 0.486275 0 0 0 0.8 0"/>
            <feBlend in2="BackgroundImageFix" result="effect1_dropShadow"/>
            <feBlend in="SourceGraphic" in2="effect1_dropShadow" result="shape"/>
        </filter>
        <filter id="o" x="1177.6" y="207.98" width="80.17" height="83.15" color-interpolation-filters="sRGB" filterUnits="userSpaceOnUse">
            <feFlood flood-opacity="0" result="BackgroundImageFix"/>
            <feColorMatrix in="SourceAlpha" values="0 0 0 0 0 0 0 0 0 0 0 0 0 0 0 0 0 0 127 0"/>
            <feOffset dy="4"/>
            <feGaussianBlur stdDeviation="10"/>
            <feColorMatrix values="0 0 0 0 0.858824 0 0 0 0 0.164706 0 0 0 0 0.486275 0 0 0 0.8 0"/>
            <feBlend in2="BackgroundImageFix" result="effect1_dropShadow"/>
            <feBlend in="SourceGraphic" in2="effect1_dropShadow" result="shape"/>
        </filter>
        <linearGradient id="m" x1="395.47" x2="-158.27" y1="400.79" y2="400.79" gradientUnits="userSpaceOnUse">
            <stop stop-color="#DB2A7D" stop-opacity="0" offset="0"/>
            <stop stop-color="#DB2A7D" offset=".52083"/>
            <stop stop-color="#DB2A7D" stop-opacity="0" offset="1"/>
        </linearGradient>
        <linearGradient id="i" x1="1760" x2="-160" y1="400" y2="400" gradientUnits="userSpaceOnUse">
            <stop stop-color="#DB2A7D" stop-opacity="0" offset="0"/>
            <stop stop-color="#DB2A7D" offset=".48958"/>
            <stop stop-color="#DB2A7D" stop-opacity="0" offset=".91371"/>
        </linearGradient>
        <linearGradient id="h" x1="1760" x2="-160" y1="441.48" y2="441.48" gradientUnits="userSpaceOnUse">
            <stop stop-color="#DB2A7D" stop-opacity="0" offset="0"/>
            <stop stop-color="#DB2A7D" offset=".48958"/>
            <stop stop-color="#DB2A7D" stop-opacity="0" offset=".91371"/>
        </linearGradient>
        <linearGradient id="g" x1="1760" x2="-160" y1="486.31" y2="486.31" gradientUnits="userSpaceOnUse">
            <stop stop-color="#DB2A7D" stop-opacity="0" offset="0"/>
            <stop stop-color="#DB2A7D" offset=".48958"/>
            <stop stop-color="#DB2A7D" stop-opacity="0" offset=".91371"/>
        </linearGradient>
        <linearGradient id="f" x1="1760" x2="-160" y1="540.12" y2="540.12" gradientUnits="userSpaceOnUse">
            <stop stop-color="#DB2A7D" stop-opacity="0" offset="0"/>
            <stop stop-color="#DB2A7D" offset=".48958"/>
            <stop stop-color="#DB2A7D" stop-opacity="0" offset=".91371"/>
        </linearGradient>
        <linearGradient id="e" x1="1760" x2="-160" y1="612.98" y2="612.98" gradientUnits="userSpaceOnUse">
            <stop stop-color="#DB2A7D" stop-opacity="0" offset="0"/>
            <stop stop-color="#DB2A7D" offset=".48958"/>
            <stop stop-color="#DB2A7D" stop-opacity="0" offset=".91371"/>
        </linearGradient>
        <linearGradient id="d" x1="1760" x2="-160" y1="704.9" y2="704.9" gradientUnits="userSpaceOnUse">
            <stop stop-color="#DB2A7D" offset=".64062"/>
        </linearGradient>
        <linearGradient id="c" x1="536.92" x2="260.91" y1="400.55" y2="400.55" gradientUnits="userSpaceOnUse">
            <stop stop-color="#DB2A7D" stop-opacity="0" offset="0"/>
            <stop stop-color="#DB2A7D" offset=".52083"/>
            <stop stop-color="#DB2A7D" stop-opacity="0" offset="1"/>
        </linearGradient>
        <linearGradient id="b" x1="678.38" x2="536.93" y1="400.55" y2="400.55" gradientUnits="userSpaceOnUse">
            <stop stop-color="#DB2A7D" stop-opacity="0" offset="0"/>
            <stop stop-color="#DB2A7D" offset=".52083"/>
            <stop stop-color="#DB2A7D" stop-opacity="0" offset="1"/>
        </linearGradient>
        <linearGradient id="a" x1="821.56" x2="819.84" y1="400.55" y2="400.55" gradientUnits="userSpaceOnUse">
            <stop stop-color="#DB2A7D" stop-opacity="0" offset="0"/>
            <stop stop-color="#DB2A7D" offset=".52083"/>
            <stop stop-color="#DB2A7D" stop-opacity="0" offset="1"/>
        </linearGradient>
        <linearGradient id="l" x1="961.29" x2="1102.8" y1="400.55" y2="400.55" gradientUnits="userSpaceOnUse">
            <stop stop-color="#DB2A7D" stop-opacity="0" offset="0"/>
            <stop stop-color="#DB2A7D" offset=".52083"/>
            <stop stop-color="#DB2A7D" stop-opacity="0" offset="1"/>
        </linearGradient>
        <linearGradient id="k" x1="1101" x2="1377" y1="400.55" y2="400.55" gradientUnits="userSpaceOnUse">
            <stop stop-color="#DB2A7D" stop-opacity="0" offset="0"/>
            <stop stop-color="#DB2A7D" offset=".52083"/>
            <stop stop-color="#DB2A7D" stop-opacity="0" offset="1"/>
        </linearGradient>
        <linearGradient id="j" x1="1206.2" x2="1760" y1="400.79" y2="400.79" gradientUnits="userSpaceOnUse">
            <stop stop-color="#DB2A7D" stop-opacity="0" offset="0"/>
            <stop stop-color="#DB2A7D" offset=".52083"/>
            <stop stop-color="#DB2A7D" stop-opacity="0" offset="1"/>
        </linearGradient>
    </defs>
</svg>
