<?xml version="1.0" encoding="UTF-8"?>
<svg fill="none" viewBox="0 0 768 459" xmlns="http://www.w3.org/2000/svg">
    <mask id="n" x="0" y="0" width="768" height="459" mask-type="alpha" maskUnits="userSpaceOnUse">
        <path d="M0 0H768V459H0V0Z" fill="#040027"/>
    </mask>
    <g mask="url(#n)">
        <g opacity=".5" stroke-width="1.3522">
            <path d="m131.17 221.74-346.09 237.01" opacity=".5" stroke="url(#m)"/>
            <path d="M-216 221.25H984" opacity=".1" stroke="url(#i)"/>
            <path d="m-216 247.17h1200" opacity=".2" stroke="url(#h)"/>
            <path d="m-216 275.2h1200" opacity=".3" stroke="url(#g)"/>
            <path d="m-216 308.82h1200" opacity=".5" stroke="url(#f)"/>
            <path d="m-216 354.36h1200" opacity=".5" stroke="url(#e)"/>
            <path d="m-216 411.81h1200" opacity=".5" stroke="url(#d)"/>
            <path d="m219.58 221.59-172.51 237.16" stroke="url(#c)"/>
            <path d="m307.99 221.59-88.41 237.16" stroke="url(#b)"/>
            <path d="m397.48 221.59-1.078 237.16" stroke="url(#a)"/>
            <path d="m484.81 221.59 88.41 237.16" stroke="url(#l)"/>
            <path d="m572.14 221.59 172.51 237.16" stroke="url(#k)"/>
            <path d="M637.908 221.743L984 458.75" opacity=".5" stroke="url(#j)"/>
        </g>
    </g>
    <g filter="url(#u)">
        <path d="m205.39 130.22 4.339-4.339 6.075 6.075 9.69-9.691 2.025 2.025 7.522-7.521 1.88 1.88" stroke="#DB2A7C" stroke-linecap="round" stroke-linejoin="round" stroke-width="2.6667"/>
    </g>
    <path d="m217.57 151.92-25.052-43.392h50.105l-25.053 43.392z" stroke="#16B9AD" stroke-linecap="round" stroke-linejoin="round" stroke-width="2.6667"/>
    <circle cx="284.21" cy="130.57" r="2.0042" fill="#00BDAF"/>
    <circle cx="550.76" cy="130.57" r="2.0042" fill="#00BDAF"/>
    <circle cx="284.21" cy="262.85" r="2.0042" fill="#00BDAF" opacity=".3"/>
    <circle cx="550.76" cy="262.85" r="2.0042" fill="#00BDAF" opacity=".3"/>
    <circle cx="217.57" cy="328.98" r="2.0042" fill="#00BDAF"/>
    <path d="m529.47 338h42.589" stroke="#16B9AD" stroke-linecap="round" stroke-linejoin="round" stroke-width="2.6667"/>
    <path d="m529.22 312.95h43.09" stroke="#16B9AD" stroke-linecap="round" stroke-linejoin="round" stroke-width="2.6667"/>
    <circle cx="550.76" cy="325.48" r="25.052" stroke="#16B9AD" stroke-linecap="round" stroke-linejoin="round" stroke-width="2.6667"/>
    <g filter="url(#t)">
        <ellipse cx="550.76" cy="325.48" rx="12.526" ry="25.052" stroke="#DB2A7C" stroke-linecap="round" stroke-linejoin="round" stroke-width="2.6667"/>
    </g>
    <path d="m525.71 325.48h50.104" stroke="#16B9AD" stroke-linecap="round" stroke-linejoin="round" stroke-width="2.6667"/>
    <g filter="url(#s)" stroke="#00BDAF" stroke-linecap="round" stroke-linejoin="round" stroke-width="1.3333">
        <path d="m376.89 181.75c0.338 0.845 1.926 2.534 5.574 2.534 3.649 0 5.236-1.689 5.574-2.534"/>
        <path d="m375.37 177.44c-3.378 1.182-10.743 4.256-13.175 7.094"/>
        <path d="m372.33 174.66c-0.506 0-12.415-0.254-15.455 1.52"/>
        <path d="m403.5 184.54c-2.534-1.942-8.665-6.081-12.922-7.094"/>
        <path d="m374.61 172.88c-2.703-1.436-9.273-4.257-13.935-4.054"/>
        <path d="m304.43 206.07c2.281-1.605 10.338-4.814 24.324-4.814"/>
        <path d="m304.68 208.86c4.392-0.254 14.442-0.304 19.51 1.52"/>
        <path d="m290.75 206.33c-4.307-2.027-15.253-5.878-24.577-5.068"/>
        <path d="m290.5 208.86c-4.645-0.338-15.101-0.507-19.763 1.52"/>
        <path d="m294.04 200.5c1.098-1.604 3.091-5.574 2.281-8.614-0.811-3.041-5.912-5.49-8.362-6.334"/>
        <path d="m305.95 196.19c0.572-1.286 1.869-3.33 3.801-4.941m0 0c1.493-1.244 3.365-2.23 5.574-2.407 5.067-0.405 7.517 1.014 8.108 1.774-0.845 2.196-3.649 6.689-8.108 7.094-4.459 0.406-5.574-4.138-5.574-6.461z"/>
        <path d="m287.71 185.55c-0.929 2.533-1.926 8.057 1.52 9.881s6.334-1.098 7.348-2.787"/>
        <path d="m325.46 178.2c1.858-5.827 6.486-18.04 10.135-20.269 2.28-1.393 4.307 5.827 4.307 10.895"/>
        <path d="m318.11 175.42c3.294-4.054 13.429-20.776 17.736-22.043s7.601 13.935 7.348 20.776c-0.203 5.473-0.929 12.415-1.267 15.202"/>
        <path d="m342.44 184.54 11.148 10.895"/>
        <path d="m360.68 239.01c-2.281-6.335-6.841-21.689-6.841-32.432 0-13.428-2.027-70.437-2.027-71.957s-3.295-17.93 0.506-20.269c2.097-1.29 5.539 1.557 8.614 4.932m52.955 67.025c-1.183-5.997-3.041-11.402-4.054-26.604-0.574-8.611 1.013-28.884 1.013-31.671 0-2.788 1.52-14.975-2.787-13.682-5.067 1.52-15.455 16.469-16.722 16.975-1.267 0.507-6.081-1.266-9.628-1.266s-6.588 1.013-9.882 1.266c-3.293 0.254-3.04-2.027-4.56-4.054-0.747-0.995-3.37-4.737-6.335-7.989m6.841 19.138c-0.253-4.229-1.976-13.977-6.841-19.138"/>
        <path d="m317.04 188.84c0.042 0.405 0.064 0.83 0.064 1.267 0 2.799-0.908 5.068-2.027 5.068-1.12 0-2.027-2.269-2.027-5.068 0-0.258 8e-3 -0.512 0.023-0.76"/>
        <path d="m358.9 156.41c3.463-1.689 11.655-3.699 16.722 1.774"/>
        <path d="m362.2 155.4c-0.084 2.365 0.912 7.095 5.574 7.095s6.334-3.717 6.587-5.575"/>
        <path d="m370.3 155.25c0 2.463-1.021 4.46-2.28 4.46s-2.28-1.997-2.28-4.46c0-0.227 8e-3 -0.45 0.025-0.669"/>
        <path d="m404.26 156.41c-3.462-1.689-11.655-3.699-16.722 1.774"/>
        <path d="m400.96 155.4c0.085 2.365-0.912 7.095-5.574 7.095s-6.333-3.717-6.586-5.575"/>
        <path d="m392.86 155.25c0 2.463 1.021 4.46 2.281 4.46 1.259 0 2.28-1.997 2.28-4.46 0-0.227-9e-3 -0.45-0.025-0.669"/>
        <path d="m386.17 173.22 1.112-5.408"/>
        <path d="m378.52 173.22-1.112-5.408"/>
        <path d="m405.02 168.57c-3.462 0.169-11.148 1.216-14.188 4.054"/>
        <path d="m409.32 176.93c-2.196-1.097-8.513-3.141-16.216-2.533"/>
        <path d="m360.93 138.42c0.507-0.254 2.787-2.534 6.334-3.548"/>
        <path d="m416.67 183.78-13.682 14.442"/>
        <path d="m398.68 125.75c-1.266 2.956-3.749 9.527-3.547 12.162"/>
        <path d="m395.64 135.13c1.52 0.507 4.814 1.875 5.827 3.294"/>
        <path d="m315.58 219.75c4.392 4.139 14.898 16.723 21.79 33.952s9.797 26.457 10.473 29.244"/>
        <path d="m342.94 258.52c2.534 4.73 9.375 15.152 17.483 20.016"/>
        <path d="m322.67 216.71c-1.858 0.507-6.283 2.027-9.121 4.054-3.547 2.534-4.561 4.561-8.361 4.561-3.801 0-5.828 0.253-7.348-2.534-1.216-2.229 0.507-5.827 1.52-7.347"/>
        <path d="m297.59 209.62v3.8"/>
        <path d="m297.34 220.26 0.486 0.485c0.5 0.501 1.178 0.781 1.885 0.781h4.596c0.729 0 1.424-0.298 1.933-0.82 1.982-2.032 5.221-5.215 6.809-6.274 1.824-1.216 3.294-2.027 3.8-2.28-0.929 0.929-4.104 2.99-9.374 3.8-5.27 0.811-8.953-1.52-10.135-2.787-0.084 0.929-1.064 2.635-4.307 2.027-4.054-0.76-4.561-3.8-5.574-8.361-1.014-4.561-5.828-8.361-5.068-13.935s4.054-6.588 3.801-9.882c-0.254-3.294-4.054-14.442-3.041-24.323 1.014-9.882 3.548-6.335 12.416 2.787 7.094 7.297 9.543 9.121 9.881 9.121"/>
        <path d="m301.14 172.88c2.365-1.182 8.209-3.598 12.669-3.801 4.459-0.202 7.601-0.084 8.614 0"/>
        <path d="m297.84 170.85c-1.436 0.93-4.46 2.94-5.068 3.548"/>
        <path d="m293.44 206.35c0-1.047 0.848-1.895 1.895-1.895h4.505c1.046 0 1.895 0.848 1.895 1.895v0.107c-0.509 1.346-1.798 2.239-3.24 2.239h-1.815c-1.442 0-2.731-0.893-3.24-2.239v-0.107z"/>
        <path d="m379.08 173.45c0-0.787 0.638-1.424 1.425-1.424h3.925c0.787 0 1.425 0.637 1.425 1.424v0.067c-0.417 1.046-1.43 1.736-2.56 1.736h-1.655c-1.13 0-2.143-0.69-2.56-1.736v-0.067z"/>
        <path d="m458.13 206.39c0-0.787 0.638-1.425 1.425-1.425h3.926c0.786 0 1.424 0.638 1.424 1.425v0.067c-0.416 1.046-1.43 1.736-2.56 1.736h-1.655c-1.13 0-2.143-0.69-2.56-1.736v-0.067z"/>
        <path d="m297.84 171.11c-3.21-5.49-10.085-16.267-11.909-15.456-2.28 1.013-0.507 19.509 2.027 22.803"/>
        <path d="m325.97 177.19c1.52 1.436 5.067 4.51 7.094 5.321"/>
        <path d="m471.91 286.39c0.506 0.507 15.708-16.215 15.708-31.164s-19.509-24.83-41.299-18.243c-21.79 6.588-54.981 38.512-74.997 48.647-20.017 10.135-46.114 17.483-62.329 6.841-16.216-10.641-16.469-27.617-10.895-28.884s9.881 20.016 33.951 21.03c24.071 1.013 42.06-13.682 43.58-14.442 1.52-0.761 50.167-45.354 78.291-46.621 28.124-1.266 44.34 10.389 47.127 31.672s-14.949 42.312-23.563 49.66c-6.892 5.878-9.628 7.517-10.135 7.601"/>
        <path d="m446.57 236.73c2.196 3.209 7.601 11.047 11.655 16.722 5.067 7.095 12.922 17.483 13.682 33.698 0.76 16.216-6.081 27.871-7.601 29.898s-0.76 3.294 0 4.561 2.28 2.533-0.507 4.814c-2.787 2.28-23.817 10.134-32.938 10.388-9.121 0.253-8.362-1.52-8.615-3.294-0.36-2.534 2.029-4.054 3.801-4.054"/>
        <path d="m422.75 335.54c-1.774 0.253-5.321-0.152-5.321-3.801 0-3.648 2.872-4.56 4.307-4.56"/>
        <path d="m417.69 334.02c-1.352 0-3.902-0.912-3.294-4.56 0.76-4.561 6.842-3.801 9.629-4.054 2.23-0.203 9.881 0 14.442-1.521"/>
        <path d="m439.22 324.4c-5.49-3.209-17.128-11.858-19.763-20.776-3.294-11.148-1.015-17.736 8.108-26.604 8.125-7.898 12.415-10.473 13.428-10.895"/>
        <path d="m419.21 265.61c-0.169 6.419-1.976 22.246-7.854 34.205-7.348 14.949-17.229 33.445-19.256 36.485-2.027 3.041-3.801 6.841-8.362 7.855-4.56 1.013-5.827-0.253-6.08-2.28-0.203-1.622 1.097-3.548 1.773-4.308"/>
        <path d="m378.41 343.91c-1.52 0.337-4.612 0.304-4.814-2.534-0.203-2.838 1.435-4.561 2.28-5.068"/>
        <path d="m374.11 342.89c-1.774 0.253-4.966-0.253-3.547-4.307 1.773-5.068 9.375-5.574 10.642-6.841s7.348-15.202 8.615-20.777c1.267-5.574 3.04-16.975 3.04-24.83v-14.695m-1.013-34.205 0.57 19.256m-23.12 30.404c-6.757 10.557-21.081 32.685-24.324 36.739-4.054 5.067-9.374 12.668-12.668 13.429-3.294 0.76-5.321 0.253-5.828-2.534-0.405-2.23 1.183-3.463 2.027-3.801"/>
        <path d="m327.48 336.56c-1.267 0.338-4.496 0.507-5.066-1.773-0.759-3.041 1.434-4.139 2.785-5.321"/>
        <path d="m322.67 335.8c-1.435 0.169-3.188-0.288-2.787-4.307 0.506-5.067 10.641-5.574 12.415-7.094 1.773-1.521 6.587-9.122 8.614-13.429 1.622-3.446 4.899-12.077 6.334-15.962m23.057-8.868c6.081 3.04 18.952 9.273 21.79 9.881"/>
        <path d="m369.04 286.9c-1.098 2.28-1.672 8.361 4.814 14.442s13.006 9.966 15.455 11.148"/>
        <path d="m400.46 321.1c2.364-0.338 8.665-0.811 14.948 0 6.284 0.811 9.544 3.209 10.389 4.307"/>
        <path d="m411.6 320.85c-0.76 0.929-3.446 3.091-8.108 4.307s-6.334 1.858-6.588 2.027m-25.59-4.307c-1.521-0.676-4.814 0-4.814 3.04-1e-3 5.978 11.94 3.989 15.962 3.73m5.574-13.611c-2.702 0.676-9.527 2.128-15.202 2.534-7.094 0.506-10.135-0.254-11.908 2.28-1.774 2.534 0.506 4.814 1.773 5.574"/>
        <path d="m367.01 321.1c-1.267 0-3.902 0.608-4.307 3.041-0.507 3.04 1.774 4.307 4.307 4.307"/>
        <path d="m293.72 188.59c0.042 0.324 0.064 0.663 0.064 1.013 0 2.239-0.908 4.054-2.027 4.054-1.12 0-2.027-1.815-2.027-4.054 0-1.211 0.265-2.297 0.686-3.04"/>
        <path d="m417.69 188.34c-1.098-4.392-2.837-15.354-1.013-24.07 2.28-10.895 6.333-12.669 9.374-8.615 3.04 4.054 7.348 12.162 11.401 16.216 3.244 3.243 5.068 4.729 5.575 5.067"/>
        <path d="m433.14 177.44c-1.773 1.604-5.675 4.966-7.094 5.574"/>
        <path d="m433.9 179.98c-1.351-5.827-4.966-18.04-8.615-20.269-4.56-2.787-5.827 3.8-6.08 11.148"/>
        <path d="m435.68 169.84c3.547-0.423 8.868-1.76 15.202 0 3.649 1.013 5.574 2.28 6.081 2.787"/>
        <path d="m454.31 170.97c0.76-0.507 10.753-10.501 14.047-13.542 3.294-3.04 4.561-4.814 7.095-2.787 2.533 2.027-1.014 20.523-1.267 23.057-0.254 2.534-1.774 5.574-1.267 6.841s4.054 5.828 3.04 11.655c-1.013 5.828-5.067 9.628-5.574 12.162s-0.76 6.334-4.307 6.588c-2.838 0.202-4.392-1.098-4.814-1.774-0.422 0.676-2.128 2.23-5.574 3.04-3.446 0.811-10.557-2.702-13.682-4.56 3.462 3.631 11.148 10.895 14.188 10.895 3.041 0 4.646-0.507 5.068-0.76"/>
        <path d="m450.12 215.7c1.512 1.331 4.419 3.641 6.841 4.919m0 0c0.96 0.507 1.843 0.851 2.534 0.909 3.04 0.253 5.067 0.253 6.587-1.267 1.521-1.52-0.76-4.054-2.787-3.294s-4.054 3.25-6.334 3.652z"/>
        <path d="m458.99 214.69c0.591 0.76 2.027 2.432 3.04 3.04"/>
        <path d="m435.68 216.97c3.378 0.676 10.996 2.99 14.442 6.841"/>
        <path d="m442.52 225.84c-0.422-0.507-0.405-2.28 3.04-5.321"/>
        <path d="m454.93 206.33c-5.068-2.365-17.128-6.639-24.83-4.814"/>
        <path d="m454.42 208.86c-3.885-0.422-13.327-0.76-20.016 1.267"/>
        <path d="m467.6 206.33c4.222-2.28 15.202-6.486 25.337-5.067"/>
        <path d="m468.36 209.11c3.716-0.591 12.82-1.216 19.509 1.014"/>
        <path d="m299.62 220.01c0.202-0.81-1.013-2.28-1.774-3.04 0 0-0.505 2.534-0.253 3.04 0.253 0.507 1.824 0.811 2.027 0z"/>
        <path d="m303.44 220.01c-0.203-0.81 1.013-2.28 1.773-3.04 0 0 0.506 2.534 0.253 3.04-0.253 0.507-1.823 0.811-2.026 0z"/>
        <path d="m371.89 178.98c0.845 0.929 2.823 2.512 5.255 2.512 2.433 0 4.422-2.83 5.267-4.265"/>
        <path d="m393.62 178.71c-0.844 0.929-3.142 2.788-5.574 2.788s-4.729-2.872-5.574-4.308"/>
        <path d="m382.47 175.92v1.774"/>
        <path d="m465.32 174.4c-1.267-1.098-4.054-3.345-5.068-3.547-1.266-0.254 11.402-15.963 13.682-14.696 1.825 1.014-1.097 15.456-2.786 22.55"/>
        <path d="m451.13 192.14c-0.254 1.267-2.027 3.598-7.095 2.787-5.067-0.81-6.672-4.054-6.841-5.574 1.352-0.675 5.22-1.621 9.882 0 4.662 1.622 6.334 6.25 6.587 8.361"/>
        <path d="m447.27 189.35c-0.198 1.895-0.891 3.294-1.716 3.294-0.932 0-1.696-1.785-1.768-4.054"/>
        <path d="m468.61 185.7c0 2.433-0.794 4.406-1.773 4.406-0.71 0-1.323-1.036-1.606-2.533"/>
        <path d="m464.56 202.02c-0.845-1.605-2.483-5.727-2.281-9.375 0.015-0.26 0.048-0.513 0.099-0.76m0 0c0.834-4.082 6.337-6.349 8.01-6.588 1.773-0.253 0.76 4.763-2.534 6.081-2.511 1.004-4.749 0.76-5.476 0.507z"/>
    </g>
    <g filter="url(#r)">
        <path d="m280.56 327.61-1.748-2.909c-0.249-0.279-0.674-0.522-1.303-0.144 6e-3 -0.032-1.128 0.679-1.128 0.679l-0.998-1.659 2.144-1.287 5e-3 7e-3c0.322-0.193 0.648-0.398 0.981-0.607l-1.533-2.553 1.553-0.933 1.503 2.502c0.41-0.257 0.823-0.516 1.231-0.762l-1.493-2.486 1.554-0.933 1.534 2.553c2.111-1.03 4.071-1.368 5.354 0.367 0.941 1.267 0.863 2.414 0.238 3.414 1.697-0.535 3.156-0.212 4.16 1.874 1.247 2.59-0.186 4.347-2.709 6.067l1.548 2.577-1.554 0.934-1.527-2.543c-0.402 0.242-0.817 0.487-1.249 0.734l1.536 2.555-1.553 0.932-1.552-2.581c-0.365 0.216-0.739 0.432-1.116 0.658l-2.022 1.215-0.806-2.042s1.16-0.672 1.129-0.678c0.44-0.265 0.366-0.651 0.275-0.866l-2.448-4.074m8.793-1.349c1.16 1.929-2.276 3.695-3.328 4.329l-2.055-3.421c1.053-0.633 4.174-2.921 5.383-0.908zm-3.623-4.392c1.054 1.756-1.824 3.206-2.701 3.734l-1.865-3.103c0.878-0.528 3.466-2.462 4.566-0.631z" stroke="#DB2A7C" stroke-linecap="round" stroke-linejoin="round" stroke-width="1.3333"/>
    </g>
    <g opacity=".3">
        <g filter="url(#q)">
            <path d="m557.63 198.92c-0.708-0.409-1.506-0.528-2.297-0.556-0.663-0.023-1.652-0.448-1.652-1.654 0-0.899 0.729-1.622 1.653-1.655 0.79-0.027 1.588-0.146 2.296-0.555 0.637-0.367 1.165-0.896 1.533-1.532 0.367-0.636 0.56-1.358 0.56-2.093s-0.193-1.457-0.56-2.093c-0.368-0.636-0.896-1.165-1.533-1.532-0.636-0.368-1.358-0.561-2.093-0.561-0.734 0-1.456 0.193-2.093 0.561-0.636 0.367-1.164 0.896-1.532 1.532-0.367 0.636-0.56 1.358-0.56 2.093 0 0.811 0.288 1.557 0.656 2.25 0.31 0.582 0.466 1.662-0.595 2.275-0.79 0.456-1.776 0.168-2.268-0.62-0.416-0.666-0.918-1.289-1.621-1.695-0.636-0.368-1.358-0.561-2.093-0.561s-1.457 0.193-2.093 0.561c-0.636 0.367-1.165 0.896-1.532 1.532s-0.561 1.358-0.561 2.093 0.194 1.457 0.561 2.093 0.896 1.165 1.532 1.532 1.358 0.561 2.093 0.561 1.457-0.194 2.093-0.561c0.703-0.406 1.205-1.029 1.62-1.694 0.342-0.546 1.194-1.242 2.269-0.621 0.788 0.455 1.032 1.453 0.595 2.276-0.368 0.692-0.656 1.438-0.656 2.249 0 0.735 0.193 1.456 0.56 2.093 0.368 0.636 0.896 1.165 1.533 1.532 0.636 0.367 1.358 0.561 2.093 0.561 0.734 0 1.456-0.194 2.092-0.561 0.637-0.367 1.165-0.896 1.533-1.532 0.367-0.637 0.56-1.358 0.56-2.093s-0.193-1.457-0.56-2.093c-0.368-0.636-0.896-1.165-1.533-1.532z" stroke="#DB2A7C" stroke-linecap="round" stroke-linejoin="round" stroke-width="1.3333"/>
        </g>
    </g>
    <g opacity=".3">
        <g filter="url(#p)">
            <path d="m210.07 189.48-0.335-0.576c-0.278 0.161-0.402 0.499-0.293 0.802l0.628-0.226zm4.22-2.447 0.625-0.234c-0.069-0.183-0.215-0.328-0.4-0.394s-0.389-0.048-0.559 0.051l0.334 0.577zm-1.182 10.904 0.577 0.333c0.098-0.169 0.117-0.374 0.05-0.558l-0.627 0.225zm-1.514 2.623-0.577-0.334c-0.12 0.207-0.12 0.461 0 0.667l0.577-0.333zm1.736 3.006-0.578 0.333c0.119 0.207 0.339 0.334 0.578 0.334 0.238 0 0.458-0.127 0.577-0.334l-0.577-0.333zm1.11-1.923 0.627-0.225c-0.088-0.244-0.309-0.416-0.568-0.439-0.258-0.023-0.507 0.106-0.637 0.331l0.578 0.333zm2.516 7.004-0.627 0.225c0.066 0.186 0.212 0.333 0.398 0.401 0.185 0.068 0.391 0.05 0.562-0.049l-0.333-0.577zm10.831-6.254 0.333 0.578c0.319-0.184 0.429-0.592 0.244-0.911l-0.577 0.333zm-2.505-4.339 0.577-0.333c-0.088-0.153-0.234-0.265-0.405-0.311-0.17-0.046-0.352-0.022-0.505 0.067l0.333 0.577zm-5.658 3.267-0.624 0.233c0.068 0.184 0.214 0.328 0.399 0.394 0.184 0.066 0.389 0.048 0.558-0.05l-0.333-0.577zm-1.963-5.258-0.577-0.333c-0.099 0.172-0.117 0.38-0.047 0.566l0.624-0.233zm1.815-3.144 0.578 0.334c0.119-0.207 0.119-0.461 0-0.667l-0.578 0.333zm-1.735-3.006 0.577-0.333c-0.119-0.206-0.339-0.333-0.577-0.333s-0.459 0.127-0.578 0.333l0.578 0.333zm-1.443 2.499-0.624 0.233c0.09 0.242 0.312 0.41 0.569 0.431s0.504-0.108 0.633-0.331l-0.578-0.333zm-5.894-2.355 4.221-2.448-0.669-1.153-4.221 2.448 0.669 1.153zm3.331 7.655-3.038-8.457-1.255 0.451 3.039 8.457 1.254-0.451zm-1.564 3.181 1.514-2.623-1.154-0.666-1.514 2.622 1.154 0.667zm1.736 2.34-1.736-3.007-1.154 0.667 1.735 3.006 1.155-0.666zm-0.045-1.923-1.11 1.923 1.155 0.666 1.11-1.922-1.155-0.667zm3.721 7.111-2.516-7.003-1.255 0.451 2.517 7.003 1.254-0.451zm9.871-6.605-10.831 6.253 0.666 1.155 10.831-6.253-0.666-1.155zm-2.75-3.428 2.506 4.339 1.154-0.667-2.505-4.339-1.155 0.667zm-4.747 3.51 5.658-3.266-0.666-1.155-5.658 3.266 0.666 1.155zm-2.92-5.602 1.963 5.258 1.249-0.466-1.963-5.258-1.249 0.466zm1.862-3.71-1.815 3.144 1.155 0.666 1.815-3.143-1.155-0.667zm-1.736-2.339 1.736 3.006 1.155-0.667-1.736-3.006-1.155 0.667zm-0.287 2.498 1.442-2.498-1.155-0.667-1.442 2.498 1.155 0.667zm-3.21-5.479 2.008 5.379 1.249-0.467-2.008-5.379-1.249 0.467z" fill="#DB2A7C"/>
        </g>
    </g>
    <g filter="url(#o)">
        <path d="m490.56 124.45-0.577-0.333c-0.089 0.153-0.113 0.335-0.067 0.506 0.046 0.17 0.158 0.316 0.311 0.404l0.333-0.577zm0.752-1.302 0.577 0.334c0.088-0.153 0.112-0.335 0.066-0.506-0.045-0.171-0.157-0.317-0.31-0.405l-0.333 0.577zm2.719 3.306 0.577 0.333c0.185-0.319 0.075-0.726-0.244-0.91l-0.333 0.577zm-2.255 3.905-0.333 0.578c0.153 0.088 0.335 0.112 0.506 0.066s0.316-0.157 0.405-0.31l-0.578-0.334zm-7.81-4.509 0.333-0.577c-0.153-0.089-0.335-0.113-0.506-0.067-0.17 0.046-0.316 0.157-0.404 0.311l0.577 0.333zm-0.752 1.302-0.577-0.334c-0.184 0.319-0.075 0.727 0.244 0.911l0.333-0.577zm5.207 3.006-0.333 0.577 0.333-0.577zm-5.511 9.546 0.333-0.577-0.333 0.577zm-0.868-0.501 0.333-0.577c-0.318-0.184-0.726-0.075-0.91 0.244l0.577 0.333zm-0.751 1.302-0.334 0.577c0.319 0.184 0.727 0.075 0.911-0.244l-0.577-0.333zm-4.34-2.506-0.577-0.333c-0.088 0.153-0.112 0.335-0.066 0.506 0.045 0.171 0.157 0.316 0.31 0.405l0.333-0.578zm0.752-1.301 0.577 0.333c0.089-0.153 0.113-0.335 0.067-0.506-0.046-0.17-0.158-0.316-0.311-0.405l-0.333 0.578zm-3.038-1.754-0.577-0.333c-0.088 0.153-0.112 0.335-0.067 0.506 0.046 0.17 0.158 0.316 0.311 0.404l0.333-0.577zm2.255-3.905 0.333-0.577c-0.318-0.185-0.726-0.075-0.91 0.244l0.577 0.333zm7.377 4.259-0.334 0.577c0.319 0.184 0.727 0.075 0.911-0.244l-0.577-0.333zm0.751-1.302 0.578 0.333c0.184-0.319 0.074-0.726-0.244-0.91l-0.334 0.577zm-6.423-8.916 0.577 0.334-0.577-0.334zm1.002-1.735-0.578-0.334 0.578 0.334zm6.16-1.651 0.333-0.577-0.333 0.577zm0.434 0.251-0.333 0.577c0.153 0.089 0.335 0.112 0.505 0.067 0.171-0.046 0.317-0.158 0.405-0.311l-0.577-0.333zm0.751-1.302 0.334-0.577c-0.319-0.184-0.727-0.075-0.911 0.244l0.577 0.333zm4.165 4.14 0.752-1.301-1.155-0.667-0.751 1.302 1.154 0.666zm3.227 1.094-3.471-2.004-0.666 1.154 3.471 2.004 0.666-1.154zm-2.01 4.816 2.254-3.906-1.154-0.666-2.255 3.905 1.155 0.667zm-8.721-4.266 7.81 4.51 0.667-1.155-7.811-4.509-0.666 1.154zm0.159 1.058 0.751-1.302-1.154-0.666-0.752 1.301 1.155 0.667zm4.963 2.096-5.207-3.007-0.667 1.155 5.207 3.006 0.667-1.154zm1.46 6.82c0.688-1.192 0.969-2.517 0.746-3.749-0.225-1.245-0.958-2.351-2.206-3.071l-0.667 1.154c0.909 0.525 1.406 1.295 1.561 2.154 0.158 0.873-0.031 1.88-0.588 2.845l1.154 0.667zm-1.002 1.735 1.002-1.735-1.154-0.667-1.002 1.736 1.154 0.666zm-6.636 2.145c1.247 0.721 2.572 0.803 3.763 0.376 1.178-0.423 2.185-1.329 2.873-2.521l-1.154-0.666c-0.558 0.965-1.335 1.632-2.17 1.932-0.821 0.295-1.737 0.249-2.646-0.275l-0.666 1.154zm-0.868-0.501 0.868 0.501 0.666-1.154-0.868-0.501-0.666 1.154zm-0.244-0.91-0.752 1.301 1.155 0.667 0.751-1.302-1.154-0.666zm0.159 1.057-4.339-2.505-0.667 1.155 4.339 2.505 0.667-1.155zm-4.095-1.594 0.751-1.302-1.154-0.666-0.752 1.301 1.155 0.667zm-3.197-2.812 3.038 1.754 0.666-1.155-3.037-1.753-0.667 1.154zm2.011-4.815-2.255 3.905 1.155 0.666 2.254-3.905-1.154-0.666zm8.287 4.014-7.377-4.258-0.666 1.154 7.376 4.259 0.667-1.155zm-0.159-1.057-0.752 1.301 1.155 0.667 0.752-1.302-1.155-0.666zm-4.529-1.845 4.773 2.755 0.667-1.154-4.773-2.756-0.667 1.155zm-1.895-7.071c-1.429 2.476-0.581 5.641 1.895 7.071l0.667-1.155c-1.838-1.061-2.468-3.411-1.407-5.249l-1.155-0.667zm1.002-1.736-1.002 1.736 1.155 0.667 1.002-1.736-1.155-0.667zm7.071-1.894c-2.476-1.43-5.641-0.581-7.071 1.894l1.155 0.667c1.061-1.838 3.411-2.468 5.249-1.407l0.667-1.154zm0.434 0.25-0.434-0.25-0.667 1.154 0.435 0.251 0.666-1.155zm-0.159-1.057-0.751 1.301 1.154 0.667 0.752-1.302-1.155-0.666zm5.25 2.261-4.339-2.505-0.667 1.154 4.339 2.506 0.667-1.155z" fill="#DB2A7C"/>
    </g>
    <defs>
        <filter id="u" x="190.72" y="104.77" width="60.865" height="44.52" color-interpolation-filters="sRGB" filterUnits="userSpaceOnUse">
            <feFlood flood-opacity="0" result="BackgroundImageFix"/>
            <feColorMatrix in="SourceAlpha" values="0 0 0 0 0 0 0 0 0 0 0 0 0 0 0 0 0 0 127 0"/>
            <feOffset dy="2.66667"/>
            <feGaussianBlur stdDeviation="6.66667"/>
            <feColorMatrix values="0 0 0 0 0.858824 0 0 0 0 0.164706 0 0 0 0 0.486275 0 0 0 0.8 0"/>
            <feBlend in2="BackgroundImageFix" result="effect1_dropShadow"/>
            <feBlend in="SourceGraphic" in2="effect1_dropShadow" result="shape"/>
        </filter>
        <filter id="t" x="523.57" y="288.42" width="54.386" height="79.438" color-interpolation-filters="sRGB" filterUnits="userSpaceOnUse">
            <feFlood flood-opacity="0" result="BackgroundImageFix"/>
            <feColorMatrix in="SourceAlpha" values="0 0 0 0 0 0 0 0 0 0 0 0 0 0 0 0 0 0 127 0"/>
            <feOffset dy="2.66667"/>
            <feGaussianBlur stdDeviation="6.66667"/>
            <feColorMatrix values="0 0 0 0 0.858824 0 0 0 0 0.164706 0 0 0 0 0.486275 0 0 0 0.8 0"/>
            <feBlend in2="BackgroundImageFix" result="effect1_dropShadow"/>
            <feBlend in="SourceGraphic" in2="effect1_dropShadow" result="shape"/>
        </filter>
        <filter id="s" x="252.17" y="102.7" width="263.17" height="258.48" color-interpolation-filters="sRGB" filterUnits="userSpaceOnUse">
            <feFlood flood-opacity="0" result="BackgroundImageFix"/>
            <feColorMatrix in="SourceAlpha" values="0 0 0 0 0 0 0 0 0 0 0 0 0 0 0 0 0 0 127 0"/>
            <feOffset dy="2.66667"/>
            <feGaussianBlur stdDeviation="6.66667"/>
            <feColorMatrix values="0 0 0 0 0 0 0 0 0 0.741176 0 0 0 0 0.686275 0 0 0 0.8 0"/>
            <feBlend in2="BackgroundImageFix" result="effect1_dropShadow"/>
            <feBlend in="SourceGraphic" in2="effect1_dropShadow" result="shape"/>
        </filter>
        <filter id="r" x="257.35" y="302.03" width="53.756" height="53.756" color-interpolation-filters="sRGB" filterUnits="userSpaceOnUse">
            <feFlood flood-opacity="0" result="BackgroundImageFix"/>
            <feColorMatrix in="SourceAlpha" values="0 0 0 0 0 0 0 0 0 0 0 0 0 0 0 0 0 0 127 0"/>
            <feOffset dy="2.66667"/>
            <feGaussianBlur stdDeviation="6.66667"/>
            <feColorMatrix values="0 0 0 0 0.858824 0 0 0 0 0.164706 0 0 0 0 0.486275 0 0 0 0.8 0"/>
            <feBlend in2="BackgroundImageFix" result="effect1_dropShadow"/>
            <feBlend in="SourceGraphic" in2="effect1_dropShadow" result="shape"/>
        </filter>
        <filter id="q" x="527.24" y="175.35" width="46.478" height="48.042" color-interpolation-filters="sRGB" filterUnits="userSpaceOnUse">
            <feFlood flood-opacity="0" result="BackgroundImageFix"/>
            <feColorMatrix in="SourceAlpha" values="0 0 0 0 0 0 0 0 0 0 0 0 0 0 0 0 0 0 127 0"/>
            <feOffset dy="2.66667"/>
            <feGaussianBlur stdDeviation="6.66667"/>
            <feColorMatrix values="0 0 0 0 0.858824 0 0 0 0 0.164706 0 0 0 0 0.486275 0 0 0 0.8 0"/>
            <feBlend in2="BackgroundImageFix" result="effect1_dropShadow"/>
            <feBlend in="SourceGraphic" in2="effect1_dropShadow" result="shape"/>
        </filter>
        <filter id="p" x="192.17" y="173.45" width="49.864" height="52.406" color-interpolation-filters="sRGB" filterUnits="userSpaceOnUse">
            <feFlood flood-opacity="0" result="BackgroundImageFix"/>
            <feColorMatrix in="SourceAlpha" values="0 0 0 0 0 0 0 0 0 0 0 0 0 0 0 0 0 0 127 0"/>
            <feOffset dy="2.66667"/>
            <feGaussianBlur stdDeviation="6.66667"/>
            <feColorMatrix values="0 0 0 0 0.858824 0 0 0 0 0.164706 0 0 0 0 0.486275 0 0 0 0.8 0"/>
            <feBlend in2="BackgroundImageFix" result="effect1_dropShadow"/>
            <feBlend in="SourceGraphic" in2="effect1_dropShadow" result="shape"/>
        </filter>
        <filter id="o" x="458.36" y="106.56" width="51.526" height="53.36" color-interpolation-filters="sRGB" filterUnits="userSpaceOnUse">
            <feFlood flood-opacity="0" result="BackgroundImageFix"/>
            <feColorMatrix in="SourceAlpha" values="0 0 0 0 0 0 0 0 0 0 0 0 0 0 0 0 0 0 127 0"/>
            <feOffset dy="2.66667"/>
            <feGaussianBlur stdDeviation="6.66667"/>
            <feColorMatrix values="0 0 0 0 0.858824 0 0 0 0 0.164706 0 0 0 0 0.486275 0 0 0 0.8 0"/>
            <feBlend in2="BackgroundImageFix" result="effect1_dropShadow"/>
            <feBlend in="SourceGraphic" in2="effect1_dropShadow" result="shape"/>
        </filter>
        <linearGradient id="m" x1="131.17" x2="-214.92" y1="221.74" y2="221.74" gradientUnits="userSpaceOnUse">
            <stop stop-color="#DB2A7D" stop-opacity="0" offset="0"/>
            <stop stop-color="#DB2A7D" offset=".52083"/>
            <stop stop-color="#DB2A7D" stop-opacity="0" offset="1"/>
        </linearGradient>
        <linearGradient id="i" x1="984" x2="-216" y1="221.25" y2="221.25" gradientUnits="userSpaceOnUse">
            <stop stop-color="#DB2A7D" stop-opacity="0" offset="0"/>
            <stop stop-color="#DB2A7D" offset=".48958"/>
            <stop stop-color="#DB2A7D" stop-opacity="0" offset=".91371"/>
        </linearGradient>
        <linearGradient id="h" x1="984" x2="-216" y1="247.17" y2="247.17" gradientUnits="userSpaceOnUse">
            <stop stop-color="#DB2A7D" stop-opacity="0" offset="0"/>
            <stop stop-color="#DB2A7D" offset=".48958"/>
            <stop stop-color="#DB2A7D" stop-opacity="0" offset=".91371"/>
        </linearGradient>
        <linearGradient id="g" x1="984" x2="-216" y1="275.2" y2="275.2" gradientUnits="userSpaceOnUse">
            <stop stop-color="#DB2A7D" stop-opacity="0" offset="0"/>
            <stop stop-color="#DB2A7D" offset=".48958"/>
            <stop stop-color="#DB2A7D" stop-opacity="0" offset=".91371"/>
        </linearGradient>
        <linearGradient id="f" x1="984" x2="-216" y1="308.82" y2="308.82" gradientUnits="userSpaceOnUse">
            <stop stop-color="#DB2A7D" stop-opacity="0" offset="0"/>
            <stop stop-color="#DB2A7D" offset=".48958"/>
            <stop stop-color="#DB2A7D" stop-opacity="0" offset=".91371"/>
        </linearGradient>
        <linearGradient id="e" x1="984" x2="-216" y1="354.36" y2="354.36" gradientUnits="userSpaceOnUse">
            <stop stop-color="#DB2A7D" stop-opacity="0" offset="0"/>
            <stop stop-color="#DB2A7D" offset=".48958"/>
            <stop stop-color="#DB2A7D" stop-opacity="0" offset=".91371"/>
        </linearGradient>
        <linearGradient id="d" x1="984" x2="-216" y1="411.81" y2="411.81" gradientUnits="userSpaceOnUse">
            <stop stop-color="#DB2A7D" offset=".64062"/>
        </linearGradient>
        <linearGradient id="c" x1="219.58" x2="47.071" y1="221.59" y2="221.59" gradientUnits="userSpaceOnUse">
            <stop stop-color="#DB2A7D" stop-opacity="0" offset="0"/>
            <stop stop-color="#DB2A7D" offset=".52083"/>
            <stop stop-color="#DB2A7D" stop-opacity="0" offset="1"/>
        </linearGradient>
        <linearGradient id="b" x1="307.99" x2="219.58" y1="221.59" y2="221.59" gradientUnits="userSpaceOnUse">
            <stop stop-color="#DB2A7D" stop-opacity="0" offset="0"/>
            <stop stop-color="#DB2A7D" offset=".52083"/>
            <stop stop-color="#DB2A7D" stop-opacity="0" offset="1"/>
        </linearGradient>
        <linearGradient id="a" x1="397.48" x2="396.4" y1="221.59" y2="221.59" gradientUnits="userSpaceOnUse">
            <stop stop-color="#DB2A7D" stop-opacity="0" offset="0"/>
            <stop stop-color="#DB2A7D" offset=".52083"/>
            <stop stop-color="#DB2A7D" stop-opacity="0" offset="1"/>
        </linearGradient>
        <linearGradient id="l" x1="484.81" x2="573.22" y1="221.59" y2="221.59" gradientUnits="userSpaceOnUse">
            <stop stop-color="#DB2A7D" stop-opacity="0" offset="0"/>
            <stop stop-color="#DB2A7D" offset=".52083"/>
            <stop stop-color="#DB2A7D" stop-opacity="0" offset="1"/>
        </linearGradient>
        <linearGradient id="k" x1="572.14" x2="744.65" y1="221.59" y2="221.59" gradientUnits="userSpaceOnUse">
            <stop stop-color="#DB2A7D" stop-opacity="0" offset="0"/>
            <stop stop-color="#DB2A7D" offset=".52083"/>
            <stop stop-color="#DB2A7D" stop-opacity="0" offset="1"/>
        </linearGradient>
        <linearGradient id="j" x1="637.91" x2="984" y1="221.74" y2="221.74" gradientUnits="userSpaceOnUse">
            <stop stop-color="#DB2A7D" stop-opacity="0" offset="0"/>
            <stop stop-color="#DB2A7D" offset=".52083"/>
            <stop stop-color="#DB2A7D" stop-opacity="0" offset="1"/>
        </linearGradient>
    </defs>
</svg>
