<?xml version="1.0" encoding="UTF-8"?>
<svg width="90px" height="75px" viewBox="0 0 90 75" version="1.1" xmlns="http://www.w3.org/2000/svg" xmlns:xlink="http://www.w3.org/1999/xlink">
    <!-- Generator: Sketch 52.2 (67145) - http://www.bohemiancoding.com/sketch -->
    <title>Group 6</title>
    <desc>Created with Sketch.</desc>
    <defs>
        <linearGradient x1="35.7370998%" y1="15.6234442%" x2="34.0124497%" y2="176.154472%" id="linearGradient-1">
            <stop stop-color="#192F36" offset="0%"></stop>
            <stop stop-color="#1B2C33" offset="65.8425919%"></stop>
            <stop stop-color="#1B252D" offset="100%"></stop>
        </linearGradient>
    </defs>
    <g id="ui" stroke="none" stroke-width="1" fill="none" fill-rule="evenodd">
        <g id="1600_3_1_0_wallet-" transform="translate(-765.000000, -754.000000)">
            <g id="Group-6" transform="translate(702.000000, 756.000000)">
                <g id="Group-2">
                    <g id="Group-4" transform="translate(65.000000, 0.000000)">
                        <path d="M1.28070175,8.13614783 L1.28070175,53.7310662 C1.28070175,57.7978249 4.56072844,61.0944812 8.60697286,61.0944812 L65.6737289,61.0944812 C69.7199733,61.0944812 73,57.7978249 73,53.7310662 C73,50.9062808 73,31.1207261 73,29.7083333 M72.9890992,29.7083333 C72.9890992,28.262091 72.9890992,25.9608461 72.9890992,22.8045987 C72.9890992,18.7387309 69.709069,15.4427969 65.6628203,15.4427969 L9.38856752,15.4427969 C5.22815441,15.4427969 1.49805315,12.3123213 1.28070175,8.13614783" id="Stroke-1" fill="url(#linearGradient-1)" opacity="0.600000024"></path>
                        <path d="M-3.57402996e-12,9.04166667 L-3.57402996e-12,54.6365851 C-3.57402996e-12,58.7033438 3.28002668,62 7.32627111,62 L64.3930271,62 C68.4392716,62 71.7192982,58.7033438 71.7192982,54.6365851 C71.7192982,51.8117996 71.7192982,27.1673007 71.7192982,25.754908 M71.7192982,29.7083333 C71.7192982,28.262091 71.7192982,25.9608461 71.7192982,22.8045987 C71.7192982,18.7387309 68.4392681,15.4427969 64.3930193,15.4427969 L8.11876658,15.4427969 C3.95835347,15.4427969 0.228252214,12.3123213 0.0109008167,8.13614783 C-0.221818861,3.68421011 3.30190834,0 7.68406379,0 L66.7192982,0" id="Stroke-1" stroke="#00BDAF" stroke-width="3" stroke-linejoin="round"></path>
                    </g>
                    <g id="Group-18" transform="translate(0.000000, 35.000000)" fill="#1C373D" stroke="#00BDAF" stroke-width="2.8">
                        <g id="Group-16">
                            <g id="Group-3" transform="translate(115.000000, 0.000000)">
                                <circle id="Oval" cx="17.5" cy="17.5" r="18.9"></circle>
                            </g>
                        </g>
                    </g>
                </g>
                <g id="Group-129" transform="translate(134.000000, 45.000000)" stroke="#00BDAF" stroke-width="2.14500016">
                    <polyline id="Path-15" stroke-linejoin="round" transform="translate(4.372639, 12.138950) rotate(180.000000) translate(-4.372639, -12.138950) " points="0.221538903 13.9278371 4.37263909 10.3500638 8.52373928 13.9278371"></polyline>
                    <path d="M4.40904633,0.931304309 L4.40904633,13.9278371" id="Path-8" transform="translate(4.409046, 7.429571) rotate(180.000000) translate(-4.409046, -7.429571) "></path>
                </g>
                <g id="Group-129-Copy" transform="translate(127.500000, 53.000000) rotate(-180.000000) translate(-127.500000, -53.000000) translate(123.000000, 46.000000)" stroke="#00BDAF" stroke-width="2.14500016">
                    <polyline id="Path-15" stroke-linejoin="round" transform="translate(4.372639, 12.138950) rotate(180.000000) translate(-4.372639, -12.138950) " points="0.221538903 13.9278371 4.37263909 10.3500638 8.52373928 13.9278371"></polyline>
                    <path d="M4.40904633,0.931304309 L4.40904633,13.9278371" id="Path-8" transform="translate(4.409046, 7.429571) rotate(180.000000) translate(-4.409046, -7.429571) "></path>
                </g>
            </g>
        </g>
    </g>
</svg>