<?xml version="1.0" encoding="UTF-8"?>
<svg width="28px" height="28px" viewBox="0 0 28 28" version="1.1" xmlns="http://www.w3.org/2000/svg" xmlns:xlink="http://www.w3.org/1999/xlink">
    <!-- Generator: Sketch 52.2 (67145) - http://www.bohemiancoding.com/sketch -->
    <title>Group 101</title>
    <desc>Created with Sketch.</desc>
    <defs>
        <path d="M0,14 C0,6.2680135 6.2680135,0 14,0 C21.7319865,0 28,6.2680135 28,14 C28,21.7319865 21.7319865,28 14,28 C6.2680135,28 0,21.7319865 0,14 Z" id="path-1"></path>
    </defs>
    <g id="ui" stroke="none" stroke-width="1" fill="none" fill-rule="evenodd">
        <g id="iCons-Invs_Manag" transform="translate(-622.000000, -256.000000)">
            <g id="Group-136" transform="translate(606.000000, 205.000000)">
                <g id="Group-122" transform="translate(0.000000, 35.000000)">
                    <g id="Group-101" transform="translate(16.000000, 16.000000)">
                        <mask id="mask-2" fill="white">
                            <use xlink:href="#path-1"></use>
                        </mask>
                        <use id="Oval-7" fill="#27323A" xlink:href="#path-1"></use>
                        <path d="M-1.73856321,4.84266344 C1.33974393,1.84277872 5.59983365,-0.0138556777 10.3067042,-0.0138556777 C11.3182356,-0.0138556777 12.3091329,0.0718916664 13.2721007,0.23630584 L11.3612571,14.1123288 L10.1979896,12.6987647 L-1.33752118,5.20751641 L-1.73856321,4.84266344 Z M27.1218571,14.0444677 C27.2436213,14.8412113 27.3067042,15.6565276 27.3067042,16.4861443 C27.3067042,20.8307257 25.5766779,24.7831223 22.7487903,27.7297621 L27.1218571,14.0444677 Z M16.6915607,31.7828894 C14.7202209,32.5588003 12.5648806,32.9861443 10.3067042,32.9861443 C8.8553331,32.9861443 7.44644225,32.8096142 6.10158064,32.4774692 L16.6915607,31.7828894 Z" id="Combined-Shape" fill="#D8D8D8" opacity="0.100000001" mask="url(#mask-2)" transform="translate(12.784070, 16.486144) rotate(57.000000) translate(-12.784070, -16.486144) "></path>
                        <rect id="Rectangle-18" fill="#FFFFFF" mask="url(#mask-2)" x="14" y="7" width="1.5" height="8" rx="0.75"></rect>
                        <path d="M17.3273837,10.1263952 L17.3273837,10.1263952 C17.7184266,10.1263952 18.0354295,10.4433981 18.0354295,10.8344409 C18.0354295,10.8480205 18.0350388,10.8615972 18.034258,10.8751543 L17.7647868,15.5537718 C17.7405781,15.9740875 17.3926733,16.3025309 16.971661,16.3025309 L16.971661,16.3025309 C16.5806181,16.3025309 16.2636153,15.985528 16.2636153,15.5944852 C16.2636153,15.5809056 16.2640059,15.5673289 16.2647868,15.5537718 L16.534258,10.8751543 C16.5584666,10.4548386 16.9063715,10.1263952 17.3273837,10.1263952 Z" id="Rectangle-18-Copy" fill="#FFFFFF" mask="url(#mask-2)" transform="translate(17.165483, 13.214463) rotate(-297.000000) translate(-17.165483, -13.214463) "></path>
                    </g>
                </g>
            </g>
        </g>
    </g>
</svg>