<?xml version="1.0" encoding="UTF-8"?>
<svg width="28px" height="28px" viewBox="0 0 28 28" version="1.1" xmlns="http://www.w3.org/2000/svg" xmlns:xlink="http://www.w3.org/1999/xlink">
    <!-- Generator: Sketch 52.2 (67145) - http://www.bohemiancoding.com/sketch -->
    <title>Group 101</title>
    <desc>Created with Sketch.</desc>
    <defs>
        <path d="M0,14 C0,6.2680135 6.2680135,0 14,0 C21.7319865,0 28,6.2680135 28,14 C28,21.7319865 21.7319865,28 14,28 C6.2680135,28 0,21.7319865 0,14 Z" id="path-1"></path>
        <path d="M7,14 C7,10.1340068 10.1340068,7 14,7 C17.8659932,7 21,10.1340068 21,14 C21,17.8659932 17.8659932,21 14,21 C10.1340068,21 7,17.8659932 7,14 Z" id="path-3"></path>
        <path d="M14,7 C17.8659932,7 21,10.1340068 21,14 C21,17.8659932 17.8659932,21 14,21 C10.1340068,21 7,17.8659932 7,14 C7,10.1340068 10.1340068,7 14,7 Z" id="path-5"></path>
        <mask id="mask-6" maskContentUnits="userSpaceOnUse" maskUnits="objectBoundingBox" x="-2" y="-2" width="18" height="18">
            <rect x="5" y="5" width="18" height="18" fill="white"></rect>
            <use xlink:href="#path-5" fill="black"></use>
        </mask>
        <mask id="mask-8" maskContentUnits="userSpaceOnUse" maskUnits="objectBoundingBox" x="-2" y="-2" width="18" height="18">
            <rect x="5" y="5" width="18" height="18" fill="white"></rect>
            <use xlink:href="#path-5" fill="black"></use>
        </mask>
    </defs>
    <g id="ui" stroke="none" stroke-width="1" fill="none" fill-rule="evenodd">
        <g id="iCons-Invs_Manag" transform="translate(-620.000000, -640.000000)">
            <g id="Group-136-Copy-2" transform="translate(604.000000, 589.000000)">
                <g id="Group-122" transform="translate(0.000000, 35.000000)">
                    <g id="Group-101" transform="translate(16.000000, 16.000000)">
                        <mask id="mask-2" fill="white">
                            <use xlink:href="#path-1"></use>
                        </mask>
                        <use id="Oval-7" fill="#27323A" xlink:href="#path-1"></use>
                        <mask id="mask-4" fill="white">
                            <use xlink:href="#path-3"></use>
                        </mask>
                        <path stroke="#202A30" stroke-width="2" d="M6,14 C6,9.581722 9.581722,6 14,6 C18.418278,6 22,9.581722 22,14 C22,18.418278 18.418278,22 14,22 C9.581722,22 6,18.418278 6,14 Z"></path>
                        <mask id="mask-7" fill="white">
                            <use xlink:href="#path-5"></use>
                        </mask>
                        <g id="Oval-7" stroke="#FFFFFF" mask="url(#mask-6)" stroke-width="4" stroke-dasharray="33,999">
                            <use mask="url(#mask-8)" xlink:href="#path-5"></use>
                        </g>
                    </g>
                </g>
            </g>
        </g>
    </g>
</svg>