<?xml version="1.0" encoding="UTF-8"?>
<svg width="28px" height="28px" viewBox="0 0 28 28" version="1.1" xmlns="http://www.w3.org/2000/svg" xmlns:xlink="http://www.w3.org/1999/xlink">
    <!-- Generator: Sketch 52.2 (67145) - http://www.bohemiancoding.com/sketch -->
    <title>Group 125</title>
    <desc>Created with Sketch.</desc>
    <g id="ui" stroke="none" stroke-width="1" fill="none" fill-rule="evenodd">
        <g id="iCons-Invs_Manag" transform="translate(-622.000000, -1103.000000)">
            <g id="Group-132" transform="translate(606.000000, 1058.000000)">
                <g id="Group-131" transform="translate(0.000000, 28.000000)">
                    <g id="Закрытие-Программы-Фонда-Copy" transform="translate(16.000000, 17.000000)">
                        <g id="Group-93-Copy-2" transform="translate(14.000000, 14.000000) scale(1, -1) translate(-14.000000, -14.000000) ">
                            <g id="Group-125">
                                <circle id="Oval-7" fill="#27323A" fill-rule="nonzero" transform="translate(14.000000, 14.000000) scale(1, -1) rotate(90.000000) translate(-14.000000, -14.000000) " cx="14" cy="14" r="14"></circle>
                                <g id="Group-123" transform="translate(14.246307, 13.718159) scale(1, -1) rotate(-585.000000) translate(-14.246307, -13.718159) translate(8.746307, 8.218159)" fill="#FFFFFF">
                                    <rect id="Rectangle-20" x="1.8189894e-12" y="4.66551452" width="10.1403883" height="1.514039" rx="0.7570195"></rect>
                                    <path d="M4.46317471,9.73570864 L4.46317471,0.809359217 C4.46317471,0.474111652 4.80210389,0.202339804 5.22019421,0.202339804 C5.63828454,0.202339804 5.97721371,0.474111652 5.97721371,0.809359217 L5.97721371,9.73570864 C5.97721371,10.0709562 5.63828454,10.3427281 5.22019421,10.3427281 C4.80210389,10.3427281 4.46317471,10.0709562 4.46317471,9.73570864 Z" id="Rectangle-20-Copy-2"></path>
                                </g>
                            </g>
                        </g>
                    </g>
                </g>
            </g>
        </g>
    </g>
</svg>