<?xml version="1.0" encoding="UTF-8"?>
<svg width="28px" height="28px" viewBox="0 0 28 28" version="1.1" xmlns="http://www.w3.org/2000/svg" xmlns:xlink="http://www.w3.org/1999/xlink">
    <!-- Generator: Sketch 52.2 (67145) - http://www.bohemiancoding.com/sketch -->
    <title>Начало Периода</title>
    <desc>Created with Sketch.</desc>
    <g id="Symbols" stroke="none" stroke-width="1" fill="none" fill-rule="evenodd">
        <g id="Начало-Периода">
            <g>
                <g id="Group-93-Copy" transform="translate(14.000000, 14.000000) scale(1, -1) translate(-14.000000, -14.000000) ">
                    <circle id="Oval-7" fill="#1D383A" transform="translate(14.000000, 14.000000) scale(1, -1) rotate(90.000000) translate(-14.000000, -14.000000) " cx="14" cy="14" r="14"></circle>
                    <path d="M27.0937563,18.7605711 C25.0899385,24.0412923 19.9833006,27.7947315 14,27.7947315 C13.6808361,27.7947315 13.3641666,27.7840514 13.0503295,27.7630291 L13.0503295,11.7277378 C13.3589693,11.5540776 13.6571283,11.2854262 13.9448065,10.9217837 L27.0937563,18.7605711 Z" id="Combined-Shape" fill="#2EBD85" opacity="0.300000012"></path>
                </g>
                <path d="M13,7 L14.5,7 L14.5,16.25 C14.5,16.6642136 14.1642136,17 13.75,17 L13.75,17 C13.3357864,17 13,16.6642136 13,16.25 L13,7 Z" id="Rectangle-18" fill="#2EBD85"></path>
                <path d="M16.0891016,10.6495191 L17.5891016,10.6495191 L17.5891016,17.8995191 C17.5891016,18.3137326 17.2533152,18.6495191 16.8391016,18.6495191 L16.8391016,18.6495191 C16.4248881,18.6495191 16.0891016,18.3137326 16.0891016,17.8995191 L16.0891016,10.6495191 Z" id="Rectangle-18-Copy" fill="#2EBD85" transform="translate(16.839102, 14.649519) rotate(-300.000000) translate(-16.839102, -14.649519) "></path>
            </g>
        </g>
    </g>
</svg>