<svg xmlns="http://www.w3.org/2000/svg" width="17" height="17" viewBox="0 0 17 17" fill="none">
  <path opacity="0.2" fill-rule="evenodd" clip-rule="evenodd" d="M8.5 16C12.6421 16 16 12.6421 16 8.5C16 4.35786 12.6421 1 8.5 1C4.35786 1 1 4.35786 1 8.5C1 12.6421 4.35786 16 8.5 16Z" stroke="#E8EFF3"/>
  <path opacity="0.3" fill-rule="evenodd" clip-rule="evenodd" d="M7.86487 10.012C7.86487 9.71549 7.93188 9.47026 8.0659 9.27636C8.19992 9.08246 8.39525 8.8686 8.65189 8.63478C8.84008 8.46369 8.97838 8.31969 9.06678 8.20278C9.15517 8.08586 9.19937 7.95327 9.19937 7.80499C9.19937 7.59398 9.11525 7.42717 8.94701 7.30456C8.77878 7.18194 8.55494 7.12064 8.27549 7.12064C8.00745 7.12064 7.76935 7.17624 7.56119 7.28745C7.35303 7.39866 7.17767 7.55406 7.03509 7.75367L6 7.1463C6.23953 6.78131 6.56317 6.49901 6.97093 6.29941C7.3787 6.0998 7.86202 6 8.42091 6C9.07676 6 9.60286 6.13972 9.99921 6.41917C10.3956 6.69862 10.5938 7.08642 10.5938 7.58258C10.5938 7.8164 10.5553 8.02171 10.4783 8.1985C10.4013 8.37529 10.3072 8.52499 10.196 8.64761C10.0848 8.77022 9.94076 8.91137 9.76397 9.07105C9.55296 9.25925 9.39898 9.41751 9.30203 9.54583C9.20507 9.67415 9.1566 9.82955 9.1566 10.012H7.86487ZM8.51654 12.1589C8.28272 12.1589 8.08739 12.0834 7.93056 11.9323C7.77373 11.7811 7.69531 11.5972 7.69531 11.3805C7.69531 11.1638 7.7723 10.9827 7.92628 10.8373C8.08026 10.6919 8.27702 10.6191 8.51654 10.6191C8.75607 10.6191 8.95282 10.6919 9.1068 10.8373C9.26078 10.9827 9.33777 11.1638 9.33777 11.3805C9.33777 11.5972 9.25936 11.7811 9.10252 11.9323C8.94569 12.0834 8.75036 12.1589 8.51654 12.1589Z" fill="#E8EFF3"/>
</svg>