<?xml version="1.0" encoding="UTF-8"?>
<svg width="69px" height="69px" viewBox="0 0 69 69" version="1.1" xmlns="http://www.w3.org/2000/svg" xmlns:xlink="http://www.w3.org/1999/xlink">
    <!-- Generator: sketchtool 49.1 (51147) - http://www.bohemiancoding.com/sketch -->
    <title>E44FAB18-06F4-49F7-A8C4-29FD40FA5738</title>
    <desc>Created with sketchtool.</desc>
    <defs></defs>
    <g id="Genesis-WebApp" stroke="none" stroke-width="1" fill="none" fill-rule="evenodd">
        <g id="Dashboard-Programs" transform="translate(-1603.000000, -403.000000)">
            <g id="Dashboard" transform="translate(166.000000, 164.000000)">
                <g id="Profit" transform="translate(1279.000000, 128.000000)">
                    <g id="Wallet-Icon" transform="translate(158.000000, 114.000000)">
                        <path d="M60,22.3636364 L5.45454545,22.3636364 C2.44090909,22.3636364 0,19.9227273 0,16.9090909 L0,57.8181818 C0,62.3372727 3.66272727,66 8.18181818,66 L60,66 L60,22.3636364 Z" id="Shape" fill="#B2EAE7" opacity="0.5"></path>
                        <path d="M19.6363636,5.45454545 L11.4545455,5.45454545 C8.44090909,5.45454545 6,7.89545455 6,10.9090909 C6,13.9227273 8.44090909,16.3636364 11.4545455,16.3636364" id="Shape" stroke="#16B7AD" stroke-width="4.5" stroke-linecap="square"></path>
                        <polyline id="Shape" stroke="#16B7AD" stroke-width="4.5" stroke-linecap="square" points="19.6363636 16.3636364 19.6363636 0 57.8181818 0 57.8181818 16.3636364"></polyline>
                        <path d="M66,16.3636364 L11.4545455,16.3636364 C8.44090909,16.3636364 6,13.9227273 6,10.9090909 L6,51.8181818 C6,56.3372727 9.66272727,60 14.1818182,60 L66,60 L66,16.3636364 Z" id="Shape" stroke="#16B7AD" stroke-width="4.5" stroke-linecap="square"></path>
                        <circle id="Oval" stroke="#16B7AD" stroke-width="4.5" stroke-linecap="square" cx="49.6363636" cy="38.1818182" r="5.45454545"></circle>
                    </g>
                </g>
            </g>
        </g>
    </g>
</svg>