<?xml version="1.0" encoding="UTF-8"?>
<svg width="45px" height="45px" viewBox="0 0 45 45" version="1.1" xmlns="http://www.w3.org/2000/svg" xmlns:xlink="http://www.w3.org/1999/xlink">
    <!-- Generator: sketchtool 49 (51002) - http://www.bohemiancoding.com/sketch -->
    <title>1B069CE7-6262-4E90-AD89-AACE42B427B5</title>
    <desc>Created with sketchtool.</desc>
    <defs>
        <rect id="path-1" x="0" y="0" width="37" height="37" rx="5"></rect>
        <filter x="-17.6%" y="-14.9%" width="135.1%" height="135.1%" filterUnits="objectBoundingBox" id="filter-2">
            <feOffset dx="0" dy="1" in="SourceAlpha" result="shadowOffsetOuter1"></feOffset>
            <feGaussianBlur stdDeviation="2" in="shadowOffsetOuter1" result="shadowBlurOuter1"></feGaussianBlur>
            <feComposite in="shadowBlurOuter1" in2="SourceAlpha" operator="out" result="shadowBlurOuter1"></feComposite>
            <feColorMatrix values="0 0 0 0 0.890196078   0 0 0 0 0.921568627   0 0 0 0 0.929411765  0 0 0 0.670374774 0" type="matrix" in="shadowBlurOuter1"></feColorMatrix>
        </filter>
    </defs>
    <g id="Genesis-WebApp" stroke="none" stroke-width="1" fill="none" fillRule="evenodd">
        <g id="Traders-" transform="translate(-1432.000000, -25.000000)">
            <g id="Top-Bar" transform="translate(-1.000000, -3.000000)">
                <g id="Search" transform="translate(126.000000, 25.000000)">
                    <g id="Filter_CTA_Normal" transform="translate(1311.000000, 6.000000)">
                        <g id="Rectangle-5">
                            <use fill="black" fillOpacity="1" filter="url(#filter-2)" xlink:href="#path-1"></use>
                            <use fill="#FFFFFF" fillRule="evenodd" xlink:href="#path-1"></use>
                            <rect stroke="#E3EBED" strokeWidth="1" x="0.5" y="0.5" width="36" height="36" rx="5"></rect>
                        </g>
                        <g id="preferences-circle-rotate" transform="translate(12.000000, 10.000000)" fill="#15BBAF" fillRule="nonzero">
                            <path d="M4,5 L4,1 C4,0.4 3.6,0 3,0 C2.4,0 2,0.4 2,1 L2,5 C2,5.6 2.4,6 3,6 C3.6,6 4,5.6 4,5 Z" id="Shape"></path>
                            <path d="M0,11 C0,12.3 0.9,13.4 2,13.8 C2,13.9 2,13.9 2,14 L2,15 C2,15.6 2.4,16 3,16 C3.6,16 4,15.6 4,15 L4,14 C4,13.9 4,13.9 4,13.8 C5.2,13.4 6,12.3 6,11 C6,9.3 4.7,8 3,8 C1.3,8 0,9.3 0,11 Z" id="Shape"></path>
                            <path d="M10,11 L10,15 C10,15.6 10.4,16 11,16 C11.6,16 12,15.6 12,15 L12,11 C12,10.4 11.6,10 11,10 C10.4,10 10,10.4 10,11 Z" id="Shape"></path>
                            <path d="M8,5 C8,6.7 9.3,8 11,8 C12.7,8 14,6.7 14,5 C14,3.7 13.1,2.6 12,2.2 C12,2.1 12,2.1 12,2 L12,1 C12,0.4 11.6,0 11,0 C10.4,0 10,0.4 10,1 L10,2 C10,2.1 10,2.1 10,2.2 C8.9,2.6 8,3.7 8,5 Z" id="Shape"></path>
                        </g>
                    </g>
                </g>
            </g>
        </g>
    </g>
</svg>