<?xml version="1.0" encoding="utf-8" ?>
<svg xmlns="http://www.w3.org/2000/svg" xmlns:xlink="http://www.w3.org/1999/xlink" width="32" height="18">
	<defs>
		<clipPath id="clip_0">
			<rect x="-29" y="-38" width="1920" height="1078" clip-rule="evenodd"/>
		</clipPath>
	</defs>
	<g clip-path="url(#clip_0)">
		<path fill="rgb(21,184,172)" stroke="none" d="M32 1.95244C32 10.801 24.8223 18 15.9999 18C7.17773 18 0 10.801 0 1.95244C0 1.29146 0.0399147 0.64001 0.118707 0L2.99291 0C2.89805 0.637237 2.84863 1.28955 2.84863 1.95244C2.84863 9.22564 8.74823 15.1427 15.9999 15.1427C22.9185 15.1427 28.6073 9.75612 29.1153 2.94477L8.77397 2.94477C9.25813 6.51049 12.3138 9.26758 15.9999 9.26758C18.8534 9.26758 21.3298 7.61513 22.5273 5.21436L25.6067 5.21436C24.2488 9.22859 20.4543 12.1247 15.9999 12.1247C10.4081 12.1247 5.85778 7.56089 5.85778 1.95244C5.85778 1.2847 5.92241 0.632385 6.04578 0L31.8813 0C31.9601 0.64001 32 1.29146 32 1.95244"/>
	</g>
</svg>
