<?xml version="1.0" encoding="UTF-8"?>
<svg width="24px" height="24px" viewBox="0 0 24 24" version="1.1" xmlns="http://www.w3.org/2000/svg" xmlns:xlink="http://www.w3.org/1999/xlink">
    <!-- Generator: Sketch 52.6 (67491) - http://www.bohemiancoding.com/sketch -->
    <title>Group 41</title>
    <desc>Created with Sketch.</desc>
    <defs>
        <path d="M0,12 C0,5.372583 5.372583,0 12,0 C18.627417,0 24,5.372583 24,12 C24,18.627417 18.627417,24 12,24 C5.372583,24 0,18.627417 0,12 Z" id="path-1"></path>
    </defs>
    <g id="ui" stroke="none" stroke-width="1" fill="none" fill-rule="evenodd">
        <g id="1600_3_3_wallet" transform="translate(-615.000000, -541.000000)">
            <g id="Group-24" transform="translate(576.000000, 458.000000)">
                <g id="Group-41" transform="translate(39.000000, 83.000000)">
                    <mask id="mask-2" fill="white">
                        <use xlink:href="#path-1"></use>
                    </mask>
                    <use id="Oval-7" fill="#EB3B5A" opacity="0.100000001" xlink:href="#path-1"></use>
                    <g id="Group-38" mask="url(#mask-2)" fill="#EB3B5A">
                        <g transform="translate(12.000000, 11.500000) rotate(-315.000000) translate(-12.000000, -11.500000) translate(7.000000, 7.000000)">
                            <path d="M5,-1.59161573e-12 C5.27614237,-1.59161573e-12 5.5,0.223857625 5.5,0.5 L5.5,8.5 C5.5,8.77614237 5.27614237,9 5,9 C4.72385763,9 4.5,8.77614237 4.5,8.5 L4.5,0.5 C4.5,0.223857625 4.72385763,-1.59161573e-12 5,-1.59161573e-12 Z" id="Rectangle-18"></path>
                            <path d="M9.5,4.5 C9.5,4.77614237 9.27614237,5 9,5 L1,5 C0.723857625,5 0.5,4.77614237 0.5,4.5 C0.5,4.22385763 0.723857625,4 1,4 L9,4 C9.27614237,4 9.5,4.22385763 9.5,4.5 Z" id="Rectangle-18-Copy-2"></path>
                        </g>
                    </g>
                </g>
            </g>
        </g>
    </g>
</svg>