<?xml version="1.0" encoding="UTF-8"?>
<svg width="24px" height="24px" viewBox="0 0 24 24" version="1.1" xmlns="http://www.w3.org/2000/svg" xmlns:xlink="http://www.w3.org/1999/xlink">
    <!-- Generator: Sketch 52.6 (67491) - http://www.bohemiancoding.com/sketch -->
    <title>Group 101</title>
    <desc>Created with Sketch.</desc>
    <defs>
        <path d="M0,12 C0,5.372583 5.372583,0 12,0 C18.627417,0 24,5.372583 24,12 C24,18.627417 18.627417,24 12,24 C5.372583,24 0,18.627417 0,12 Z" id="path-1"></path>
    </defs>
    <g id="ui" stroke="none" stroke-width="1" fill="none" fill-rule="evenodd">
        <g id="1600_3_3_wallet" transform="translate(-615.000000, -501.000000)">
            <g id="Group-24" transform="translate(576.000000, 458.000000)">
                <g id="Group-101" transform="translate(39.000000, 43.000000)">
                    <mask id="mask-2" fill="white">
                        <use xlink:href="#path-1"></use>
                    </mask>
                    <use id="Oval-7" fill="#403523" xlink:href="#path-1"></use>
                    <path d="M-1.45223362,4.17146683 C1.18631536,1.60013707 4.83782083,0.00873615928 8.87228129,0.00873615928 C16.9198591,0.00873615928 23.4437099,6.34070898 23.4437099,14.1515933 C23.4437099,21.4183871 17.7970806,27.4051293 10.5301453,28.2039181 L9.77618378,12.1168943 L8.77909738,10.9052679 L-1.10848331,4.48419795 L-1.45223362,4.17146683 Z" id="Combined-Shape" fill="#D7821B" opacity="0.107460931" mask="url(#mask-2)" transform="translate(10.995738, 14.106327) rotate(57.000000) translate(-10.995738, -14.106327) "></path>
                    <rect id="Rectangle-18" fill="#F7931A" mask="url(#mask-2)" x="12" y="6" width="1" height="7" rx="0.5"></rect>
                    <path d="M10.8278271,10.84977 L10.8278271,10.84977 C11.1727186,10.84977 11.4523084,11.1293598 11.4523084,11.4742513 C11.4523084,11.4865962 11.4519423,11.4989385 11.4512107,11.5112617 L11.2154605,15.4821088 C11.1934041,15.8536163 10.8856927,16.1436006 10.5135311,16.1436006 L10.5135311,16.1436006 C10.1686396,16.1436006 9.88904981,15.8640108 9.88904981,15.5191193 C9.88904981,15.5067743 9.88941587,15.4944321 9.89014751,15.4821088 L10.1258977,11.5112617 C10.1479541,11.1397543 10.4556655,10.84977 10.8278271,10.84977 Z" id="Rectangle-18-Copy" fill="#F7931A" mask="url(#mask-2)" transform="translate(10.670679, 13.496685) rotate(-127.000000) translate(-10.670679, -13.496685) "></path>
                </g>
            </g>
        </g>
    </g>
</svg>