<svg width="582" height="462" viewBox="0 0 582 462" fill="none" xmlns="http://www.w3.org/2000/svg">
<mask id="mask0" mask-type="alpha" maskUnits="userSpaceOnUse" x="2" y="161" width="580" height="301">
<path d="M2 161H582V461.15H2V161Z" fill="#040027"/>
</mask>
<g mask="url(#mask0)">
<g opacity="0.5">
<path opacity="0.5" d="M169.511 306.286L2.52191 443.75" stroke="url(#paint0_linear)" stroke-width="2"/>
<path opacity="0.1" d="M2 306H580.999" stroke="url(#paint1_linear)" stroke-width="2"/>
<path opacity="0.2" d="M2 321.034H580.999" stroke="url(#paint2_linear)" stroke-width="2"/>
<path opacity="0.3" d="M2 337.287H580.999" stroke="url(#paint3_linear)" stroke-width="2"/>
<path opacity="0.5" d="M2 356.792H580.999" stroke="url(#paint4_linear)" stroke-width="2"/>
<path opacity="0.5" d="M2 383.205H580.999" stroke="url(#paint5_linear)" stroke-width="2"/>
<path opacity="0.5" d="M2 416.524H580.999" stroke="url(#paint6_linear)" stroke-width="2"/>
<path d="M212.167 306.2L128.933 443.751" stroke="url(#paint7_linear)" stroke-width="2"/>
<path d="M254.826 306.2L212.169 443.751" stroke="url(#paint8_linear)" stroke-width="2"/>
<path d="M298.003 306.2L297.482 443.751" stroke="url(#paint9_linear)" stroke-width="2"/>
<path d="M340.142 306.2L382.799 443.751" stroke="url(#paint10_linear)" stroke-width="2"/>
<path d="M382.278 306.2L465.512 443.751" stroke="url(#paint11_linear)" stroke-width="2"/>
<path opacity="0.5" d="M414.011 306.286L581 443.75" stroke="url(#paint12_linear)" stroke-width="2"/>
</g>
</g>
<g opacity="0.4">
<path d="M377.221 97.4085C375.421 97.3934 373.704 98.2879 371.871 97.8602C370.908 97.6355 370.352 97.0721 369.803 96.2975C368.072 93.8538 369.398 90.1591 370.871 87.9059C371.717 86.6117 372.885 85.4778 374.017 84.4386C375.059 83.482 376.348 82.9889 377.652 82.4893C378.538 82.1502 379.653 82.2817 380.579 82.328C381.557 82.377 382.722 82.5646 383.637 82.9328C384.441 83.2565 384.844 83.8279 385.36 84.5403C386.039 85.4777 386.082 86.4075 386.614 87.2029C386.897 87.6259 387.048 88.1437 387.237 88.6132C387.682 89.7137 388.127 90.8143 388.571 91.9149C389.293 93.7022 390.03 95.4004 390.797 97.1595C391.097 97.8492 391.432 98.3742 391.82 99.1622C392.44 100.423 392.791 101.358 393.329 102.429C394.063 103.889 395.712 106.814 395.712 106.814C395.712 106.814 396.452 107.963 397.065 108.577C397.547 109.059 398.419 109.68 398.419 109.68" stroke="#DB2A7C" stroke-width="1.68" stroke-linecap="round" stroke-linejoin="round"/>
<path d="M354.929 103.453C356.623 102.843 358.539 103.119 360.127 102.11C360.962 101.579 361.3 100.863 361.562 99.9507C362.387 97.0717 359.914 94.0239 357.778 92.3849C356.551 91.4434 355.074 90.7598 353.662 90.1535C352.362 89.5955 350.983 89.5564 349.587 89.5164C348.639 89.4893 347.63 89.9824 346.772 90.3323C345.865 90.7022 344.828 91.2646 344.086 91.9146C343.434 92.4862 343.243 93.1588 342.991 94.0018C342.66 95.1111 342.927 96.0028 342.689 96.9293C342.562 97.422 342.591 97.9606 342.567 98.4663C342.512 99.652 342.456 100.838 342.401 102.023C342.31 103.949 342.177 105.795 342.035 107.709C341.98 108.459 341.838 109.065 341.733 109.937C341.564 111.332 341.542 112.331 341.388 113.519C341.179 115.14 340.59 118.446 340.59 118.446C340.59 118.446 340.272 119.775 339.896 120.557C339.601 121.172 338.984 122.046 338.984 122.046" stroke="#DB2A7C" stroke-width="1.68" stroke-linecap="round" stroke-linejoin="round"/>
<path d="M374.739 97.8776C374.995 98.8746 375.361 99.9024 375.73 100.861C376.155 101.961 376.622 102.989 377.349 103.928C378.277 105.126 379.673 106.102 380.976 106.838C381.754 107.277 382.561 107.511 383.439 107.659C383.697 107.703 384.314 107.919 384.486 107.723" stroke="#DB2A7C" stroke-width="1.68" stroke-linecap="round" stroke-linejoin="round"/>
<path d="M357.427 103.075C357.515 104.1 357.51 105.191 357.478 106.218C357.441 107.397 357.34 108.522 356.965 109.648C356.486 111.085 355.491 112.468 354.504 113.594C353.916 114.266 353.231 114.753 352.452 115.184C352.223 115.31 351.713 115.718 351.485 115.59" stroke="#DB2A7C" stroke-width="1.68" stroke-linecap="round" stroke-linejoin="round"/>
<path d="M384.571 107.739C385.312 109.571 385.962 111.428 386.62 113.291C386.848 113.937 387.01 114.6 387.218 115.252C387.306 115.528 387.468 115.845 387.5 116.132C387.521 116.318 387.549 116.553 387.617 116.723" stroke="#DB2A7C" stroke-width="1.68" stroke-linecap="round" stroke-linejoin="round"/>
<path d="M351.41 115.633C351.317 117.607 351.318 119.575 351.313 121.55C351.312 122.235 351.378 122.915 351.398 123.598C351.406 123.888 351.358 124.24 351.422 124.523C351.464 124.705 351.516 124.936 351.507 125.118" stroke="#DB2A7C" stroke-width="1.68" stroke-linecap="round" stroke-linejoin="round"/>
<path d="M387.558 116.751C388.047 116.668 388.529 116.537 389.024 116.491C389.796 116.419 390.575 116.087 391.289 115.799C391.791 115.596 392.284 115.332 392.779 115.112C393.468 114.804 393.983 114.397 394.537 113.891C394.787 113.663 395.034 113.437 395.288 113.22C395.513 113.028 395.79 112.827 395.979 112.6C396.329 112.177 396.724 111.777 397.079 111.358C397.371 111.013 397.623 110.578 397.97 110.282C398.094 110.176 398.339 109.743 398.488 109.774" stroke="#DB2A7C" stroke-width="1.68" stroke-linecap="round" stroke-linejoin="round"/>
<path d="M351.572 125.125C351.084 125.209 350.586 125.244 350.103 125.365C349.351 125.553 348.505 125.497 347.736 125.461C347.196 125.436 346.644 125.35 346.104 125.305C345.351 125.243 344.731 125.03 344.041 124.735C343.729 124.603 343.422 124.471 343.11 124.351C342.834 124.244 342.506 124.146 342.252 123.993C341.782 123.711 341.277 123.464 340.804 123.186C340.414 122.957 340.032 122.629 339.607 122.465C339.455 122.406 339.081 122.078 338.95 122.157" stroke="#DB2A7C" stroke-width="1.68" stroke-linecap="round" stroke-linejoin="round"/>
<path d="M350.183 67.3115C349.952 66.9171 349.704 66.805 349.351 66.5442C348.986 66.2747 348.622 66.252 348.192 66.252C347.549 66.252 347.015 66.7193 346.712 67.2384C346.227 68.0698 346.31 69.1693 346.31 70.0964C346.31 70.9679 346.284 71.8586 346.392 72.723C346.479 73.4218 346.69 74.1744 347.025 74.7995C347.263 75.243 347.625 75.7554 348.117 75.9342C348.209 75.9676 348.284 76.0691 348.375 76.1168C348.46 76.1617 348.571 76.2097 348.667 76.2244C348.768 76.2399 348.862 76.2883 348.963 76.3178C349.221 76.3925 349.5 76.4072 349.765 76.4376C349.958 76.4596 350.155 76.4822 350.348 76.4822C351.241 76.4822 352.202 76.1168 352.084 76.1168" stroke="#DB2A7C" stroke-width="1.68" stroke-linecap="round" stroke-linejoin="round"/>
<path d="M382.109 68.1752C382.799 67.7967 383.996 66.9254 385.158 67.274C386.321 67.6226 386.394 68.5414 386.394 68.5414C386.394 68.5414 386.427 69.1846 386.394 69.5945C386.352 70.1211 386.312 70.7522 386.137 71.4707C385.886 72.4992 385.748 73.1185 385.115 73.9815C384.644 74.6238 384.035 76.0739 384.035 76.0739C384.035 76.0739 383.594 77.5173 383.05 78.0615C382.097 79.0145 380.675 78.7939 379.912 78.7939" stroke="#DB2A7C" stroke-width="1.68" stroke-linecap="round" stroke-linejoin="round"/>
<path d="M350.619 76.5977C350.497 78.3064 350.546 82.09 351.718 85.0193C352.272 86.4056 353.299 88.4216 354.5 90.4315M369.5 95.5811C369.5 95.5811 369.659 96.297 366.73 97.4687C363.952 98.5801 363.282 98.4265 362 97.9678" stroke="#DB2A7C" stroke-width="1.68" stroke-linecap="round"/>
<path d="M380.644 78.7939C380.156 80.6247 379.5 82.0811 379.5 82.0811" stroke="#DB2A7C" stroke-width="1.68" stroke-linecap="round"/>
<path d="M349.887 66.711C349.521 63.7817 349.228 57.0444 350.985 53.5292C353.182 49.1353 358.309 43.6429 362.702 43.2768C367.096 42.9106 369.293 42.5445 373.687 44.7414C377.202 46.499 379.79 49.3794 380.644 50.5999C381.743 53.1631 383.793 60.0468 383.207 67.0771" stroke="#DB2A7C" stroke-width="1.68" stroke-linecap="round"/>
<path d="M381.998 68.1152C382.66 67.6138 382.871 67.375 383.69 67.375" stroke="#DB2A7C" stroke-width="1.68" stroke-linecap="round" stroke-linejoin="round"/>
<path d="M350.127 67.19C352.442 70.2453 353.342 65.0733 353.86 63.4567C354.514 61.4202 355.26 59.1553 357.705 59.1553C358.442 59.1553 358.946 60.219 359.359 60.7074C359.918 61.3684 360.642 61.8512 361.266 62.4422C363.054 64.1361 365.696 64.1782 367.921 63.4364C368.962 63.0895 370.116 62.2056 371.036 61.6103C371.794 61.1199 372.688 60.8421 373.41 60.3422C374.119 59.8511 375.432 59.8775 376.068 60.4335C376.674 60.9646 378.502 61.5492 378.614 62.4422C378.68 62.9692 379.169 63.856 379.385 64.3697C379.591 64.8599 379.742 65.5246 379.882 66.0132C380.037 66.5545 380.269 67.1278 380.714 67.4741C381.022 67.7137 382.028 68.3966 382.266 67.9205" stroke="#DB2A7C" stroke-width="1.68" stroke-linecap="round" stroke-linejoin="round"/>
<path d="M361.897 85.0205C362.289 85.097 362.678 85.16 363.072 85.2164" stroke="#DB2A7C" stroke-width="1.68" stroke-linecap="round" stroke-linejoin="round"/>
<path d="M365.619 85.4119C366.107 85.2425 366.536 85.0511 366.99 84.8242" stroke="#DB2A7C" stroke-width="1.68" stroke-linecap="round" stroke-linejoin="round"/>
<path d="M394.6 141.624C396.657 146.717 405.113 153.963 408.103 153.545C411.094 153.127 415.768 148.079 415.761 146.107C415.755 144.135 417.02 136.516 414.551 130.404M414.551 130.404C412.083 124.293 403.359 118.34 402.262 115.624M414.551 130.404C414.551 130.404 408.667 114.248 409.5 111.581C410.333 108.915 411 101.082 407 91.0815C403 81.0815 390 81.5815 384 83.0815" stroke="#DB2A7C" stroke-width="1.68" stroke-linecap="round"/>
<path d="M353.155 150.928C352.899 156.415 347.316 166.05 344.355 166.645C341.395 167.239 335.314 164.022 334.668 162.159C334.022 160.296 330.307 153.524 330.615 146.94M330.615 146.94C330.924 140.357 337.187 131.853 337.324 128.927M330.615 146.94C330.615 146.94 330.824 129.747 329.156 127.506C327.487 125.265 324.267 118.094 324.733 107.333C325.2 96.5732 337.634 92.7446 343.792 92.1753" stroke="#DB2A7C" stroke-width="1.68" stroke-linecap="round"/>
<path d="M388.394 116.488L394.325 140.945" stroke="#DB2A7C" stroke-width="1.68" stroke-linecap="round"/>
<path d="M350.697 125.154L353.19 150.197" stroke="#DB2A7C" stroke-width="1.68" stroke-linecap="round"/>
<path d="M397.893 110.675L402.536 116.302" stroke="#DB2A7C" stroke-width="1.68" stroke-linecap="round"/>
<path d="M339.809 122.811L337.29 129.657" stroke="#DB2A7C" stroke-width="1.68" stroke-linecap="round"/>
<path d="M376.71 103.102C376.293 112.14 369.847 118.917 366.51 120.432C364.479 121.355 359.847 117.634 355.293 112.581" stroke="#DB2A7C" stroke-width="1.68" stroke-linecap="round"/>
<path d="M389.5 82.5811C389 84.9144 388.3 89.9811 389.5 93.5811" stroke="#DB2A7C" stroke-width="1.68" stroke-linecap="round"/>
<path d="M346 166.081L347.5 177.081C359.333 180.081 386.9 183.581 402.5 173.581C402.667 167.748 403.4 155.381 405 152.581" stroke="#DB2A7C" stroke-width="1.68"/>
<path d="M347.5 176.581C347 183.748 345.3 199.781 342.5 206.581C339 215.081 333 243.081 333 254.081C343.333 253.914 365.2 254.681 370 259.081" stroke="#DB2A7C" stroke-width="1.68" stroke-linecap="round"/>
<path d="M411 217.081L410.163 217.005L411 217.081ZM407 257.581L406.734 258.378L407.73 258.71L407.836 257.666L407 257.581ZM370.5 259.081L370.018 259.769L370.417 260.048L370.858 259.841L370.5 259.081ZM370.5 237.081H371.34V236.925L371.284 236.78L370.5 237.081ZM368.784 230.28C368.617 229.847 368.131 229.631 367.698 229.797C367.265 229.964 367.049 230.45 367.216 230.883L368.784 230.28ZM401.855 173.619C402.251 174.095 402.851 174.887 403.346 175.695C403.594 176.099 403.806 176.492 403.953 176.84C404.107 177.204 404.16 177.449 404.16 177.581H405.84C405.84 177.113 405.684 176.621 405.5 176.185C405.309 175.733 405.052 175.263 404.779 174.817C404.232 173.925 403.582 173.067 403.145 172.543L401.855 173.619ZM404.16 177.581C404.16 177.892 404.078 178.495 403.97 179.43C403.868 180.321 403.755 181.428 403.723 182.621C403.659 184.976 403.902 187.81 405.288 190.026L406.712 189.136C405.598 187.353 405.341 184.936 405.402 182.666C405.432 181.547 405.539 180.497 405.639 179.622C405.735 178.792 405.84 178.02 405.84 177.581H404.16ZM405.288 190.026C406.46 191.903 407.936 195.915 408.991 200.881C410.041 205.824 410.654 211.612 410.163 217.005L411.837 217.157C412.346 211.55 411.709 205.588 410.634 200.531C409.564 195.497 408.04 191.26 406.712 189.136L405.288 190.026ZM410.163 217.005C409.364 225.8 407.164 247.661 406.164 257.496L407.836 257.666C408.836 247.834 411.036 225.963 411.837 217.157L410.163 217.005ZM407.266 256.784C403.935 255.674 398.127 254.435 391.432 254.279C384.737 254.123 377.097 255.048 370.142 258.321L370.858 259.841C377.503 256.714 384.863 255.806 391.393 255.958C397.923 256.111 403.565 257.322 406.734 258.378L407.266 256.784ZM370.982 258.393C370.248 257.88 369.234 256.865 368.641 255.548C368.061 254.262 367.881 252.697 368.751 250.957L367.249 250.205C366.119 252.465 366.355 254.566 367.109 256.239C367.849 257.88 369.085 259.116 370.018 259.769L370.982 258.393ZM368.751 250.957C369.811 248.838 370.451 246.068 370.831 243.517C371.212 240.953 371.34 238.537 371.34 237.081H369.66C369.66 238.459 369.538 240.792 369.169 243.27C368.799 245.761 368.189 248.324 367.249 250.205L368.751 250.957ZM371.284 236.78L368.784 230.28L367.216 230.883L369.716 237.383L371.284 236.78Z" fill="#DB2A7C"/>
<path d="M380.5 203.081C379.167 204.248 375.7 208.181 372.5 214.581" stroke="#DB2A7C" stroke-width="1.68" stroke-linecap="round"/>
<path d="M336 254.581C336 261.248 336 275.181 336 277.581C336 280.581 334 284.081 335 288.081C335.8 291.281 339.333 295.081 341 296.581" stroke="#DB2A7C" stroke-width="1.68" stroke-linecap="round"/>
<path d="M338.5 294.081C338.5 295.248 338.5 298.681 338.5 303.081C338.5 308.581 336.5 313.081 341.5 332.081C345.5 347.281 345.167 355.748 344.5 358.081C342.833 361.748 339.886 366.237 336.5 368.581C330 373.081 326 374.581 328.5 377.081C331 379.581 334.09 381.081 341.5 381.081C346.5 381.081 349.5 378.581 352 371.581C354.049 365.843 357.5 367.081 360 360.581C360 356.383 357.895 353.559 357.5 350.581C356.861 345.755 357.382 339.337 358 334.081C358.684 328.269 362.5 310.581 360 303.081C358.29 297.95 357 288.081 358 284.581C358.8 281.781 362.5 264.581 365.5 257.081" stroke="#DB2A7C" stroke-width="1.68" stroke-linecap="round"/>
<path d="M370.5 259.081C371.167 264.581 373.3 276.781 376.5 281.581C380.5 287.581 377.5 289.081 379 292.581C380.2 295.381 383.5 299.414 385 301.081" stroke="#DB2A7C" stroke-width="1.68" stroke-linecap="round"/>
<path d="M405 257.081C402.333 264.248 397.2 280.081 398 286.081C398.8 292.081 401 298.248 402 300.581C404.5 306.914 409.4 321.981 409 331.581C408.5 343.581 403.5 360.581 404.5 363.581C405.5 366.581 406.5 366.081 406 368.081C405.5 370.081 405 373.081 407 376.581C409 380.081 406 383.081 405 383.581C404 384.081 406 397.581 399 397.581C392 397.581 379 398.081 381 393.081C383 388.081 390.5 387.581 392 380.581C393.2 374.981 394.833 371.581 395.5 370.581C394.5 363.914 391.9 349.181 389.5 343.581C386.5 336.581 385.044 332.207 383.5 324.581C381.405 314.231 384 303.581 382 297.581" stroke="#DB2A7C" stroke-width="1.68" stroke-linecap="round"/>
<path d="M394 373.581C395.833 377.414 401 379.081 405.5 372.581" stroke="#DB2A7C" stroke-width="1.68" stroke-linecap="round"/>
<path d="M344.5 358.581C344 361.248 345.4 364.381 349 363.581C353.5 362.581 358.5 356.581 358 353.581" stroke="#DB2A7C" stroke-width="1.68" stroke-linecap="round"/>
</g>
<path d="M329.533 364.434C329.928 365.671 330.665 367.014 334.455 366.354C339.191 365.529 342.744 362.23 343.533 359.343" stroke="#DB2A7C" stroke-width="1.68" stroke-linecap="round"/>
<path d="M324.033 271.78C324.293 274.149 325.789 282.174 327.033 285.017C328.278 287.859 332.496 295.524 333.533 297.235" stroke="#DB2A7C" stroke-width="1.68" stroke-linecap="round"/>
<path d="M330.37 292.061C330.5 293.13 329.03 297.97 328.534 301.816C327.12 312.784 327.637 317.305 329.589 330.121C331.151 340.375 331.021 351.215 330.76 355.354C329.589 360.828 329.223 366.587 325.294 372.977C323.033 376.652 301.133 389.888 317.534 389.888C333.934 389.888 339.814 391.206 339.033 384.797C338.252 378.389 340.913 373.378 342.084 371.375C343.256 369.372 345.208 367.77 343.646 362.163C342.084 356.556 353.018 329.721 353.408 320.509C353.799 311.297 353.415 309.335 350.284 290.069C349.113 282.86 351.456 270.043 353.408 263.635" stroke="#DB2A7C" stroke-width="1.68" stroke-linecap="round"/>
<path d="M344.405 113.122C342.621 112.873 340.809 113.519 339.044 112.865C338.116 112.521 337.634 111.902 337.185 111.078C335.768 108.48 337.538 105.064 339.276 103.068C340.274 101.921 341.572 100.972 342.822 100.11C343.973 99.3171 345.312 99.0059 346.667 98.6906C347.587 98.4765 348.677 98.7494 349.589 98.9149C350.554 99.0898 351.686 99.4237 352.548 99.9002C353.306 100.319 353.635 100.927 354.06 101.686C354.618 102.684 354.546 103.593 354.976 104.435C355.205 104.882 355.29 105.405 355.421 105.885C355.726 107.012 356.032 108.138 356.338 109.265C356.834 111.095 357.356 112.84 357.9 114.648C358.114 115.357 358.381 115.91 358.669 116.726C359.129 118.031 359.362 118.984 359.764 120.094C360.312 121.608 361.588 124.663 361.588 124.663C361.588 124.663 362.181 125.875 362.714 126.551C363.133 127.082 363.921 127.799 363.921 127.799" stroke="#DB2A7C" stroke-width="1.68" stroke-linecap="round" stroke-linejoin="round"/>
<path d="M341.886 113.255C342.017 114.256 342.253 115.302 342.502 116.281C342.788 117.405 343.125 118.464 343.731 119.47C344.503 120.754 345.768 121.884 346.97 122.768C347.688 123.296 348.46 123.628 349.312 123.886C349.563 123.962 350.147 124.252 350.342 124.085" stroke="#DB2A7C" stroke-width="1.68" stroke-linecap="round" stroke-linejoin="round"/>
<path d="M350.425 124.111C350.934 125.987 351.351 127.874 351.774 129.769C351.921 130.426 352 131.091 352.126 131.751C352.179 132.031 352.301 132.359 352.298 132.643C352.296 132.826 352.295 133.058 352.342 133.231" stroke="#DB2A7C" stroke-width="1.68" stroke-linecap="round" stroke-linejoin="round"/>
<path d="M352.28 133.252C352.775 133.235 353.268 133.17 353.765 133.19C354.54 133.221 355.354 133 356.097 132.813C356.62 132.681 357.141 132.489 357.659 132.339C358.38 132.13 358.941 131.802 359.552 131.383C359.828 131.194 360.101 131.007 360.38 130.829C360.627 130.672 360.926 130.513 361.142 130.316C361.541 129.952 361.982 129.614 362.385 129.254C362.717 128.957 363.02 128.567 363.401 128.325C363.537 128.238 363.833 127.849 363.977 127.899" stroke="#DB2A7C" stroke-width="1.68" stroke-linecap="round" stroke-linejoin="round"/>
<path d="M317.412 83.8041C317.181 83.4179 316.932 83.3081 316.58 83.0528C316.215 82.7888 315.851 82.7666 315.42 82.7666C314.777 82.7666 314.244 83.2242 313.941 83.7325C313.456 84.5466 313.539 85.6231 313.539 86.5309C313.539 87.3842 313.512 88.2563 313.62 89.1026C313.707 89.7869 313.918 90.5237 314.253 91.1358C314.491 91.5701 314.854 92.0718 315.345 92.2468C315.437 92.2796 315.512 92.3789 315.603 92.4257C315.688 92.4696 315.8 92.5166 315.895 92.531C315.996 92.5462 316.09 92.5935 316.192 92.6224C316.449 92.6956 316.728 92.71 316.994 92.7397C317.187 92.7613 317.383 92.7834 317.576 92.7834C318.469 92.7834 319.43 92.4257 319.312 92.4257" stroke="#DB2A7C" stroke-width="1.68" stroke-linecap="round" stroke-linejoin="round"/>
<path d="M349.337 84.6498C350.028 84.2792 351.224 83.4261 352.387 83.7675C353.549 84.1088 353.622 85.0084 353.622 85.0084C353.622 85.0084 353.655 85.6382 353.622 86.0396C353.58 86.5552 353.54 87.173 353.365 87.8766C353.115 88.8836 352.976 89.49 352.344 90.335C351.873 90.9639 351.263 92.3837 351.263 92.3837C351.263 92.3837 350.823 93.797 350.278 94.3299C349.325 95.263 347.903 95.047 347.14 95.047" stroke="#DB2A7C" stroke-width="1.68" stroke-linecap="round" stroke-linejoin="round"/>
<path d="M317.848 92.8965C317.726 94.5696 317.774 98.2743 318.946 101.142C319.501 102.5 324.533 111.484 329.229 113.821C330.51 114.27 331.18 114.42 333.959 113.332C336.888 112.185 336.729 111.484 336.729 111.484" stroke="#DB2A7C" stroke-width="1.68" stroke-linecap="round"/>
<path d="M317.033 144.508C317.81 146.419 318.082 150.614 319.269 152.368C319.893 153.29 320.671 153.622 321.649 153.848C324.736 154.563 327.733 151.443 329.28 148.832C330.169 147.333 330.766 145.565 331.288 143.879C331.769 142.327 331.699 140.727 331.628 139.107C331.58 138.007 330.981 136.88 330.545 135.915C330.084 134.896 329.41 133.742 328.669 132.938C328.016 132.231 327.295 132.066 326.391 131.845C325.201 131.555 324.287 131.939 323.296 131.74C322.769 131.635 322.206 131.714 321.674 131.729C320.425 131.764 319.177 131.799 317.929 131.834C315.902 131.891 313.954 131.891 311.936 131.888C311.144 131.886 310.497 131.773 309.574 131.724C308.097 131.647 307.048 131.704 305.789 131.626C304.072 131.52 300.557 131.115 300.557 131.115C300.557 131.115 299.137 130.858 298.286 130.489C297.618 130.198 296.651 129.557 296.651 129.557" stroke="#DB2A7C" stroke-width="1.68" stroke-linecap="round" stroke-linejoin="round"/>
<path d="M316.941 146.847C315.925 147.014 314.837 147.091 313.811 147.137C312.632 147.189 311.503 147.171 310.351 146.875C308.883 146.498 307.43 145.592 306.234 144.676C305.52 144.129 304.983 143.471 304.496 142.712C304.352 142.489 303.908 142.002 304.018 141.762" stroke="#DB2A7C" stroke-width="1.68" stroke-linecap="round" stroke-linejoin="round"/>
<path d="M303.97 141.688C301.994 141.744 300.033 141.894 298.062 142.039C297.379 142.089 296.706 142.208 296.026 142.28C295.737 142.31 295.383 142.288 295.106 142.375C294.927 142.431 294.701 142.501 294.518 142.506" stroke="#DB2A7C" stroke-width="1.68" stroke-linecap="round" stroke-linejoin="round"/>
<path d="M294.516 142.572C294.397 142.082 294.324 141.58 294.168 141.099C293.925 140.349 293.918 139.486 293.896 138.703C293.881 138.152 293.926 137.585 293.93 137.033C293.936 136.264 294.103 135.619 294.345 134.896C294.454 134.569 294.563 134.247 294.66 133.921C294.746 133.633 294.819 133.293 294.952 133.024C295.199 132.525 295.408 131.993 295.65 131.492C295.849 131.078 296.148 130.666 296.28 130.222C296.327 130.063 296.626 129.658 296.538 129.531" stroke="#DB2A7C" stroke-width="1.68" stroke-linecap="round" stroke-linejoin="round"/>
<path d="M251.845 146.809C249.599 144.754 248.547 137.832 249.655 136.171C250.763 134.511 253.975 127.358 259.439 123.606C259.439 123.606 271.414 116.825 274.533 111.927C277.653 107.029 278.625 104.854 287.533 98.6908C296.442 92.5273 307.095 96.3727 311.23 101.055" stroke="#DB2A7C" stroke-width="1.68" stroke-linecap="round"/>
<path d="M347.873 95.0479C347.384 96.8405 346.729 98.2664 346.729 98.2664" stroke="#DB2A7C" stroke-width="1.68" stroke-linecap="round"/>
<path d="M317.115 83.2163C316.749 80.3481 316.456 73.7514 318.214 70.3096C320.411 66.0073 325.537 60.6295 329.931 60.271C334.325 59.9125 336.522 59.554 340.916 61.7051C344.431 63.426 347.018 66.2463 347.873 67.4414C348.971 69.951 351.022 76.6912 350.436 83.5748" stroke="#DB2A7C" stroke-width="1.68" stroke-linecap="round"/>
<path d="M349.226 84.5909C349.888 84.1 350.099 83.8662 350.918 83.8662" stroke="#DB2A7C" stroke-width="1.68" stroke-linecap="round" stroke-linejoin="round"/>
<path d="M317.355 83.6855C319.67 86.677 320.57 81.6129 321.089 80.0301C321.742 78.036 322.488 75.8184 324.934 75.8184C325.67 75.8184 326.174 76.8599 326.587 77.3381C327.147 77.9854 327.871 78.458 328.495 79.0367C330.283 80.6953 332.924 80.7365 335.15 80.0102C336.19 79.6705 337.344 78.805 338.264 78.2222C339.022 77.742 339.916 77.47 340.638 76.9805C341.347 76.4997 342.661 76.5256 343.296 77.0699C343.903 77.5899 345.731 78.1623 345.842 79.0367C345.908 79.5528 346.397 80.421 346.613 80.924C346.82 81.404 346.971 82.0548 347.11 82.5332C347.265 83.0633 347.497 83.6246 347.942 83.9636C348.25 84.1983 349.256 84.8669 349.494 84.4007" stroke="#DB2A7C" stroke-width="1.68" stroke-linecap="round" stroke-linejoin="round"/>
<path d="M329.125 101.144C329.518 101.219 329.906 101.281 330.301 101.336" stroke="#DB2A7C" stroke-width="1.68" stroke-linecap="round" stroke-linejoin="round"/>
<path d="M332.847 101.527C333.336 101.361 333.765 101.173 334.219 100.951" stroke="#DB2A7C" stroke-width="1.68" stroke-linecap="round" stroke-linejoin="round"/>
<path d="M356.205 158.323C357.62 163.536 365.115 171.673 368.133 171.657C371.15 171.64 376.406 167.346 376.642 165.431C376.878 163.515 379.07 156.28 377.373 150.024M377.373 150.024C375.676 143.768 367.755 136.851 367.001 134.071M377.373 150.024C377.373 150.024 373.523 133.568 374.677 131.087C375.831 128.606 377.456 121.086 374.718 110.855C371.98 100.623 359.025 99.4163 352.89 100.092" stroke="#DB2A7C" stroke-width="1.68" stroke-linecap="round"/>
<path d="M353.141 133.104L356.017 157.627" stroke="#DB2A7C" stroke-width="1.68" stroke-linecap="round"/>
<path d="M363.277 128.696L367.19 134.766" stroke="#DB2A7C" stroke-width="1.68" stroke-linecap="round"/>
<path d="M358.406 100.322C357.624 102.522 356.306 107.352 357.054 111.004" stroke="#DB2A7C" stroke-width="1.68" stroke-linecap="round"/>
<path d="M307.033 97.6724C308.7 96.9936 313.233 95.8396 318.033 96.6542" stroke="#DB2A7C" stroke-width="1.68"/>
<path d="M292.506 142.05C292.22 146.842 292.324 157.921 295.028 163.898C297.731 169.875 295.71 185.802 294.361 193.018C295.653 195.489 301.79 199.808 316.002 197.32C333.767 194.21 352.133 187.582 353.335 180.548C352.483 177.532 350.955 170.398 351.654 165.982C352.352 161.567 353.461 157.529 355.533 153.672" stroke="#DB2A7C" stroke-width="1.68" stroke-linecap="round"/>
<path d="M252.033 147.053C252.533 147.053 253.933 147.053 255.533 147.053C257.533 147.053 257.936 149.599 269.533 149.599C279.033 149.599 283.533 141.453 294.033 140.944" stroke="#DB2A7C" stroke-width="1.68" stroke-linecap="round"/>
<path d="M296.033 130.254C293.533 130.254 286.933 130.254 280.533 130.254C272.533 130.254 269.533 125.163 264.533 127.709" stroke="#DB2A7C" stroke-width="1.68" stroke-linecap="round"/>
<path d="M290.391 126.795C291.549 126.388 296.243 125.271 296.533 121.091" stroke="#DB2A7C" stroke-width="1.68" stroke-linecap="round"/>
<path d="M354.034 181.163C355.701 182.86 358.834 186.967 358.034 189.818C357.034 193.381 355.534 194.399 358.034 197.963C360.534 201.527 363.034 206.108 362.534 209.163C362.034 212.217 360.034 237.163 358.034 247.344C356.034 257.526 355.534 259.053 355.534 263.126C347.201 261.938 331.234 260.275 324.034 265.162C322.534 264.314 319.734 261.802 320.534 258.544C321.534 254.472 324.533 246.326 322.533 243.272" stroke="#DB2A7C" stroke-width="1.68" stroke-linecap="round"/>
<path d="M294.533 193.381C293.033 198.811 290.033 210.283 290.033 212.726C290.033 215.781 287.033 226.981 289.033 239.199C290.633 248.973 291.367 257.865 291.533 261.089L292.533 275.344C296.448 276.034 301.642 282.27 307.533 282.471C314.684 282.714 322.389 276.739 324.033 275.344V265.671" stroke="#DB2A7C" stroke-width="1.68" stroke-linecap="round"/>
<path d="M299.034 297.743C299.034 297.743 295.648 314.017 300.283 331.803C303.992 346.031 305.151 350.031 304.533 352.215C302.988 355.648 300.194 359.8 298.033 365.961C295.534 373.088 288.116 369.524 289.033 375.124C289.533 378.179 295.663 378.179 302.533 378.179C310.283 378.179 309.215 373.022 311.533 366.47C313.433 361.099 315.117 360.845 317.435 354.761C317.435 350.831 314.899 349.403 314.533 346.615C313.94 342.098 315.007 338.595 315.581 333.675C316.214 328.234 322.534 311.702 317.435 300.288C314.346 293.375 320.106 281.165 321.033 277.889" stroke="#DB2A7C" stroke-width="1.68" stroke-linecap="round"/>
<path d="M312.533 96.6543C316.533 99.8785 321.533 110.807 309.533 130.763" stroke="#DB2A7C" stroke-width="1.68" stroke-linecap="round"/>
<path d="M323.533 108.872C323.033 118.035 330.62 128.97 333.739 127.869C336.138 127.022 340.033 124.654 343.033 118.035" stroke="#DB2A7C" stroke-width="1.68" stroke-linecap="round"/>
<path d="M339.033 212.726C337.2 212.895 332.733 215.067 329.533 222.398C326.333 229.729 324.033 232.071 322.033 229.525" stroke="#DB2A7C" stroke-width="1.68" stroke-linecap="round"/>
<path d="M296.23 276.871C295.23 280.944 295.23 287.053 296.73 290.616C298.96 295.914 299.533 297.574 300.533 301.816" stroke="#DB2A7C" stroke-width="1.68" stroke-linecap="round"/>
<path d="M303.559 353.96C303.393 355.22 303.958 357.645 307.551 357.267C311.143 356.889 314.369 352.385 315.533 350.18" stroke="#DB2A7C" stroke-width="1.68" stroke-linecap="round"/>
<g filter="url(#filter0_d)">
<path d="M254.973 376.025C255.339 377.123 256.95 379.174 260.465 378.588C264.859 377.856 268.154 374.926 268.887 372.363" stroke="#00BDAF" stroke-width="1.68" stroke-linecap="round"/>
<path d="M298.262 139.946C296.598 139.258 294.672 139.444 293.133 138.361C292.324 137.792 292.019 137.062 291.801 136.138C291.11 133.223 293.724 130.294 295.934 128.757C297.203 127.874 298.711 127.26 300.15 126.721C301.474 126.224 302.854 126.249 304.25 126.275C305.198 126.292 306.183 126.832 307.024 127.222C307.913 127.633 308.923 128.244 309.633 128.928C310.258 129.529 310.417 130.21 310.629 131.064C310.907 132.187 310.599 133.066 310.794 134.002C310.898 134.5 310.844 135.037 310.844 135.543C310.844 136.73 310.844 137.917 310.844 139.104C310.844 141.032 310.891 142.882 310.943 144.801C310.963 145.553 311.077 146.165 311.141 147.041C311.244 148.442 311.22 149.44 311.317 150.635C311.45 152.264 311.884 155.594 311.884 155.594C311.884 155.594 312.14 156.936 312.478 157.735C312.745 158.363 313.321 159.265 313.321 159.265" stroke="#00BDAF" stroke-width="1.68" stroke-linecap="round" stroke-linejoin="round"/>
<path d="M295.785 139.451C295.649 140.471 295.603 141.562 295.587 142.588C295.568 143.768 295.617 144.896 295.939 146.039C296.35 147.497 297.28 148.925 298.212 150.096C298.769 150.794 299.43 151.313 300.188 151.78C300.411 151.917 300.902 152.348 301.135 152.231" stroke="#00BDAF" stroke-width="1.68" stroke-linecap="round" stroke-linejoin="round"/>
<path d="M301.208 152.277C301.208 154.254 301.116 156.219 301.028 158.193C300.998 158.877 300.899 159.552 300.848 160.235C300.826 160.524 300.857 160.878 300.78 161.157C300.73 161.337 300.667 161.565 300.667 161.748" stroke="#00BDAF" stroke-width="1.68" stroke-linecap="round" stroke-linejoin="round"/>
<path d="M300.601 161.753C301.086 161.859 301.581 161.918 302.057 162.061C302.801 162.284 303.647 162.268 304.417 162.268C304.959 162.268 305.514 162.208 306.056 162.189C306.81 162.162 307.44 161.977 308.143 161.716C308.46 161.598 308.774 161.48 309.091 161.375C309.372 161.281 309.703 161.198 309.964 161.058C310.447 160.798 310.963 160.574 311.448 160.319C311.849 160.108 312.245 159.799 312.678 159.655C312.833 159.603 313.222 159.293 313.349 159.378" stroke="#00BDAF" stroke-width="1.68" stroke-linecap="round" stroke-linejoin="round"/>
<path d="M294.832 171.182C293.482 175.177 290.751 177.497 288.391 180.83C286.802 183.073 285.007 185.179 283.485 187.463" stroke="#00BDAF" stroke-width="1.68" stroke-linecap="round" stroke-linejoin="round"/>
<path d="M283.978 186.723C281.8 189.718 281.758 193.852 281.758 197.467C281.758 199.071 281.552 201.382 282.128 202.88C282.682 204.322 282.361 206.375 283.238 207.691" stroke="#00BDAF" stroke-width="1.68" stroke-linecap="round" stroke-linejoin="round"/>
<path d="M227.877 132.895C229.713 136.566 232.669 142.966 232.669 147.13C232.669 151.046 232.013 155.338 231.38 159.203C230.969 161.717 230.374 164.188 229.955 166.7C229.138 171.599 228.671 176.453 228.283 181.405C227.97 185.399 228.705 189.543 228.105 193.506C227.6 196.839 227.952 200.417 227.05 203.688C226.585 205.372 226.358 207.122 225.748 208.8C225.271 210.11 224.528 211.716 224.528 213.117" stroke="#00BDAF" stroke-width="1.68" stroke-linecap="round" stroke-linejoin="round"/>
<path d="M167.545 120.612C172.819 119.695 178.298 120.137 183.565 119.009C185.944 118.499 188.202 117.461 190.459 116.555C191.398 116.178 194.666 115.213 195.173 114.198" stroke="#00BDAF" stroke-width="1.68" stroke-linecap="round" stroke-linejoin="round"/>
<path d="M185.552 118.886C188.429 119.488 191.175 120.971 193.857 122.147C197.205 123.616 200.686 124.747 204.108 126.039C205.693 126.638 207.456 127.104 209.097 127.52C211.028 128.009 212.831 128.923 214.743 129.383C218.027 130.173 221.273 131.613 224.61 132.152C228.395 132.762 232.697 133.734 234.889 137.085C236.137 138.994 236.951 141.1 238.041 143.143C238.697 144.373 239.015 145.883 239.274 147.254C239.372 147.774 239.822 149.474 239.822 149.474" stroke="#00BDAF" stroke-width="1.68" stroke-linecap="round" stroke-linejoin="round"/>
<path d="M167.827 104.335C169.284 104.335 182.447 101.909 190.529 104.335C193.184 105.132 193.267 106.863 197.12 107.339C202.447 107.997 206.703 108.571 207.801 108.816C209.272 109.145 210.78 109.273 212.239 109.638C213.372 109.921 214.489 110.218 215.642 110.411C217.923 110.791 220.32 111.479 222.628 111.479C224.203 111.479 225.846 111.75 227.444 111.775C228.36 111.789 229.261 112.042 230.173 112.071C231.589 112.115 233.122 112.252 234.513 112.515C236.885 112.963 239.295 113.925 241.334 115.21C243.166 116.365 244.566 118.363 246.48 119.32" stroke="#00BDAF" stroke-width="1.68" stroke-linecap="round" stroke-linejoin="round"/>
<path d="M242.929 116.214C247.971 115.407 253.034 115.77 258.118 115.77C259.575 115.77 260.997 115.795 262.441 115.926C263.508 116.023 265.682 116.448 266.69 116.784" stroke="#00BDAF" stroke-width="1.68" stroke-linecap="round" stroke-linejoin="round"/>
<path d="M269.183 108.23C268.952 107.836 268.704 107.724 268.351 107.463C267.986 107.194 267.622 107.171 267.192 107.171C266.549 107.171 266.015 107.638 265.712 108.157C265.227 108.989 265.31 110.088 265.31 111.015C265.31 111.887 265.283 112.778 265.392 113.642C265.479 114.341 265.69 115.093 266.025 115.718C266.262 116.162 266.625 116.674 267.117 116.853C267.209 116.887 267.284 116.988 267.375 117.036C267.46 117.081 267.571 117.129 267.667 117.143C267.768 117.159 267.862 117.207 267.963 117.237C268.22 117.311 268.5 117.326 268.765 117.357C268.958 117.379 269.154 117.401 269.348 117.401C270.24 117.401 271.202 117.036 271.084 117.036" stroke="#00BDAF" stroke-width="1.68" stroke-linecap="round" stroke-linejoin="round"/>
<path d="M301.109 109.094C301.799 108.716 302.996 107.844 304.158 108.193C305.32 108.542 305.394 109.46 305.394 109.46C305.394 109.46 305.426 110.104 305.394 110.513C305.351 111.04 305.312 111.671 305.137 112.39C304.886 113.418 304.748 114.037 304.115 114.9C303.644 115.543 303.034 116.993 303.034 116.993C303.034 116.993 302.594 118.436 302.05 118.98C301.097 119.933 299.675 119.713 298.912 119.713" stroke="#00BDAF" stroke-width="1.68" stroke-linecap="round" stroke-linejoin="round"/>
<path d="M269.619 117.517C269.497 119.225 269.546 123.009 270.718 125.938C272.182 129.6 276.942 137.655 279.505 138.388C282.068 139.12 282.068 139.852 285.73 138.388C288.659 137.216 291.1 134.97 291.955 133.628" stroke="#00BDAF" stroke-width="1.68" stroke-linecap="round"/>
<path d="M299.644 119.713C299.156 121.544 297.813 125.864 296.349 128.501" stroke="#00BDAF" stroke-width="1.68" stroke-linecap="round"/>
<path d="M268.887 107.63C268.521 104.701 268.228 97.9633 269.985 94.4482C272.182 90.0543 277.308 84.5619 281.702 84.1957C286.096 83.8296 288.293 83.4634 292.687 85.6604C296.202 87.4179 298.79 90.2984 299.644 91.5189C300.743 94.082 302.793 100.966 302.207 107.996" stroke="#00BDAF" stroke-width="1.68" stroke-linecap="round"/>
<path d="M300.998 109.034C301.66 108.533 301.871 108.294 302.69 108.294" stroke="#00BDAF" stroke-width="1.68" stroke-linecap="round" stroke-linejoin="round"/>
<path d="M269.127 108.109C271.442 111.164 272.342 105.992 272.86 104.376C273.514 102.339 274.26 100.074 276.705 100.074C277.442 100.074 277.946 101.138 278.359 101.626C278.918 102.287 279.642 102.77 280.266 103.361C282.054 105.055 284.696 105.097 286.921 104.355C287.962 104.008 289.116 103.125 290.036 102.529C290.794 102.039 291.688 101.761 292.41 101.261C293.119 100.77 294.432 100.796 295.068 101.352C295.674 101.884 297.502 102.468 297.614 103.361C297.68 103.888 298.169 104.775 298.385 105.289C298.591 105.779 298.742 106.444 298.882 106.932C299.037 107.473 299.269 108.047 299.714 108.393C300.022 108.633 301.028 109.316 301.266 108.839" stroke="#00BDAF" stroke-width="1.68" stroke-linecap="round" stroke-linejoin="round"/>
<path d="M280.897 125.939C281.289 126.016 281.678 126.079 282.072 126.135" stroke="#00BDAF" stroke-width="1.68" stroke-linecap="round" stroke-linejoin="round"/>
<path d="M284.619 126.332C285.107 126.162 285.536 125.971 285.99 125.744" stroke="#00BDAF" stroke-width="1.68" stroke-linecap="round" stroke-linejoin="round"/>
<path d="M253.508 285.949C259.953 281.848 274.501 283.752 280.97 285.217C281.824 279.358 284.998 263.833 290.856 248.601C298.18 229.56 292.687 225.899 291.955 225.167C291.223 224.434 289.026 222.237 289.392 217.477C289.685 213.669 285.608 209.544 283.533 207.957C282.435 209.666 278.553 213.742 271.816 216.379C263.394 219.674 251.677 221.871 237.397 220.773C225.973 219.894 223.849 215.28 224.215 213.083C222.385 218.087 218.43 230.146 217.258 238.348C216.087 246.55 221.896 281.311 224.948 297.666C227.877 303.036 234.907 313.777 239.594 313.777C245.453 313.777 253.508 303.158 253.508 297.666C253.508 293.272 253.508 288.024 253.508 285.949ZM253.508 285.949C251.433 285.461 247.796 282.873 249.847 276.429C251.897 269.984 251.677 267.397 251.311 266.909" stroke="#00BDAF" stroke-width="1.68" stroke-linecap="round"/>
<path d="M253.508 298.032C253.752 300.229 254.533 305.282 255.705 307.919C256.877 310.555 259.123 314.387 260.099 315.974" stroke="#00BDAF" stroke-width="1.68" stroke-linecap="round"/>
<path d="M257.536 311.946C257.658 312.923 257.682 315.608 256.804 318.537C255.705 322.199 253.874 333.55 255.705 345.267C257.17 354.64 257.048 364.551 256.804 368.335C255.705 373.339 253.142 383.567 251.677 384.446C249.846 385.544 226.778 399.824 242.157 399.824C257.536 399.824 266.69 400.923 265.957 395.064C265.225 389.206 266.324 384.812 267.422 382.981C268.521 381.15 270.351 379.686 268.887 374.56C267.422 369.433 277.675 344.901 278.041 336.479C278.407 328.057 278.047 326.264 275.111 308.651C274.013 302.06 276.21 290.343 278.041 284.484" stroke="#00BDAF" stroke-width="1.68" stroke-linecap="round"/>
<path d="M224.948 297.666C223.117 300.107 219.602 306.014 220.188 310.115C220.773 314.216 224.826 333.305 226.778 342.337C226.168 343.192 225.314 345.633 226.778 348.562C228.609 352.224 227.877 362.476 229.342 369.433C230.806 376.39 231.905 378.221 236.299 378.953C240.693 379.686 248.748 380.784 250.213 378.953C251.384 377.489 246.307 366.138 243.622 360.645C242.035 358.326 238.935 353.176 239.228 351.125C239.594 348.562 239.96 344.901 238.129 342.337C236.299 339.774 237.031 333.55 239.228 326.959C240.985 321.686 241.913 315.73 242.157 313.411" stroke="#00BDAF" stroke-width="1.68" stroke-linecap="round"/>
<path d="M232.637 147.908C232.271 153.156 232.93 163.433 238.496 162.554C245.453 161.455 257.17 135.458 255.705 126.304C254.533 118.981 251.555 116.174 250.213 115.686" stroke="#00BDAF" stroke-width="1.68" stroke-linecap="round"/>
<path d="M294.884 171.341C295.738 174.881 297.813 183.058 297.813 187.452C297.813 192.945 302.94 202.831 305.869 203.563C308.798 204.296 315.023 201.366 315.755 199.536C316.487 197.705 320.515 191.114 320.515 184.523C320.515 177.932 314.657 169.144 314.657 166.215C314.657 163.286 317.586 144.978 314.657 139.852C312.313 135.751 310.995 133.749 310.629 133.261" stroke="#00BDAF" stroke-width="1.68" stroke-linecap="round"/>
<path d="M301.475 161.821L297.813 186.72" stroke="#00BDAF" stroke-width="1.68" stroke-linecap="round"/>
<path d="M312.46 159.99L314.657 166.947" stroke="#00BDAF" stroke-width="1.68" stroke-linecap="round"/>
<path d="M267.056 117.15C265.225 125.328 271.084 149.207 275.844 149.372C279.505 149.5 288.293 146.297 292.687 138.388" stroke="#00BDAF" stroke-width="1.68" stroke-linecap="round"/>
<path d="M298.18 150.104C295.883 155.8 292.127 167.436 294.884 171.342" stroke="#00BDAF" stroke-width="1.68" stroke-linecap="round"/>
<path d="M226.778 342.338C227.023 345.851 228.741 351.624 233.735 351.858C238.73 352.092 238.407 344.508 237.428 340.507" stroke="#00BDAF" stroke-width="1.68" stroke-linecap="round"/>
<path d="M279.139 229.561C274.013 231.025 263.101 235.785 260.465 243.108" stroke="#00BDAF" stroke-width="1.68" stroke-linecap="round"/>
</g>
<path d="M113.967 35.2134C111.761 36.5419 109.569 38.1189 107.411 39.9733C103.383 97.3382 96.2793 214.558 100.087 224.517C103.895 234.477 126.573 236.235 137.436 235.868C144.759 235.624 160.211 233.012 163.433 224.517C166.655 216.023 167.217 97.9485 167.094 39.9733C165.464 38.6882 163.436 37.3223 161.088 36.0089M121.325 31.6777C133.317 27.2807 145.229 29.1928 154.446 32.8534" stroke="#DB2A7C" stroke-width="1.68" stroke-linecap="round"/>
<path d="M112.171 228.377C117.785 225.081 133.554 220.468 151.716 228.377" stroke="#DB2A7C" stroke-width="1.68" stroke-linecap="round"/>
<path d="M121.691 46.1976C119.128 46.5639 115.832 47.7843 114.368 48.7607C114.124 44.8551 113.782 36.3847 114.368 33.7483C114.954 31.112 128.282 10.9244 134.873 1.16016H137.069C132.798 9.70387 123.155 27.4504 121.691 30.0867C120.226 32.7231 120.958 39.973 121.691 46.1976Z" stroke="#DB2A7C" stroke-width="1.68"/>
<path d="M152.617 47.3186C155.138 47.9097 158.313 49.4162 159.685 50.5181C160.273 46.6492 161.361 38.242 161.01 35.5643C160.659 32.8865 148.997 11.4693 143.294 1.16136L141.463 1.16334C144.964 10.0508 152.813 28.5152 154.039 31.2706C155.265 34.0259 153.896 41.1829 152.617 47.3186Z" stroke="#DB2A7C" stroke-width="1.68"/>
<path d="M129.746 29.7206L137.362 1.16016H139.266L133.935 29.7206" stroke="#DB2A7C" stroke-width="1.68"/>
<path d="M149.519 31.1852L141.165 1.16016H139.266L144.583 30.1" stroke="#DB2A7C" stroke-width="1.68"/>
<path d="M506.49 308.224C505.798 299.395 512.394 291.678 521.223 290.986" stroke="#A09FD1" stroke-width="3.20696" stroke-linecap="round" stroke-linejoin="round"/>
<path d="M506.491 308.225C505.799 299.396 498.081 292.8 489.252 293.492" stroke="#A09FD1" stroke-width="3.20696" stroke-linecap="round" stroke-linejoin="round"/>
<path d="M503.986 276.252C504.677 285.081 498.081 292.799 489.252 293.491" stroke="#A09FD1" stroke-width="3.20696" stroke-linecap="round" stroke-linejoin="round"/>
<path d="M503.985 276.252C504.677 285.081 512.395 291.678 521.224 290.986" stroke="#A09FD1" stroke-width="3.20696" stroke-linecap="round" stroke-linejoin="round"/>
<circle cx="86.3107" cy="306.336" r="4" transform="rotate(175.52 86.3107 306.336)" fill="#00BDAF"/>
<circle cx="479.3" cy="161.3" r="4" transform="rotate(175.52 479.3 161.3)" fill="#00BDAF"/>
<path d="M20.4897 158.023C19.798 149.194 26.3943 141.476 35.2231 140.785" stroke="#A09FD1" stroke-width="3.20696" stroke-linecap="round" stroke-linejoin="round"/>
<path d="M20.4907 158.024C19.799 149.195 12.0812 142.599 3.25247 143.291" stroke="#A09FD1" stroke-width="3.20696" stroke-linecap="round" stroke-linejoin="round"/>
<path d="M17.9858 126.051C18.6775 134.88 12.0812 142.598 3.25247 143.29" stroke="#A09FD1" stroke-width="3.20696" stroke-linecap="round" stroke-linejoin="round"/>
<path d="M17.9853 126.051C18.677 134.88 26.3948 141.476 35.2235 140.785" stroke="#A09FD1" stroke-width="3.20696" stroke-linecap="round" stroke-linejoin="round"/>
<circle opacity="0.2" cx="526.3" cy="45.3002" r="4" transform="rotate(175.52 526.3 45.3002)" fill="#00BDAF"/>
<circle opacity="0.5" cx="68.3457" cy="77.0395" r="4" transform="rotate(175.52 68.3457 77.0395)" fill="#00BDAF"/>
<defs>
<filter id="filter0_d" x="149.895" y="69.6291" width="188.27" height="351.287" filterUnits="userSpaceOnUse" color-interpolation-filters="sRGB">
<feFlood flood-opacity="0" result="BackgroundImageFix"/>
<feColorMatrix in="SourceAlpha" type="matrix" values="0 0 0 0 0 0 0 0 0 0 0 0 0 0 0 0 0 0 127 0"/>
<feOffset dy="3.36"/>
<feGaussianBlur stdDeviation="8.405"/>
<feColorMatrix type="matrix" values="0 0 0 0 0 0 0 0 0 0.741176 0 0 0 0 0.686275 0 0 0 0.8 0"/>
<feBlend mode="normal" in2="BackgroundImageFix" result="effect1_dropShadow"/>
<feBlend mode="normal" in="SourceGraphic" in2="effect1_dropShadow" result="shape"/>
</filter>
<linearGradient id="paint0_linear" x1="169.511" y1="306.286" x2="2.52191" y2="306.286" gradientUnits="userSpaceOnUse">
<stop stop-color="#DB2A7D" stop-opacity="0"/>
<stop offset="0.520833" stop-color="#DB2A7D"/>
<stop offset="1" stop-color="#DB2A7D" stop-opacity="0"/>
</linearGradient>
<linearGradient id="paint1_linear" x1="580.999" y1="306" x2="2" y2="306" gradientUnits="userSpaceOnUse">
<stop stop-color="#DB2A7D" stop-opacity="0"/>
<stop offset="0.489583" stop-color="#DB2A7D"/>
<stop offset="0.913706" stop-color="#DB2A7D" stop-opacity="0"/>
</linearGradient>
<linearGradient id="paint2_linear" x1="580.999" y1="321.034" x2="2" y2="321.034" gradientUnits="userSpaceOnUse">
<stop stop-color="#DB2A7D" stop-opacity="0"/>
<stop offset="0.489583" stop-color="#DB2A7D"/>
<stop offset="0.913706" stop-color="#DB2A7D" stop-opacity="0"/>
</linearGradient>
<linearGradient id="paint3_linear" x1="580.999" y1="337.287" x2="2" y2="337.287" gradientUnits="userSpaceOnUse">
<stop stop-color="#DB2A7D" stop-opacity="0"/>
<stop offset="0.489583" stop-color="#DB2A7D"/>
<stop offset="0.913706" stop-color="#DB2A7D" stop-opacity="0"/>
</linearGradient>
<linearGradient id="paint4_linear" x1="580.999" y1="356.792" x2="2" y2="356.792" gradientUnits="userSpaceOnUse">
<stop stop-color="#DB2A7D" stop-opacity="0"/>
<stop offset="0.489583" stop-color="#DB2A7D"/>
<stop offset="0.913706" stop-color="#DB2A7D" stop-opacity="0"/>
</linearGradient>
<linearGradient id="paint5_linear" x1="580.999" y1="383.205" x2="2" y2="383.205" gradientUnits="userSpaceOnUse">
<stop stop-color="#DB2A7D" stop-opacity="0"/>
<stop offset="0.489583" stop-color="#DB2A7D"/>
<stop offset="0.913706" stop-color="#DB2A7D" stop-opacity="0"/>
</linearGradient>
<linearGradient id="paint6_linear" x1="580.999" y1="416.524" x2="2" y2="416.524" gradientUnits="userSpaceOnUse">
<stop stop-color="#DB2A7D" stop-opacity="0"/>
<stop offset="0.489583" stop-color="#DB2A7D"/>
<stop offset="0.913706" stop-color="#DB2A7D" stop-opacity="0"/>
</linearGradient>
<linearGradient id="paint7_linear" x1="212.167" y1="306.2" x2="128.933" y2="306.2" gradientUnits="userSpaceOnUse">
<stop stop-color="#DB2A7D" stop-opacity="0"/>
<stop offset="0.520833" stop-color="#DB2A7D"/>
<stop offset="1" stop-color="#DB2A7D" stop-opacity="0"/>
</linearGradient>
<linearGradient id="paint8_linear" x1="254.826" y1="306.2" x2="212.169" y2="306.2" gradientUnits="userSpaceOnUse">
<stop stop-color="#DB2A7D" stop-opacity="0"/>
<stop offset="0.520833" stop-color="#DB2A7D"/>
<stop offset="1" stop-color="#DB2A7D" stop-opacity="0"/>
</linearGradient>
<linearGradient id="paint9_linear" x1="298.003" y1="306.2" x2="297.482" y2="306.2" gradientUnits="userSpaceOnUse">
<stop stop-color="#DB2A7D" stop-opacity="0"/>
<stop offset="0.520833" stop-color="#DB2A7D"/>
<stop offset="1" stop-color="#DB2A7D" stop-opacity="0"/>
</linearGradient>
<linearGradient id="paint10_linear" x1="340.142" y1="306.2" x2="382.799" y2="306.2" gradientUnits="userSpaceOnUse">
<stop stop-color="#DB2A7D" stop-opacity="0"/>
<stop offset="0.520833" stop-color="#DB2A7D"/>
<stop offset="1" stop-color="#DB2A7D" stop-opacity="0"/>
</linearGradient>
<linearGradient id="paint11_linear" x1="382.278" y1="306.2" x2="465.512" y2="306.2" gradientUnits="userSpaceOnUse">
<stop stop-color="#DB2A7D" stop-opacity="0"/>
<stop offset="0.520833" stop-color="#DB2A7D"/>
<stop offset="1" stop-color="#DB2A7D" stop-opacity="0"/>
</linearGradient>
<linearGradient id="paint12_linear" x1="414.011" y1="306.286" x2="581" y2="306.286" gradientUnits="userSpaceOnUse">
<stop stop-color="#DB2A7D" stop-opacity="0"/>
<stop offset="0.520833" stop-color="#DB2A7D"/>
<stop offset="1" stop-color="#DB2A7D" stop-opacity="0"/>
</linearGradient>
</defs>
</svg>
