<svg width="580" height="461" viewBox="0 0 580 461" fill="none" xmlns="http://www.w3.org/2000/svg">
<g opacity="0.2">
<g filter="url(#filter0_d)">
<path d="M453.681 243.071L478.192 237.623L478.014 262.732L453.503 268.179L453.681 243.071Z" stroke="#DB2A7C" stroke-width="2" stroke-linecap="round" stroke-linejoin="round"/>
<path d="M462.4 256.544L453.681 243.07L468.057 249.543L477.404 262.239L462.4 256.544Z" stroke="#DB2A7C" stroke-width="2" stroke-linecap="round" stroke-linejoin="round"/>
<path d="M478.307 237.255L453.167 268.368" stroke="#DB2A7C" stroke-width="2" stroke-linecap="round" stroke-linejoin="round"/>
</g>
</g>
<g opacity="0.5" filter="url(#filter1_f)">
<circle cx="297" cy="231" r="150" fill="#19134C"/>
</g>
<g opacity="0.3">
<g filter="url(#filter2_d)">
<path d="M158.977 67.848L159.36 66.924C158.913 66.7394 158.399 66.9001 158.137 67.306L158.977 67.848ZM165.277 70.4546L166.124 70.9862C166.281 70.7368 166.32 70.431 166.23 70.1505C166.141 69.8699 165.932 69.6431 165.66 69.5305L165.277 70.4546ZM152.171 78.4L152.3 79.3916C152.591 79.3537 152.852 79.1892 153.011 78.9421L152.171 78.4ZM147.974 78.946L147.845 77.9543C147.491 78.0004 147.188 78.232 147.051 78.5619L147.974 78.946ZM146.111 83.4247L145.187 83.0406C145.05 83.3704 145.099 83.7484 145.316 84.0322C145.533 84.316 145.885 84.4624 146.24 84.4163L146.111 83.4247ZM149.188 83.0244L150.028 83.5665C150.239 83.2392 150.241 82.8193 150.033 82.4901C149.825 82.161 149.445 81.9825 149.059 82.0327L149.188 83.0244ZM143.551 91.7632L142.71 91.2211C142.55 91.4701 142.508 91.7775 142.596 92.0604C142.684 92.3434 142.893 92.5726 143.166 92.6865L143.551 91.7632ZM159.687 98.476L159.303 99.3993C159.812 99.6114 160.398 99.37 160.61 98.8601L159.687 98.476ZM162.376 92.0115L163.299 92.3956C163.511 91.8857 163.27 91.3004 162.76 91.0882L162.376 92.0115ZM153.947 88.505L153.1 87.9734C152.944 88.2225 152.905 88.5279 152.994 88.8082C153.083 89.0885 153.291 89.3153 153.563 89.4283L153.947 88.505ZM158.116 81.8628L157.987 80.8712C157.691 80.9097 157.428 81.0784 157.269 81.3312L158.116 81.8628ZM163.146 81.2085L163.275 82.2002C163.629 82.1541 163.932 81.9225 164.069 81.5926L163.146 81.2085ZM165.009 76.7298L165.932 77.1139C166.07 76.7841 166.021 76.406 165.803 76.1223C165.586 75.8385 165.234 75.6921 164.88 75.7382L165.009 76.7298ZM161.012 77.2498L160.165 76.7182C159.959 77.0461 159.961 77.4633 160.17 77.7893C160.379 78.1153 160.757 78.2914 161.141 78.2415L161.012 77.2498ZM158.595 68.7721L164.895 71.3786L165.66 69.5305L159.36 66.924L158.595 68.7721ZM153.011 78.9421L159.818 68.3901L158.137 67.306L151.33 77.8579L153.011 78.9421ZM148.103 79.9376L152.3 79.3916L152.042 77.4084L147.845 77.9543L148.103 79.9376ZM147.034 83.8088L148.897 79.3301L147.051 78.5619L145.187 83.0406L147.034 83.8088ZM149.059 82.0327L145.982 82.433L146.24 84.4163L149.317 84.016L149.059 82.0327ZM144.391 92.3052L150.028 83.5665L148.347 82.4823L142.71 91.2211L144.391 92.3052ZM160.071 97.5527L143.935 90.8399L143.166 92.6865L159.303 99.3993L160.071 97.5527ZM161.453 91.6274L158.763 98.0919L160.61 98.8601L163.299 92.3956L161.453 91.6274ZM153.563 89.4283L161.992 92.9348L162.76 91.0882L154.331 87.5817L153.563 89.4283ZM157.269 81.3312L153.1 87.9734L154.794 89.0367L158.963 82.3945L157.269 81.3312ZM163.017 80.2169L157.987 80.8712L158.245 82.8545L163.275 82.2002L163.017 80.2169ZM164.086 76.3457L162.223 80.8244L164.069 81.5926L165.932 77.1139L164.086 76.3457ZM161.141 78.2415L165.138 77.7215L164.88 75.7382L160.883 76.2582L161.141 78.2415ZM164.431 69.9229L160.165 76.7182L161.859 77.7815L166.124 70.9862L164.431 69.9229Z" fill="#DB2A7C"/>
</g>
</g>
<path d="M70.4681 276.321C63.368 267.859 64.4717 255.244 72.9332 248.144L352.539 13.5268C361.001 6.42673 373.616 7.53043 380.716 15.9919L522.772 185.288C529.872 193.749 528.768 206.364 520.307 213.464L240.701 448.082C232.239 455.182 219.624 454.078 212.524 445.617L70.4681 276.321Z" fill="#100C31"/>
<mask id="mask0" mask-type="alpha" maskUnits="userSpaceOnUse" x="57" y="0" width="479" height="461">
<path d="M70.4681 276.321C63.368 267.859 64.4717 255.244 72.9332 248.144L352.539 13.5268C361.001 6.42673 373.616 7.53043 380.716 15.9919L522.772 185.288C529.872 193.749 528.768 206.364 520.307 213.464L240.701 448.082C232.239 455.182 219.624 454.078 212.524 445.617L70.4681 276.321Z" fill="#100C31"/>
</mask>
<g mask="url(#mask0)">
<path opacity="0.2" fill-rule="evenodd" clip-rule="evenodd" d="M472.293 20.8932C465.02 23.7051 457.497 25.5824 449.883 26.4436C449.71 18.9519 448.851 11.4772 447.295 4.08775C454.766 3.24638 462.114 1.19146 469.034 -2.11171C470.732 5.48694 471.836 13.178 472.293 20.8932ZM471.054 50.0967C463.299 52.2315 455.4 53.5407 447.454 54.0603C449.08 46.1379 449.877 38.0714 449.924 29.9785C457.565 29.1437 465.11 27.2887 472.432 24.5663C472.717 33.1043 472.27 41.6494 471.054 50.0967ZM499.972 41.8056C490.853 52.0459 483.401 63.3309 477.611 75.2768C474.434 76.1406 471.246 76.925 468.034 77.5687C470.79 69.5259 472.812 61.2747 474.147 52.9213C483.053 50.2907 491.701 46.5524 499.972 41.8056ZM516.855 62.0592C510.808 69.3374 505.764 77.2225 501.653 85.5139C493.142 85.3701 484.613 85.9279 476.164 87.2538C477.352 84.2017 478.678 81.1978 480.082 78.221C492.823 74.5997 505.205 69.2389 516.855 62.0592ZM529.075 92.1157C525.159 98.7813 522.106 105.865 519.943 113.219C511.978 111.849 503.898 111.294 495.814 111.516C497.708 103.801 500.412 96.2876 503.836 89.0537C512.317 89.3273 520.76 90.364 529.075 92.1157ZM554.806 100.107C550.356 106.284 547.051 113.098 544.907 120.302C537.925 117.484 530.719 115.361 523.39 113.882C525.577 106.552 528.681 99.4972 532.676 92.8912C540.211 94.6827 547.608 97.1084 554.806 100.107ZM516.106 140.309C508.295 138.892 500.33 138.544 492.4 139.11C492.464 131.028 493.286 122.97 494.974 115.067C503.002 114.784 511.031 115.278 518.948 116.613C516.989 124.326 516.063 132.292 516.106 140.309ZM488.898 139.355C481.255 140.187 473.707 142.044 466.386 144.767C466.1 136.229 466.55 127.682 467.766 119.234C475.519 117.098 483.42 115.791 491.367 115.267C489.738 123.191 488.943 131.26 488.898 139.355ZM491.526 165.244C484.052 166.087 476.704 168.142 469.784 171.445C468.084 163.848 466.98 156.157 466.525 148.44C473.797 145.628 481.321 143.751 488.936 142.889C489.108 150.381 489.967 157.856 491.526 165.244ZM466.563 173.07C462.674 175.192 458.934 177.684 455.434 180.621C451.942 183.551 448.931 186.854 446.153 190.308C438.867 187.219 431.376 184.719 423.745 182.841C428.471 175.705 434.218 169.137 441.013 163.435C447.854 157.695 455.319 153.192 463.12 149.801C463.644 157.61 464.797 165.39 466.563 173.07ZM434.006 213.359C427.026 210.54 419.818 208.418 412.489 206.939C414.676 199.609 417.78 192.554 421.775 185.948C429.313 187.738 436.707 190.165 443.905 193.164C439.458 199.339 436.149 206.155 434.006 213.359ZM384.913 204.573C386.807 196.859 389.511 189.345 392.935 182.111C401.416 182.384 409.858 183.421 418.174 185.173C414.258 191.838 411.205 198.922 409.042 206.276C401.079 204.904 392.997 204.351 384.913 204.573ZM405.207 233.365C397.396 231.947 389.429 231.601 381.499 232.167C381.563 224.085 382.385 216.027 384.073 208.124C392.101 207.841 400.129 208.335 408.047 209.67C406.088 217.383 405.162 225.349 405.207 233.365ZM377.997 232.412C370.354 233.244 362.806 235.101 355.485 237.824C355.2 229.286 355.649 220.739 356.865 212.292C364.62 210.153 372.519 208.848 380.465 208.324C378.837 216.248 378.042 224.317 377.997 232.412ZM380.624 258.301C373.153 259.142 365.803 261.199 358.885 264.5C357.185 256.903 356.081 249.213 355.624 241.497C362.896 238.685 370.419 236.808 378.034 235.947C378.206 243.438 379.066 250.913 380.624 258.301ZM327.955 220.576C337.072 210.337 344.52 199.056 350.308 187.114C353.482 186.25 356.672 185.468 359.884 184.824C357.128 192.867 355.106 201.114 353.771 209.467C344.868 212.096 336.225 215.831 327.955 220.576ZM311.055 200.337C317.103 193.057 322.151 185.17 326.266 176.875C334.776 177.019 343.306 176.461 351.756 175.137C350.567 178.187 349.238 181.193 347.836 184.167C335.093 187.791 322.708 193.155 311.055 200.337ZM298.845 170.275C302.761 163.609 305.815 156.522 307.978 149.167C315.941 150.54 324.02 151.09 332.103 150.87C330.206 158.587 327.504 166.103 324.082 173.339C315.599 173.063 307.156 172.026 298.845 170.275ZM273.113 162.285C277.56 156.106 280.868 149.29 283.011 142.086C289.994 144.904 297.202 147.025 304.531 148.504C302.346 155.837 299.24 162.893 295.242 169.501C287.707 167.71 280.311 165.283 273.113 162.285ZM311.81 122.081C319.623 123.497 327.587 123.847 335.518 123.279C335.453 131.362 334.632 139.419 332.944 147.321C324.916 147.605 316.89 147.11 308.973 145.774C310.931 138.061 311.857 130.099 311.81 122.081ZM339.022 123.036C346.664 122.201 354.209 120.346 361.53 117.624C361.818 126.16 361.368 134.707 360.153 143.154C352.398 145.289 344.499 146.598 336.553 147.118C338.179 139.195 338.975 131.129 339.022 123.036ZM336.394 97.1449C343.865 96.3035 351.213 94.2486 358.133 90.9451C359.833 98.5421 360.937 106.233 361.392 113.95C354.119 116.762 346.598 118.638 338.984 119.499C338.811 112.007 337.952 104.532 336.394 97.1449ZM361.354 89.3203C365.245 87.2001 368.986 84.7058 372.487 81.7686C375.978 78.839 378.989 75.5366 381.766 72.0797C389.054 75.1715 396.545 77.6708 404.175 79.5495C399.45 86.6856 393.703 93.2538 386.908 98.9553C380.067 104.696 372.6 109.2 364.797 112.589C364.275 104.782 363.122 97.002 361.354 89.3203ZM393.913 49.0289C400.896 51.8468 408.103 53.9681 415.432 55.4472C413.245 62.7813 410.141 69.836 406.143 76.4437C398.608 74.6525 391.212 72.2265 384.014 69.2278C388.461 63.0491 391.769 56.233 393.913 49.0289ZM443.004 57.8131C441.107 65.5296 438.405 73.0454 434.981 80.2833C426.498 80.0076 418.055 78.9709 409.744 77.2196C413.662 70.5521 416.714 63.4663 418.877 56.1115C426.842 57.4824 434.92 58.0345 443.004 57.8131ZM438.818 80.3433C442.172 73.0084 444.812 65.4057 446.657 57.6095C454.662 57.1514 462.621 55.9047 470.451 53.8596C469.038 62.1477 466.895 70.3172 464.047 78.2769C455.691 79.7041 447.249 80.3934 438.818 80.3433ZM463.187 89.8868C464.439 87.0839 465.574 84.2357 466.644 81.372C469.652 80.8136 472.655 80.19 475.632 79.4442C474.381 82.2478 473.246 85.0956 472.175 87.9634C469.167 88.5177 466.165 89.1417 463.187 89.8868ZM474.773 91.0584C483.129 89.6312 491.568 88.9398 499.998 88.9915C496.646 96.3252 494.005 103.927 492.166 111.72C484.157 112.179 476.197 113.424 468.369 115.471C469.782 107.183 471.922 99.016 474.773 91.0584ZM438.857 127.519C447.974 117.28 455.421 105.999 461.208 94.0584C464.383 93.1926 467.573 92.4108 470.786 91.7669C468.029 99.81 466.007 108.057 464.672 116.41C455.769 119.039 447.124 122.775 438.857 127.519ZM422.576 143.201C422.865 142.963 423.162 142.744 423.449 142.503C423.727 142.27 423.986 142.023 424.26 141.789C436.38 131.805 449.914 124.62 464.077 120.218C462.934 128.761 462.566 137.396 462.922 146.017C454.376 149.588 446.219 154.489 438.759 160.749C431.353 166.963 425.131 174.157 420.097 181.997C411.704 180.157 403.17 179.021 394.596 178.654C401.385 165.441 410.721 153.343 422.576 143.201ZM365.263 180.311C366.451 177.259 367.779 174.253 369.181 171.278C381.924 167.655 394.306 162.294 405.954 155.116C399.907 162.395 394.862 170.28 390.752 178.571C382.241 178.427 373.712 178.985 365.263 180.311ZM389.096 182.049C385.745 189.383 383.106 196.983 381.264 204.777C373.258 205.235 365.298 206.48 357.467 208.529C358.88 200.241 361.021 192.073 363.871 184.116C372.227 182.689 380.667 181.997 389.096 182.049ZM355.745 174.428C358.751 173.871 361.753 173.247 364.733 172.499C363.48 175.305 362.344 178.153 361.276 181.019C358.266 181.575 355.264 182.199 352.286 182.944C353.538 180.141 354.673 177.293 355.745 174.428ZM353.146 171.334C344.79 172.761 336.348 173.45 327.917 173.4C331.273 166.063 333.913 158.461 335.756 150.666C343.761 150.209 351.72 148.962 359.552 146.915C358.137 155.205 355.994 163.374 353.146 171.334ZM389.071 134.862C379.951 145.103 372.5 156.388 366.711 168.334C363.536 169.196 360.345 169.982 357.135 170.624C359.891 162.581 361.911 154.332 363.249 145.976C372.152 143.348 380.802 139.608 389.071 134.862ZM405.312 119.217C405.034 119.446 404.746 119.654 404.47 119.886C404.203 120.11 403.955 120.347 403.692 120.572C391.562 130.572 378.018 137.762 363.842 142.167C364.982 133.625 365.35 124.994 364.995 116.373C373.543 112.8 381.7 107.9 389.16 101.64C396.566 95.4255 402.788 88.2313 407.822 80.3921C416.217 82.2341 424.748 83.3679 433.32 83.7367C426.526 96.9613 417.181 109.067 405.312 119.217ZM456.703 95.3276C448.366 111.612 436.76 126.536 422.007 139.105C421.728 139.336 421.425 139.523 421.145 139.758C420.858 139.998 420.611 140.269 420.327 140.512C405.395 152.85 388.69 161.679 371.215 167.061C379.562 150.765 391.179 135.828 405.948 123.256C406.217 123.034 406.506 122.855 406.773 122.63C407.047 122.401 407.283 122.14 407.555 121.908C422.497 109.556 439.214 100.715 456.703 95.3276ZM421.956 107.28C428.005 99.9997 433.052 92.1126 437.167 83.8174C445.678 83.9618 454.205 83.4056 462.657 82.0801C461.468 85.1302 460.14 88.1355 458.737 91.1102C445.992 94.7358 433.608 100.098 421.956 107.28ZM422.711 29.024C430.522 30.4415 438.488 30.7892 446.42 30.2216C446.353 38.3054 445.533 46.3612 443.846 54.2641C435.817 54.5474 427.789 54.0541 419.872 52.7184C421.831 45.0056 422.759 37.0421 422.711 29.024ZM482.664 -10.6977L480.407 -13.3886C477.555 -11.0668 474.554 -9.01832 471.435 -7.25676C469.71 -13.994 467.498 -20.6396 464.794 -27.1441L461.961 -24.7671C464.51 -18.5016 466.609 -12.1048 468.231 -5.62017C461.377 -2.24223 454.059 -0.152107 446.619 0.655049C445.8 -2.73884 444.8 -6.09627 443.682 -9.42922L440.797 -7.00848C441.646 -4.37839 442.387 -1.72538 443.044 0.943079C439.282 1.14481 435.515 1.01596 431.769 0.566923L428.177 3.58107C433.351 4.44757 438.601 4.76065 443.832 4.43739C445.409 11.7985 446.25 19.2513 446.41 26.7157C438.462 27.3084 430.471 26.9259 422.647 25.4442C422.421 20.2437 421.795 15.0349 420.688 9.86509L417.636 12.4255C418.418 16.474 418.871 20.5438 419.091 24.6117C415.101 23.6886 411.158 22.5547 407.306 21.0938L404.241 23.6654C409.108 25.6287 414.118 27.11 419.209 28.2325C419.324 36.3051 418.381 44.3224 416.39 52.0808C409.036 50.6119 401.813 48.4548 394.817 45.5995C396.043 40.5159 396.672 35.2992 396.695 29.9971L393.23 32.9047C393.041 36.7157 392.414 40.4543 391.566 44.1344C389.047 43.0173 386.548 41.8656 384.101 40.5646L381.247 42.9597C384.335 44.6479 387.485 46.1749 390.689 47.5746C388.588 54.8288 385.212 61.6574 380.661 67.8151C374.57 65.0953 368.649 61.9201 362.931 58.3288L360.096 60.7075C366.004 64.4798 372.137 67.7973 378.439 70.6572C375.958 73.6484 373.293 76.5193 370.235 79.0853C367.17 81.6569 363.92 83.888 360.534 85.8002C358.809 79.0633 356.599 72.4158 353.895 65.9112L351.06 68.2901C353.609 74.5557 355.708 80.9522 357.332 87.4351C350.476 90.8148 343.158 92.9049 335.718 93.7123C334.899 90.3182 333.901 86.959 332.781 83.6278L329.898 86.0471C330.747 88.6769 331.488 91.3299 332.145 93.9984C328.383 94.2001 324.613 94.0732 320.87 93.6222L317.275 96.6384C322.45 97.5046 327.699 97.8179 332.931 97.4947C334.51 104.854 335.348 112.309 335.509 119.773C327.561 120.365 319.57 119.983 311.746 118.501C311.52 113.301 310.894 108.092 309.786 102.922L306.737 105.481C307.517 109.531 307.97 113.601 308.192 117.667C304.2 116.746 300.257 115.612 296.405 114.151L293.34 116.722C298.207 118.686 303.22 120.165 308.308 121.29C308.425 129.36 307.48 137.379 305.491 145.136C298.135 143.669 290.912 141.512 283.916 138.656C285.142 133.573 285.771 128.356 285.796 123.052L282.329 125.962C282.14 129.773 281.515 133.51 280.665 137.191C278.146 136.074 275.649 134.921 273.2 133.622L270.346 136.017C273.434 137.705 276.586 139.23 279.788 140.632C277.686 147.886 274.311 154.715 269.76 160.872C263.671 158.151 257.748 154.977 252.03 151.386L249.197 153.763C255.102 157.537 261.236 160.854 267.54 163.713C265.131 166.617 262.547 169.402 259.603 171.909L261.855 174.593C265.231 171.721 268.163 168.502 270.865 165.137C278.152 168.229 285.644 170.728 293.274 172.607C288.614 179.645 282.954 186.133 276.277 191.781L278.529 194.465C285.815 188.304 291.95 181.19 296.92 173.449C305.315 175.291 313.847 176.425 322.421 176.792C315.625 190.018 306.28 202.124 294.413 212.272C294.227 212.425 294.037 212.572 293.847 212.72L296.135 215.446C296.305 215.284 296.473 215.12 296.654 214.965C311.596 202.613 328.313 193.772 345.802 188.384C337.465 204.669 325.859 219.593 311.106 232.162C310.919 232.317 310.722 232.456 310.528 232.599L312.815 235.325C312.996 235.164 313.174 235.003 313.358 234.846C325.481 224.86 339.013 217.677 353.176 213.275C352.035 221.816 351.667 230.451 352.021 239.074C343.579 242.602 335.519 247.429 328.132 253.58L330.386 256.266C337.154 250.633 344.521 246.204 352.221 242.857C352.742 250.667 353.895 258.447 355.662 266.127C351.874 268.194 348.23 270.615 344.809 273.454L347.06 276.137C350.044 273.661 353.198 271.501 356.481 269.647C358.441 277.299 361.06 284.827 364.284 292.167L367.073 289.827C364.012 282.711 361.538 275.42 359.686 268.01C366.539 264.633 373.857 262.543 381.301 261.735C382.348 266.076 383.687 270.362 385.225 274.595L388.088 272.193C386.844 268.648 385.764 265.067 384.874 261.446C389.881 261.18 394.907 261.443 399.85 262.324L403.237 259.482C396.949 258.088 390.501 257.552 384.087 257.951C382.51 250.59 381.667 243.139 381.507 235.674C389.457 235.08 397.45 235.465 405.271 236.944C405.542 243.148 406.455 249.358 407.98 255.501L410.981 252.983C409.832 247.941 409.105 242.86 408.827 237.781C413.827 238.934 418.732 240.485 423.496 242.482L426.476 239.982C420.73 237.447 414.791 235.499 408.71 234.156C408.595 226.083 409.54 218.064 411.531 210.31C418.885 211.775 426.106 213.934 433.101 216.789C431.599 223.011 430.962 229.439 431.272 235.957L434.722 233.062C434.695 228.034 435.24 223.081 436.355 218.252C439.761 219.765 443.099 221.444 446.37 223.288L449.227 220.891C445.323 218.635 441.324 216.604 437.23 214.809C439.33 207.559 442.707 200.731 447.256 194.575C454.215 197.685 460.956 201.38 467.42 205.625L470.209 203.285C463.569 198.856 456.644 194.983 449.482 191.734C451.963 188.742 454.627 185.871 457.686 183.305C460.748 180.736 463.999 178.501 467.381 176.592C469.34 184.244 471.961 191.77 475.185 199.11L477.974 196.77C474.913 189.654 472.439 182.363 470.585 174.955C477.44 171.575 484.759 169.485 492.202 168.678C493.249 173.019 494.588 177.305 496.124 181.54L498.989 179.136C497.745 175.591 496.666 172.01 495.773 168.39C500.78 168.124 505.808 168.386 510.751 169.266L514.138 166.425C507.848 165.033 501.402 164.495 494.988 164.894C493.409 157.534 492.568 150.082 492.408 142.617C500.358 142.023 508.351 142.408 516.17 143.889C516.441 150.093 517.356 156.301 518.881 162.444L521.882 159.926C520.733 154.884 520.006 149.803 519.728 144.723C524.726 145.879 529.633 147.428 534.398 149.425L537.375 146.926C531.631 144.39 525.69 142.444 519.611 141.099C519.496 133.026 520.439 125.009 522.432 117.253C529.786 118.717 537.007 120.876 544.002 123.732C542.501 129.953 541.863 136.382 542.173 142.9L545.621 140.007C545.594 134.978 546.142 130.024 547.254 125.197C550.663 126.708 554 128.387 557.271 130.231L560.126 127.836C556.224 125.578 552.225 123.547 548.131 121.752C550.232 114.502 553.606 107.676 558.157 101.518C565.116 104.628 571.855 108.325 578.319 112.57L581.111 110.228C574.47 105.799 567.543 101.927 560.381 98.6783C562.67 95.919 565.117 93.2672 567.881 90.8589L565.629 88.176C562.437 90.9517 559.64 94.0355 557.053 97.2512C549.768 94.1615 542.277 91.6625 534.646 89.7838C539.205 82.8986 544.725 76.551 551.21 70.9914L548.956 68.3058C541.864 74.3807 535.868 81.3551 530.998 88.9393C522.605 87.0996 514.072 85.9634 505.498 85.5967C512.287 72.3833 521.62 60.2875 533.475 50.1461C533.523 50.1066 533.572 50.0684 533.621 50.0295L531.359 47.3337C531.315 47.3739 531.273 47.4158 531.228 47.4546C516.296 59.7933 499.589 68.6236 482.116 74.0034C490.461 57.7095 502.078 42.7725 516.849 30.1987C516.875 30.1773 516.903 30.1591 516.93 30.138L514.671 27.4462C514.644 27.4694 514.618 27.4936 514.591 27.5168C502.463 37.5144 488.919 44.7046 474.741 49.111C475.881 40.5699 476.251 31.9371 475.896 23.3157C484.167 19.8598 492.07 15.1436 499.334 9.16884L497.082 6.48496C490.437 11.9427 483.228 16.262 475.698 19.5318C475.176 11.7256 474.023 3.94496 472.255 -3.73678C475.88 -5.71217 479.373 -8.01722 482.664 -10.6977Z" fill="#00BDAF"/>
</g>
<path d="M198.641 351.528L203.301 350.616L203.805 353.429L198.972 354.248L202.023 357.828L199.901 359.609L196.929 356.01L195.287 360.577L192.577 359.615L194.312 355.16L189.624 356.096L189.124 353.231L193.929 352.436L190.902 348.884L193.024 347.103L196.019 350.729L197.642 346.084L200.348 347.097L198.641 351.528Z" fill="#ADACDF"/>
<path d="M211.664 340.601L216.324 339.689L216.828 342.502L211.995 343.321L215.046 346.9L212.923 348.682L209.952 345.083L208.31 349.649L205.599 348.688L207.335 344.233L202.646 345.169L202.147 342.304L206.952 341.508L203.924 337.957L206.047 336.176L209.042 339.802L210.665 335.157L213.371 336.17L211.664 340.601Z" fill="#ADACDF"/>
<path d="M224.686 329.673L229.347 328.761L229.851 331.574L225.018 332.393L228.069 335.973L225.946 337.754L222.974 334.156L221.333 338.722L218.622 337.76L220.357 333.305L215.669 334.241L215.169 331.377L219.975 330.581L216.947 327.029L219.07 325.248L222.065 328.874L223.688 324.229L226.394 325.242L224.686 329.673Z" fill="#ADACDF"/>
<path d="M237.709 318.746L242.369 317.834L242.874 320.647L238.04 321.466L241.091 325.046L238.969 326.827L235.997 323.228L234.355 327.795L231.645 326.833L233.38 322.378L228.692 323.314L228.192 320.449L232.997 319.653L229.97 316.102L232.092 314.321L235.088 317.947L236.71 313.302L239.417 314.315L237.709 318.746Z" fill="#ADACDF"/>
<path d="M262.989 297.534L267.649 296.622L268.153 299.435L263.32 300.254L266.371 303.834L264.248 305.615L261.277 302.016L259.635 306.583L256.924 305.621L258.66 301.166L253.971 302.102L253.472 299.237L258.277 298.441L255.249 294.89L257.372 293.109L260.367 296.735L261.99 292.09L264.696 293.103L262.989 297.534Z" fill="#ADACDF"/>
<path d="M276.011 286.607L280.672 285.695L281.176 288.508L276.343 289.327L279.394 292.906L277.271 294.687L274.299 291.089L272.658 295.655L269.947 294.694L271.682 290.239L266.994 291.175L266.494 288.31L271.3 287.514L268.272 283.963L270.395 282.182L273.39 285.808L275.013 281.162L277.719 282.176L276.011 286.607Z" fill="#ADACDF"/>
<path d="M289.034 275.679L293.694 274.767L294.199 277.58L289.365 278.399L292.416 281.979L290.294 283.76L287.322 280.161L285.68 284.728L282.97 283.766L284.705 279.311L280.017 280.247L279.517 277.382L284.322 276.586L281.295 273.035L283.417 271.254L286.413 274.88L288.035 270.235L290.742 271.248L289.034 275.679Z" fill="#ADACDF"/>
<path d="M302.057 264.752L306.717 263.84L307.221 266.653L302.388 267.472L305.439 271.051L303.317 272.832L300.345 269.234L298.703 273.8L295.992 272.839L297.728 268.384L293.04 269.32L292.54 266.455L297.345 265.659L294.318 262.108L296.44 260.327L299.435 263.953L301.058 259.307L303.764 260.321L302.057 264.752Z" fill="#ADACDF"/>
<path d="M327.336 243.54L331.997 242.628L332.501 245.441L327.668 246.26L330.719 249.839L328.596 251.621L325.624 248.022L323.983 252.588L321.272 251.627L323.007 247.172L318.319 248.108L317.819 245.243L322.625 244.447L319.597 240.896L321.72 239.115L324.715 242.741L326.338 238.096L329.044 239.109L327.336 243.54Z" fill="#ADACDF"/>
<path d="M340.359 232.613L345.019 231.7L345.524 234.514L340.69 235.333L343.741 238.912L341.619 240.693L338.647 237.095L337.005 241.661L334.295 240.699L336.03 236.245L331.342 237.18L330.842 234.316L335.647 233.52L332.62 229.969L334.742 228.188L337.738 231.814L339.36 227.168L342.067 228.181L340.359 232.613Z" fill="#ADACDF"/>
<path d="M353.382 221.685L358.042 220.773L358.546 223.586L353.713 224.405L356.764 227.984L354.642 229.766L351.67 226.167L350.028 230.733L347.317 229.772L349.053 225.317L344.365 226.253L343.865 223.388L348.67 222.592L345.643 219.041L347.765 217.26L350.76 220.886L352.383 216.241L355.089 217.254L353.382 221.685Z" fill="#ADACDF"/>
<path d="M366.405 210.758L371.065 209.845L371.569 212.659L366.736 213.478L369.787 217.057L367.664 218.838L364.693 215.24L363.051 219.806L360.34 218.844L362.076 214.39L357.387 215.325L356.888 212.461L361.693 211.665L358.665 208.114L360.788 206.333L363.783 209.959L365.406 205.313L368.112 206.326L366.405 210.758Z" fill="#ADACDF"/>
<path d="M395.205 185.776C395.904 185.582 396.552 185.571 397.15 185.742C397.75 185.897 398.27 186.236 398.709 186.76C399.203 187.348 399.47 188.002 399.509 188.721C399.557 189.432 399.383 190.158 398.986 190.898C398.582 191.63 397.984 192.327 397.193 192.99C396.403 193.654 395.612 194.121 394.822 194.393C394.033 194.647 393.293 194.689 392.601 194.518C391.909 194.346 391.316 193.967 390.822 193.378C390.383 192.854 390.134 192.287 390.077 191.678C390.012 191.059 390.131 190.426 390.434 189.78C389.871 189.892 389.341 189.867 388.844 189.704C388.349 189.525 387.912 189.21 387.534 188.759C387.079 188.217 386.829 187.62 386.783 186.969C386.747 186.31 386.908 185.642 387.265 184.967C387.622 184.291 388.155 183.656 388.863 183.062C389.58 182.461 390.302 182.043 391.03 181.808C391.757 181.574 392.442 181.531 393.085 181.681C393.728 181.831 394.277 182.177 394.732 182.72C395.11 183.17 395.336 183.654 395.41 184.172C395.484 184.689 395.415 185.224 395.205 185.776ZM390.043 184.469C389.482 184.939 389.137 185.433 389.006 185.95C388.885 186.458 389.006 186.929 389.368 187.361C389.715 187.775 390.154 187.971 390.684 187.949C391.215 187.91 391.762 187.656 392.322 187.185C392.892 186.707 393.242 186.209 393.373 185.693C393.495 185.167 393.383 184.697 393.036 184.283C392.674 183.851 392.222 183.659 391.681 183.705C391.15 183.744 390.604 183.998 390.043 184.469ZM396.013 191.584C396.675 191.028 397.083 190.451 397.238 189.851C397.393 189.251 397.266 188.708 396.857 188.221C396.456 187.743 395.946 187.528 395.329 187.576C394.711 187.624 394.072 187.926 393.41 188.481C392.748 189.037 392.344 189.61 392.199 190.202C392.053 190.794 392.181 191.329 392.582 191.807C392.991 192.295 393.5 192.518 394.108 192.477C394.716 192.437 395.351 192.139 396.013 191.584ZM408.387 174.715C409.086 174.521 409.734 174.51 410.332 174.681C410.932 174.836 411.452 175.175 411.891 175.699C412.385 176.288 412.651 176.941 412.691 177.66C412.739 178.371 412.565 179.097 412.168 179.837C411.763 180.569 411.166 181.266 410.375 181.929C409.585 182.593 408.794 183.06 408.004 183.332C407.215 183.586 406.475 183.628 405.783 183.457C405.091 183.285 404.498 182.906 404.004 182.317C403.564 181.793 403.316 181.226 403.259 180.617C403.193 179.998 403.313 179.365 403.616 178.719C403.053 178.831 402.523 178.806 402.026 178.643C401.53 178.464 401.094 178.149 400.716 177.698C400.261 177.156 400.011 176.559 399.965 175.908C399.929 175.249 400.09 174.582 400.447 173.906C400.804 173.23 401.337 172.595 402.045 172.001C402.762 171.4 403.484 170.982 404.211 170.747C404.939 170.513 405.624 170.47 406.267 170.62C406.91 170.77 407.458 171.116 407.914 171.659C408.292 172.109 408.517 172.593 408.591 173.111C408.665 173.628 408.597 174.163 408.387 174.715ZM403.225 173.408C402.664 173.878 402.319 174.372 402.188 174.889C402.067 175.398 402.188 175.868 402.55 176.3C402.897 176.714 403.336 176.91 403.866 176.888C404.397 176.849 404.943 176.595 405.504 176.124C406.074 175.646 406.424 175.148 406.555 174.632C406.677 174.106 406.565 173.636 406.218 173.222C405.855 172.79 405.404 172.598 404.863 172.644C404.332 172.683 403.786 172.937 403.225 173.408ZM409.195 180.523C409.857 179.967 410.265 179.39 410.42 178.79C410.575 178.19 410.448 177.647 410.039 177.16C409.638 176.682 409.128 176.467 408.511 176.515C407.893 176.563 407.254 176.865 406.592 177.42C405.93 177.976 405.526 178.549 405.381 179.141C405.235 179.733 405.363 180.268 405.764 180.746C406.173 181.234 406.682 181.457 407.29 181.417C407.898 181.376 408.533 181.078 409.195 180.523ZM421.569 163.655C422.267 163.46 422.916 163.449 423.514 163.62C424.114 163.775 424.634 164.114 425.073 164.638C425.567 165.227 425.833 165.88 425.873 166.599C425.921 167.31 425.747 168.036 425.35 168.777C424.945 169.508 424.348 170.205 423.557 170.868C422.767 171.532 421.976 171.999 421.186 172.271C420.397 172.525 419.656 172.567 418.964 172.396C418.272 172.225 417.68 171.845 417.186 171.256C416.746 170.732 416.498 170.166 416.44 169.556C416.375 168.937 416.495 168.304 416.798 167.658C416.235 167.77 415.704 167.745 415.208 167.583C414.712 167.403 414.276 167.088 413.898 166.638C413.443 166.095 413.192 165.498 413.147 164.847C413.111 164.188 413.272 163.521 413.629 162.845C413.986 162.169 414.519 161.534 415.227 160.94C415.944 160.339 416.666 159.921 417.393 159.686C418.121 159.452 418.806 159.41 419.449 159.559C420.091 159.709 420.64 160.056 421.095 160.598C421.473 161.048 421.699 161.532 421.773 162.05C421.847 162.567 421.779 163.102 421.569 163.655ZM416.407 162.347C415.846 162.817 415.5 163.311 415.37 163.828C415.249 164.337 415.37 164.807 415.732 165.239C416.079 165.653 416.518 165.849 417.048 165.827C417.579 165.788 418.125 165.534 418.686 165.063C419.256 164.585 419.606 164.088 419.737 163.571C419.859 163.045 419.747 162.575 419.4 162.162C419.037 161.73 418.586 161.537 418.045 161.583C417.514 161.622 416.967 161.876 416.407 162.347ZM422.377 169.462C423.039 168.907 423.447 168.329 423.602 167.729C423.756 167.13 423.629 166.586 423.221 166.099C422.819 165.621 422.31 165.406 421.693 165.454C421.075 165.502 420.436 165.804 419.774 166.359C419.112 166.915 418.708 167.489 418.563 168.081C418.417 168.673 418.545 169.208 418.946 169.686C419.355 170.173 419.863 170.396 420.472 170.356C421.08 170.315 421.715 170.017 422.377 169.462ZM434.751 152.594C435.449 152.399 436.098 152.388 436.696 152.559C437.296 152.714 437.815 153.053 438.255 153.577C438.749 154.166 439.015 154.819 439.055 155.538C439.103 156.249 438.929 156.975 438.532 157.716C438.127 158.447 437.53 159.144 436.739 159.807C435.948 160.471 435.158 160.938 434.368 161.21C433.579 161.465 432.838 161.506 432.146 161.335C431.454 161.164 430.862 160.784 430.368 160.196C429.928 159.672 429.68 159.105 429.622 158.495C429.557 157.876 429.676 157.243 429.98 156.597C429.416 156.709 428.886 156.684 428.389 156.522C427.894 156.342 427.457 156.027 427.08 155.577C426.624 155.034 426.374 154.437 426.329 153.786C426.293 153.127 426.454 152.46 426.811 151.784C427.168 151.108 427.701 150.473 428.408 149.88C429.125 149.278 429.848 148.86 430.575 148.625C431.303 148.391 431.988 148.349 432.631 148.499C433.273 148.648 433.822 148.995 434.277 149.537C434.655 149.987 434.881 150.471 434.955 150.989C435.029 151.506 434.961 152.041 434.751 152.594ZM429.589 151.286C429.028 151.757 428.682 152.25 428.552 152.767C428.431 153.276 428.551 153.746 428.914 154.178C429.261 154.592 429.7 154.788 430.23 154.766C430.761 154.728 431.307 154.473 431.868 154.002C432.438 153.524 432.788 153.027 432.918 152.51C433.041 151.984 432.929 151.514 432.582 151.101C432.219 150.669 431.768 150.476 431.227 150.522C430.695 150.561 430.149 150.815 429.589 151.286ZM435.559 158.401C436.221 157.846 436.629 157.268 436.784 156.668C436.938 156.069 436.811 155.525 436.402 155.038C436.001 154.56 435.492 154.345 434.875 154.393C434.257 154.441 433.617 154.743 432.956 155.299C432.294 155.854 431.89 156.428 431.744 157.02C431.599 157.612 431.727 158.147 432.128 158.625C432.537 159.112 433.045 159.335 433.654 159.295C434.262 159.254 434.897 158.956 435.559 158.401Z" fill="#ADACDF"/>
<path d="M219.48 386.78L227.579 396.432L225.787 397.937L218.949 389.787L216.908 391.5L215.647 389.997L219.48 386.78ZM235.4 387.285L236.673 388.802L229.558 394.772L228.551 393.573L229.33 386.716C229.415 385.94 229.404 385.338 229.296 384.911C229.19 384.468 229.01 384.094 228.756 383.791C228.378 383.34 227.937 383.123 227.433 383.138C226.929 383.154 226.383 383.409 225.794 383.902C224.811 384.728 224.339 385.696 224.378 386.806L222.313 386.894C222.266 386.072 222.443 385.257 222.846 384.449C223.251 383.624 223.848 382.88 224.639 382.217C225.687 381.338 226.731 380.884 227.773 380.856C228.815 380.828 229.694 381.241 230.411 382.096C230.851 382.62 231.154 383.204 231.319 383.849C231.484 384.494 231.5 385.372 231.369 386.485L230.85 391.103L235.4 387.285ZM231.818 373.091L233.362 371.795L239.711 388.602L238.167 389.898L231.818 373.091ZM249.053 375.829L250.326 377.346L243.211 383.316L242.205 382.116L242.983 375.259C243.068 374.483 243.057 373.882 242.95 373.455C242.844 373.011 242.663 372.638 242.409 372.334C242.031 371.884 241.59 371.667 241.086 371.682C240.582 371.698 240.036 371.952 239.448 372.446C238.464 373.271 237.992 374.239 238.031 375.35L235.966 375.438C235.919 374.616 236.097 373.801 236.499 372.993C236.904 372.168 237.501 371.424 238.292 370.76C239.34 369.881 240.385 369.427 241.426 369.399C242.468 369.371 243.347 369.785 244.065 370.639C244.504 371.163 244.807 371.748 244.972 372.393C245.137 373.037 245.154 373.916 245.022 375.029L244.503 379.647L249.053 375.829ZM246.787 363.868L254.886 373.52L253.093 375.024L246.255 366.875L244.214 368.587L242.953 367.084L246.787 363.868Z" fill="#ADACDF"/>
<path d="M275.015 118.465L276.711 117.042L279.939 120.889C279.775 121.701 279.45 122.49 278.966 123.257C278.481 124.024 277.89 124.7 277.191 125.287C276.207 126.112 275.143 126.645 273.997 126.885C272.844 127.117 271.726 127.044 270.643 126.669C269.56 126.293 268.622 125.631 267.827 124.685C267.033 123.738 266.545 122.698 266.362 121.567C266.18 120.435 266.307 119.326 266.743 118.24C267.18 117.137 267.895 116.169 268.888 115.336C269.697 114.657 270.544 114.173 271.43 113.884C272.315 113.595 273.199 113.519 274.082 113.656L273.877 115.708C272.524 115.59 271.328 115.966 270.29 116.838C269.609 117.409 269.122 118.06 268.828 118.793C268.543 119.517 268.465 120.264 268.594 121.034C268.732 121.795 269.078 122.507 269.634 123.169C270.174 123.812 270.807 124.268 271.533 124.536C272.268 124.796 273.021 124.854 273.792 124.708C274.572 124.555 275.297 124.197 275.968 123.634C276.722 123.001 277.245 122.28 277.538 121.471L275.015 118.465ZM287.108 110.527C287.208 110.647 287.341 110.825 287.508 111.061L281.731 115.908C282.287 116.366 282.911 116.578 283.604 116.545C284.298 116.495 284.963 116.204 285.597 115.672C286.406 114.993 286.849 114.167 286.925 113.194L288.74 113.481C288.741 114.154 288.573 114.804 288.237 115.43C287.902 116.057 287.416 116.636 286.782 117.168C285.973 117.847 285.126 118.284 284.24 118.479C283.354 118.674 282.502 118.629 281.684 118.345C280.867 118.043 280.154 117.529 279.544 116.803C278.943 116.086 278.563 115.308 278.407 114.468C278.252 113.611 278.329 112.779 278.638 111.971C278.947 111.163 279.465 110.455 280.191 109.845C280.908 109.244 281.682 108.869 282.513 108.72C283.345 108.554 284.16 108.63 284.959 108.947C285.759 109.247 286.475 109.773 287.108 110.527ZM281.348 111.224C280.797 111.687 280.467 112.246 280.358 112.901C280.251 113.539 280.384 114.164 280.757 114.776L284.935 111.27C284.414 110.798 283.826 110.555 283.171 110.541C282.517 110.526 281.909 110.754 281.348 111.224ZM289.936 101.669C290.864 100.89 291.836 100.536 292.852 100.608C293.868 100.68 294.823 101.249 295.718 102.315L299.259 106.535L297.535 107.981L294.18 103.982C293.64 103.339 293.083 102.983 292.51 102.916C291.929 102.84 291.358 103.037 290.797 103.507C290.163 104.04 289.824 104.653 289.78 105.348C289.729 106.033 290.004 106.734 290.605 107.451L293.729 111.174L292.006 112.62L285.827 105.257L287.468 103.88L288.267 104.832C288.266 104.253 288.409 103.694 288.694 103.157C288.98 102.62 289.394 102.124 289.936 101.669ZM305.568 95.0372C305.668 95.1567 305.802 95.3344 305.969 95.5705L300.191 100.418C300.747 100.876 301.372 101.088 302.065 101.055C302.759 101.005 303.423 100.714 304.057 100.182C304.866 99.5029 305.309 98.6771 305.386 97.7043L307.201 97.9908C307.201 98.6638 307.034 99.3135 306.698 99.94C306.362 100.566 305.877 101.146 305.243 101.678C304.434 102.357 303.586 102.794 302.7 102.989C301.814 103.184 300.962 103.139 300.144 102.855C299.327 102.553 298.614 102.039 298.005 101.313C297.403 100.596 297.024 99.8176 296.867 98.9777C296.712 98.1209 296.789 97.2887 297.099 96.481C297.408 95.6733 297.925 94.9648 298.652 94.3554C299.369 93.7537 300.143 93.3785 300.973 93.2297C301.805 93.0641 302.621 93.1396 303.419 93.4565C304.219 93.7565 304.935 94.2834 305.568 95.0372ZM299.809 95.7343C299.257 96.1971 298.927 96.7559 298.819 97.4108C298.712 98.0488 298.845 98.6737 299.217 99.2855L303.395 95.7797C302.874 95.3083 302.286 95.0652 301.632 95.0505C300.977 95.0358 300.369 95.2638 299.809 95.7343ZM312.822 95.3178C312.225 95.8192 311.576 96.2309 310.874 96.5528C310.173 96.8748 309.553 97.059 309.012 97.1054L308.575 95.2401C309.091 95.183 309.636 95.0306 310.212 94.7828C310.788 94.5181 311.302 94.1968 311.752 93.8188C312.782 92.9549 313.069 92.2518 312.614 91.7094C312.398 91.452 312.114 91.3846 311.763 91.5072C311.421 91.622 310.922 91.8765 310.265 92.2705C309.581 92.6877 308.996 92.9985 308.51 93.2029C308.033 93.3997 307.528 93.4705 306.997 93.4155C306.466 93.3435 305.977 93.041 305.53 92.5078C304.944 91.8092 304.767 91.0101 304.999 90.1105C305.232 89.1939 305.845 88.3192 306.838 87.4861C307.344 87.0619 307.899 86.6974 308.505 86.3926C309.103 86.0787 309.644 85.8833 310.128 85.8063L310.565 87.6717C309.632 87.8285 308.774 88.2347 307.993 88.8903C307.487 89.3146 307.167 89.7167 307.031 90.0966C306.897 90.4597 306.935 90.7653 307.143 91.0135C307.374 91.2893 307.678 91.3712 308.054 91.2593C308.432 91.1305 308.957 90.8699 309.63 90.4773C310.296 90.0756 310.867 89.7763 311.344 89.5796C311.821 89.3828 312.313 89.3151 312.818 89.3764C313.333 89.4299 313.81 89.7187 314.25 90.2427C314.829 90.9321 314.993 91.7344 314.742 92.6494C314.492 93.5644 313.852 94.4539 312.822 95.3178ZM311.572 83.6548L313.296 82.2085L319.474 89.5718L317.751 91.018L311.572 83.6548ZM311.423 81.7125C311.11 81.9747 310.767 82.0981 310.394 82.0824C310.013 82.0576 309.699 81.8981 309.452 81.6039C309.205 81.3098 309.106 80.9775 309.156 80.607C309.197 80.2274 309.375 79.9064 309.687 79.6442C310 79.3819 310.343 79.2586 310.716 79.2742C311.082 79.2807 311.384 79.4264 311.623 79.7113C311.878 80.0147 311.988 80.3608 311.954 80.7496C311.922 81.1216 311.744 81.4425 311.423 81.7125ZM324.281 85.7032C323.683 86.2046 323.034 86.6162 322.333 86.9382C321.632 87.2602 321.011 87.4443 320.47 87.4907L320.033 85.6254C320.549 85.5684 321.095 85.4159 321.67 85.1682C322.247 84.9035 322.76 84.5821 323.211 84.2042C324.24 83.3403 324.528 82.6371 324.072 82.0948C323.856 81.8374 323.573 81.77 323.221 81.8926C322.879 82.0074 322.38 82.2619 321.724 82.6559C321.04 83.073 320.455 83.3839 319.968 83.5883C319.491 83.7851 318.987 83.8559 318.455 83.8009C317.925 83.7289 317.436 83.4264 316.988 82.8932C316.402 82.1946 316.225 81.3954 316.457 80.4958C316.69 79.5793 317.304 78.7045 318.296 77.8715C318.802 77.4472 319.358 77.0827 319.964 76.778C320.562 76.4641 321.103 76.2687 321.586 76.1917L322.024 78.057C321.09 78.2138 320.233 78.6201 319.451 79.2757C318.946 79.7 318.625 80.1021 318.49 80.482C318.356 80.8451 318.393 81.1507 318.601 81.3989C318.832 81.6747 319.136 81.7566 319.512 81.6447C319.89 81.5159 320.415 81.2552 321.088 80.8627C321.754 80.461 322.325 80.1617 322.802 79.965C323.279 79.7682 323.771 79.7005 324.277 79.7618C324.791 79.8153 325.269 80.1041 325.708 80.6281C326.287 81.3175 326.451 82.1197 326.201 83.0348C325.95 83.9498 325.31 84.8393 324.281 85.7032ZM334.099 60.8521L337.992 74.0332L336.227 75.5141L323.909 69.4025L325.853 67.7711L335.314 72.5212L332.306 62.3562L334.099 60.8521ZM337.128 62.211L338.852 60.7647L345.03 68.1279L343.306 69.5742L337.128 62.211ZM336.978 60.2686C336.666 60.5309 336.323 60.6542 335.949 60.6386C335.568 60.6137 335.254 60.4542 335.008 60.1601C334.761 59.8659 334.662 59.5336 334.711 59.1632C334.753 58.7835 334.93 58.4626 335.243 58.2003C335.555 57.938 335.898 57.8147 336.272 57.8304C336.638 57.8368 336.94 57.9825 337.179 58.2675C337.434 58.5708 337.544 58.9169 337.51 59.3058C337.477 59.6777 337.3 59.9987 336.978 60.2686ZM349.836 64.2593C349.239 64.7607 348.59 65.1724 347.889 65.4943C347.187 65.8163 346.567 66.0005 346.026 66.0469L345.589 64.1816C346.105 64.1245 346.65 63.9721 347.226 63.7243C347.802 63.4596 348.316 63.1383 348.767 62.7603C349.796 61.8964 350.083 61.1933 349.628 60.6509C349.412 60.3935 349.129 60.3261 348.777 60.4487C348.435 60.5636 347.936 60.818 347.279 61.212C346.596 61.6292 346.01 61.94 345.524 62.1445C345.047 62.3412 344.542 62.4121 344.011 62.357C343.48 62.2851 342.991 61.9825 342.544 61.4493C341.958 60.7507 341.781 59.9516 342.013 59.052C342.246 58.1355 342.859 57.2607 343.852 56.4276C344.358 56.0034 344.914 55.6389 345.519 55.3341C346.118 55.0202 346.658 54.8248 347.142 54.7479L347.58 56.6132C346.646 56.77 345.788 57.1762 345.007 57.8319C344.501 58.2561 344.181 58.6582 344.045 59.0382C343.911 59.4012 343.949 59.7068 344.157 59.955C344.388 60.2308 344.692 60.3128 345.068 60.2009C345.446 60.072 345.971 59.8114 346.644 59.4188C347.31 59.0171 347.881 58.7179 348.358 58.5211C348.835 58.3244 349.327 58.2566 349.832 58.3179C350.347 58.3715 350.825 58.6602 351.264 59.1842C351.843 59.8736 352.007 60.6759 351.756 61.5909C351.506 62.506 350.866 63.3954 349.836 64.2593ZM348.586 52.5963L350.31 51.1501L356.488 58.5133L354.765 59.9596L348.586 52.5963ZM348.437 50.654C348.124 50.9163 347.781 51.0396 347.408 51.0239C347.027 50.9991 346.713 50.8396 346.466 50.5455C346.219 50.2513 346.12 49.919 346.17 49.5485C346.211 49.1689 346.389 48.8479 346.701 48.5857C347.014 48.3234 347.357 48.2001 347.73 48.2157C348.096 48.2222 348.398 48.3679 348.637 48.6529C348.892 48.9562 349.002 49.3023 348.968 49.6911C348.936 50.0631 348.758 50.384 348.437 50.654ZM362.329 53.7769C361.584 54.4017 360.778 54.804 359.911 54.9836C359.043 55.1632 358.2 55.1108 357.382 54.8262C356.565 54.5248 355.852 54.011 355.243 53.2847C354.633 52.5585 354.255 51.7716 354.108 50.924C353.969 50.0687 354.064 49.2294 354.392 48.4063C354.719 47.5832 355.255 46.8593 356 46.2345C356.754 45.602 357.564 45.1959 358.432 45.0163C359.299 44.8366 360.138 44.8929 360.947 45.1852C361.765 45.4697 362.479 45.9751 363.088 46.7013C363.698 47.4275 364.075 48.2229 364.221 49.0874C364.368 49.935 364.278 50.7704 363.951 51.5935C363.623 52.4166 363.083 53.1444 362.329 53.7769ZM361.091 52.3015C361.725 51.7693 362.072 51.1182 362.131 50.3483C362.189 49.5783 361.93 48.8486 361.351 48.1592C360.772 47.4697 360.099 47.0871 359.331 47.0114C358.562 46.9356 357.861 47.1639 357.226 47.6961C356.592 48.2283 356.246 48.8794 356.187 49.6494C356.137 50.4116 356.401 51.1375 356.98 51.8269C357.558 52.5163 358.227 52.9028 358.987 52.9863C359.755 53.062 360.457 52.8338 361.091 52.3015ZM365.944 37.8904C366.872 37.1114 367.845 36.7578 368.86 36.8296C369.876 36.9014 370.832 37.4705 371.726 38.5369L375.267 42.7562L373.543 44.2025L370.188 40.2038C369.648 39.5603 369.091 39.2049 368.518 39.1378C367.937 39.0614 367.366 39.2584 366.805 39.729C366.171 40.2612 365.832 40.8746 365.788 41.5692C365.737 42.2547 366.012 42.9559 366.614 43.6729L369.737 47.3959L368.014 48.8422L361.835 41.4789L363.476 40.1021L364.275 41.0535C364.274 40.4743 364.417 39.9161 364.702 39.3789C364.988 38.8417 365.402 38.3455 365.944 37.8904Z" fill="#ADACDF"/>
<path opacity="0.5" d="M211.555 378.287L212.862 382.673L212.127 383.29L208.039 381.238L208.843 380.563L211.751 382.04L210.815 378.908L211.555 378.287ZM216.144 378.745L214.65 379.998L214.944 380.927L214.181 381.567L212.915 377.146L213.651 376.529L217.789 378.539L217.008 379.195L216.144 378.745ZM215.435 378.376L213.892 377.572L214.415 379.232L215.435 378.376ZM215.611 374.884L216.356 374.259L218.546 376.87L220.16 375.516L220.669 376.123L218.311 378.101L215.611 374.884ZM218.573 372.399L219.318 371.774L222.017 374.991L221.273 375.616L218.573 372.399ZM220.269 370.975L221.731 369.749C222.08 369.456 222.445 369.265 222.824 369.176C223.205 369.082 223.57 369.094 223.92 369.212C224.273 369.328 224.585 369.547 224.855 369.869C225.125 370.191 225.286 370.536 225.339 370.904C225.395 371.269 225.345 371.632 225.189 371.994C225.032 372.349 224.78 372.673 224.431 372.966L222.969 374.193L220.269 370.975ZM223.881 372.386C224.203 372.116 224.384 371.812 224.425 371.475C224.466 371.132 224.358 370.808 224.101 370.501C223.844 370.195 223.544 370.034 223.202 370.018C222.86 369.997 222.529 370.121 222.207 370.391L221.527 370.962L223.201 372.957L223.881 372.386ZM226.92 366.429L225.89 367.293L225.381 366.686L228.185 364.333L228.694 364.94L227.664 365.804L229.855 368.415L229.11 369.039L226.92 366.429ZM231.724 361.363L234.424 364.581L233.679 365.206L232.573 363.886L231.111 365.113L232.218 366.432L231.473 367.057L228.773 363.839L229.518 363.215L230.583 364.483L232.044 363.257L230.98 361.988L231.724 361.363ZM237.423 362.064L236.051 361.689L236.014 361.719L235.366 362.263L236.118 363.16L235.373 363.784L232.674 360.567L234.066 359.398C234.351 359.159 234.638 359 234.926 358.92C235.217 358.837 235.492 358.836 235.752 358.916C236.012 358.995 236.243 359.154 236.443 359.393C236.644 359.632 236.759 359.888 236.789 360.16C236.82 360.427 236.768 360.695 236.634 360.964L238.223 361.393L237.423 362.064ZM235.689 360.026C235.538 359.845 235.364 359.756 235.168 359.759C234.969 359.758 234.758 359.852 234.534 360.04L233.927 360.549L234.868 361.67L235.475 361.161C235.699 360.974 235.828 360.782 235.862 360.586C235.896 360.39 235.838 360.204 235.689 360.026ZM240.417 359.646C239.957 360.032 239.492 360.206 239.021 360.167C238.554 360.126 238.122 359.87 237.726 359.398L236.214 357.596L236.958 356.971L238.447 358.746C238.931 359.322 239.411 359.409 239.889 359.008C240.122 358.813 240.242 358.595 240.249 358.354C240.253 358.11 240.131 357.84 239.881 357.542L238.393 355.768L239.128 355.151L240.64 356.953C241.036 357.425 241.212 357.896 241.168 358.366C241.127 358.834 240.877 359.261 240.417 359.646Z" fill="#ADACDF"/>
<circle cx="465.803" cy="187.402" r="25" transform="rotate(-40 465.803 187.402)" fill="#16B9AD"/>
<g style="mix-blend-mode:screen">
<circle cx="438.991" cy="209.899" r="25" transform="rotate(-40 438.991 209.899)" fill="#DB2A7C"/>
</g>
<rect x="141.605" y="298.87" width="60" height="55" rx="10" transform="rotate(-40 141.605 298.87)" fill="#ADACDF" fill-opacity="0.6"/>
<path d="M148.676 307.297L194.639 268.73" stroke="#100C31" stroke-linecap="round"/>
<path d="M155.747 315.723L171.834 302.225" stroke="#100C31" stroke-linecap="round"/>
<path d="M185.623 290.654L200.943 277.799" stroke="#100C31" stroke-linecap="round"/>
<path d="M162.817 324.149L178.138 311.294" stroke="#100C31" stroke-linecap="round"/>
<path d="M193.459 298.438L208.78 285.582" stroke="#100C31" stroke-linecap="round"/>
<path d="M169.888 332.576L215.851 294.009" stroke="#100C31" stroke-linecap="round"/>
<path d="M185.015 295.733C188.324 295.259 191.795 296.455 194.102 299.204C197.652 303.435 197.1 309.742 192.869 313.292C188.639 316.842 182.331 316.29 178.781 312.06C176.474 309.311 175.9 305.685 176.94 302.508" stroke="#100C31" stroke-linecap="round" stroke-linejoin="round"/>
<path d="M177.785 282.87C179.822 283.343 181.727 284.456 183.175 286.181C185.419 288.855 186.024 292.36 185.097 295.472M165.528 293.154C165.641 295.242 166.406 297.312 167.854 299.037C170.16 301.786 173.631 302.982 176.94 302.508" stroke="#100C31" stroke-linecap="round" stroke-linejoin="round"/>
<g opacity="0.5">
<g filter="url(#filter3_d)">
<path d="M75.9871 136.302L80.9184 131.66C81.358 131.056 81.6507 130.125 80.6466 129.058C80.7129 129.056 78.8445 127.146 78.8445 127.146L81.6581 124.496L85.0772 128.132L85.0641 128.145C85.5785 128.691 86.1164 129.241 86.665 129.8L90.9936 125.728L93.472 128.362L89.2289 132.355C89.905 133.045 90.5851 133.74 91.2371 134.433L95.4518 130.466L97.9319 133.101L93.603 137.175C96.5061 140.857 97.9953 144.535 95.1568 147.772C93.0834 150.145 90.8138 150.48 88.5981 149.684C90.3609 152.767 90.3492 155.75 86.7069 158.591C82.1845 162.121 78.1505 160.071 73.7272 155.88L69.356 159.993L66.8758 157.358L71.1889 153.301C70.5456 152.619 69.8932 151.914 69.2279 151.177L64.8961 155.254L62.4193 152.622L66.7965 148.5C66.2203 147.88 65.6402 147.242 65.0404 146.603L61.8131 143.174L65.4527 140.736C65.4527 140.736 67.2567 142.714 67.2549 142.652C67.9579 143.396 68.6793 143.09 69.0593 142.821L75.9685 136.319M82.3257 152.896C79.0552 155.977 74.1549 150.025 72.4725 148.24L78.274 142.782C79.9548 144.568 85.7385 149.685 82.3257 152.896ZM89.3566 143.968C86.3791 146.769 82.3293 141.77 80.9292 140.283L86.1905 135.331C87.5905 136.819 92.461 141.046 89.3566 143.968Z" stroke="#DB2A7C" stroke-width="2" stroke-linecap="round" stroke-linejoin="round"/>
</g>
</g>
<g opacity="0.5">
<g filter="url(#filter4_d)">
<path d="M517.496 297.251L522.322 292.5C522.748 291.886 523.02 290.949 521.992 289.904C522.058 289.901 520.147 288.033 520.147 288.033L522.901 285.321L526.4 288.879L526.388 288.892C526.914 289.427 527.464 289.965 528.025 290.512L532.262 286.344L534.798 288.921L530.646 293.008C531.337 293.683 532.033 294.363 532.7 295.041L536.825 290.98L539.363 293.559L535.127 297.729C538.112 301.345 539.683 304.989 536.918 308.289C534.898 310.708 532.636 311.093 530.403 310.347C532.235 313.39 532.29 316.372 528.712 319.295C524.27 322.925 520.191 320.966 515.675 316.875L511.397 321.084L508.859 318.506L513.08 314.353C512.421 313.686 511.753 312.996 511.072 312.274L506.832 316.447L504.297 313.871L508.581 309.652C507.991 309.045 507.397 308.42 506.783 307.795L503.479 304.439L507.063 301.92C507.063 301.92 508.911 303.857 508.908 303.795C509.628 304.524 510.342 304.201 510.716 303.923L517.478 297.269M524.205 313.699C521.004 316.852 515.971 311.011 514.25 309.265L519.927 303.678C521.648 305.426 527.545 310.412 524.205 313.699ZM531.034 304.616C528.12 307.483 523.959 302.576 522.526 301.12L527.675 296.052C529.108 297.508 534.072 301.625 531.034 304.616Z" stroke="#DB2A7C" stroke-width="2" stroke-linecap="round" stroke-linejoin="round"/>
</g>
</g>
<g filter="url(#filter5_d)">
<path d="M297.702 311.411C296.288 310.594 294.695 310.357 293.118 310.302C291.794 310.256 289.82 309.408 289.82 307C289.82 305.206 291.274 303.762 293.119 303.698C294.696 303.643 296.289 303.406 297.702 302.59C298.972 301.856 300.027 300.802 300.76 299.532C301.494 298.262 301.88 296.821 301.88 295.354C301.88 293.888 301.494 292.447 300.76 291.177C300.027 289.907 298.972 288.852 297.702 288.119C296.432 287.386 294.992 287 293.525 287C292.059 287 290.618 287.386 289.348 288.119C288.078 288.853 287.023 289.907 286.29 291.177C285.557 292.448 285.171 293.888 285.171 295.355C285.171 296.973 285.746 298.463 286.481 299.845C287.099 301.007 287.411 303.163 285.292 304.387C283.716 305.297 281.749 304.72 280.766 303.148C279.936 301.82 278.934 300.575 277.532 299.765C276.262 299.032 274.821 298.646 273.354 298.646C271.888 298.646 270.447 299.032 269.177 299.765C267.907 300.498 266.853 301.553 266.119 302.823C265.386 304.093 265 305.534 265 307C265 308.467 265.386 309.907 266.119 311.177C266.853 312.447 267.907 313.502 269.177 314.235C270.447 314.968 271.888 315.354 273.354 315.354C274.821 315.354 276.262 314.968 277.532 314.235C278.934 313.425 279.936 312.182 280.766 310.854C281.447 309.764 283.148 308.375 285.292 309.614C286.866 310.523 287.353 312.516 286.48 314.157C285.746 315.538 285.171 317.027 285.171 318.646C285.171 320.112 285.557 321.553 286.29 322.823C287.023 324.093 288.078 325.147 289.348 325.881C290.618 326.614 292.059 327 293.525 327C294.992 327 296.432 326.614 297.702 325.881C298.972 325.147 300.027 324.093 300.76 322.823C301.494 321.553 301.88 320.112 301.88 318.646C301.88 317.179 301.494 315.739 300.76 314.469C300.027 313.198 298.972 312.144 297.702 311.411Z" stroke="#DB2A7C" stroke-width="2" stroke-linecap="round" stroke-linejoin="round"/>
</g>
<g filter="url(#filter6_d)">
<path d="M419.983 342.261L420.208 341.287C419.738 341.178 419.257 341.421 419.065 341.864L419.983 342.261ZM429.47 344.456L430.393 344.842C430.506 344.57 430.494 344.262 430.36 344C430.226 343.738 429.982 343.548 429.696 343.482L429.47 344.456ZM412.867 358.723L413.157 359.68C413.439 359.594 413.668 359.39 413.785 359.12L412.867 358.723ZM407.081 360.476L406.791 359.519C406.449 359.623 406.189 359.901 406.108 360.249L407.081 360.476ZM405.506 367.223L404.533 366.996C404.451 367.344 404.562 367.708 404.823 367.953C405.083 368.197 405.454 368.284 405.796 368.18L405.506 367.223ZM409.749 365.937L410.666 366.334C410.821 365.977 410.754 365.562 410.495 365.272C410.235 364.981 409.831 364.867 409.459 364.98L409.749 365.937ZM403.855 379.571L402.937 379.175C402.82 379.447 402.829 379.757 402.962 380.021C403.095 380.286 403.339 380.478 403.628 380.545L403.855 379.571ZM428.163 385.246L427.935 386.22C428.473 386.345 429.011 386.011 429.137 385.473L428.163 385.246ZM430.436 375.508L431.41 375.735C431.535 375.197 431.201 374.659 430.663 374.534L430.436 375.508ZM417.739 372.544L416.816 372.158C416.703 372.43 416.715 372.737 416.848 372.999C416.982 373.261 417.225 373.451 417.511 373.517L417.739 372.544ZM422.056 362.208L421.766 361.251C421.48 361.337 421.248 361.547 421.133 361.822L422.056 362.208ZM428.988 360.107L429.278 361.064C429.62 360.96 429.88 360.682 429.961 360.334L428.988 360.107ZM430.563 353.36L431.536 353.587C431.618 353.239 431.507 352.875 431.246 352.63C430.986 352.386 430.615 352.299 430.273 352.403L430.563 353.36ZM425.054 355.029L424.131 354.644C423.982 355.001 424.052 355.413 424.312 355.7C424.571 355.987 424.973 356.099 425.344 355.987L425.054 355.029ZM419.757 343.235L429.245 345.43L429.696 343.482L420.208 341.287L419.757 343.235ZM413.785 359.12L420.901 342.658L419.065 341.864L411.949 358.326L413.785 359.12ZM407.371 361.433L413.157 359.68L412.577 357.766L406.791 359.519L407.371 361.433ZM406.48 367.45L408.055 360.704L406.108 360.249L404.533 366.996L406.48 367.45ZM409.459 364.98L405.216 366.266L405.796 368.18L410.039 366.894L409.459 364.98ZM404.773 379.968L410.666 366.334L408.831 365.541L402.937 379.175L404.773 379.968ZM428.39 384.272L404.082 378.598L403.628 380.545L427.935 386.22L428.39 384.272ZM429.462 375.28L427.189 385.019L429.137 385.473L431.41 375.735L429.462 375.28ZM417.511 373.517L430.209 376.482L430.663 374.534L417.966 371.57L417.511 373.517ZM421.133 361.822L416.816 372.158L418.661 372.929L422.979 362.593L421.133 361.822ZM428.698 359.15L421.766 361.251L422.346 363.165L429.278 361.064L428.698 359.15ZM429.589 353.133L428.014 359.879L429.961 360.334L431.536 353.587L429.589 353.133ZM425.344 355.987L430.853 354.317L430.273 352.403L424.764 354.072L425.344 355.987ZM428.547 344.071L424.131 354.644L425.977 355.415L430.393 344.842L428.547 344.071Z" fill="#DB2A7C"/>
</g>
<g filter="url(#filter7_d)">
<path d="M546.249 351.913L545.262 351.754C545.174 352.299 545.545 352.812 546.09 352.9L546.249 351.913ZM547.044 346.976L548.032 347.136C548.119 346.59 547.749 346.077 547.203 345.989L547.044 346.976ZM552.173 352.867L553.148 352.648C553.059 352.249 552.735 351.945 552.332 351.88L552.173 352.867ZM554.206 361.927L554.771 362.751C555.109 362.52 555.271 362.107 555.181 361.708L554.206 361.927ZM540.6 371.26L540.034 370.436C539.697 370.667 539.534 371.08 539.624 371.479C539.713 371.878 540.037 372.183 540.44 372.248L540.6 371.26ZM550.966 372.931L551.953 373.09C552.041 372.544 551.67 372.031 551.125 371.943L550.966 372.931ZM549.375 382.803L549.216 383.791C549.478 383.833 549.746 383.769 549.961 383.614C550.176 383.459 550.32 383.224 550.362 382.962L549.375 382.803ZM541.477 381.531L541.636 380.544C541.091 380.456 540.578 380.827 540.49 381.372L541.477 381.531ZM540.682 386.467L540.523 387.454C541.068 387.542 541.581 387.171 541.669 386.626L540.682 386.467ZM530.809 384.877L529.822 384.717C529.78 384.979 529.843 385.247 529.998 385.462C530.154 385.677 530.388 385.822 530.65 385.864L530.809 384.877ZM531.604 379.94L532.592 380.099C532.679 379.554 532.309 379.041 531.763 378.953L531.604 379.94ZM526.668 379.145L525.692 379.364C525.782 379.763 526.105 380.067 526.509 380.132L526.668 379.145ZM524.635 370.085L524.069 369.261C523.732 369.492 523.57 369.905 523.659 370.304L524.635 370.085ZM538.241 360.752L538.807 361.576C539.144 361.345 539.306 360.932 539.217 360.533C539.127 360.134 538.804 359.829 538.4 359.764L538.241 360.752ZM527.875 359.081L526.888 358.922C526.845 359.184 526.909 359.452 527.064 359.667C527.22 359.882 527.454 360.026 527.716 360.069L527.875 359.081ZM529.465 349.209L529.624 348.221C529.079 348.134 528.566 348.504 528.478 349.05L529.465 349.209ZM536.376 350.322L536.217 351.309C536.762 351.397 537.276 351.026 537.364 350.481L536.376 350.322ZM537.172 345.386L537.331 344.399C536.785 344.311 536.272 344.681 536.184 345.227L537.172 345.386ZM547.236 352.072L548.032 347.136L546.057 346.817L545.262 351.754L547.236 352.072ZM552.332 351.88L546.408 350.926L546.09 352.9L552.014 353.854L552.332 351.88ZM555.181 361.708L553.148 352.648L551.197 353.086L553.23 362.146L555.181 361.708ZM541.165 372.085L554.771 362.751L553.64 361.102L540.034 370.436L541.165 372.085ZM551.125 371.943L540.759 370.273L540.44 372.248L550.807 373.918L551.125 371.943ZM550.362 382.962L551.953 373.09L549.979 372.772L548.388 382.644L550.362 382.962ZM541.318 382.518L549.216 383.791L549.534 381.816L541.636 380.544L541.318 382.518ZM540.49 381.372L539.694 386.308L541.669 386.626L542.464 381.69L540.49 381.372ZM540.841 385.48L530.968 383.889L530.65 385.864L540.523 387.454L540.841 385.48ZM531.796 385.036L532.592 380.099L530.617 379.781L529.822 384.717L531.796 385.036ZM526.509 380.132L531.445 380.927L531.763 378.953L526.827 378.158L526.509 380.132ZM523.659 370.304L525.692 379.364L527.644 378.926L525.611 369.866L523.659 370.304ZM537.675 359.927L524.069 369.261L525.201 370.91L538.807 361.576L537.675 359.927ZM527.716 360.069L538.082 361.739L538.4 359.764L528.034 358.094L527.716 360.069ZM528.478 349.05L526.888 358.922L528.862 359.24L530.453 349.368L528.478 349.05ZM536.535 349.335L529.624 348.221L529.306 350.196L536.217 351.309L536.535 349.335ZM536.184 345.227L535.389 350.163L537.364 350.481L538.159 345.545L536.184 345.227ZM547.203 345.989L537.331 344.399L537.013 346.373L546.885 347.964L547.203 345.989Z" fill="#DB2A7C"/>
</g>
<g opacity="0.3">
<g filter="url(#filter8_d)">
<path d="M62.1279 59.9508L61.1837 59.6217C61.0019 60.1432 61.2772 60.7133 61.7987 60.8951L62.1279 59.9508ZM63.7738 55.2295L64.7181 55.5587C64.8999 55.0372 64.6245 54.467 64.103 54.2852L63.7738 55.2295ZM67.7936 61.9259L68.7926 61.8809C68.7741 61.4724 68.5089 61.1163 68.1227 60.9817L67.7936 61.9259ZM68.2119 71.2013L68.6248 72.1121C68.9972 71.9432 69.2293 71.5647 69.2109 71.1562L68.2119 71.2013ZM53.1837 78.0133L52.7709 77.1025C52.3984 77.2713 52.1663 77.6498 52.1847 78.0583C52.2032 78.4668 52.4684 78.8229 52.8545 78.9575L53.1837 78.0133ZM63.0985 81.4696L64.0428 81.7988C64.2246 81.2773 63.9492 80.7072 63.4277 80.5254L63.0985 81.4696ZM59.8068 90.9123L59.4776 91.8566C59.728 91.9439 60.0029 91.9281 60.2417 91.8128C60.4805 91.6974 60.6637 91.4919 60.751 91.2415L59.8068 90.9123ZM52.2526 88.2789L52.5818 87.3346C52.3313 87.2473 52.0565 87.2631 51.8176 87.3784C51.5788 87.4938 51.3956 87.6993 51.3083 87.9497L52.2526 88.2789ZM50.6067 93.0002L50.2775 93.9445C50.5279 94.0318 50.8028 94.016 51.0416 93.9007C51.2804 93.7853 51.4637 93.5798 51.551 93.3294L50.6067 93.0002ZM41.164 89.7084L40.2197 89.3792C40.0379 89.9008 40.3133 90.4709 40.8348 90.6527L41.164 89.7084ZM42.8099 84.9871L43.7542 85.3163C43.8415 85.0658 43.8257 84.791 43.7104 84.5522C43.595 84.3133 43.3895 84.1301 43.1391 84.0428L42.8099 84.9871ZM38.0886 83.3412L37.0896 83.3863C37.108 83.7948 37.3733 84.1509 37.7594 84.2855L38.0886 83.3412ZM37.6702 74.0659L37.2574 73.1551C36.885 73.3239 36.6528 73.7024 36.6713 74.1109L37.6702 74.0659ZM52.6984 67.2539L53.1113 68.1647C53.4837 67.9959 53.7158 67.6173 53.6974 67.2088C53.679 66.8003 53.4137 66.4442 53.0276 66.3096L52.6984 67.2539ZM42.7836 63.7975L41.8394 63.4683C41.6576 63.9898 41.9329 64.56 42.4544 64.7418L42.7836 63.7975ZM46.0754 54.3548L46.4046 53.4106C45.8831 53.2288 45.3129 53.5041 45.1311 54.0256L46.0754 54.3548ZM52.6852 56.6591L52.3561 57.6033C52.8776 57.7851 53.4477 57.5097 53.6295 56.9882L52.6852 56.6591ZM54.3311 51.9377L54.6603 50.9934C54.1388 50.8116 53.5687 51.087 53.3869 51.6085L54.3311 51.9377ZM63.0722 60.28L64.7181 55.5587L62.8296 54.9003L61.1837 59.6217L63.0722 60.28ZM68.1227 60.9817L62.4571 59.0066L61.7987 60.8951L67.4644 62.8702L68.1227 60.9817ZM69.2109 71.1562L68.7926 61.8809L66.7946 61.971L67.2129 71.2463L69.2109 71.1562ZM53.5966 78.9241L68.6248 72.1121L67.7991 70.2905L52.7709 77.1025L53.5966 78.9241ZM63.4277 80.5254L53.5129 77.069L52.8545 78.9575L62.7694 82.4139L63.4277 80.5254ZM60.751 91.2415L64.0428 81.7988L62.1543 81.1405L58.8625 90.5831L60.751 91.2415ZM51.9234 89.2231L59.4776 91.8566L60.1359 89.968L52.5818 87.3346L51.9234 89.2231ZM51.3083 87.9497L49.6624 92.671L51.551 93.3294L53.1968 88.608L51.3083 87.9497ZM50.9359 92.0559L41.4932 88.7642L40.8348 90.6527L50.2775 93.9445L50.9359 92.0559ZM42.1083 90.0376L43.7542 85.3163L41.8656 84.6579L40.2197 89.3792L42.1083 90.0376ZM37.7594 84.2855L42.4807 85.9314L43.1391 84.0428L38.4178 82.3969L37.7594 84.2855ZM36.6713 74.1109L37.0896 83.3863L39.0876 83.2961L38.6692 74.0208L36.6713 74.1109ZM52.2856 66.3431L37.2574 73.1551L38.0831 74.9767L53.1113 68.1647L52.2856 66.3431ZM42.4544 64.7418L52.3693 68.1981L53.0276 66.3096L43.1128 62.8532L42.4544 64.7418ZM45.1311 54.0256L41.8394 63.4683L43.7279 64.1267L47.0197 54.684L45.1311 54.0256ZM53.0144 55.7148L46.4046 53.4106L45.7462 55.2991L52.3561 57.6033L53.0144 55.7148ZM53.3869 51.6085L51.741 56.3299L53.6295 56.9882L55.2754 52.2669L53.3869 51.6085ZM64.103 54.2852L54.6603 50.9934L54.002 52.882L63.4446 56.1738L64.103 54.2852Z" fill="#DB2A7C"/>
</g>
</g>
<circle cx="117" cy="200" r="4" fill="#00BDAF"/>
<circle cx="220" cy="271" r="4" fill="#00BDAF"/>
<circle cx="347" cy="336" r="4" fill="#00BDAF"/>
<circle cx="476" cy="381" r="4" fill="#00BDAF"/>
<circle opacity="0.5" cx="539" cy="334" r="4" fill="#00BDAF"/>
<circle opacity="0.2" cx="493" cy="278" r="4" fill="#00BDAF"/>
<circle opacity="0.5" cx="36" cy="109" r="4" fill="#00BDAF"/>
<circle opacity="0.2" cx="98" cy="73" r="4" fill="#00BDAF"/>
<circle opacity="0.2" cx="213" cy="109" r="4" fill="#00BDAF"/>
<g filter="url(#filter9_d)">
<path d="M159.966 225.092L183.627 216.685L186.524 241.627L162.864 250.034L159.966 225.092Z" stroke="#DB2A7C" stroke-width="2" stroke-linecap="round" stroke-linejoin="round"/>
<path d="M170.27 237.397L159.966 225.092L175.026 229.757L185.858 241.213L170.27 237.397Z" stroke="#DB2A7C" stroke-width="2" stroke-linecap="round" stroke-linejoin="round"/>
<path d="M183.695 216.306L162.554 250.263" stroke="#DB2A7C" stroke-width="2" stroke-linecap="round" stroke-linejoin="round"/>
</g>
<defs>
<filter id="filter0_d" x="429.132" y="219.849" width="73.0935" height="73.9254" filterUnits="userSpaceOnUse" color-interpolation-filters="sRGB">
<feFlood flood-opacity="0" result="BackgroundImageFix"/>
<feColorMatrix in="SourceAlpha" type="matrix" values="0 0 0 0 0 0 0 0 0 0 0 0 0 0 0 0 0 0 127 0"/>
<feOffset dy="4"/>
<feGaussianBlur stdDeviation="10"/>
<feColorMatrix type="matrix" values="0 0 0 0 0.858824 0 0 0 0 0.164706 0 0 0 0 0.486275 0 0 0 0.8 0"/>
<feBlend mode="normal" in2="BackgroundImageFix" result="effect1_dropShadow"/>
<feBlend mode="normal" in="SourceGraphic" in2="effect1_dropShadow" result="shape"/>
</filter>
<filter id="filter1_f" x="87" y="21" width="420" height="420" filterUnits="userSpaceOnUse" color-interpolation-filters="sRGB">
<feFlood flood-opacity="0" result="BackgroundImageFix"/>
<feBlend mode="normal" in="SourceGraphic" in2="BackgroundImageFix" result="shape"/>
<feGaussianBlur stdDeviation="30" result="effect1_foregroundBlur"/>
</filter>
<filter id="filter2_d" x="121.468" y="48.2632" width="70.2879" height="75.52" filterUnits="userSpaceOnUse" color-interpolation-filters="sRGB">
<feFlood flood-opacity="0" result="BackgroundImageFix"/>
<feColorMatrix in="SourceAlpha" type="matrix" values="0 0 0 0 0 0 0 0 0 0 0 0 0 0 0 0 0 0 127 0"/>
<feOffset dy="4"/>
<feGaussianBlur stdDeviation="10"/>
<feColorMatrix type="matrix" values="0 0 0 0 0.858824 0 0 0 0 0.164706 0 0 0 0 0.486275 0 0 0 0.8 0"/>
<feBlend mode="normal" in2="BackgroundImageFix" result="effect1_dropShadow"/>
<feBlend mode="normal" in="SourceGraphic" in2="effect1_dropShadow" result="shape"/>
</filter>
<filter id="filter3_d" x="34.9864" y="100.174" width="90.4297" height="93.4063" filterUnits="userSpaceOnUse" color-interpolation-filters="sRGB">
<feFlood flood-opacity="0" result="BackgroundImageFix"/>
<feColorMatrix in="SourceAlpha" type="matrix" values="0 0 0 0 0 0 0 0 0 0 0 0 0 0 0 0 0 0 127 0"/>
<feOffset dy="4"/>
<feGaussianBlur stdDeviation="10"/>
<feColorMatrix type="matrix" values="0 0 0 0 0.858824 0 0 0 0 0.164706 0 0 0 0 0.486275 0 0 0 0.8 0"/>
<feBlend mode="normal" in2="BackgroundImageFix" result="effect1_dropShadow"/>
<feBlend mode="normal" in="SourceGraphic" in2="effect1_dropShadow" result="shape"/>
</filter>
<filter id="filter4_d" x="476.851" y="261.084" width="90.0108" height="93.2934" filterUnits="userSpaceOnUse" color-interpolation-filters="sRGB">
<feFlood flood-opacity="0" result="BackgroundImageFix"/>
<feColorMatrix in="SourceAlpha" type="matrix" values="0 0 0 0 0 0 0 0 0 0 0 0 0 0 0 0 0 0 127 0"/>
<feOffset dy="4"/>
<feGaussianBlur stdDeviation="10"/>
<feColorMatrix type="matrix" values="0 0 0 0 0.858824 0 0 0 0 0.164706 0 0 0 0 0.486275 0 0 0 0.8 0"/>
<feBlend mode="normal" in2="BackgroundImageFix" result="effect1_dropShadow"/>
<feBlend mode="normal" in="SourceGraphic" in2="effect1_dropShadow" result="shape"/>
</filter>
<filter id="filter5_d" x="244" y="270" width="78.8797" height="82" filterUnits="userSpaceOnUse" color-interpolation-filters="sRGB">
<feFlood flood-opacity="0" result="BackgroundImageFix"/>
<feColorMatrix in="SourceAlpha" type="matrix" values="0 0 0 0 0 0 0 0 0 0 0 0 0 0 0 0 0 0 127 0"/>
<feOffset dy="4"/>
<feGaussianBlur stdDeviation="10"/>
<feColorMatrix type="matrix" values="0 0 0 0 0.858824 0 0 0 0 0.164706 0 0 0 0 0.486275 0 0 0 0.8 0"/>
<feBlend mode="normal" in2="BackgroundImageFix" result="effect1_dropShadow"/>
<feBlend mode="normal" in="SourceGraphic" in2="effect1_dropShadow" result="shape"/>
</filter>
<filter id="filter6_d" x="381.486" y="323.126" width="76.9754" height="87.3205" filterUnits="userSpaceOnUse" color-interpolation-filters="sRGB">
<feFlood flood-opacity="0" result="BackgroundImageFix"/>
<feColorMatrix in="SourceAlpha" type="matrix" values="0 0 0 0 0 0 0 0 0 0 0 0 0 0 0 0 0 0 127 0"/>
<feOffset dy="4"/>
<feGaussianBlur stdDeviation="10"/>
<feColorMatrix type="matrix" values="0 0 0 0 0.858824 0 0 0 0 0.164706 0 0 0 0 0.486275 0 0 0 0.8 0"/>
<feBlend mode="normal" in2="BackgroundImageFix" result="effect1_dropShadow"/>
<feBlend mode="normal" in="SourceGraphic" in2="effect1_dropShadow" result="shape"/>
</filter>
<filter id="filter7_d" x="501.322" y="326.896" width="76.1967" height="86.2207" filterUnits="userSpaceOnUse" color-interpolation-filters="sRGB">
<feFlood flood-opacity="0" result="BackgroundImageFix"/>
<feColorMatrix in="SourceAlpha" type="matrix" values="0 0 0 0 0 0 0 0 0 0 0 0 0 0 0 0 0 0 127 0"/>
<feOffset dy="4"/>
<feGaussianBlur stdDeviation="10"/>
<feColorMatrix type="matrix" values="0 0 0 0 0.858824 0 0 0 0 0.164706 0 0 0 0 0.486275 0 0 0 0.8 0"/>
<feBlend mode="normal" in2="BackgroundImageFix" result="effect1_dropShadow"/>
<feBlend mode="normal" in="SourceGraphic" in2="effect1_dropShadow" result="shape"/>
</filter>
<filter id="filter8_d" x="11.9131" y="31.8833" width="82.0559" height="89.5006" filterUnits="userSpaceOnUse" color-interpolation-filters="sRGB">
<feFlood flood-opacity="0" result="BackgroundImageFix"/>
<feColorMatrix in="SourceAlpha" type="matrix" values="0 0 0 0 0 0 0 0 0 0 0 0 0 0 0 0 0 0 127 0"/>
<feOffset dy="4"/>
<feGaussianBlur stdDeviation="10"/>
<feColorMatrix type="matrix" values="0 0 0 0 0.858824 0 0 0 0 0.164706 0 0 0 0 0.486275 0 0 0 0.8 0"/>
<feBlend mode="normal" in2="BackgroundImageFix" result="effect1_dropShadow"/>
<feBlend mode="normal" in="SourceGraphic" in2="effect1_dropShadow" result="shape"/>
</filter>
<filter id="filter9_d" x="135.37" y="198.929" width="75.75" height="76.7114" filterUnits="userSpaceOnUse" color-interpolation-filters="sRGB">
<feFlood flood-opacity="0" result="BackgroundImageFix"/>
<feColorMatrix in="SourceAlpha" type="matrix" values="0 0 0 0 0 0 0 0 0 0 0 0 0 0 0 0 0 0 127 0"/>
<feOffset dy="4"/>
<feGaussianBlur stdDeviation="10"/>
<feColorMatrix type="matrix" values="0 0 0 0 0.858824 0 0 0 0 0.164706 0 0 0 0 0.486275 0 0 0 0.8 0"/>
<feBlend mode="normal" in2="BackgroundImageFix" result="effect1_dropShadow"/>
<feBlend mode="normal" in="SourceGraphic" in2="effect1_dropShadow" result="shape"/>
</filter>
</defs>
</svg>
