<svg width="582" height="462" viewBox="0 0 582 462" fill="none" xmlns="http://www.w3.org/2000/svg">
<circle cx="122" cy="4.00195" r="4" fill="#00BDAF"/>
<circle opacity="0.2" cx="292" cy="58.002" r="4" fill="#00BDAF"/>
<circle cx="524" cy="58.002" r="4" fill="#00BDAF"/>
<circle opacity="0.2" cx="5.99976" cy="119.002" r="4" fill="#00BDAF"/>
<mask id="mask0" mask-type="alpha" maskUnits="userSpaceOnUse" x="1" y="135" width="581" height="301">
<path d="M1.99976 135.002H582V435.152H1.99976V135.002Z" fill="#040027"/>
</mask>
<g mask="url(#mask0)">
<g opacity="0.5">
<path opacity="0.5" d="M169.511 280.288L2.52173 417.752" stroke="url(#paint0_linear)" stroke-width="2"/>
<path opacity="0.1" d="M1.99976 280.002H580.999" stroke="url(#paint1_linear)" stroke-width="2"/>
<path opacity="0.2" d="M1.99976 295.036H580.999" stroke="url(#paint2_linear)" stroke-width="2"/>
<path opacity="0.3" d="M1.99976 311.289H580.999" stroke="url(#paint3_linear)" stroke-width="2"/>
<path opacity="0.5" d="M1.99976 330.794H580.999" stroke="url(#paint4_linear)" stroke-width="2"/>
<path opacity="0.5" d="M1.99976 357.207H580.999" stroke="url(#paint5_linear)" stroke-width="2"/>
<path opacity="0.5" d="M1.99976 390.526H580.999" stroke="url(#paint6_linear)" stroke-width="2"/>
<path d="M212.167 280.202L128.933 417.753" stroke="url(#paint7_linear)" stroke-width="2"/>
<path d="M254.826 280.202L212.168 417.753" stroke="url(#paint8_linear)" stroke-width="2"/>
<path d="M298.002 280.202L297.481 417.753" stroke="url(#paint9_linear)" stroke-width="2"/>
<path d="M340.141 280.202L382.799 417.753" stroke="url(#paint10_linear)" stroke-width="2"/>
<path d="M382.278 280.202L465.512 417.753" stroke="url(#paint11_linear)" stroke-width="2"/>
<path opacity="0.5" d="M414.011 280.288L581 417.752" stroke="url(#paint12_linear)" stroke-width="2"/>
</g>
</g>
<g opacity="0.4">
<path d="M329.454 194.025C328.238 197.676 324.709 206.071 320.329 210.452C315.948 214.832 312.42 215.927 311.203 215.927C311.811 211.06 313.758 200.231 316.678 195.85C320.329 190.375 320.329 190.375 327.629 186.725C334.93 183.074 354.647 166.613 365.597 164.788C374.358 163.328 373.866 162.998 373.258 162.998C386.168 147.28 396.62 141.461 402.46 135.621C408.301 129.78 417.703 128.022 420.745 128.022" stroke="#DB2A7C" stroke-width="1.68106" stroke-linecap="round" stroke-linejoin="round"/>
<path d="M442.614 122.843C444.439 122.843 453.565 121.018 460.865 130.144C466.706 137.445 465.732 136.837 464.516 135.62C476.768 145.529 485.687 158.982 490.068 164.822C495.543 172.123 499.193 175.773 497.368 195.85C495.543 215.927 491.893 217.752 491.893 219.577C491.893 221.402 493.718 237.828 488.242 243.304C482.767 248.779 482.767 237.828 479.117 236.003C475.466 234.178 479.117 219.577 482.767 214.101C486.417 208.626 482.767 179.424 482.767 175.773C482.767 172.123 463.2 164.822 451.74 146.571" stroke="#DB2A7C" stroke-width="1.68106" stroke-linecap="round" stroke-linejoin="round"/>
<path d="M471.815 192.201C466.34 195.852 448.088 206.802 446.263 203.152C444.438 199.502 426.186 175.775 418.885 168.474C413.387 162.976 415.006 140.87 416.737 128.654" stroke="#DB2A7C" stroke-width="1.68106" stroke-linecap="round" stroke-linejoin="round"/>
<path d="M468.89 165.225C469.328 167.413 469.992 190.375 471.817 192.2" stroke="#DB2A7C" stroke-width="1.68106" stroke-linecap="round" stroke-linejoin="round"/>
<path d="M444.438 201.326L433.488 225.053C441.397 228.703 457.58 237.099 459.04 241.479" stroke="#DB2A7C" stroke-width="1.68106" stroke-linecap="round" stroke-linejoin="round"/>
<path d="M479.117 219.578C473.033 222.011 460.501 229.433 459.041 239.654" stroke="#DB2A7C" stroke-width="1.68106" stroke-linecap="round" stroke-linejoin="round"/>
<path d="M471.815 192.2C474.249 193.417 479.829 197.315 484.209 204.616" stroke="#DB2A7C" stroke-width="1.68106" stroke-linecap="round" stroke-linejoin="round"/>
<path d="M459.261 239.193C459.87 257.444 462.326 294.044 468.166 299.884C475.467 307.185 479.117 305.36 482.768 303.535C486.418 301.71 524.746 254.256 533.872 252.431C542.997 250.605 563.074 250.605 564.899 250.605C566.724 250.605 566.724 245.13 561.249 243.305C555.774 241.48 541.172 239.655 533.872 237.829C526.571 236.004 524.746 232.354 521.096 236.004C517.445 239.655 522.921 248.78 519.271 250.605C515.62 252.431 493.718 261.556 488.243 265.206" stroke="#DB2A7C" stroke-width="1.68106" stroke-linecap="round" stroke-linejoin="round"/>
<path d="M520.536 245.758C521.412 245.758 528.852 245.758 531.478 253.199" stroke="#DB2A7C" stroke-width="1.68106" stroke-linecap="round" stroke-linejoin="round"/>
<path d="M488.242 243.304C488.242 251.821 488.242 270.681 488.242 277.982" stroke="#DB2A7C" stroke-width="1.68106" stroke-linecap="round" stroke-linejoin="round"/>
<path d="M433.487 226.878C427.403 239.654 414.505 267.761 411.585 277.982C407.934 290.758 428.011 350.988 426.186 360.114C425.894 361.573 425.042 363.033 423.809 364.462M459.039 254.255C455.389 263.381 435.312 279.807 433.487 283.458C431.661 287.108 433.487 294.408 437.137 299.884C440.788 305.359 437.137 350.988 437.137 358.289C437.137 360.56 438.021 363.362 439.128 366.198M423.809 364.462C417.332 371.972 400.343 378.657 398.81 380.19C396.984 382.016 418.886 380.19 428.012 380.19C437.138 380.19 438.962 382.016 442.613 380.19C445.127 378.933 441.579 372.479 439.128 366.198M423.809 364.462C425.414 366.672 430.724 370.112 439.128 366.198" stroke="#DB2A7C" stroke-width="1.68106" stroke-linecap="round" stroke-linejoin="round"/>
<path d="M333.274 196.868L296.999 217.272" stroke="#DB2A7C" stroke-width="4" stroke-linecap="round" stroke-linejoin="round"/>
<path d="M443.505 122.77C439.855 126.42 433.649 136.276 438.03 146.496C442.41 156.717 452.347 155.697 457.214 153.872" stroke="#DB2A7C" stroke-width="1.68106" stroke-linecap="round" stroke-linejoin="round"/>
<path d="M439.128 122.77C437.303 128.245 433.489 138.175 426.188 141.095C418.888 144.016 418.387 134.106 418.995 128.022" stroke="#DB2A7C" stroke-width="1.68106" stroke-linecap="round" stroke-linejoin="round"/>
<path d="M414.618 147.28C412.792 149.105 396.235 162.6 382.384 168.474C373.258 173.95 367.143 183.897 350.716 187.548C337.575 190.468 331.266 192.8 328.832 192.8" stroke="#DB2A7C" stroke-width="1.68106" stroke-linecap="round" stroke-linejoin="round"/>
<path d="M433.438 114.017C433.963 116.934 435.327 122.77 436.586 122.77H441.317" stroke="#DB2A7C" stroke-width="1.68106" stroke-linecap="round" stroke-linejoin="round"/>
<path d="M432.007 112.328C433.677 113.981 437.017 113.981 440.356 110.674C443.696 107.368 447.036 102.408 443.696 99.1018C440.356 95.7953 443.696 94.1421 438.687 90.8356C433.677 87.5291 433.677 90.8356 430.337 87.5291C426.997 84.2226 426.997 77.6097 416.978 79.2629C406.959 80.9162 410.299 84.2232 405.289 84.2232C400.279 84.2232 396.673 87.5291 396.673 90.8356C396.673 94.1421 400.279 95.7964 400.279 97.4491C400.279 99.1018 400.615 104.258 402.285 104.258C404.043 104.258 402.285 113.027 402.285 113.027H405.625C405.625 113.771 405.625 114.451 405.625 116.205M423.658 120.594C420.318 123.901 411.473 123.645 409.803 123.645C409.205 123.645 407.748 121.81 407.196 119.692C407.049 119.125 407.324 118.532 407.196 117.938M405.625 116.205C405.71 116.665 407.095 117.466 407.196 117.938M405.625 116.205L407.196 117.938" stroke="#DB2A7C" stroke-width="1.68106" stroke-linecap="round" stroke-linejoin="round"/>
<path d="M408.6 95.8389C413.575 95.8389 421.866 97.4758 423.524 100.75C425.182 104.024 425.182 108.934 426.84 110.571" stroke="#DB2A7C" stroke-width="1.68106" stroke-linecap="round" stroke-linejoin="round"/>
<path d="M418.422 87.4209C421.852 89.0871 423.567 89.0871 426.997 94.0856C429.74 98.0844 432.713 100.195 433.856 100.75" stroke="#DB2A7C" stroke-width="1.68106" stroke-linecap="round" stroke-linejoin="round"/>
<path d="M421.229 122.497V127.759" stroke="#DB2A7C" stroke-width="1.68106" stroke-linecap="round" stroke-linejoin="round"/>
</g>
<path d="M361.986 160.384C361.986 152.12 365.42 138.577 367.137 132.838L372.928 130.066C372.356 134.657 370.572 144.545 377.441 143.168C384.31 141.791 388.317 129.969 389.462 124.23H398.049C397.476 124.804 395.988 128.018 394.614 136.282C392.897 146.611 399.766 155.219 406.635 155.219C412.131 155.219 412.36 151.776 411.787 150.055H415.222C414.649 151.202 413.504 156.252 413.504 167.271C413.504 181.043 421.075 199.278 420.374 199.981C417.626 202.736 399.766 208.015 391.18 210.311C390.035 206.868 387.058 198.948 384.31 194.816C380.876 189.651 361.986 170.714 361.986 160.384Z" stroke="#DB2A7C" stroke-width="1.68106" stroke-linecap="round" stroke-linejoin="round"/>
<path d="M366.728 132.62C363.849 132.62 355.232 134.021 351.087 138.165C345.905 143.344 344.178 148.524 338.997 150.251C333.815 151.977 318.27 162.337 314.816 165.79C311.362 169.244 292.363 172.697 282 177.877C271.637 183.056 276.818 181.33 273.364 183.056C269.909 184.783 259.546 184.783 256.092 189.963C252.638 195.143 250.91 200.322 249.183 202.049C247.456 203.776 254.365 208.955 261.273 205.502C268.182 202.049 264.729 191.689 275.092 189.963C285.455 188.236 313.09 184.783 321.726 179.603C330.362 174.423 357.014 156.729 358.741 155.002" stroke="#DB2A7C" stroke-width="1.68106" stroke-linecap="round" stroke-linejoin="round"/>
<path d="M349.584 154.869H361.986" stroke="#DB2A7C" stroke-width="1.68106" stroke-linecap="round" stroke-linejoin="round"/>
<path d="M233 209.508C234.041 208.66 252.592 198.576 261.737 193.64" stroke="#DB2A7C" stroke-width="4" stroke-linecap="round" stroke-linejoin="round"/>
<path d="M405.026 150.234C410.115 149.31 420.973 147.338 423.687 146.845" stroke="#DB2A7C" stroke-width="1.68106" stroke-linecap="round" stroke-linejoin="round"/>
<path d="M412.686 148.669C421.264 150.393 437.663 150.094 441.094 151.819C444.525 153.543 453.103 162.164 463.397 163.888C473.691 165.613 483.985 165.613 487.416 170.785C490.847 175.958 494.278 179.407 499.425 179.407C504.572 179.407 509.719 181.131 514.866 181.131C520.012 181.131 513.15 172.51 504.572 167.337C495.994 162.164 490.847 163.888 487.416 162.164C483.985 160.44 468.544 146.646 456.535 143.197C444.525 139.749 420.507 127.679 415.36 125.955C411.242 124.575 403.567 124.23 397.731 124.23" stroke="#DB2A7C" stroke-width="1.68106" stroke-linecap="round" stroke-linejoin="round"/>
<path d="M391.166 209.581L390.436 230.736C397.366 226.359 399.795 223.806 410.862 223.806C421.929 223.806 428.676 236.694 429.829 241.314C433.476 237.302 437.507 227.472 436.124 219.156C434.741 210.839 425.173 202.985 420.561 200.098" stroke="#DB2A7C" stroke-width="1.68106" stroke-linecap="round" stroke-linejoin="round"/>
<path d="M390.71 230.737C380.938 242.862 361.048 268.497 359.669 274.04C357.944 280.969 359.669 289.629 368.291 291.361C376.914 293.094 411.723 292.106 420.345 293.838C428.968 295.57 430.293 294.204 432.017 301.133C433.742 308.062 432.945 323.839 436.394 325.571C439.843 327.303 439.265 327.303 440.989 325.571C442.714 323.839 444.418 302.227 446.607 295.662C447.831 291.991 445.756 286.057 443.324 285.814C436.029 285.084 425.087 287.637 408.308 275.601C399.784 269.485 389.706 271.953 383.87 275.601" stroke="#DB2A7C" stroke-width="1.68106" stroke-linecap="round" stroke-linejoin="round"/>
<path d="M430.193 240.95C411.956 260.646 396.168 270.782 382.411 275.965" stroke="#DB2A7C" stroke-width="1.68106" stroke-linecap="round" stroke-linejoin="round"/>
<path d="M407.242 262.002C408.856 266.598 410.831 272.711 413.356 278.883M432.382 238.032C440.959 267.193 437.952 272.499 439.961 285.449M420.252 293.838C421.594 296.232 422.806 297.944 423.769 298.584C425.68 299.853 428.998 302.993 432.859 306.969M442.782 317.652C446.582 321.886 450.256 326.125 453.153 329.589C461.795 339.924 460.067 345.092 461.795 351.982C463.524 358.872 461.795 366.524 461.795 368.246C461.795 369.969 453.153 370.93 453.153 374.375C453.153 377.82 468.807 375.628 471.41 373.353C474.666 370.507 475.623 357.15 479.08 353.705C482.537 350.26 484.265 345.092 479.08 343.369C473.894 341.647 470.437 339.924 468.709 334.757C466.98 329.589 455.751 299.334 451.349 294.932C449.897 293.48 448.395 292.293 446.972 291.332" stroke="#DB2A7C" stroke-width="1.68106" stroke-linecap="round" stroke-linejoin="round"/>
<path d="M471.41 339.431C471.41 342.835 469.367 349.644 461.197 349.644" stroke="#DB2A7C" stroke-width="1.68106" stroke-linecap="round" stroke-linejoin="round"/>
<path d="M434 285.502C435.094 292.433 432.017 295.703 430.558 297.121" stroke="#DB2A7C" stroke-width="1.68106" stroke-linecap="round" stroke-linejoin="round"/>
<path d="M386.059 115.477C386.545 118.395 387.81 124.23 388.977 124.23" stroke="#DB2A7C" stroke-width="1.68106" stroke-linecap="round" stroke-linejoin="round"/>
<path d="M384.137 113.655C385.873 115.374 389.346 115.374 392.819 111.936C396.291 108.498 399.764 103.341 396.291 99.9025C392.819 96.4643 396.291 94.7452 391.082 91.307C385.873 87.8688 385.873 91.307 382.4 87.8688C378.927 84.4306 378.927 77.5542 368.509 79.2733C358.091 80.9924 361.563 84.4312 356.354 84.4312C351.145 84.4312 347.395 87.8688 347.395 91.307C347.395 94.7452 351.145 96.4655 351.145 98.184C351.145 99.9025 351.494 105.264 353.231 105.264C355.058 105.264 353.231 114.382 353.231 114.382H356.704C356.704 115.156 356.502 116.178 356.502 118.002M375.455 122.251C371.982 125.69 362.739 125.502 361.002 125.502C360.38 125.502 358.911 123.516 358.337 121.313C358.184 120.724 358.47 120.107 358.337 119.489M356.502 118.002C356.591 118.48 358.232 118.999 358.337 119.489M356.502 118.002L358.337 119.489" stroke="#DB2A7C" stroke-width="1.68106" stroke-linecap="round" stroke-linejoin="round"/>
<path d="M359.797 96.5098C364.97 96.5098 373.591 98.2119 375.315 101.616C377.04 105.021 377.04 110.127 378.764 111.829" stroke="#DB2A7C" stroke-width="1.68106" stroke-linecap="round" stroke-linejoin="round"/>
<path d="M370.01 87.7559C373.576 89.4884 375.36 89.4884 378.926 94.6861C381.779 98.8442 384.87 101.039 386.059 101.616" stroke="#DB2A7C" stroke-width="1.68106" stroke-linecap="round" stroke-linejoin="round"/>
<path d="M372.928 124.23V129.702" stroke="#DB2A7C" stroke-width="1.68106" stroke-linecap="round" stroke-linejoin="round"/>
<g filter="url(#filter0_d)">
<path d="M161 153.002C161 156.452 166.484 200.138 166.484 201.863C166.484 203.588 138.91 215.665 137.186 210.489C135.463 205.314 125.122 184.611 118.228 177.711C111.814 171.289 112.86 167.855 113.037 160.459M157 151.002C157.574 153.302 157.867 161.839 150.974 160.459C142.357 158.734 137.186 139.757 138.91 132.856C140.288 127.335 140.587 128.242 140.587 126.783L135.481 126.054C134.906 131.804 132.016 141.827 125.122 143.207C121.072 144.018 118.228 137.361 118.228 132.856C118.228 132.254 114.614 134.078 114.614 134.078C114.562 134.596 114.674 133.952 114.614 134.581M114.614 134.581C114.01 140.937 113.058 152.454 113.058 158.734C113.058 159.333 113.05 159.907 113.037 160.459M114.614 134.581C111.797 135.156 104.883 138.721 99.3683 149.762C92.4747 163.564 87.4017 174.721 83.7607 175.985C74.2008 179.307 57.9096 191.512 51.016 194.962C44.1223 198.413 26.3946 198.826 19.501 204.002C12.6074 209.178 36.2688 203.015 36.2684 204.839C36.2676 208.694 42.4699 204.11 51.016 200.138C57.4603 197.143 81.131 197.544 94.1011 186.337C97.7912 183.148 111.292 162.184 113.037 160.459" stroke="#00BDAF" stroke-width="1.68106" stroke-linecap="round" stroke-linejoin="round"/>
<path d="M140.949 127.148C144.385 127.724 151.642 127.574 157.727 130.796C163.928 134.079 173.411 136.267 191.649 150.857C196.494 154.733 208.955 155.984 217.546 162.894C226.136 169.804 232.949 183.567 237.242 185.873C244.034 189.52 244.762 188.805 249.5 199.502C248.262 202.805 247 208.502 242.349 209.581C243 206.002 242.255 200.672 240.598 201.699M237.502 204.002C236.356 203.426 235.1 202.045 233.726 196.517C232.008 189.607 222.288 184.414 209.521 178.213C199.742 173.463 195.928 165.422 190.774 163.694C185.619 161.967 152.718 150.457 151 147.002" stroke="#00BDAF" stroke-width="1.68106" stroke-linecap="round" stroke-linejoin="round"/>
<path d="M166.116 201.192C170.712 205.808 182.529 213.229 183.988 227.52C184.832 235.786 179.644 241.944 178.495 244.829C177.921 238.483 173.669 226.136 161.259 227.52C145.747 229.251 126.787 263.869 121.616 272.523C116.445 281.178 116.445 295.025 128.51 296.755C140.576 298.486 187.113 295.025 192.284 300.217C197.455 305.41 200.902 319.257 204.35 322.719C207.797 326.18 209.52 322.719 209.52 317.526C209.52 312.333 207.797 301.948 207.797 296.755C207.797 291.563 211.244 284.639 204.35 284.639C197.455 284.639 183.409 288.002 166.116 279.447C158.833 275.844 151.4 280.303 146.242 279.538" stroke="#00BDAF" stroke-width="1.68106" stroke-linecap="round" stroke-linejoin="round"/>
<path d="M178.883 244.597C166.481 258.822 163.199 270.494 140.949 282.531" stroke="#00BDAF" stroke-width="1.68106" stroke-linecap="round" stroke-linejoin="round"/>
<path d="M137.301 211.04C134.382 236.937 137.301 241.183 137.301 246.785" stroke="#00BDAF" stroke-width="1.68106" stroke-linecap="round" stroke-linejoin="round"/>
<path d="M136.572 236.572C139.598 236.572 142.689 235.768 147.514 235.848" stroke="#00BDAF" stroke-width="1.68106" stroke-linecap="round" stroke-linejoin="round"/>
<path d="M168.304 300.039C175.263 304.956 178.72 311.192 181.8 316.929C186.833 326.3 187.223 355.631 194.566 367.328C196.025 369.214 198.724 373.572 197.849 375.906C196.755 378.824 192.795 379.553 188.366 378.824C183.936 378.094 170.858 381.377 166.481 381.012C162.979 380.721 159.551 380.404 161.01 378.824C162.104 373.717 183.936 370.788 183.936 367.328C183.936 363.868 177.016 349.085 170.128 338.705C163.241 328.324 149.236 303.499 147.514 300.039L146.42 297.485" stroke="#00BDAF" stroke-width="1.68106" stroke-linecap="round" stroke-linejoin="round"/>
<path d="M183.988 367.881C186.055 369.097 190.991 370.58 194.201 366.787" stroke="#00BDAF" stroke-width="1.68106" stroke-linecap="round" stroke-linejoin="round"/>
<path d="M166.48 301.498C166.666 300.494 166.841 299.522 167.007 298.58M169.398 256.999C170.492 266.482 170.565 267.851 169.398 281.072" stroke="#00BDAF" stroke-width="1.68106" stroke-linecap="round" stroke-linejoin="round"/>
<path d="M197.742 285.002C197.742 286.68 199.267 296.464 194.201 301.498" stroke="#00BDAF" stroke-width="1.68106" stroke-linecap="round" stroke-linejoin="round"/>
<path d="M131.355 116.481C132.138 119.334 133.951 126.538 135.112 126.419" stroke="#00BDAF" stroke-width="1.68106" stroke-linecap="round" stroke-linejoin="round"/>
<path d="M129.257 114.867C131.161 116.399 134.615 116.043 137.717 112.266C140.819 108.49 143.744 103.004 139.937 99.9398C136.13 96.876 139.408 94.8097 133.873 91.9241C128.339 89.0385 128.692 92.4585 124.884 89.3948C121.077 86.331 120.372 79.4909 110.185 82.2698C99.9976 85.0487 103.805 88.113 98.6232 88.6475C93.4415 89.1819 90.0637 92.9861 90.4165 96.4061C90.7692 99.8262 94.6761 101.153 94.8524 102.862C95.0287 104.572 95.9263 109.869 97.6535 109.69C99.4712 109.503 98.589 118.761 98.589 118.761L102.043 118.405C102.123 119.174 101.856 120.188 102.043 122.002M121.503 124.308C118.401 128.085 108.728 128.824 107.001 129.002C106.382 129.066 105.176 127.264 104.38 125.131C104.167 124.561 104.388 123.918 104.192 123.317M102.043 122.002C102.181 122.468 104.037 122.84 104.192 123.317M102.043 122.002L104.192 123.317" stroke="#00BDAF" stroke-width="1.68106" stroke-linecap="round" stroke-linejoin="round"/>
<path d="M103.286 100.309C108.431 99.7779 117.182 100.587 119.246 103.796C121.311 107.005 121.835 112.085 123.724 113.601" stroke="#00BDAF" stroke-width="1.68106" stroke-linecap="round" stroke-linejoin="round"/>
<path d="M112.547 90.5537C116.272 91.9112 118.046 91.7283 122.127 96.5326C125.392 100.376 128.692 102.242 129.933 102.694" stroke="#00BDAF" stroke-width="1.68106" stroke-linecap="round" stroke-linejoin="round"/>
<path d="M118.334 127.148L118.895 132.591" stroke="#00BDAF" stroke-width="1.68106" stroke-linecap="round" stroke-linejoin="round"/>
</g>
<defs>
<filter id="filter0_d" x="0.590736" y="64.6316" width="266.56" height="337.422" filterUnits="userSpaceOnUse" color-interpolation-filters="sRGB">
<feFlood flood-opacity="0" result="BackgroundImageFix"/>
<feColorMatrix in="SourceAlpha" type="matrix" values="0 0 0 0 0 0 0 0 0 0 0 0 0 0 0 0 0 0 127 0"/>
<feOffset dy="3.36213"/>
<feGaussianBlur stdDeviation="8.40532"/>
<feColorMatrix type="matrix" values="0 0 0 0 0 0 0 0 0 0.741176 0 0 0 0 0.686275 0 0 0 0.8 0"/>
<feBlend mode="normal" in2="BackgroundImageFix" result="effect1_dropShadow"/>
<feBlend mode="normal" in="SourceGraphic" in2="effect1_dropShadow" result="shape"/>
</filter>
<linearGradient id="paint0_linear" x1="169.511" y1="280.288" x2="2.52173" y2="280.288" gradientUnits="userSpaceOnUse">
<stop stop-color="#DB2A7D" stop-opacity="0"/>
<stop offset="0.520833" stop-color="#DB2A7D"/>
<stop offset="1" stop-color="#DB2A7D" stop-opacity="0"/>
</linearGradient>
<linearGradient id="paint1_linear" x1="580.999" y1="280.002" x2="1.99976" y2="280.002" gradientUnits="userSpaceOnUse">
<stop stop-color="#DB2A7D" stop-opacity="0"/>
<stop offset="0.489583" stop-color="#DB2A7D"/>
<stop offset="0.913706" stop-color="#DB2A7D" stop-opacity="0"/>
</linearGradient>
<linearGradient id="paint2_linear" x1="580.999" y1="295.036" x2="1.99976" y2="295.036" gradientUnits="userSpaceOnUse">
<stop stop-color="#DB2A7D" stop-opacity="0"/>
<stop offset="0.489583" stop-color="#DB2A7D"/>
<stop offset="0.913706" stop-color="#DB2A7D" stop-opacity="0"/>
</linearGradient>
<linearGradient id="paint3_linear" x1="580.999" y1="311.289" x2="1.99976" y2="311.289" gradientUnits="userSpaceOnUse">
<stop stop-color="#DB2A7D" stop-opacity="0"/>
<stop offset="0.489583" stop-color="#DB2A7D"/>
<stop offset="0.913706" stop-color="#DB2A7D" stop-opacity="0"/>
</linearGradient>
<linearGradient id="paint4_linear" x1="580.999" y1="330.794" x2="1.99976" y2="330.794" gradientUnits="userSpaceOnUse">
<stop stop-color="#DB2A7D" stop-opacity="0"/>
<stop offset="0.489583" stop-color="#DB2A7D"/>
<stop offset="0.913706" stop-color="#DB2A7D" stop-opacity="0"/>
</linearGradient>
<linearGradient id="paint5_linear" x1="580.999" y1="357.207" x2="1.99976" y2="357.207" gradientUnits="userSpaceOnUse">
<stop stop-color="#DB2A7D" stop-opacity="0"/>
<stop offset="0.489583" stop-color="#DB2A7D"/>
<stop offset="0.913706" stop-color="#DB2A7D" stop-opacity="0"/>
</linearGradient>
<linearGradient id="paint6_linear" x1="580.999" y1="390.526" x2="1.99976" y2="390.526" gradientUnits="userSpaceOnUse">
<stop stop-color="#DB2A7D" stop-opacity="0"/>
<stop offset="0.489583" stop-color="#DB2A7D"/>
<stop offset="0.913706" stop-color="#DB2A7D" stop-opacity="0"/>
</linearGradient>
<linearGradient id="paint7_linear" x1="212.167" y1="280.202" x2="128.933" y2="280.202" gradientUnits="userSpaceOnUse">
<stop stop-color="#DB2A7D" stop-opacity="0"/>
<stop offset="0.520833" stop-color="#DB2A7D"/>
<stop offset="1" stop-color="#DB2A7D" stop-opacity="0"/>
</linearGradient>
<linearGradient id="paint8_linear" x1="254.826" y1="280.202" x2="212.168" y2="280.202" gradientUnits="userSpaceOnUse">
<stop stop-color="#DB2A7D" stop-opacity="0"/>
<stop offset="0.520833" stop-color="#DB2A7D"/>
<stop offset="1" stop-color="#DB2A7D" stop-opacity="0"/>
</linearGradient>
<linearGradient id="paint9_linear" x1="298.002" y1="280.202" x2="297.481" y2="280.202" gradientUnits="userSpaceOnUse">
<stop stop-color="#DB2A7D" stop-opacity="0"/>
<stop offset="0.520833" stop-color="#DB2A7D"/>
<stop offset="1" stop-color="#DB2A7D" stop-opacity="0"/>
</linearGradient>
<linearGradient id="paint10_linear" x1="340.141" y1="280.202" x2="382.799" y2="280.202" gradientUnits="userSpaceOnUse">
<stop stop-color="#DB2A7D" stop-opacity="0"/>
<stop offset="0.520833" stop-color="#DB2A7D"/>
<stop offset="1" stop-color="#DB2A7D" stop-opacity="0"/>
</linearGradient>
<linearGradient id="paint11_linear" x1="382.278" y1="280.202" x2="465.512" y2="280.202" gradientUnits="userSpaceOnUse">
<stop stop-color="#DB2A7D" stop-opacity="0"/>
<stop offset="0.520833" stop-color="#DB2A7D"/>
<stop offset="1" stop-color="#DB2A7D" stop-opacity="0"/>
</linearGradient>
<linearGradient id="paint12_linear" x1="414.011" y1="280.288" x2="581" y2="280.288" gradientUnits="userSpaceOnUse">
<stop stop-color="#DB2A7D" stop-opacity="0"/>
<stop offset="0.520833" stop-color="#DB2A7D"/>
<stop offset="1" stop-color="#DB2A7D" stop-opacity="0"/>
</linearGradient>
</defs>
</svg>
