<svg width="1600" height="550" viewBox="0 0 1600 550" fill="none" xmlns="http://www.w3.org/2000/svg">
    <path opacity="0.5" d="M0 62.4516C73.4231 62.4516 73.4231 135.312 146.846 135.312C220.269 135.312 220.269 57.2473 293.692 57.2473C367.115 57.2473 367.115 124.903 440.538 124.903C513.962 124.903 513.962 333.075 587.385 333.075C660.808 333.075 660.808 161.333 734.231 161.333C807.654 161.333 807.654 228.989 881.077 228.989C954.5 228.989 954.5 281.032 1027.92 281.032C1101.35 281.032 1101.35 484 1174.77 484C1248.19 484 1248.19 67.6559 1321.62 67.6559C1395.04 67.6559 1395.04 109.29 1468.46 109.29C1541.88 109.29 1541.88 317.462 1615.31 317.462C1688.73 317.462 1688.73 457.978 1762.15 457.978C1835.58 457.978 1835.58 359.097 1909 359.097C1982.42 359.097 1982.42 374.71 2055.85 374.71C2129.27 374.71 2129.27 463.183 2202.69 463.183C2276.12 463.183 2276.12 379.914 2349.54 379.914C2422.96 379.914 2422.96 478.796 2496.38 478.796C2569.81 478.796 2569.81 192.559 2643.23 192.559C2716.65 192.559 2716.65 473.591 2790.08 473.591C2863.5 473.591 2863.5 421.548 2936.92 421.548C3010.35 421.548 3010.35 83.2688 3083.77 83.2688C3157.19 83.2688 3157.19 400.731 3230.62 400.731C3304.04 400.731 3304.04 281.032 3377.46 281.032C3450.88 281.032 3450.88 421.548 3524.31 421.548C3597.73 421.548 3597.73 374.71 3671.15 374.71C3744.58 374.71 3744.58 0 3818 0" transform="translate(-741 549) scale(1 -1)" stroke="#15BBAF" stroke-width="2"/>
    <path opacity="0.1" d="M0 286.286C73.4256 286.286 73.4256 158.665 146.851 158.665C220.277 158.665 220.277 17.2462 293.702 17.2462C367.128 17.2462 367.128 44.84 440.554 44.84C513.979 44.84 513.979 244.896 587.405 244.896C660.83 244.896 660.83 234.548 734.256 234.548C807.682 234.548 807.682 24.1446 881.107 24.1446C954.533 24.1446 954.533 155.215 1027.96 155.215C1101.38 155.215 1101.38 24.1446 1174.81 24.1446C1248.24 24.1446 1248.24 134.52 1321.66 134.52C1395.09 134.52 1395.09 272.489 1468.51 272.489C1541.94 272.489 1541.94 275.939 1615.36 275.939C1688.79 275.939 1688.79 75.8831 1762.21 75.8831C1835.64 75.8831 1835.64 41.3908 1909.07 41.3908C1982.49 41.3908 1982.49 62.0862 2055.92 62.0862C2129.34 62.0862 2129.34 106.926 2202.77 106.926C2276.19 106.926 2276.19 0 2349.62 0C2423.04 0 2423.04 200.056 2496.47 200.056C2569.9 200.056 2569.9 93.1293 2643.32 93.1293C2716.75 93.1293 2716.75 213.852 2790.17 213.852C2863.6 213.852 2863.6 141.419 2937.02 141.419C3010.45 141.419 3010.45 72.4339 3083.88 72.4339C3157.3 72.4339 3157.3 106.926 3230.73 106.926C3304.15 106.926 3304.15 179.36 3377.58 179.36C3451 179.36 3451 134.52 3524.43 134.52C3597.85 134.52 3597.85 327.677 3671.28 327.677C3744.71 327.677 3744.71 251.794 3818.13 251.794" transform="translate(-1099.5 455) scale(1 -1)" stroke="#15BBAF" stroke-width="2"/>
    <path opacity="0.2" d="M0 25.1391C73.4256 25.1391 73.4256 54.4681 146.851 54.4681C220.277 54.4681 220.277 23.0442 293.702 23.0442C367.128 23.0442 367.128 50.2783 440.554 50.2783C513.979 50.2783 513.979 134.075 587.405 134.075C660.83 134.075 660.83 64.9428 734.256 64.9428C807.682 64.9428 807.682 92.1768 881.107 92.1768C954.533 92.1768 954.533 113.126 1027.96 113.126C1101.38 113.126 1101.38 194.828 1174.81 194.828C1248.24 194.828 1248.24 27.2341 1321.66 27.2341C1395.09 27.2341 1395.09 43.9935 1468.51 43.9935C1541.94 43.9935 1541.94 127.791 1615.36 127.791C1688.79 127.791 1688.79 184.354 1762.21 184.354C1835.64 184.354 1835.64 144.55 1909.07 144.55C1982.49 144.55 1982.49 150.835 2055.92 150.835C2129.34 150.835 2129.34 186.449 2202.77 186.449C2276.19 186.449 2276.19 152.93 2349.62 152.93C2423.04 152.93 2423.04 192.733 2496.47 192.733C2569.9 192.733 2569.9 77.5123 2643.32 77.5123C2716.75 77.5123 2716.75 190.638 2790.17 190.638C2863.6 190.638 2863.6 169.689 2937.02 169.689C3010.45 169.689 3010.45 33.5188 3083.88 33.5188C3157.3 33.5188 3157.3 161.309 3230.73 161.309C3304.15 161.309 3304.15 113.126 3377.58 113.126C3451 113.126 3451 169.689 3524.43 169.689C3597.85 169.689 3597.85 150.835 3671.28 150.835C3744.71 150.835 3744.71 0 3818.13 0" transform="translate(-1560 368.571) scale(1 -1)" stroke="#15BBAF" stroke-width="2"/>
    <path opacity="0.2" d="M0 323.306C73.4256 323.306 73.4256 344.165 146.851 344.165C220.277 344.165 220.277 10.4292 293.702 10.4292C367.128 10.4292 367.128 208.585 440.554 208.585C513.979 208.585 513.979 187.726 587.405 187.726C660.83 187.726 660.83 88.6485 734.256 88.6485C807.682 88.6485 807.682 99.0777 881.107 99.0777C954.533 99.0777 954.533 359.808 1027.96 359.808C1101.38 359.808 1101.38 338.95 1174.81 338.95C1248.24 338.95 1248.24 338.95 1321.66 338.95C1395.09 338.95 1395.09 302.448 1468.51 302.448C1541.94 302.448 1541.94 109.507 1615.36 109.507C1688.79 109.507 1688.79 417.169 1762.21 417.169C1835.64 417.169 1835.64 151.224 1909.07 151.224C1982.49 151.224 1982.49 135.58 2055.92 135.58C2129.34 135.58 2129.34 344.165 2202.77 344.165C2276.19 344.165 2276.19 52.1462 2349.62 52.1462C2423.04 52.1462 2423.04 104.292 2496.47 104.292C2569.9 104.292 2569.9 260.731 2643.32 260.731C2716.75 260.731 2716.75 453.672 2790.17 453.672C2863.6 453.672 2863.6 328.521 2937.02 328.521C3010.45 328.521 3010.45 333.735 3083.88 333.735C3157.3 333.735 3157.3 0 3230.73 0C3304.15 0 3304.15 229.443 3377.58 229.443C3451 229.443 3451 375.452 3524.43 375.452C3597.85 375.452 3597.85 453.672 3671.28 453.672C3744.71 453.672 3744.71 130.365 3818.13 130.365" transform="translate(-1193.49 521.65) scale(1 -1)" stroke="#15BBAF" stroke-width="2"/>
    <path opacity="0.1" d="M0 94.0427C73.4256 94.0427 73.4256 194.219 146.851 194.219C220.277 194.219 220.277 18.3997 293.702 18.3997C367.128 18.3997 367.128 77.6874 440.554 77.6874C513.979 77.6874 513.979 173.774 587.405 173.774C660.83 173.774 660.83 10.222 734.256 10.222C807.682 10.222 807.682 171.73 881.107 171.73C954.533 171.73 954.533 104.265 1027.96 104.265C1101.38 104.265 1101.38 8.17762 1174.81 8.17762C1248.24 8.17762 1248.24 71.5542 1321.66 71.5542C1395.09 71.5542 1395.09 10.222 1468.51 10.222C1541.94 10.222 1541.94 120.62 1615.36 120.62C1688.79 120.62 1688.79 171.73 1762.21 171.73C1835.64 171.73 1835.64 6.13322 1909.07 6.13322C1982.49 6.13322 1982.49 98.1315 2055.92 98.1315C2129.34 98.1315 2129.34 94.0427 2202.77 94.0427C2276.19 94.0427 2276.19 59.2878 2349.62 59.2878C2423.04 59.2878 2423.04 0 2496.47 0C2569.9 0 2569.9 198.307 2643.32 198.307C2716.75 198.307 2716.75 171.73 2790.17 171.73C2863.6 171.73 2863.6 77.6874 2937.02 77.6874C3010.45 77.6874 3010.45 87.9094 3083.88 87.9094C3157.3 87.9094 3157.3 36.7993 3230.73 36.7993C3304.15 36.7993 3304.15 55.199 3377.58 55.199C3451 55.199 3451 94.0427 3524.43 94.0427C3597.85 94.0427 3597.85 73.5986 3671.28 73.5986C3744.71 73.5986 3744.71 61.3322 3818.13 61.3322" transform="translate(-1560 390.837) scale(1 -1)" stroke="#15BBAF" stroke-width="2"/>
    <g opacity="0.4">
        <path opacity="0.5" d="M0 323.415C73.4319 323.415 73.4319 179.242 146.864 179.242C220.296 179.242 220.296 19.4828 293.728 19.4828C367.16 19.4828 367.16 50.6553 440.592 50.6553C514.023 50.6553 514.023 276.656 587.455 276.656C660.887 276.656 660.887 264.966 734.319 264.966C807.751 264.966 807.751 27.276 881.183 27.276C954.615 27.276 954.615 175.345 1028.05 175.345C1101.48 175.345 1101.48 27.276 1174.91 27.276C1248.34 27.276 1248.34 151.966 1321.77 151.966C1395.21 151.966 1395.21 307.829 1468.64 307.829C1542.07 307.829 1542.07 311.725 1615.5 311.725C1688.93 311.725 1688.93 85.7244 1762.37 85.7244C1835.8 85.7244 1835.8 46.7588 1909.23 46.7588C1982.66 46.7588 1982.66 70.1382 2056.09 70.1382C2129.53 70.1382 2129.53 120.794 2202.96 120.794C2276.39 120.794 2276.39 0 2349.82 0C2423.25 0 2423.25 226.001 2496.69 226.001C2570.12 226.001 2570.12 105.207 2643.55 105.207C2716.98 105.207 2716.98 241.587 2790.41 241.587C2863.85 241.587 2863.84 159.759 2937.28 159.759C3010.71 159.759 3010.71 81.8279 3084.14 81.8279C3157.57 81.8279 3157.57 120.794 3231 120.794C3304.44 120.794 3304.44 202.621 3377.87 202.621C3451.3 202.621 3451.3 151.966 3524.73 151.966C3598.16 151.966 3598.16 370.174 3671.6 370.174C3745.03 370.174 3745.03 284.449 3818.46 284.449" transform="translate(-2363 409.772) scale(1 -1)" stroke="#15BBAF" stroke-width="2"/>
        <path opacity="0.2" d="M0 323.306C73.4319 323.306 73.4319 344.165 146.864 344.165C220.296 344.165 220.296 10.4292 293.728 10.4292C367.16 10.4292 367.16 208.585 440.592 208.585C514.023 208.585 514.023 187.726 587.455 187.726C660.887 187.726 660.887 88.6485 734.319 88.6485C807.751 88.6485 807.751 99.0777 881.183 99.0777C954.615 99.0777 954.615 359.808 1028.05 359.808C1101.48 359.808 1101.48 338.95 1174.91 338.95C1248.34 338.95 1248.34 338.95 1321.77 338.95C1395.21 338.95 1395.21 302.448 1468.64 302.448C1542.07 302.448 1542.07 109.507 1615.5 109.507C1688.93 109.507 1688.93 417.169 1762.37 417.169C1835.8 417.169 1835.8 151.224 1909.23 151.224C1982.66 151.224 1982.66 135.58 2056.09 135.58C2129.53 135.58 2129.53 344.165 2202.96 344.165C2276.39 344.165 2276.39 52.1462 2349.82 52.1462C2423.25 52.1462 2423.25 104.292 2496.69 104.292C2570.12 104.292 2570.12 260.731 2643.55 260.731C2716.98 260.731 2716.98 453.672 2790.41 453.672C2863.85 453.672 2863.84 328.521 2937.28 328.521C3010.71 328.521 3010.71 333.735 3084.14 333.735C3157.57 333.735 3157.57 0 3231 0C3304.44 0 3304.44 229.443 3377.87 229.443C3451.3 229.443 3451.3 375.452 3524.73 375.452C3598.16 375.452 3598.16 453.672 3671.6 453.672C3745.03 453.672 3745.03 130.365 3818.46 130.365" transform="translate(-1767 455) scale(1 -1)" stroke="#15BBAF" stroke-width="2"/>
        <path opacity="0.1" d="M0 94.0427C73.4319 94.0427 73.4319 194.219 146.864 194.219C220.296 194.219 220.296 18.3997 293.728 18.3997C367.16 18.3997 367.16 77.6874 440.592 77.6874C514.023 77.6874 514.023 173.774 587.455 173.774C660.887 173.774 660.887 10.222 734.319 10.222C807.751 10.222 807.751 171.73 881.183 171.73C954.615 171.73 954.615 104.265 1028.05 104.265C1101.48 104.265 1101.48 8.17762 1174.91 8.17762C1248.34 8.17762 1248.34 71.5542 1321.77 71.5542C1395.21 71.5542 1395.21 10.222 1468.64 10.222C1542.07 10.222 1542.07 120.62 1615.5 120.62C1688.93 120.62 1688.93 171.73 1762.37 171.73C1835.8 171.73 1835.8 6.13322 1909.23 6.13322C1982.66 6.13322 1982.66 98.1315 2056.09 98.1315C2129.53 98.1315 2129.53 94.0427 2202.96 94.0427C2276.39 94.0427 2276.39 59.2878 2349.82 59.2878C2423.25 59.2878 2423.25 0 2496.69 0C2570.12 0 2570.12 198.307 2643.55 198.307C2716.98 198.307 2716.98 171.73 2790.41 171.73C2863.85 171.73 2863.84 77.6874 2937.28 77.6874C3010.71 77.6874 3010.71 87.9094 3084.14 87.9094C3157.57 87.9094 3157.57 36.7993 3231 36.7993C3304.44 36.7993 3304.44 55.199 3377.87 55.199C3451.3 55.199 3451.3 94.0427 3524.73 94.0427C3598.16 94.0427 3598.16 73.5986 3671.6 73.5986C3745.03 73.5986 3745.03 61.3322 3818.46 61.3322" transform="translate(-2084 324) scale(1 -1)" stroke="#15BBAF" stroke-width="2"/>
    </g>
</svg>
