<svg width="17" height="21" viewBox="0 0 17 21" fill="none" xmlns="http://www.w3.org/2000/svg">
    <g opacity="0.2">
        <path fill-rule="evenodd" clip-rule="evenodd" d="M0 0H4C4 1.10457 3.10457 2 2 2C0.895431 2 0 1.10457 0 0Z" transform="translate(6 19)" fill="white"/>
        <path fill-rule="evenodd" clip-rule="evenodd" d="M0 1C0 0.447715 0.447715 0 1 0H1.31579C1.86807 0 2.31579 0.447715 2.31579 1V3.63158C2.31579 4.18386 1.86807 4.63158 1.31579 4.63158H1C0.447716 4.63158 0 4.18386 0 3.63158V1Z" transform="translate(6.94727)" fill="white"/>
        <path fill-rule="evenodd" clip-rule="evenodd" d="M6.63159 0C7.72949 0 8.76514 0.266602 9.677 0.73877C8.92456 1.04492 8.26245 1.52734 7.74194 2.13428C7.5481 2.08643 7.34912 2.05078 7.14648 2.02832C6.97754 2.00977 6.80566 2 6.63159 2C4.07373 2 2 4.07373 2 6.63135V13H11.2632V10.4644C11.3677 10.4707 11.4729 10.4741 11.5791 10.4741C12.1697 10.4741 12.7363 10.3726 13.2632 10.1865V15H0V6.63135C0 2.96924 2.96899 0 6.63159 0Z" transform="translate(1.47363 2.63135)" fill="white"/>
        <path fill-rule="evenodd" clip-rule="evenodd" d="M0 0H16.2105V2H0V0Z" transform="translate(0 16)" fill="white"/>
    </g>
    <path fill-rule="evenodd" clip-rule="evenodd" d="M3 6C4.65685 6 6 4.65685 6 3C6 1.34315 4.65685 0 3 0C1.34315 0 0 1.34315 0 3C0 4.65685 1.34315 6 3 6Z" transform="translate(10 5)" fill="#EB3B5A"/>
</svg>
