<?xml version="1.0" encoding="UTF-8"?>
<svg width="51px" height="45px" viewBox="0 0 51 45" version="1.1" xmlns="http://www.w3.org/2000/svg" xmlns:xlink="http://www.w3.org/1999/xlink">
    <!-- Generator: sketchtool 49.1 (51147) - http://www.bohemiancoding.com/sketch -->
    <title>64335A5E-CF55-4EB9-9E59-0AC35ABD0351</title>
    <desc>Created with sketchtool.</desc>
    <defs></defs>
    <g id="First-Time-User---Dashboard---Empty" stroke="none" stroke-width="1" fill="none" fill-rule="evenodd">
        <g id="Dashboard-Empty-Stage" transform="translate(-162.000000, -264.000000)">
            <g id="Portfolio-Value" transform="translate(162.000000, 266.000000)">
                <g id="Portfolio-Icon">
                    <polyline id="Shape" stroke="#00BCB0" stroke-width="3" stroke-linecap="square" points="19 6 19 0 34 0 34 6"></polyline>
                    <path d="M17.25,34 L0,34 L0,13 C0,11.34325 1.34325,10 3,10 L42,10 C43.65675,10 45,11.34325 45,13 L45,34 L27.75,34" id="Shape" fill="#B2EAE7" opacity="0.5"></path>
                    <path d="M21.25,30 L4,30 L4,9 C4,7.34325 5.34325,6 7,6 L46,6 C47.65675,6 49,7.34325 49,9 L49,30 L31.75,30" id="Shape" stroke="#00BCB0" stroke-width="3" stroke-linecap="square"></path>
                    <path d="M46,33 L46,38.25 C46,39.90675 44.65675,41.25 43,41.25 L10,41.25 C8.34325,41.25 7,39.90675 7,38.25 L7,33" id="Shape" stroke="#00BCB0" stroke-width="3" stroke-linecap="square"></path>
                    <rect id="Rectangle-path" stroke="#00BCB0" stroke-width="3" stroke-linecap="square" x="21" y="26" width="10.5" height="7.5"></rect>
                </g>
            </g>
        </g>
    </g>
</svg>