<svg xmlns="http://www.w3.org/2000/svg" width="60" height="60" fill="none" viewBox="0 0 60 60"><path fill="#DB2A7C" d="M17.8709 9.81119L18.3193 10.705L18.3193 10.705L17.8709 9.81119ZM39.8395 15.0622L39.0476 15.6728L39.8395 15.0622ZM44.9721 30.7279L43.9721 30.7312L43.9732 31.0669L44.1766 31.3339L44.9721 30.7279ZM45.7437 36.3089L46.7142 36.5501V36.5501L45.7437 36.3089ZM43.1 40.4063L42.5599 39.5647L42.2875 39.7395L42.1692 40.0407L43.1 40.4063ZM39.2024 47.262L39.9896 47.8787L39.2024 47.262ZM10.7956 47.262L10.0084 47.8787H10.0084L10.7956 47.262ZM6.99236 40.6433L7.91978 40.2693L7.79507 39.9601L7.50976 39.7876L6.99236 40.6433ZM4.25625 36.4883L3.28578 36.7295V36.7295L4.25625 36.4883ZM5.02592 30.9099L5.82192 31.5152L6.02723 31.2452L6.02591 30.9061L5.02592 30.9099ZM5.0258 30.8716L6.0258 30.8694L6.02568 30.8181L6.02033 30.7671L5.0258 30.8716ZM6.94085 17.8611L6.03763 17.4319L6.94085 17.8611ZM15.4229 11.4189L15.4667 12.418L15.8194 12.4025L16.0842 12.169L15.4229 11.4189ZM15.8222 11.0886L16.4371 11.8772L16.4371 11.8772L15.8222 11.0886ZM26.2639 7C22.3017 7 19.3872 7.93179 17.4226 8.91735L18.3193 10.705C20.0188 9.85251 22.6274 9 26.2639 9V7ZM40.6314 14.4515C37.2084 10.0126 32.2338 7 26.2639 7V9C31.503 9 35.9302 11.6301 39.0476 15.6728L40.6314 14.4515ZM45.9721 30.7246C45.9523 24.7036 44.0223 18.8488 40.6314 14.4515L39.0476 15.6728C42.1488 19.6944 43.9537 25.1136 43.9721 30.7312L45.9721 30.7246ZM46.7142 36.5501C47.3078 34.1617 46.9669 31.6962 45.7676 30.122L44.1766 31.3339C44.9086 32.2948 45.2655 34.0871 44.7733 36.0676L46.7142 36.5501ZM43.64 41.248C45.0748 40.3274 46.2043 38.6017 46.7142 36.5501L44.7733 36.0676C44.3557 37.7475 43.4685 38.9817 42.5599 39.5647L43.64 41.248ZM39.9896 47.8787C41.6488 45.7604 43.0211 43.3424 44.0307 40.7719L42.1692 40.0407C41.2278 42.4373 39.9506 44.6851 38.4151 46.6454L39.9896 47.8787ZM24.999 56C31.0303 56 36.3017 52.5869 39.9896 47.8787L38.4151 46.6454C34.9814 51.0291 30.238 54 24.999 54V56ZM10.0084 47.8787C13.6963 52.5869 18.9677 56 24.999 56V54C19.76 54 15.0166 51.0291 11.5829 46.6454L10.0084 47.8787ZM6.06495 41.0173C7.06469 43.4962 8.402 45.8278 10.0084 47.8787L11.5829 46.6454C10.0964 44.7476 8.85185 42.5803 7.91978 40.2693L6.06495 41.0173ZM3.28578 36.7295C3.80852 38.8327 4.98407 40.5976 6.47496 41.499L7.50976 39.7876C6.57896 39.2248 5.65571 37.9731 5.22672 36.2471L3.28578 36.7295ZM4.22992 30.3046C3.03272 31.879 2.69253 34.3426 3.28578 36.7295L5.22672 36.2471C4.73482 34.268 5.09088 32.4766 5.82192 31.5152L4.22992 30.3046ZM4.02581 30.8739C4.02584 30.8872 4.02588 30.9005 4.02593 30.9138L6.02591 30.9061C6.02587 30.8938 6.02583 30.8816 6.0258 30.8694L4.02581 30.8739ZM6.03763 17.4319C4.19611 21.3074 3.53674 26.2699 4.03128 30.9761L6.02033 30.7671C5.55624 26.3507 6.19028 21.7707 7.84407 18.2903L6.03763 17.4319ZM15.379 10.4199C10.9258 10.6153 7.82804 13.6639 6.03763 17.4319L7.84407 18.2903C9.45136 14.9077 12.0214 12.5691 15.4667 12.418L15.379 10.4199ZM15.2073 10.3C15.031 10.4375 14.8826 10.5621 14.7615 10.6689L16.0842 12.169C16.1763 12.0878 16.2937 11.989 16.4371 11.8772L15.2073 10.3ZM17.4226 8.91735C16.4448 9.40784 15.7116 9.90685 15.2073 10.3L16.4371 11.8772C16.8471 11.5576 17.4696 11.1313 18.3193 10.705L17.4226 8.91735Z"/><path stroke="#DB2A7C" stroke-linecap="round" stroke-linejoin="round" stroke-width="2" d="M43.5508 29.7727C23.9552 29.7727 17.8866 23.4091 17.2861 20.2273C17.1145 23.4091 15.2273 29.7727 6.55078 29.7727"/><path stroke="#DB2A7C" stroke-width="2" d="M30.9991 8.78326C32.559 8.3243 34.4724 8 36.7631 8C42.3676 8 47.0685 10.8214 50.3387 15.0622C53.5847 19.2716 55.4522 24.9086 55.4713 30.7279C56.4369 31.9955 56.7859 34.1244 56.2429 36.3089C55.7792 38.1746 54.7708 39.6545 53.5991 40.4063C52.6236 42.8899 51.2989 45.2227 49.7015 47.262C46.1407 51.808 41.1333 55 35.4982 55C33.6158 55 31.8035 54.6438 30.0918 54" opacity=".3"/></svg>