<svg xmlns="http://www.w3.org/2000/svg" width="65" height="65" fill="none" viewBox="0 0 65 65"><path stroke="#DB2A7C" stroke-linecap="round" stroke-linejoin="round" stroke-width="2" d="M6.36328 6.36401L10.6059 10.6067" opacity=".3"/><path stroke="#DB2A7C" stroke-linecap="round" stroke-linejoin="round" stroke-width="2" d="M14.8496 14.8494L19.0923 19.092" opacity=".3"/><path stroke="#DB2A7C" stroke-linecap="round" stroke-linejoin="round" stroke-width="2" d="M19.0918 6.36401L14.8492 10.6067" opacity=".3"/><path stroke="#DB2A7C" stroke-linecap="round" stroke-linejoin="round" stroke-width="2" d="M10.6074 14.8494L6.36478 19.092" opacity=".3"/><path stroke="#DB2A7C" stroke-linecap="round" stroke-linejoin="round" stroke-width="2" d="M33.4636 29.6273C29.5725 25.7362 23.2638 25.7362 19.3727 29.6273L12.0454 36.9546C8.15435 40.8456 8.15435 47.1544 12.0454 51.0454C15.9365 54.9365 22.2453 54.9365 26.1363 51.0454L33.4636 43.7182"/><path stroke="#DB2A7C" stroke-linecap="round" stroke-linejoin="round" stroke-width="2" d="M32.3365 36.3909C36.2276 40.282 42.5363 40.282 46.4274 36.3909L53.7546 29.0636C57.6457 25.1725 57.6457 18.8638 53.7546 14.9727C49.8635 11.0817 43.5548 11.0817 39.6637 14.9727L32.3365 22.3"/></svg>