<svg width="240" height="200" fill="none" xmlns="http://www.w3.org/2000/svg"><g filter="url(#filter0_d)"><path d="M20 40c0-11.046 8.954-20 20-20h160c11.046 0 20 8.954 20 20v120c0 11.046-8.954 20-20 20H40c-11.046 0-20-8.954-20-20V40z" fill="#00BDAE"/></g><mask id="a" maskUnits="userSpaceOnUse" x="20" y="20" width="200" height="160"><path d="M20 40c0-11.046 8.954-20 20-20h160c11.046 0 20 8.954 20 20v120c0 11.046-8.954 20-20 20H40c-11.046 0-20-8.954-20-20V40z" fill="#50B0A6"/></mask><g mask="url(#a)"><path opacity=".2" d="M34.5 83.32C13.3 60.922-3.333 64.989-9 69.82v128.5h235.5v-134c-5.667-8.166-17-27-39-24-21.804 2.974-37 20-51.5 21.5s-21.5 1-37 15.5-38 34.001-64.5 6z" fill="url(#paint0_linear)"/><path opacity=".2" d="M-9 70c5.667-4.833 22.3-8.9 43.5 13.5 26.5 28 49 8.5 64.5-6s22.5-14 37-15.5 29.696-18.526 51.5-21.5c22-3 33.333 15.834 39 24" stroke="#fff" stroke-width="2" stroke-linecap="round" stroke-linejoin="round"/><path opacity=".2" d="M1 85c4.333.667 18.398.573 37-10.5C59 62 84.82 54 114.5 82c26.5 25 56.531 9.608 71.5-4 22-20 35.833-13 46-13" stroke="#fff" stroke-width="2" stroke-linecap="round" stroke-linejoin="round"/><path opacity=".2" d="M17.5 25.5C22 25.5 62.826 5 94.5 36 118 59 128 72.5 149 77.5s59 2.5 86.5-7.5" stroke="#fff" stroke-width="2" stroke-linecap="round" stroke-linejoin="round"/></g><path d="M55.434 129.13c-.919 0-1.75-.199-2.496-.598a4.558 4.558 0 01-1.742-1.677c-.416-.711-.624-1.512-.624-2.405 0-.893.212-1.694.637-2.405a4.468 4.468 0 011.742-1.664c.745-.407 1.577-.611 2.496-.611.745 0 1.426.13 2.041.39s1.135.637 1.56 1.131l-1.092 1.027c-.659-.711-1.469-1.066-2.431-1.066a3.37 3.37 0 00-1.677.416 2.91 2.91 0 00-1.157 1.131c-.277.485-.416 1.036-.416 1.651s.139 1.166.416 1.651c.277.485.663.867 1.157 1.144.494.269 1.053.403 1.677.403.962 0 1.772-.36 2.431-1.079l1.092 1.04a4.141 4.141 0 01-1.573 1.131c-.615.26-1.296.39-2.041.39zm6.624-6.058c.468-.728 1.292-1.092 2.47-1.092v1.547a2.063 2.063 0 00-.377-.039c-.632 0-1.126.186-1.482.559-.355.364-.533.893-.533 1.586V129h-1.625v-6.942h1.547v1.014zm10.311 2.496c0 .113-.008.273-.026.481h-5.447c.096.511.343.919.741 1.222.408.295.91.442 1.508.442.763 0 1.391-.251 1.885-.754l.871 1.001a2.934 2.934 0 01-1.183.845c-.476.191-1.014.286-1.612.286-.762 0-1.434-.152-2.015-.455a3.335 3.335 0 01-1.352-1.261c-.312-.546-.468-1.161-.468-1.846 0-.676.152-1.283.455-1.82a3.304 3.304 0 011.287-1.274c.546-.303 1.162-.455 1.846-.455.676 0 1.279.152 1.807.455a3.07 3.07 0 011.248 1.261c.304.537.455 1.161.455 1.872zm-3.51-2.288c-.52 0-.962.156-1.326.468-.355.303-.572.711-.65 1.222h3.94c-.07-.503-.282-.91-.638-1.222-.355-.312-.797-.468-1.326-.468zm7.533-1.3c1.023 0 1.803.247 2.34.741.546.485.819 1.222.819 2.21V129h-1.534v-.845a1.93 1.93 0 01-.858.702c-.364.156-.806.234-1.326.234s-.975-.087-1.365-.26a2.22 2.22 0 01-.91-.741 1.94 1.94 0 01-.312-1.079c0-.624.23-1.122.689-1.495.468-.381 1.2-.572 2.197-.572h1.794v-.104c0-.485-.148-.858-.442-1.118-.286-.26-.715-.39-1.287-.39-.39 0-.776.061-1.157.182-.373.121-.69.29-.95.507l-.636-1.183c.364-.277.802-.49 1.313-.637a5.855 5.855 0 011.625-.221zm-.221 5.928c.407 0 .767-.091 1.079-.273.32-.191.546-.459.676-.806v-.806h-1.677c-.936 0-1.404.308-1.404.923 0 .295.117.529.35.702.235.173.56.26.976.26zm9.638.715a1.91 1.91 0 01-.702.351 3.064 3.064 0 01-.858.117c-.762 0-1.352-.199-1.768-.598-.416-.399-.624-.979-.624-1.742v-3.341h-1.144v-1.3h1.144v-1.586h1.625v1.586h1.86v1.3h-1.86v3.302c0 .338.083.598.247.78.165.173.403.26.715.26.364 0 .668-.095.91-.286l.455 1.157zm7.635-3.055c0 .113-.01.273-.026.481H87.97c.095.511.342.919.74 1.222.408.295.91.442 1.509.442.762 0 1.39-.251 1.885-.754l.87 1.001a2.935 2.935 0 01-1.182.845c-.477.191-1.014.286-1.612.286-.763 0-1.435-.152-2.015-.455a3.334 3.334 0 01-1.352-1.261c-.312-.546-.468-1.161-.468-1.846 0-.676.151-1.283.455-1.82a3.304 3.304 0 011.287-1.274c.546-.303 1.16-.455 1.846-.455.676 0 1.278.152 1.807.455.537.295.953.715 1.248 1.261.303.537.455 1.161.455 1.872zm-3.51-2.288c-.52 0-.962.156-1.326.468-.356.303-.572.711-.65 1.222h3.939c-.07-.503-.282-.91-.637-1.222-.356-.312-.798-.468-1.326-.468zm11.484-2.704c-.684 0-1.027.373-1.027 1.118v.416h1.911v1.3h-1.859V129h-1.625v-5.59h-1.144v-1.3h1.144v-.442c0-.745.217-1.33.65-1.755.434-.433 1.045-.65 1.833-.65.624 0 1.114.126 1.469.377l-.455 1.222a1.549 1.549 0 00-.897-.286zm8.699 1.482V129h-1.547v-.884c-.26.312-.585.555-.975.728-.39.165-.81.247-1.261.247-.927 0-1.66-.256-2.197-.767-.529-.52-.793-1.287-.793-2.301v-3.965h1.625v3.744c0 .624.139 1.092.416 1.404.286.303.689.455 1.209.455.581 0 1.04-.178 1.378-.533.347-.364.52-.884.52-1.56v-3.51h1.625zm6.067-.078c.875 0 1.577.256 2.106.767.528.511.793 1.27.793 2.275V129h-1.625v-3.77c0-.607-.143-1.062-.429-1.365-.286-.312-.694-.468-1.222-.468-.598 0-1.071.182-1.417.546-.347.355-.52.871-.52 1.547V129h-1.625v-6.942h1.547v.897a2.531 2.531 0 011.014-.728 3.639 3.639 0 011.378-.247zm11.823-2.626V129h-1.56v-.897a2.518 2.518 0 01-1.001.741c-.39.165-.824.247-1.3.247-.668 0-1.27-.147-1.807-.442a3.2 3.2 0 01-1.248-1.248c-.304-.546-.455-1.17-.455-1.872 0-.702.151-1.322.455-1.859a3.2 3.2 0 011.248-1.248 3.689 3.689 0 011.807-.442c.459 0 .879.078 1.261.234.381.156.706.39.975.702v-3.562h1.625zm-3.666 8.346c.39 0 .741-.087 1.053-.26.312-.182.559-.438.741-.767.182-.329.273-.711.273-1.144 0-.433-.091-.815-.273-1.144a1.881 1.881 0 00-.741-.754 2.05 2.05 0 00-1.053-.273c-.39 0-.741.091-1.053.273a1.881 1.881 0 00-.741.754 2.327 2.327 0 00-.273 1.144c0 .433.091.815.273 1.144.182.329.429.585.741.767.312.173.663.26 1.053.26z" fill="#fff"/><path opacity=".5" d="M58.411 145.608h-1.82V148h-.936v-2.392H50.52v-.676l4.823-6.032h1.04l-4.654 5.876h3.952v-2.106h.91v2.106h1.82v.832zm7.577 2.47a5.894 5.894 0 01-1.95-.325c-.615-.217-1.092-.503-1.43-.858l.377-.741c.33.329.767.598 1.313.806.546.199 1.11.299 1.69.299.815 0 1.426-.147 1.833-.442.407-.303.611-.693.611-1.17 0-.364-.113-.654-.338-.871a2.109 2.109 0 00-.806-.494 12.03 12.03 0 00-1.339-.39 15.085 15.085 0 01-1.638-.494 2.814 2.814 0 01-1.053-.741c-.286-.329-.429-.776-.429-1.339 0-.459.121-.875.364-1.248.243-.381.615-.685 1.118-.91.503-.225 1.127-.338 1.872-.338.52 0 1.027.074 1.521.221.503.139.936.334 1.3.585l-.325.767a4.331 4.331 0 00-1.222-.559 4.42 4.42 0 00-1.274-.195c-.797 0-1.4.156-1.807.468-.399.303-.598.698-.598 1.183 0 .364.108.659.325.884.225.217.503.386.832.507.338.113.789.238 1.352.377.667.165 1.205.329 1.612.494.416.156.767.399 1.053.728.286.321.43.758.43 1.313 0 .459-.127.88-.378 1.261-.243.373-.62.672-1.13.897-.512.217-1.14.325-1.886.325zm8.895-.494a1.82 1.82 0 01-.65.364 2.66 2.66 0 01-.793.117c-.641 0-1.135-.173-1.482-.52-.346-.347-.52-.836-.52-1.469v-4.134h-1.222v-.78h1.222v-1.495h.923v1.495h2.08v.78h-2.08v4.082c0 .407.1.719.3.936.207.208.502.312.883.312.19 0 .373-.03.546-.091.182-.061.338-.147.468-.26l.325.663zm7.393-2.717h-5.72c.052.711.325 1.287.82 1.729.493.433 1.117.65 1.871.65.425 0 .815-.074 1.17-.221.355-.156.663-.381.923-.676l.52.598a2.923 2.923 0 01-1.144.832c-.45.191-.949.286-1.495.286-.702 0-1.326-.147-1.872-.442a3.286 3.286 0 01-1.26-1.248c-.304-.529-.456-1.127-.456-1.794s.143-1.265.43-1.794c.294-.529.692-.94 1.195-1.235a3.37 3.37 0 011.716-.442c.633 0 1.2.147 1.703.442.503.295.897.706 1.183 1.235.286.52.43 1.118.43 1.794l-.014.286zm-3.302-2.964c-.659 0-1.213.212-1.664.637-.442.416-.693.962-.754 1.638h4.85c-.062-.676-.317-1.222-.768-1.638-.442-.425-.997-.637-1.664-.637zm8.717-.793c.641 0 1.222.147 1.742.442.52.286.927.693 1.222 1.222.294.529.442 1.131.442 1.807 0 .685-.147 1.291-.442 1.82a3.16 3.16 0 01-1.222 1.235c-.512.286-1.092.429-1.742.429a3.329 3.329 0 01-1.508-.338 2.91 2.91 0 01-1.092-1.014v3.809h-.923v-9.36h.884v1.352a2.856 2.856 0 011.092-1.04c.46-.243.975-.364 1.547-.364zm-.065 6.136c.477 0 .91-.108 1.3-.325.39-.225.693-.542.91-.949.225-.407.338-.871.338-1.391s-.113-.979-.338-1.378a2.342 2.342 0 00-.91-.949 2.555 2.555 0 00-1.3-.338 2.58 2.58 0 00-1.313.338 2.459 2.459 0 00-.91.949c-.217.399-.325.858-.325 1.378 0 .52.108.984.325 1.391.225.407.528.724.91.949.39.217.828.325 1.313.325zm7.185.819a5.449 5.449 0 01-1.599-.234c-.502-.165-.897-.368-1.183-.611l.416-.728c.286.225.646.412 1.08.559.433.139.883.208 1.351.208.624 0 1.084-.095 1.378-.286a.943.943 0 00.455-.832c0-.251-.082-.446-.247-.585a1.529 1.529 0 00-.624-.325 7.81 7.81 0 00-1-.221 12.653 12.653 0 01-1.34-.312 2.07 2.07 0 01-.87-.559c-.235-.26-.352-.62-.352-1.079 0-.572.239-1.04.715-1.404.477-.364 1.14-.546 1.99-.546.441 0 .883.061 1.325.182.442.113.806.264 1.092.455l-.403.741c-.563-.39-1.235-.585-2.015-.585-.589 0-1.035.104-1.339.312-.294.208-.442.481-.442.819 0 .26.083.468.247.624.174.156.386.273.637.351.252.069.598.143 1.04.221.546.104.984.208 1.313.312.33.104.611.282.845.533.234.251.351.598.351 1.04 0 .598-.25 1.075-.754 1.43-.494.347-1.183.52-2.067.52z" fill="#fff"/><defs><linearGradient id="paint0_linear" x1="-46.708" y1="-11.829" x2="-46.708" y2="356.881" gradientUnits="userSpaceOnUse"><stop stop-color="#fff"/><stop offset="1" stop-color="#fff" stop-opacity=".01"/></linearGradient><filter id="filter0_d" x="0" y="0" width="240" height="200" filterUnits="userSpaceOnUse" color-interpolation-filters="sRGB"><feFlood flood-opacity="0" result="BackgroundImageFix"/><feColorMatrix in="SourceAlpha" values="0 0 0 0 0 0 0 0 0 0 0 0 0 0 0 0 0 0 127 0"/><feOffset/><feGaussianBlur stdDeviation="10"/><feColorMatrix values="0 0 0 0 0.129412 0 0 0 0 0.172549 0 0 0 0 0.203922 0 0 0 0.05 0"/><feBlend in2="BackgroundImageFix" result="effect1_dropShadow"/><feBlend in="SourceGraphic" in2="effect1_dropShadow" result="shape"/></filter></defs></svg>