<svg width="100px" height="20px" viewBox="0 0 100 20" version="1.1" xmlns="http://www.w3.org/2000/svg" xmlns:xlink="http://www.w3.org/1999/xlink">
    <defs>
        <polygon id="path-1" points="3.69872714e-05 0.0252489998 34.2493256 0.0252489998 34.2493256 19.1671239 3.69872714e-05 19.1671239"></polygon>
        <polygon id="path-3" points="0 24.967381 101.898297 24.967381 101.898297 0.238095238 0 0.238095238"></polygon>
    </defs>
    <g id="Page-1" stroke="none" stroke-width="1" fill="none" fill-rule="evenodd">
        <g id="main_1600" transform="translate(-82.000000, -45.000000)">
            <g id="Group-23" transform="translate(80.000000, 43.000000)">
                <g id="Group-3" transform="translate(2.457353, 2.379389)">
                    <mask id="mask-2" fill="white">
                        <use xlink:href="#path-1"></use>
                    </mask>
                    <g id="Clip-2"></g>
                    <path d="M34.2493256,2.10149084 C34.2493256,11.5114429 26.5670693,19.1672345 17.1245888,19.1672345 C7.68229326,19.1672345 3.69872714e-05,11.5114429 3.69872714e-05,2.10149084 C3.69872714e-05,1.39857343 0.0427572857,0.705792478 0.127088265,0.0251752801 L3.20331963,0.0251752801 C3.10178957,0.70284369 3.04889777,1.39654614 3.04889777,2.10149084 C3.04889777,9.83616253 9.3631798,16.1286924 17.1245888,16.1286924 C24.5294406,16.1286924 30.6181002,10.4003026 31.1618131,3.15678845 L9.39073532,3.15678845 C9.90892699,6.94874589 13.1793415,9.88076295 17.1245888,9.88076295 C20.1786278,9.88076295 22.8291357,8.12346943 24.1107447,5.57037167 L27.4066804,5.57037167 C25.9532656,9.83929562 21.8920632,12.9191207 17.1245888,12.9191207 C11.1396784,12.9191207 6.26956443,8.06578376 6.26956443,2.10149084 C6.26956443,1.39138576 6.33873062,0.69768331 6.47077518,0.0251752801 L34.1222743,0.0251752801 C34.2066053,0.705792478 34.2493256,1.39857343 34.2493256,2.10149084" id="Fill-1" fill="#16B9AD" mask="url(#mask-2)"></path>
                </g>
                <path d="M53.7047983,5.979 L55.8791937,5.979 L55.8791937,9.1692381 C55.4491407,9.45971429 54.91922,9.6992381 54.2891924,9.88780952 C53.6591649,10.076381 53.071187,10.1709048 52.5247809,10.1709048 C51.7306165,10.1709048 51.01864,9.99852381 50.3886125,9.6537619 C49.7585849,9.309 49.2649797,8.83352381 48.9082747,8.22733333 C48.5513308,7.62138095 48.3730978,6.93709524 48.3730978,6.17495238 C48.3730978,5.41995238 48.5587373,4.73947619 48.9302552,4.13352381 C49.3015342,3.52733333 49.8152086,3.0537619 50.4708003,2.71233333 C51.1261532,2.37138095 51.8653664,2.20066667 52.6886788,2.20066667 C53.2857356,2.20066667 53.8849427,2.30947619 54.4860611,2.52733333 C55.0869406,2.74495238 55.5912971,3.03542857 55.9993696,3.39852381 L54.5677712,5.12971429 C54.3128454,4.87566667 54.0122862,4.6742381 53.6665714,4.52542857 C53.3206177,4.37661905 52.9909105,4.30209524 52.6776886,4.30209524 C52.3570602,4.30209524 52.0658188,4.3837619 51.8037255,4.54709524 C51.5413932,4.71042857 51.337357,4.93352381 51.1916168,5.21685714 C51.0458767,5.49995238 50.9732455,5.81947619 50.9732455,6.17495238 C50.9732455,6.53804762 51.047788,6.86280952 51.1973509,7.14947619 C51.3464359,7.43638095 51.5523834,7.66114286 51.8144768,7.82447619 C52.0768091,7.98780952 52.3718732,8.06947619 52.6996691,8.06947619 C52.9763364,8.06947619 53.3115388,7.98233333 53.7047983,7.80828571 L53.7047983,5.979 Z" id="Fill-4" fill="#294E5F"></path>
                <polygon id="Fill-6" fill="#294E5F" points="57.4740449 2.36397619 63.95327 2.36397619 63.95327 4.28040476 60.008968 4.28040476 60.008968 5.21683333 63.5925034 5.21683333 63.5925034 7.13302381 60.008968 7.13302381 60.008968 8.08040476 64.0514654 8.08040476 64.0514654 9.99683333 57.4740449 9.99683333"></polygon>
                <polygon id="Fill-8" fill="#294E5F" points="70.8147405 2.36397619 73.1093117 2.36397619 73.1093117 9.99683333 70.9893898 9.99683333 67.9737631 6.0987381 67.9737631 9.99683333 65.6684405 9.99683333 65.6684405 2.36397619 67.7881236 2.36397619 70.8147405 6.2837381"></polygon>
                <polygon id="Fill-10" fill="#294E5F" points="74.856999 2.36397619 81.3362241 2.36397619 81.3362241 4.28040476 77.3919221 4.28040476 77.3919221 5.21683333 80.9754575 5.21683333 80.9754575 7.13302381 77.3919221 7.13302381 77.3919221 8.08040476 81.4344195 8.08040476 81.4344195 9.99683333 74.856999 9.99683333"></polygon>
                <path d="M87.3999703,4.37835714 C86.8901187,4.19692857 86.4748787,4.10621429 86.1544893,4.10621429 C85.8412674,4.10621429 85.684537,4.21883333 85.684537,4.44359524 C85.684537,4.61788095 85.7846437,4.75216667 85.9850962,4.84645238 C86.1853097,4.94097619 86.5040267,5.04621429 86.9410083,5.16216667 C87.4874144,5.31478571 87.9408813,5.46716667 88.301409,5.61954762 C88.6619367,5.77216667 88.9770699,6.01359524 89.2465698,6.34359524 C89.5158307,6.67407143 89.6508195,7.10764286 89.6508195,7.64478571 C89.6508195,8.19669048 89.5067518,8.65930952 89.2190942,9.03311905 C88.9314365,9.40716667 88.5434332,9.68478571 88.0555621,9.86597619 C87.567452,10.0474048 87.0248686,10.1383571 86.4275729,10.1383571 C85.7502395,10.1383571 85.0671721,10.0276429 84.3788485,9.80621429 C83.6907639,9.58478571 83.0951406,9.28192857 82.5926954,8.89716667 L83.532361,6.99169048 C83.9182141,7.3255 84.4025014,7.6105 84.9854621,7.84621429 C85.5679449,8.08216667 86.0560549,8.2002619 86.4493144,8.2002619 C86.6387766,8.2002619 86.7881006,8.1657381 86.8972862,8.09669048 C87.0067108,8.02788095 87.0614231,7.9207381 87.0614231,7.7755 C87.0614231,7.60121429 86.9574936,7.4652619 86.7498736,7.36716667 C86.5422536,7.26930952 86.2163691,7.1657381 85.77222,7.05692857 C85.2329814,6.91907143 84.7833372,6.7757381 84.4225706,6.62669048 C84.0620429,6.47811905 83.7507323,6.24764286 83.488639,5.9355 C83.2263067,5.62335714 83.0951406,5.20597619 83.0951406,4.68311905 C83.0951406,4.1752619 83.2298905,3.7305 83.4993903,3.34930952 C83.7688901,2.96835714 84.1511594,2.67621429 84.6466759,2.47288095 C85.1419535,2.26978571 85.7175077,2.16811905 86.3728606,2.16811905 C86.9701563,2.16811905 87.5655407,2.25145238 88.1594915,2.41859524 C88.7529646,2.5855 89.2683113,2.80692857 89.7052929,3.08264286 L88.7876077,5.00978571 C88.3723677,4.7702619 87.9098219,4.55978571 87.3999703,4.37835714" id="Fill-12" fill="#294E5F"></path>
                <mask id="mask-4" fill="white">
                    <use xlink:href="#path-3"></use>
                </mask>
                <g id="Clip-15"></g>
                <polygon id="Fill-14" fill="#294E5F" mask="url(#mask-4)" points="90.961573 9.99690476 93.4964961 9.99690476 93.4964961 2.36404762 90.961573 2.36404762"></polygon>
                <path d="M99.5929741,4.37835714 C99.0831224,4.19692857 98.6678825,4.10621429 98.347493,4.10621429 C98.0342712,4.10621429 97.8775408,4.21883333 97.8775408,4.44359524 C97.8775408,4.61788095 97.9776475,4.75216667 98.1781,4.84645238 C98.3783135,4.94097619 98.6970305,5.04621429 99.134012,5.16216667 C99.6804182,5.31478571 100.133885,5.46716667 100.494413,5.61954762 C100.85494,5.77216667 101.170074,6.01359524 101.439574,6.34359524 C101.708834,6.67407143 101.843823,7.10764286 101.843823,7.64478571 C101.843823,8.19669048 101.699756,8.65930952 101.412098,9.03311905 C101.12444,9.40716667 100.736437,9.68478571 100.248566,9.86597619 C99.7604558,10.0474048 99.2178724,10.1383571 98.6205766,10.1383571 C97.9432433,10.1383571 97.2601759,10.0276429 96.5718523,9.80621429 C95.8837676,9.58478571 95.2881443,9.28192857 94.7856992,8.89716667 L95.7253648,6.99169048 C96.1112178,7.3255 96.5955052,7.6105 97.1784658,7.84621429 C97.7609486,8.08216667 98.2490587,8.2002619 98.6423182,8.2002619 C98.8317804,8.2002619 98.9811043,8.1657381 99.09029,8.09669048 C99.1997146,8.02788095 99.2544269,7.9207381 99.2544269,7.7755 C99.2544269,7.60121429 99.1504974,7.4652619 98.9428774,7.36716667 C98.7352574,7.26930952 98.4093729,7.1657381 97.9652238,7.05692857 C97.4259852,6.91907143 96.976341,6.7757381 96.6155743,6.62669048 C96.2550467,6.47811905 95.9437361,6.24764286 95.6816428,5.9355 C95.4193105,5.62335714 95.2881443,5.20597619 95.2881443,4.68311905 C95.2881443,4.1752619 95.4228942,3.7305 95.6923941,3.34930952 C95.9618939,2.96835714 96.3441632,2.67621429 96.8396797,2.47288095 C97.3349573,2.26978571 97.9105115,2.16811905 98.5658643,2.16811905 C99.1631601,2.16811905 99.7585444,2.25145238 100.352495,2.41859524 C100.945968,2.5855 101.461315,2.80692857 101.898297,3.08264286 L100.980611,5.00978571 C100.565372,4.7702619 100.102826,4.55978571 99.5929741,4.37835714" id="Fill-16" fill="#294E5F" mask="url(#mask-4)"></path>
                <polygon id="Fill-17" fill="#294E5F" mask="url(#mask-4)" points="48.1543681 13.2524048 50.8639404 13.2524048 52.4482076 18.2609762 54.0217234 13.2524048 56.6111198 13.2524048 53.6829373 20.8852619 51.0605701 20.8852619"></polygon>
                <polygon id="Fill-18" fill="#294E5F" mask="url(#mask-4)" points="57.7579037 20.8852381 60.2928268 20.8852381 60.2928268 13.252381 57.7579037 13.252381"></polygon>
                <path d="M66.3894004,15.2666905 C65.8795487,15.0852619 65.4643087,14.9945476 65.1439193,14.9945476 C64.8306974,14.9945476 64.673967,15.1071667 64.673967,15.3319286 C64.673967,15.5064524 64.7740738,15.6407381 64.9745262,15.7350238 C65.1747398,15.8293095 65.4934568,15.9347857 65.9304383,16.0507381 C66.4768444,16.2033571 66.9303114,16.3555 67.2908391,16.508119 C67.6513668,16.6605 67.9665,16.9019286 68.2359998,17.2321667 C68.5052607,17.5626429 68.6402496,17.9962143 68.6402496,18.5333571 C68.6402496,19.0850238 68.4961818,19.5476429 68.2085242,19.9216905 C67.9208666,20.2955 67.5328633,20.573119 67.0449921,20.7545476 C66.5568821,20.9359762 66.0142986,21.0266905 65.4170029,21.0266905 C64.7396696,21.0266905 64.0566022,20.9159762 63.3682786,20.6947857 C62.6801939,20.4733571 62.0845706,20.1702619 61.5821255,19.7855 L62.5217911,17.8800238 C62.9076441,18.2140714 63.3919315,18.4988333 63.9748921,18.7345476 C64.5573749,18.9707381 65.045485,19.0885952 65.4387445,19.0885952 C65.6282067,19.0885952 65.7775306,19.0540714 65.8867163,18.9850238 C65.9961409,18.9162143 66.0508531,18.8093095 66.0508531,18.6640714 C66.0508531,18.4897857 65.9469237,18.3535952 65.7393037,18.2557381 C65.5316837,18.1576429 65.2057991,18.0543095 64.76165,17.9452619 C64.2224115,17.8076429 63.7727672,17.6640714 63.4120006,17.5152619 C63.0514729,17.3664524 62.7401624,17.1362143 62.478069,16.8238333 C62.2157368,16.5116905 62.0845706,16.0943095 62.0845706,15.5716905 C62.0845706,15.0635952 62.2193205,14.6188333 62.4888204,14.237881 C62.7583202,13.8566905 63.1405895,13.5647857 63.636106,13.3614524 C64.1313836,13.1583571 64.7069378,13.0564524 65.3622906,13.0564524 C65.9595864,13.0564524 66.5549707,13.1400238 67.1489216,13.3069286 C67.7423946,13.4740714 68.2577414,13.6952619 68.6947229,13.9712143 L67.7770378,15.8983571 C67.3617978,15.6585952 66.899252,15.4483571 66.3894004,15.2666905" id="Fill-19" fill="#294E5F" mask="url(#mask-4)"></path>
                <polygon id="Fill-20" fill="#294E5F" mask="url(#mask-4)" points="69.9513376 20.8852381 72.4862606 20.8852381 72.4862606 13.252381 69.9513376 13.252381"></polygon>
                <path d="M77.2769785,15.4354762 C77.0256364,15.5990476 76.825184,15.8221429 76.676099,16.1052381 C76.5265361,16.3883333 76.4522325,16.7078571 76.4522325,17.0633333 C76.4522325,17.4190476 76.5265361,17.7404762 76.676099,18.0271429 C76.825184,18.3138095 77.0256364,18.5404762 77.2769785,18.707381 C77.5283205,18.8745238 77.7997317,18.9578571 78.0909731,18.9578571 C78.3822145,18.9578571 78.6481305,18.8761905 78.8884823,18.7130952 C79.1290731,18.5495238 79.3182963,18.3228571 79.45663,18.032381 C79.5949637,17.7421429 79.66425,17.4190476 79.66425,17.0633333 C79.66425,16.7078571 79.5949637,16.3864286 79.45663,16.0997619 C79.3182963,15.8130952 79.1290731,15.5897619 78.8884823,15.4302381 C78.6481305,15.2707143 78.3822145,15.1907143 78.0909731,15.1907143 C77.7997317,15.1907143 77.5283205,15.2721429 77.2769785,15.4354762 M80.2214075,13.6007143 C80.8624253,13.9421429 81.3634369,14.4138095 81.7237257,15.0161905 C82.0844923,15.6190476 82.2646367,16.297619 82.2646367,17.052381 C82.2646367,17.8145238 82.0844923,18.5007143 81.7237257,19.1104762 C81.3634369,19.72 80.8624253,20.197381 80.2214075,20.5421429 C79.5806286,20.8869048 78.8593343,21.0592857 78.0582413,21.0592857 C77.2569093,21.0592857 76.535615,20.8869048 75.8948362,20.5421429 C75.2538184,20.197381 74.7532846,19.72 74.392518,19.1104762 C74.0319903,18.5007143 73.851607,17.8145238 73.851607,17.052381 C73.851607,16.2902381 74.0319903,15.6080952 74.392518,15.0054762 C74.7532846,14.4030952 75.2538184,13.9328571 75.8948362,13.5954762 C76.535615,13.2578571 77.2569093,13.0892857 78.0582413,13.0892857 C78.8593343,13.0892857 79.5806286,13.2597619 80.2214075,13.6007143" id="Fill-21" fill="#294E5F" mask="url(#mask-4)"></path>
                <polygon id="Fill-22" fill="#294E5F" mask="url(#mask-4)" points="88.7765458 13.2524048 91.0711171 13.2524048 91.0711171 20.8852619 88.9511951 20.8852619 85.9355684 16.9871667 85.9355684 20.8852619 83.6302459 20.8852619 83.6302459 13.2524048 85.7499289 13.2524048 88.7765458 17.1721667"></polygon>
            </g>
        </g>
    </g>
</svg>
